<?xml version="1.0" encoding="UTF-8"?>
<svg id="_レイヤー_1" xmlns="http://www.w3.org/2000/svg" version="1.1" viewBox="0 0 595.3 841.9">
  <!-- Generator: Adobe Illustrator 29.8.2, SVG Export Plug-In . SVG Version: 2.1.1 Build 3)  -->
  <defs>
    <style>
      .st0 {
        fill: #50b4ae;
      }

      .st0, .st1 {
        stroke: #231815;
        stroke-miterlimit: 10;
        stroke-width: .5px;
      }

      .st1 {
        fill: #fff;
      }
    </style>
  </defs>
  <rect class="st1" x="7.7" y="235.7" width="579.9" height="382.3" rx="6.8" ry="6.8"/>
  <g>
    <g>
      <rect class="st0" x="244.8" y="266.1" width="40.8" height="225.1"/>
      <path class="st0" d="M442.4,304.1c31.9.1,57.6,25.6,57.6,57.1v130h41.2v-129.3c.3-40.4-24.2-75.2-59.5-90.3-12-5.1-25.3-8-39.3-8h-1.6c-14,0-27.3,2.8-39.3,8-35.2,15.1-59.8,49.9-59.5,90.3v129.3h41.2v-130c0-31.3,25.6-56.7,57.2-57h2Z"/>
      <path class="st0" d="M150.3,266.1v155.5c0,17.8-14.6,32.2-32.6,32.2H49.5v37.4h64.4c41.1-.7,74.2-31.6,74.2-69.6v-155.5h-37.9,0Z"/>
    </g>
    <g>
      <path class="st0" d="M103.2,563.1c-2.9,7.8-10.4,13.3-19.3,13.3s-20.5-9.1-20.5-20.2,9.2-20.2,20.5-20.2,16.4,5.5,19.3,13.3h14.5c-3.3-15.4-17.1-27-33.7-27s-34.5,15.2-34.5,34,15.4,34,34.5,34,30.5-11.6,33.7-27h-14.5Z"/>
      <path class="st0" d="M157.2,522.1c-19,0-34.5,15.2-34.5,34s15.4,34,34.5,34,34.5-15.2,34.5-34-15.4-34-34.5-34ZM157.2,576.4c-11.3,0-20.5-9.1-20.5-20.2s9.2-20.2,20.5-20.2,20.5,9.1,20.5,20.2-9.2,20.2-20.5,20.2Z"/>
      <path class="st0" d="M212,590.1v-34.6c0-10.9,8.9-19.7,19.9-19.8h.7c11,0,20,8.9,20,19.8v34.6h14.3v-34.4c.1-14-8.4-26.1-20.6-31.3-4.2-1.8-8.8-2.8-13.6-2.8h-.5c-4.8,0-9.5,1-13.6,2.8-12.2,5.2-20.7,17.3-20.6,31.3v34.4h14.3,0Z"/>
      <path class="st0" d="M286.3,590.1v-34.6c0-10.9,8.9-19.7,19.9-19.8h.7c11,0,20,8.9,20,19.8v34.6h14.3v-34.4c.1-14-8.4-26.1-20.6-31.3-4.2-1.8-8.8-2.8-13.6-2.8h-.5c-4.8,0-9.5,1-13.6,2.8-12.2,5.2-20.7,17.3-20.6,31.3v34.4h14.3,0Z"/>
      <path class="st0" d="M476.9,563.1c-2.9,7.8-10.4,13.3-19.3,13.3s-20.5-9.1-20.5-20.2,9.2-20.2,20.5-20.2,16.4,5.5,19.3,13.3h14.5c-3.3-15.4-17.1-27-33.7-27s-34.5,15.2-34.5,34,15.4,34,34.5,34,30.5-11.6,33.7-27h-14.5Z"/>
      <path class="st0" d="M410.7,556.9h5.9c0-.3,0-.5,0-.8,0-18.8-15.4-34-34.5-34s-34.5,15.2-34.5,34,15.4,34,34.5,34,29.1-10.5,33.2-24.8h-15c-3.4,6.5-10.2,11-18.2,11s-20-8.6-20.4-19.4h49,0ZM382.1,535.8c8.7,0,16.2,5.5,19.1,13.1h-38.2c2.9-7.6,10.4-13.1,19.1-13.1h0Z"/>
      <path class="st0" d="M523,565.4v-18.8h22.7v-12.3h-22.9v-12.3h-12.4v12.3h-13v12.3h13v19.3h0c.2,13.4,10.6,24.2,23.3,24.2h9.5v-12.4h-9.5c-6,0-10.8-4.8-10.8-10.6v-1.7h0Z"/>
    </g>
  </g>
</svg>