<?xml version="1.0" encoding="UTF-8"?>
<svg id="logo_v2" xmlns="http://www.w3.org/2000/svg" version="1.1" viewBox="0 0 3410.6 703.5">
  <!-- Generator: Adobe Illustrator 29.8.2, SVG Export Plug-In . SVG Version: 2.1.1 Build 3)  -->
  <defs>
    <style>
      .st0 {
        fill: #0f9ed5;
      }

      .st1 {
        fill: #cc002f;
      }

      .st2 {
        fill: #ffbf00;
      }

      .st3 {
        fill: #0f172b;
      }
    </style>
  </defs>
  <g>
    <path class="st1" d="M470.5,447c34.3-1.7,60.6-31.3,60.6-65.6v-44.6l-1.1-216.4c0-7.1-5.8-12.9-12.9-12.9h-102c-7.1,0-12.9,5.8-12.9,12.9l1.1,262.8c0,36.3,30.4,65.6,67.1,63.8h0Z"/>
    <path class="st0" d="M531.2,583.3v-57c-21.6,9.7-45.6,14.6-71,13.5-84.3-3.8-149.7-75.4-149.7-159.8l-1.1-259.6c0-7.1-5.8-12.9-12.9-12.9h-84.4c-7.1,0-12.9,5.8-12.9,12.9l1.1,259.8c0,147.4,119.5,266.9,266.9,266.9h0c35.3,0,63.9-28.7,63.9-63.9h0Z"/>
    <path class="st2" d="M635.9,107.5c-7.1,0-12.9,5.8-12.9,12.9l1.1,462.9c0,4.5-.3,9-.6,13.4,67.1-48.5,110.8-127.4,110.8-216.5l-1.1-259.8c0-7.1-5.8-12.9-12.9-12.9h-84.4s0,0,0,0Z"/>
  </g>
  <g>
    <path class="st3" d="M1095.2,518.1v-81.3l-137.6-244.9c-10.1-18.6-3.2-31.9,17-31.9h13.3c14.3,0,24.4,5.8,31.3,18.6l106.8,194.4,107.8-194.4c6.9-12.8,17-18.6,31.3-18.6h12.2c20.7,0,28.7,13.8,18.6,31.9l-139.2,244.9v81.3c0,17-9.6,26.6-26.6,26.6h-8.5c-17,0-26.6-9.6-26.6-26.6h0Z"/>
    <path class="st3" d="M1628.7,240.8c17,0,26.6,9.6,26.6,26.6v250.7c0,17-9.6,26.6-26.6,26.6h-6.4c-17,0-26.6-9.6-26.6-26.6v-30.2c-13.8,35.2-48.3,62.1-99.3,62.1-83.9,0-122.7-48.3-122.7-144.5v-138.1c0-17,9.6-26.6,26.6-26.6h6.4c17,0,26.6,9.6,26.6,26.6v133.3c0,66.4,25.5,97.7,81.8,97.7s80.7-37.7,80.7-104.7v-126.4c0-17,9.6-26.6,26.6-26.6h6.4,0Z"/>
    <path class="st3" d="M1773.3,518.1V186.6c0-17,9.6-26.6,26.6-26.6h95.6c127.5,0,164.7,36.1,164.7,99.3s-22.8,79.7-71.2,88.7c56.3,7.4,83.9,34.5,83.9,90.8s-42.5,105.7-171.6,105.7h-101.5c-17,0-26.6-9.6-26.6-26.6h0ZM1896,324.7c69.6,0,99.3-15.9,99.3-58.4s-23.4-52.6-100.9-52.6h-60v111h61.6ZM1900.7,491.5c77,0,107.3-17.5,107.3-58.4s-26-59.5-106.2-59.5h-67.5v117.9h66.4,0Z"/>
    <path class="st3" d="M2500.5,513.8c7.4,18.1-.5,30.8-19.7,30.8h-10.6c-14.9,0-25-6.9-30.8-20.7l-21.8-54.7h-191.8l-21.7,54.7c-5.3,13.8-15.9,20.7-30.8,20.7h-9.6c-19.7,0-28.2-12.8-20.7-30.8l139.2-333.1c5.8-14.3,15.9-20.7,30.8-20.7h17c14.9,0,25,6.4,30.8,20.7l139.7,333.1h0ZM2397.9,419.8l-76.4-191.8-76.1,191.8h152.5Z"/>
    <path class="st3" d="M2723.7,549.9c-67.6,0-125.9-32.8-152.5-77-8.9-14.8-4.2-23.9,14.3-31.3l5.8-2.3c14-5.6,20.3-1.5,36,15.4,24.4,26.2,56.9,41.6,95.9,41.6s81.2-21.3,81.2-57.9c0-90.3-223.6-27.6-223.6-175.8s54-108.4,130.8-108.4,114.2,27.9,137.3,67.2c8.9,15.2,4.6,25.6-12.7,30.8l-8.9,2.7c-13.5,4-19.7-.6-35.2-14.9-22.4-20.6-44.7-31.1-77.4-31.1s-74.3,20.3-74.3,53.6c0,95.1,224.7,25.5,224.7,175.8s-56.6,111.6-141.3,111.6h0Z"/>
    <path class="st3" d="M2960.6,518.1V186.6c0-17,9.6-26.6,26.6-26.6h197.6c17,0,26.6,9.6,26.6,26.6v2.7c0,17-9.6,26.6-26.6,26.6h-162.6v107.3h153c17,0,26.6,9.6,26.6,26.6v.5c0,17-9.6,26-26.6,26h-153v112.6h162.6c17,0,26.6,9.6,26.6,26.6v2.7c0,17-9.6,26.6-26.6,26.6h-197.6c-17,0-26.6-9.6-26.6-26.6h0Z"/>
  </g>
</svg>