<?xml version="1.0" encoding="UTF-8"?>
<svg xmlns="http://www.w3.org/2000/svg" viewBox="0 0 510.24 170.08">
  <defs>
    <style>
      .cls-1 {
        fill: #5f525f;
      }

      .cls-2 {
        fill: #f7bd2e;
      }

      .cls-3 {
        fill: #5cba45;
      }

      .cls-4 {
        fill: #2e94d4;
      }

      .cls-5 {
        fill: #f55c4d;
      }
    </style>
  </defs>
  <g id="logo_symbol" data-name="logo symbol">
    <path class="cls-3" d="M82.91,33.41c-8.04,11.89-12.74,26.24-12.74,41.68s4.7,29.78,12.74,41.68c8.04-11.89,12.74-26.24,12.74-41.68s-4.7-29.78-12.74-41.68ZM92.7,80.89l-7.79,4.84v5.63l3.86-2.96c.88-.67,2.13-.5,2.8.37.67.88.51,2.13-.37,2.8l-6.29,4.82v8.52c0,1.11-.89,2-2,2s-2-.89-2-2v-8.52l-6.29-4.82c-.88-.67-1.04-1.93-.37-2.8.67-.88,1.93-1.04,2.8-.37l3.86,2.96v-5.63l-7.79-4.84c-.94-.58-1.23-1.82-.64-2.75.58-.94,1.82-1.23,2.75-.64l5.68,3.53v-6.09l-7.71-4.83c-.94-.59-1.22-1.82-.63-2.76.59-.94,1.82-1.22,2.76-.63l5.58,3.5v-6.28l-5.92-5.25c-.83-.73-.9-2-.17-2.82.73-.83,2-.9,2.82-.17l3.27,2.9v-11.67c0-1.1.89-2,2-2s2,.9,2,2v11.67l3.27-2.9c.82-.73,2.09-.66,2.82.17.73.83.66,2.09-.17,2.82l-5.92,5.25v6.28l5.58-3.5c.93-.59,2.17-.3,2.76.63.59.94.3,2.17-.63,2.76l-7.71,4.83v6.09l5.68-3.53c.94-.58,2.17-.29,2.75.64.58.94.29,2.17-.64,2.75Z"/>
    <path class="cls-4" d="M113.33,33.41c-8.04,11.89-12.74,26.24-12.74,41.68s4.7,29.78,12.74,41.68c8.04-11.89,12.74-26.24,12.74-41.68s-4.7-29.78-12.74-41.68ZM113.33,48.27c3.02,0,5.46,2.44,5.46,5.46s-2.44,5.46-5.46,5.46-5.46-2.45-5.46-5.46,2.45-5.46,5.46-5.46ZM113.33,70.14c-2.75,0-5.34-1.07-7.28-3.02-.78-.78-.78-2.05,0-2.83.78-.78,2.05-.78,2.83,0,2.38,2.38,6.53,2.38,8.91,0,.78-.78,2.05-.78,2.83,0,.78.78.78,2.05,0,2.83-1.95,1.94-4.53,3.01-7.28,3.01Z"/>
    <polygon class="cls-4" points="113.33 120.38 125.09 140.91 101.57 140.91 113.33 120.38"/>
    <g>
      <path class="cls-2" d="M53.75,78.99c-.09.07-.19.11-.29.16-.07.04-.13.09-.21.12-.25.1-.5.17-.76.17h0c-.26,0-.51-.07-.76-.17-.08-.03-.14-.08-.21-.12-.09-.05-.2-.09-.29-.16l-6.12-4.96-5.24,4.25c.6,14.22,5.14,27.42,12.62,38.48,7.48-11.07,12.02-24.27,12.62-38.48l-5.24-4.25-6.12,4.96ZM61.42,93.39c-.39.49-.97.74-1.55.74-.44,0-.89-.15-1.26-.45l-6.12-4.96-6.12,4.96c-.86.7-2.12.56-2.81-.29-.7-.86-.56-2.12.29-2.81l7.38-5.98c.73-.6,1.79-.6,2.52,0l7.38,5.98c.86.7.99,1.96.29,2.81Z"/>
      <path class="cls-2" d="M46.37,69.9l6.12,4.96,6.12-4.96c.73-.6,1.79-.59,2.52,0l4.03,3.27c-.37-14.7-4.96-28.36-12.67-39.76-7.7,11.4-12.29,25.05-12.67,39.76l4.03-3.27c.73-.6,1.79-.6,2.52,0ZM43.85,60.91l7.38-5.98c.73-.6,1.79-.6,2.52,0l7.38,5.98c.86.7.99,1.96.29,2.81-.39.49-.97.74-1.55.74-.44,0-.89-.15-1.26-.45l-6.12-4.96-6.12,4.96c-.86.7-2.12.56-2.81-.29-.7-.86-.56-2.12.29-2.81Z"/>
    </g>
    <path class="cls-5" d="M143.75,33.41c-8.04,11.89-12.74,26.24-12.74,41.68s4.7,29.78,12.74,41.68c8.04-11.89,12.74-26.24,12.74-41.68s-4.7-29.78-12.74-41.68ZM146.13,101.62c.19-.83.29-1.78.29-2.78,0-3.4-1.2-6.16-2.67-6.16s-2.67,2.76-2.67,6.16c0,1,.1,1.95.29,2.78.34,1.48-.87,2.04-1.5.83-1.03-1.98-1.71-4.81-1.71-8.16,0-5.65,3.59-21.34,5.6-21.34s5.6,15.69,5.6,21.34c0,3.35-.68,6.18-1.71,8.16-.63,1.2-1.84.65-1.5-.83Z"/>
  </g>
  <g id="string">
    <g>
      <path class="cls-1" d="M282.15,101.08c-7.79,4.41-13.47,4.54-16.32,3.01-2.48-1.32-3-3.86-3-5.75v-38.25h-14.19v37.72c0,12.64,8.37,18.28,20.8,18.28,4,0,9.14-1.18,14.49-3.38l12.41,1.79v-54.41h-14.19v40.99Z"/>
      <path class="cls-1" d="M340.3,60.09l-17.15,17.12V29.12l-14.19,2.05v82.55h14.19v-24.3c9.7,7.83,16.39,15.58,21.01,24.3h14.01c-4.77-11.55-11.87-21.38-22.58-30.95l22.72-22.68h-18.01Z"/>
      <path class="cls-1" d="M361.83,93.27c0,9.94,3.31,16.25,10.4,20.13,3.1,1.7,7.14,2.26,12.07,2.26,3.7,0,8.09-.78,13.12-2.91l12.11,1.74v-54.41c-26.3-6.62-47.7,4.05-47.7,33.19ZM395.34,101.06c-6.25,3.46-11.64,4.5-15.23,2.22-2.79-1.77-4.1-4.94-4.1-10,0-15.4,7.26-25.38,19.32-23.92v31.71Z"/>
      <path class="cls-1" d="M244.65,60.09h-52.65l-4.05,14.19h23.62c-10.32,11.92-18.76,25.17-24.85,39.44h49.87l4.05-14.19h-31.57c9.19-14.93,21.27-28.27,35.59-39.44Z"/>
      <path class="cls-1" d="M448.43,58.06c-4,0-9.15,1.18-14.5,3.38l-12.4-1.79v54.41h14.19v-40.99c7.79-4.41,13.47-4.54,16.32-3.01,2.48,1.33,3,3.87,3,5.76v38.24h14.19v-37.72c0-12.64-8.37-18.28-20.8-18.28Z"/>
    </g>
  </g>
</svg>
