<?xml version="1.0" encoding="UTF-8"?>
<svg id="_图层_1" xmlns="http://www.w3.org/2000/svg" version="1.1" viewBox="0 0 291.1 283.5">
  <!-- Generator: Adobe Illustrator 29.8.2, SVG Export Plug-In . SVG Version: 2.1.1 Build 3)  -->
  <defs>
    <style>
      .st0 {
        fill: #231815;
      }

      .st1 {
        fill: #fff;
      }
    </style>
  </defs>
  <path d="M142.8,5.9c7.1-.8,14.2.2,21.2,1v1.3c-1.1-.2-3.2-1.2-4.1-1.2-.6,0-1.1.8-2,.8-1.2,0-3.2-.6-4.7-.7-1.3,0-2.4,1.3-3.4-.2l-.4.9-.4-.9c-1.2,1.8-4.5-.6-4.5,1.3l-1.3-.8c0,1.5-2.1,1.2-2.6,2.1,1.2-.3,4.8.2,5.7,0,.6-.2.5-.8.7-.9,1.3-1.3.4.9,1.1,1,1-.6,2-.6,3.1-.6,1.9,0,4.6.2,6.5.4,2.9.3,5.4,1.6,8.1,1.1l-.8,1.3.8.4c-3.6,0-7.1-1-10.8-1-.6,0-.9-.4-1.2.6,3,.6,6.1.5,9.1.9,1.8.2,4.3,1.1,6,1.2.5,0,.7.1.6-.4l-3.8-2.2c1.4-2.5,3.8.9,4.1.9,8.1,0,15.7,3.7,23.1,6.7.8.3,4.3,1.2,4.5,1.3.7.5.3,1.7,2,.9l.5,1.3-13.2-4.8-15.2-4.1.3,1,15.4,4.7c1,1.8,1.7.9,3,1.3,1,.3,3.2,2.3,4.6,2.5-.3,2.8-3.6-.7-5.5,0v-1.2c-.8,1.1-3.5.5-4.1-.5-.4-.5,0-1.9-1-1l-.3,1.1c-5.7-1.8-11.6-3.3-17.5-4.2-10-1.5-20.7-1.5-30.7.3-.8.1-1.5,0-2.3,0-.1,1.3,0,.7.8.7,1.6,0,3.2-.8,4.7-.3l-.4,1.1-14.6,3.2c-1,1.7-3.3-.1-2.9,2.9l-.4-1.7c-.2-.3-5.2,1.2-5.7,1.4-.7.3-2.1,1.6-2.9,2.1-6.7,3.6-12.8,7-18.4,12.7-.7.7-1.5,2.5-2,2.9-2.6,2-1.5.5-3.8,3.7-3.9,5.6-7,10.5-8.6,17.4-.5,2.4-.6,4.6-1.2,7-9.3-.8-17.8-.5-26,4.2-2.3,1.3-5.8,3.8-6.8,6.4-.3.7.1.6.7.6,2.4,0,8.7-1.4,10.4.2.6.6,0,1.9,1.7,1.5l-1.3,1.9,1.1,1.5c1.1-.8,2.2-.7,3.6-1.3l-1.2,1.5c1.3,1.3-.6,3,1.8,3.6,1.2.3.3-1.7.6-2.1,1.6.3,1.5,0,2.5,1.3,1.7-3.4,6.4-6.4,10.2-6.6-2.7,2.6-6.6,3.7-9.8,5.8l.4,1.7c1.3-.8,2.9-.2,4.3.2-1.5,2.4-3.1,4.8-4.5,7.4-.3.5-.8.5-1.1,1.1-1.1,2.2-1.9,6.5-3.3,8.5-.9,1.3-6.9,4.3-8.4,5.5-1.6,1.2-5,6.3-6.2,7-.4.2-1.2,0-1.5.2-.5.3-.3,2.1-.6,2.4-.3.3-2,0-1.6,1.8h-.6l.2-.8c-1.7-.2-1.4,1.7-1.9,2.4-1.6,2.3-4.1,3.3-4.5,7.2,0,.6-.2,1.3.6,1.1,2.8-3,6.6-4,9.8-6.4l-.4,1.7,7-1.7c-1.7,4.6-2,9.5-3,14.2-.7,3-2,6.7-2.5,9.1-.2.9.1,2.2,0,3.1l1.3-2.5-.8,5.1-.8-.4,1.1,4.7,9.4-19.6,5.8-10.3,1.3-.3c.4,1.5-1,1.3-1.4,2.3-.4,1,.2,1.9-.2,3.1-1.2,3.5-5.2,9.2-7,13.1-1,2.2-6.5,15.6-6.2,16.8,0,.4,1.5,1.1,2,.5l-.8-1.8,1.6-2.8.6,1.3.2-1.7.8.4c-.8-1.7.4-1.3.9-2,1.9-2.9,2.6-5.8,4-8.7.3-.7.6-1.9,1.6-1.6-1.1,2.9-1.8,6-2.8,8.9-.5,1.5-2,2.9-1.1,4.7l-.8.5c2.3-.4.6,1.5,2.2,2-.9,1.8.1,1.2.4,1.8,1.5,3.4,2.8,6.9,4.7,10.1l-.8,1.5c1.9-.8,3.1,2.8,4.1,4.2.7.9,2.2,1.2,1.9,3l.8-.4c.7,1.1,1.8,2.6,2.6,3.6,3.9,4.2,10.4,10.6,14.9,13.6,2.5,1.6,12,5.6,12.9,7.5.4.8.3,1.8.7,2.7.5,1.1,1.3,1.3,1.5,1.7,1,1.8,2.5,5.4,4.2,6.7.5.4,1,0,1,0,.2.3-.1,1.5.7,2.5,3.7,4.6,19.1,14.8,24.8,17,10.8,4.2,24.7,5.3,37,4.3,1.2-1,6.1-1.4,6.6-2.3,0-.2.1-.7-.2-.6-.7.7-2.5,1-3.5,1.2-.8.1-1.6-1-1.4.6l-.8-1.3-.9,1.7.4-1.7-3,.9-.2-1.3-1.5,1.3-.3-.8c-1.3.7-2.3-.2-3.6-.4l2.7-.4.7-1.3c-.6-.6-1.5,2.3-2.3,0l-3.7.4.7-.8-.4-.8c-.2.2-.5.6-.8.7-3.1.4-4.4-1.6-6.2-2.5-.4-.2-1,0-1.5-.2-1.8-.8-4.3-1.5-5.3-3l2.6.4v-1.7c1-.5,2.3,1.9,2.6-.2l-.9-.4,1.3-1.1c-1.3.4-1.2-.9-2.1-1.1-1.3-.4-3.2,0-4.4-.7-.6-.3-.6-1-1-1.2-1.2-.7-3.9,0-3.9-2.1l4.7,1.3.2-1.3.7,1.2,2.2-.4.3.9,1.1-1.2,3.6.4v-1.3c-.3-.3-4.8-.4-5.7-.6-.3,0-3.7-1.1-3.8-1.2-.6-.4-.6-1.2-1-1.2-.3,0-.9.3-1.2.2-.8-.2-1.6-1.3-2.8-1.1,0-1.5,2-1.8,3-1.3.2-2.9-2.5-2-3.4-4,1.7.2,2.3.2,3.8-.6l-3-.4,2.1-.4-.6-1.3c-3.3-1.2-6.7-2.5-10.1-3.5-2.6-.8-15.6-3.5-16.5-5.2,0-.2,0-.7.2-.6l24.5,5.5.4-1-1.7-1.5c1.7,0,3,.9,4.3-.7l-1.5-.2c.4-2.2,3.6,0,4.5-1.7h-5.1l1.3-1.3c-7.2-1.6-14.7-.9-22-1.7-.5,0-2.3-.2-2.3-.8,9.5-1.3,19.1,1,28.6-.9l-.8-1.3c1.7.1,4.2.1,5.5-1.1l-2.5-.6c-.2-.9,2.3.1,1.7-1-.4-.8-1.8-.7-2.5-.7,1-1.2,3.3-.3,4.9-1.7l.5.9c2-.8,4.7,0,5.7-2.2l-1.9.7c-1,0-1.1-1.1-1.3-1.2-.6,0-1.9.8-3,.9-4.3.4-9,0-13.2.4-6.4.5-12.8,2-19.2,2.5-.5,0-2,.3-1.9-.4,4.6-1.4,9.9-2.7,14.8-3.4,4.3-.6,9,.3,12.3,0,.7,0,.5-.7,1.2-.9,5.2-1.6,13.4-2.3,18.8-3,.9,0,3,1,2.5-1.3l-7.5,1.3,1.7-1.3-.4-.8c.7-.4,2.6,1,3-.4h-7.9l-.2-.8c1.8-.4.4-1.7,2.8-2.1,4.4-.8,9-.7,13.4-.5,0-.5-1.7-1-2-1.1-2.8-.7-5.7-.2-8.6-.1,0-.6.8-.6,1.2-.7,2.6-.7,5.9-1.1,8.6-1,.2-2.2-3.1.1-3-2.1,1.3.6,6.5-.1,7,0,.2,0,.2.7.5.8,1.5.3,3.3.3,4.8,0l-.4,1.3c2.6-1.9,5.3,1.9,8.1,1.1-11-7.1-24-8.3-36.8-6.1-13.1,2.3-21,8.1-32.7,12.5-2.8,1-9.4,2.9-12.2,2.6-.7,0-6.3-3.2-6.6-2.8-.1.2.3,1-.3,1.3-.5.3-3.5.6-3.9.3-1.4-2.9-1.1-3.6.8-5.9-1.1,0-2.2.3-3-.6-.3-.4-3.3-6.6-3.6-7.5-.8-2.1-2-7.9-2-10,0-.4,1.7-1.6.9-3.2l4.9,6.8c1.3,0,2.8,1.9,3.4,2.1,1.1.5.2-1.4,1.1-1.3l.2,1.7,1.5-.4c-.4,1.5,2.7,2.5,4,3.1.3.2.9.7,1.2.1-2-6-6.1-10.8-8.6-16.5-1-2.2-2.6-5.5-2-7.7l-.9.2.8-1.5-1.3-.2c-.5-1.1.8-.8.9-1.1,0-1-1-2.8-.5-4.3.2-.6.8-.5.9-.9.6-1.5.4-3,1.5-4.8,2.2-3.4,4.7-5.5,7.7-8.1.9-.8,1.1-2.3,2.5-2.1.5,0,5.3,4.1,5.6,4.7.8,1.3.6,2.8,1.1,4.2,1.5.3.8-1.5,1.7-1.7l.4,4.3,1.3-.8-.2,1.7c2.3.3,1.5,2.2,2.6,3.8.2.3,3,3.1,3.4,3.4.6.4,1.1,1,1.9.9.3-.4-1.7-4.8-.2-5.5.7.3.5,1.3.8,1.6.3.3,1.1,0,1.2,0,.1,0-.4,1.2-.3,1.8.1,1,1.6,2.5,1.6,3.7.9.9,1.4-2.3,1.1-3-.2-.4-.9-.7-1.1-1.1-.3-.7.6-.9.8-.6,0,0,.2.8.6,1.3,2.2,2.3,4.2,4.2,7,5.5.5.2,3.3,1.5,3.5,1.3.2-3.7-1.2-7.3-2.5-10.7,2.2.5,4.4.3,6.6.4,5.2.4,10.6.2,15.7.9,12.2,1.7,27.1,8,36.1,16.3,8.9,8.2,14.1,17.9,19.1,29,1.2,2.7,1.1.6,1.4,4.2.1,1.7.9,3.3.4,4.9h1.7c-.4.7-.8,1-.9,1.9-.2,3,.9,7.2.9,10.2,0,1.2-.3,4.7-.7,5.8-.2.8,0,1-1,.8.4-2.3.5-4.6.4-7-.3-7.5-2.5-18.5-5.2-25.6-.5-1.3-1.3-3.2-2.5-4.2,1.7,6.8,4.3,13.4,5,20.3.2,2.2.3,1.7.6,2.6,1.2,4.7-1.6,21.7-4.4,25.8-.4.5,0,1-1.1.8l.8-6.8,1.3.8.7-2.8-1.3-2.8c-1.6,4.2-1.7,12.1-4.5,15.6-.5.6-2,.5-1.1,1.5l1.5-.2,1.2-2.3c-.4,1.7.3,1.8.8,2.7-.7.6-1,2.1-2.1,2l.2-2.1c-2,.8-1.8,3.5-4,3.8l1.3.4c.2,1.1-.7.9-1.4,1.8-.3.5-.6,1,.3.7.7-.2,2.6-2.4,3.3-3.1.3-.3.6-1.3,1.2-.5-1.2,2.3-3.3,3.5-5.3,4.9l-.8-1.3c-.4.4-.9.8-1.3,1.3-1.7,2.7.4,2,.6,2.8.3,1.4-2.6,2.5-3.8,2.3l1.3-3c-1.2-1.2-4.2,5.3-4.7,5.9-1.2-.8-1.6.6-2.9,1.1l1.1,1.5c1.8-.9,3.4-2,5-3.1,1.7-1.1,2.7-2,4.5-2.9,1-.5,3.5-.9,1.4-1.5l.5-1c1.2.8,1.4-.3,2.1-.7.5-.3,1.3,0,1.6-.3.1,0,1-2.2,1.4-2.6,1.1-1.3,2.8-2.4,3.8-3.5,2.5-2.9,4.6-6.2,6.8-9.2l-1.3-.4,2.5-.9-1.3-.6,2.1-.6c-.9-1.4.3-1.5.9-2.3.3-.4.3-1.1.5-1.4,7-7.2,12.4-13.8,17.8-22.8,1-1.7.2-.5.5-2.1.2-.8,1.5-1.8,1.8-2.5.5-1.2.2-2.3,1-3.7.6-1,2.1-1.1,1-3.3l2-.9c-.8-2.3,1.3-4.3,2-6.1.3-.7,0-1.6.3-2.2.7-1.9,1.7-3.8,2.5-5.7l-1.3-1.3c2.3-3,1.5-6.3,1.8-9.7.1-1.2,1.3-1.6,0-3.5.3-.8,1.2-.2,1.3-.2.1-.2-.3-.7-.2-1.1.7-4,.2-8.6.4-12.6,0-1.6-1.1-1.4-1.1-2.7l.6.6.7-1-4.2-9.8.8-1,.7,1.3,1.1-.8v1.3l.8-.3.3.7,1.1-.4-.8-.4v-3.4l.4,2.1h1.3c-.7-.7-.4-3,.4-2.3.5.4,0,1.4,1.3,1.1.8-2.3,1.3-4.7,1.6-7.2,1-7.7.6-14.2,0-22-.3-3.9-.2-6.2-1-10-2.9-12.9-5.2-18.8-14.3-28.3-.7-.7-2-1.2-2.7-2-.7-.8-1-2.1-1.2-2.4-.5-.5-4.1-1.3-.7-2l-1.5-3.2,11.5,11.1c0-2.1-1.5-5.7-2.6-7.6-1-1.7-4.6-3.6-1-3.7-2.4-1.3-2-2.7-2.8-4.4-1.8-3.8-3.6-7.5-5.2-11.4-.3-.8-.4-2.3-.7-2.7-.5-.6-2.2,0-1.3-1.2l1.1-.5-.9-.2c1.1-3.1-1.1-6.6-1.7-9.8-.3-2-.2-4.4-.2-6.2-.1-2.3-.3-4.5-.6-6.8,1.8,1.5,1,4.5,1.4,6.5.5,2.7,1.6,5.5,2,7.8,0,.5-.5,1.3-.3,1.4,0,.1.8.2,1.1.8,1.2,2.1,1.7,6.1,2.7,8.4,1.3,2.7,2.7,5.4,4.1,8.2.8,1.6.5,2.7,2.6,3.8l-1.3.4,13.8,25.8c1.5-1.1,1.3-2.8,1.8-4.1.3-.7,1.1-1.3,1.3-2.1.3-1.5,0-8.7.3-9.1,0-.2.6-.5.7-.4l.6,3.4,1.9-2.5c-1.5.1-1.6-4-1.6-5.2.2-4.6,4.7-9.2,8.8-10.8,3.5-1.3,7.4-2.2,8.8,2.2.6,1.9.7,7.2-.2,8.9-.4.8-1.9,2.3-2.6,2.9-1.1.9-7,4.8-7.9,4.9-.7,0-1.2-.4-1.9-.4,0,.8.4,1.5.4,2.3,0,2.9-3.1,3.3-4.4,5.5-.5.8-3,7.9-3.5,9.3-.6,1.9,1.2,7.6,1.9,9.6.3.8.2,1.8,1.3,1.5l3.7-8.1,2.8-2.8c-.5,4.9-2.4,9.1-3.7,13.8-.2.7.2,1.4.1,1.9-.2.8-1.2,1.6-1.3,3.2-.2,2.7,1.4,5.5,1,8.2l-.8-.2c.9,1.3.4,2.2.5,3.3.2,1.7,1.6,4.4-.6,5.2l.9,2.3h-1.3c-.2.7.6.2.8.6,0,0,.1,1.6,0,1.7-.1.5-1,0-.9.7l1.3.7-.8,1.1h.7c-.6,1.2.8,1,1.4,1.9-.7,1.1-1.3,0-2.1-.2-.4,2.5.2,5.7-.6,8,0,.1-.7.2-.7.4,0,1,1.2,1.6-.4,2.1l.4,1-.8.5.8.2-2.1,3.9c-.2.4.7,0,.9.5,0,.3.3,5.3.3,6,0,1-1,2.2-1,3.4,0,1.1.6,2.3.3,3.5l2.5-.9-.8-1.7.8.4.5-1.7.8.4c-.3-1.3,2.4-2.6.4-3.2l1.1-1.1c.5.6.2,1.9,1.5,1.7-.5-2.8,2.4-4.3,3.8-6.2.9-1.3,1.8-3.3,2.2-4.8l1,1.2,1.9-.8.7,1.3,1.9-.8c-1.3,2.1-2,4-4.3,4.7,0,.7,2,.5,2.2.4.5-.1.6-1.2.9-1.3.7,0,1,1.8-.2,2.3-.5.2-3.2-.4-4.1.6l.3,1.7c-1.7-.4-1.2.8-1.7,1.4-2,2.4-4.5,6.6-5.6,9.5-1.3,3.3-1.4,7.8-4.7,9.8l1.7-.2v1.3l-1.3-.4c0,1.5-1.1,3.8.8,4.5l-1.1,1.1-.2-1.3c-1.6.6.3,2.3-1.3,3.2l1.7,1.5h-1.7c-.2.1.5,3.3.4,4,0,.1-1.6,1.2-1.8,2-.3,1-.9,3-1.3,4.2-.3,1,.3,3.2-1.1,3-.2.7.6.3.8.5.8,1.1-2,2.1-2.1,3.6.9.5,1.8,1.1,1.7,2.4-1.4.3-.5-.8-1.1-1.3-.2-.2-1.3-.6-1.4-.4l.8,1.9-.8.2.8,1.5c-.5.9-1.3.2-1.6.3-1.4.5-3.8,8-5.2,9.5,0,1.8,1.6-.7,2.1-.2-.3,1.8-1.3,1-2,1.4-1.1.7-1.3,2.8-1.4,2.8-.2.1-1.3-.7-1.7.2l1.3.4-1.9,2.3-.2-.8h-.8l.2.9-1.1.7.5,1.5-2.1.4.4.8-1.2.7,1.3,1c-1.2.5-.9,1.2-2.5.4v1.7h-2.1l1.7,1.5v.8c-1.3.7-1.2,2.1-2.6,1.1.3,1.6-.8,1.6-2.1,1.7-.2.7.8.2.9.7,0,.6-.4,1.7-.9,2-.6.4-2.6,2.1-3.4,3.1-.7.8-1.7,3.4-2.2,3.8-.9.7-3,.3-4.1,1.4v.8l1.3-.2c-2.6,2.9-6.9,4.5-9.4,7.4-2.3,2.6-5.3,3.9-8.2,6-1.2.9-2.4,2.5-4.1,3.2,1.7,0,4.4-1.5,6-2.4,10.3-5.8,18.5-14.3,25.6-22.9.7-.8,4.4-1.7,4.2-3.9h1.3c-.7,1.2,0,2.2.4,3.4l-1.5-1.7-1.5,2.8.9,1.5-1.9-.8-2,3.7c-2.9.9-5.4,3.7-7.8,5.6-7,5.6-14.3,11.3-21.7,16.3-2,1.3-6.7,2.5-5.4,5-1,.3-2.5-.3-3.2-.2-.5,0-3.8,2.6-1.7,2.8l5.3-2.1c-1,1.5-3.8,1.9-5.5,2.6-.4,2,1.8-.4,1.7,1.1l-1.7,1.1c1.3,0,2.4-.2,2.1-1.7,1.9,2,3.5-.3,5-1.7,1.5-.4,1.4.8,1.7.9,1.9.5,1.2-.7,1.5-1.1.5-.6,1.9-1.2,2.5-2,1.7.5,10.5-5.4,11.1-4.9-.5,2.3-2.8,2-4,2.6-1.8,1-4.8,3.3-5.8,5.1l-.6-.8c-.4.4-.8,1-1.4,1.2-3.6,1.9-7.4,4.4-11.4,6.1-2.3,1-11,3.1-12,4.6-.3.5.4,1.3-.4,1.7l-.8-2.1c-.4,1.2-3.9,1.1-4,1.3-.7,1,1.6,1.7.8,2.5-.7.8-1.7-1.5-1.8-1.6-1-.6-4.9,1.1-6.3,1.4-1.5.3-3.5-.9-3,1.1-1-.2-2.1-.8-2.3.4l-1.9-.8c-.5,2.5-3.3,1.1-5.1,1.7l.2-1.3c1.7-1,4.1.5,4.7-1.3l1.9.9-.4-1c0-1.1,5.5-1.8,6.5-2.1,1.3-.4,3.3-.9,4.3-1.2.6-.2.6-1,.8-1.2.2-.2,3.7,1,3.3-2.2l-15.3,3.8c-.4-1.1.8-.7.9-1.1.4-1.6-1.2-2.6-2.6-1.9v-1.7h-1.7c.5,3.7-.5,2.5-2.5,4-1.4-.7-1.8,2-2.2-.1h-.8c-.2,1.1-.6,1.4-1.7,1.2l.8-1.3-1.5-.4c-1,.6-.3,1.2-.2,2.1h-1.3c.3-.5.4-2-.6-1.7-.6.2-.6,2.6-2.3,2.2v1.2c2,.3,3.6-2.1,4.6-.2l-4.1,1.5c-.7,2.4,1.2,1.2,2.6,1.3,2.9,0,1.3-.2,2.2-.4.9-.2,1.6.4,2.1.4.2,0,.2-.6.3-.7,1.5-.6,2.3,0,1.2,1.3-2.6,1.1-4.4-.6-6.9.8l-.2,1.1-1.9-.4,1.3-.8c-.8-.2-1.1.1-1.7.3-4.6,1.8-19.5-.2-25.5-.7-1.7-.1-2.1.7-4.2-.5-.6-.4.2-.8.1-1.3l-1.1,1.3c-1.6-.2-3.3-.8-4.8-1.1-1.3-.3-2.8-.8-3.9-.9-1.1-.2-2.4.3-3.5.3l.8-1.3c-3.2-.6-6.2-.9-9.3-2-.5-.2-.5-.8-.9-.9-6.7-2.7-15.8-5.3-21.9-9.1-.8-.5-1-1.2-1.8-1.7h-.7c-1.4,3-8.3-2.2-7.2-3.3,1.9.2,3.1,2.6,5.1,1.9-1.6-1.3-3.4-2.7-5.2-3.8-2.6-1.7-2.5-1.6-4.8-3.5-1.7-1.4-5.3-2.3-6.3-4.4l-1.5.8c-1-.5,0-1.2-.3-1.6,0-.1-1.7-1.7-1.8-1.8-.8-.6-1.9-.8-2.6-1.7-.4,2,3.2,2.5,3.4,4.3-1.1-.7-3-1.1-3.9-2.1-1-1.2.2-1.7-.8-2.6l-1.5.4.8-.8-.9-1.1,1-1.8.8.3v-1.2c2.3-.3,2.6-.9,2.1-3.1l-1.3.4c-.4-1.3.8-1.8.9-2,.1-2.3-2.7-3.1-.8-5.1l-.9-.5.5-1.9-2.1-.4v1.7s1.3,0,1.3,0l-.6,1.7c-.8-1.4-1.2-2.8-3.2-2.5-.6.6,2.5,3.1,2.8,3.6.2.3,0,.9.2,1,0,0,1-.5,1.2.3.3,1.2,0,2.3-1.2,2.7-.4-1.6-1.2-1.5-2.4-1.7.6-2-1.7-2.5-1.9-4.7-1-.6-.8,1-1,.8l-3-2.1-1.5.4-.2,1.7c-.9.3-.6-.8-1-1-.3-.2-.9.2-1.3,0-.7-.4-9.3-12.4-9.6-13.4-.1-.4.3-1.2.2-1.3,0,0-.8,0-1.2-.3-1.3-.9-5.8-8.2-5.2-9.1l1.3-.4-2.5-1.1c2.6-2.3,3.8,1.6,5.5,2.8l-1.7-4c.6-1,1.2-.3,2.1-.2v-1.4c-.1-.6-2.3-.2-1.7-2l-1.3.4c.9-1.5-2.8-3.5-.3-5,.5-.3,2.7-.3.4-1-.5-1.7,1.6-2.1,2.9-2v-.6c-1.2-.7-.4-2.6-.5-2.7-.2-.3-1.8-.4-1.2-2.2l-1.1,1.3c-1.8-1.5-1.3-3.4-1.9-5.3-.8-2.3-1.8-4.6-2.4-7-.6-2.2-1.1-7.8-2-9.5-.1-.2-.5-.5-.6-.4-.6,2.2,1.1,3.7.4,5.5l.8-.4-.3,2.6,5.8,17.7-.8.6-.4-.8-.4,1.5.8-.2c-.4,2.4-2,1.1-1.7-.9,0-.1-.9.4-1.3.2-1.7-.7-6.7-18.4-8.1-21.1-.9,0-.3,1.7-.2,2.2,1.4,5.7,5.2,13,6.2,18.1,0,.3.2,1-.2,1-1.9-.8-.2-2.3-2.8-1.3-.3-3.8-2.2-7.4-3.2-11.1-2.9-10.4-5.2-23.7-4.9-34.3,0-.4-.2-.9-.3-1.3l2-.6-1.3-1.5c.9-2.3.4-4.9.6-7.1.2-2.1.7-2.5.7-4.8,0-3.4.7-6.3,1.3-9.6,1.6.6,2.8.2,1.9,2.2h-1.1c.9,2.7-.3,5.6-.6,8.4-.7,7-.8,14.2-.2,21.1l1.3,3.2c.2-3,.4-7.1,0-10-.1-.9-2.3-1.1.4-2.5-1.3-1.2-.2-1.9-.2-3.1,0-1.4-.3-3.9-.1-5,0-.8,1.7-1.2-.1-1.8l4.6-18.8v-1.8c-.1,0,2.7-9.4,2.7-9.4l-.9,1.2c-.3,0-.7-.3-1,0-.5.6-2.7,7.6-3,9-.3,1-.7,5.4-1.1,5.9-.2.2-1.2.2-1.6.5-.2-.8.6-1,.7-1.5,0-.5-.3-1-.2-1.5,0-.5,1.3-3.9,0-3.3-1.4.7-.8,3-1.2,3.7-.1.2-.9.3-1.3,1-.5,1-.5,4.3-1.8,5.5l-1.9-.3c-.2-5.9,1.4-11.3,3.1-16.9.2-.7.8-1.3,1.1-1.9,1.7-5.1,2.3-9.5,5.3-14.3.3-.4.9-1.3.8,0-2.1,4.8-5.3,10.2-4.7,15.6,1.7-1.3.8-4.6,3-5.5l.4,1.9.8-.4c-.9-1.8,0-3.4,0-5.3l.4,2.6c1.1-.4,1-2,1.4-3.1.7-1.8,1.3-2.6,1.5-4.9,0-.5.4-1.5-.4-1.4l-1.7,4.3-.8-.2c1.4-4,4.5-7.4,6.3-11.2.8-1.7.6-3.9,2-5.2h.6c-.2,1.2,2,1.1,2.4.4.3-.4-.2-1.2,0-1.7.5-1.4,2.3-4.5,3.2-5.8-.4-.7-1,0-1.3.4-.8.9-2.6,5-3.2,5.3-.1,0-1.1.2-1.1-.2,1.1-2.1,2.8-3,3.4-5.3l-2.1-.2-3.6,5.3c-.4-.9.5-2.2.8-3,.9-2,3.2-5.5,4.7-7.2.3-.3,1.9-2.1,2.3-1.7l-3.4,5.3c-.4.8,0,.4.4.5,1.9.5,1-.3,1.4-1,.3-.5,1.8-.8,2-1.1.1-.2-.3-.8-.1-1.2.7-1.5,3-2.4,2.8-4.7l2.1.2c.1-2.3.8-1.4,1.7-2.2,1-.9,1.7-4.8,3-5.9.7-.7.2.8.6.6l2.3-1.7v-.8c-1.6-.2-1.2-3,.4-3l.8,1.5-.4,1.1,1.9-.5.5.9.7-2.5c.7-.1.5,1.1.4,1.5-.2,1.3-1,2.3-.9,3.6l-1.3-.8v3l-1.3-2.1-.3,1.3h-1.4c-.2,1.7,1.5.9.4,2.9l-1.3-.8-.9,1.7.8.4-2.1.7,1.3.2-.8,1.7c2,.2,1.9-1.1,2.4-1.7,2.2-2.1,5.2-4.5,5.2-7.7l1.3,1.3c-.2-1,1.4-5.4,2.6-4.7l.4,1.3,2.1-4.3-.8.4-.5-1,1.3-.2-1.3-.4.4-1.7,1.7.8c-.6-1.7,1.2-2,1.3-2.3.4-1.3-2,.4-1.3-.8.2-.4,1.4-1,1.9-1.5,8.5-8.5,19.8-14.2,30.3-19.9.5-.3.5-.9.8-1,1.7-.3,5.4,0,5.2-2.6l.6.8c1.2-.3,2.5-1.2,3.5-1.6.4-.1,1.5-.5,1.4.3-3.6,1.1-6.7,3.6-9.8,5.3-5.2,2.8-10.8,4.9-16,7.8-4.1,2.3-7.7,6.3-11.4,9.8-.3.3-1.2,0-1.5,1.2-.3,1.2,1.2.5,1.7,0,.5-.4.7-1.3.9-1.5,8.8-6.1,19-13.6,29.8-17.8,1.3-.5,2.7-.9,4-1.5,1.5.2-.4,1.9,1.9.8l-.8-1.3,4-1.7.2,1.3c.9.1,1.7,0,1.7-1.1h-.9c-.1-.3,0-.5.2-.7.2-.2,3.7-1.8,4-1.9,1.6-.5,4-.5,5.9-.9,1.7-.4,3.2-1.3,5-1.4.7,0,.7,0,.6.6l-1.3,1.1,2-.4.2-1.5c1.6-.3,3.7-1.8,5.4-1.4.7.2-.5.2,1.7.3,3.5.2,2.6-.6,5.2-1.1,4.8-1,12,.2,17-1.4l.2.7h0ZM135.1,8.5c-1.3.4-4.4.2-5.4.7-2.2,1-5.1,1.3-8,2.2-.6.2-1.2-.3-1,.7l1.1,1.1c.5-.3.4-1.1,1-1.3.4-.1,6.4-.9,6.7-.9,1.1.2,1,1.4,1.3,1.3.9-.5.1-1.5.6-1.9.4-.4,2.1-.6,2.9-.9.6-.3,1.2.2.9-1h0ZM106.5,11.1l-3.6,1.3-.4-.8c-.9,1.7-3.9.5-4,2.5.3.3,6.4-1.5,7.2-1.9.6-.3,1-.2.8-1.1h0ZM112.2,13.4c1.6-.5,3.4-.5,5-1.2l-.2-1.1c-5.2,1.7-11,2.7-16.1,4.4-1.2.4-6.4,2.2-7.1,2.7-.7.4-.9,1.1-.9,1.9-.8,0-.5-1.5-1.5-1.3-.5.1-.9,1.5-.6,1.7s1.6,0,2,1.2l1.5-.4-.8-1.7c4.5-2.7,9.6-3.5,14.6-4.8,1.5-.4,3.3-1.2,4.3-1.4h0ZM132.5,17.5c-2.6.2-6.1.4-8.5,1.5-.7.3-1.4.6-1.3,1.5,3.2-1.1,5.8-1.7,9.2-2.1.7-.1.7.2.6-.8h0ZM83.9,19.6c-4.8,1.4-9.2,4.8-13.2,7.7l2.3-.9,11-6.7h0ZM90.3,21.7l-.2-2.1-4.5,2.3,1.5,1.1c.9-1.2,1.8-2,3.2-1.3h0ZM120.6,21.3l-.2-1.3c-1.1.7-2.5.8-3.7,1.5-.6.3-1,0-.8,1.1,1.7.3,1.8-.9,2.2-1.2,0,0,2,.2,2.5-.1h0ZM76.3,27.7l-.2-.8-6.1,3.7-5.6,5.3c2.8-1.1,4.9-3.5,7.3-5.3.7-.5,4.5-2.6,4.7-2.8h0ZM53.3,37.5l-.2-1.2c-.9,1.8-.9.8-1.7.9-.8.2-.9,2.5,0,2.9l1.9-1.7-1.7,3.4,3.4-3.4-.2-.8h-1.4s0,0,0,0ZM28.9,62.2l3.3-3.8.6-1.8c-.4,1.1-2.8,2-2.9,2.2-.3.5,0,2.5-.9,3.3h0ZM23.4,76.3c0,0,1,.6,1.2-.3l6.4-13.4c-1.7,1-2.7,2.6-3.6,4.3l-1.1-.8c.5,1.5-1.2,2.5-1.5,3.4-.1.4.3,1.2.2,1.3-.1,0-.9-.2-1.3.3-.2.2-2.4,4.8-2.5,5.1,0,.8.5,1,1,.7l.2,1.6c1.1-.2.6-1.8.9-2.1h0ZM21.3,77.6c-1.1-.2-.7.2-.9.6-1,1.6-1.2,3.6-2.9,4.7.8.6,1.5.7,1.3,1.9,1.8-.5,1.7-3.1,3.8-4-1.6-.5-.6-.8-.5-1.7,0,0-1.3-.5-.8-1.5h0ZM18.4,86.4c-.4-.8,0-2.2-1.4-2-.5,1.8-1.5,3.6-2.2,5.2-.2.5-.5,1.3-.7,1.9-.5,1.2-1.6,3.5-1.7,4.7,0,1.1,1.1,4,1.6,2,.4-1.5.8-3.7.8-5.3l1.3.4c-.5-1.8,1.1-2.4,1.2-3.2.1-.8-.7-.5-.8-.9-.2-.8-.2-4.1,1.3-2.5l-.6,2.3,1.9-2.3c.1-.3-.6-.1-.7-.3h0ZM20,93.8c-1.1-.2-.7.2-1,.8-5.1,10.4-7.8,27-8.8,38.5-.2,1.8-1.3,3.9-.4,5.8l3.4-19.4-.9-.6c1.5.2.8-2.5,1.1-3.6l6.6-21.5h0ZM10.2,141.5c-1.1-1.2-.9,2.7-.8,3.2.2,2.5.5,6.4,1,8.8.2.9.1,2.5,1.1,2.9-1-5-.5-9.9-1.3-14.9h0ZM23.4,187.2c.6.1,1-.1,1.2-.7.2-.7-4.1-11.2-4.7-13-1.9-6-3.6-12.5-4.3-18.8l-1.2-3.7c-.2,4.2,1.5,8.2,1.4,12.4,1.8,8.2,4.6,16,7.5,23.9h0ZM177.3,154.7c-2.2-1.8-5.3-2.8-8.1-3,0,.6.7.6,1.2.7,2.2.9,4.6,1.7,6.9,2.2ZM204.6,184.6c-.6-3.3-2.4-7-5.1-9l5.1,9ZM26.6,182.7c-.7-1.6-1.4-3.7-2.5-5-.1,1.2.6,2.9,1.1,4.1.8,2.1,1.8,4.6,2.8,6.6.5.9,1.1,2.4,1.9,3-.7-2.5-1.8-4.9-2.7-7.3-.2-.5-.2-.7-.5-1.4h0ZM26.4,187.6c-.7-.5-3.9,4-.4,3v1.7c1.8-1-.7-2.4-.4-3.8l1.3,1.3-.4-2.1h0ZM185,191c.7.1,1.6-.2,1.9-.8,1.2-2.3-3.7-2.7-1.9.8ZM26.4,200.8c.6-2.3-2.9-3.8-3.5-5.2-.5-1.1.2-3.9-2.4-4.1,1.2,1.4,1.1,4.2,1.9,5.5.5.7,4.4,3.2,3.6,4.3l-1.7-.8c-.4,1.5.8,1.2,1.2,2,2.4,3.9,4.7,8.2,6.9,11.9,1.7,1.2,7.8,10.6,8.8,10.8.5,0,1.3-.5,1.9-.3.2-.7-.2-.9-.7-1.3-1.5-1.4-3.4-2.7-4.6-3.9-1.2-1.2-2.9-4.4-3.8-6-.7-1.1-2.9-2.5-.3-2.7l-3-.6c.9-1.8-.3-1-.8-2-1-2.1-.7-4.7-3.5-6.3l1.3-1.5-1.3.4h0ZM36.2,199.1l-1.3.2c-.4,2.7,4.1,6.9,5.5,9.2l.4-1.6c-2.7-1.5-3.5-4.5-5.5-6.7l.8-1.1h0ZM172,210.3c-3.2-2.6-7.5,2.6-4.5,5.2,3.3,2.8,7.5-2.8,4.5-5.2ZM62.6,232.8l-4.3-3.4,1.3,3,.8-.3.9,2,1.3-1.3h0ZM54.5,234.5c-1.9.9-2.1-1.3-3.4-2.1l-.4,1.7-1.3-.8c-.5,1.8,0,2.1,1.5,3l.2-1.7c.9-.1,1.7,0,1.7,1.1l-1.3,1.3c1,.2.8,1.2,1.3,1.7,11.7,10.9,27.4,19.4,42.5,25.7,1.6.7,3.9,1.2,5.6,1.8-.6-.7,0-2.1,0-2.3-.2-1.3-1.6.7-2.5-.3l.2-.8-1.1-.4-.6,1.3c-1.7-2.2-4.7-1.9-7.3-2.9-.7-.3-1.6-.7-2.3-1.2-3.3-2-7.4-4.5-11-6.2l-6.7-3.8v-.8c0,0-.7-.3-.7-.3l.4-1-2.1.4v-1.3c-1.2-.2-.6.3-1.1.8l-3.2-1.7c.2-2,2.4-1.4,3.4-.4v-2.1c-2,.8-2.2.3-3.2-1.3l-.2,1.3-1.7-.4.4-1.7h-1.3l.4,1.3c-2.8.2-3.1-2.9-4-3.7-.3-.3-3.6-1.8-3.7-2l1.3-1.9h0ZM82.2,243l-12.8-8.5c-.4,2.8,1.5,1.9,2.7,2.5.2.1.3.6.5.7,3.1,1.8,6.3,4.1,9.6,5.3ZM73.1,241c-.2-.2-4.8-3.9-5.1-4.1-.8-.4-1-.5-1.6.3l1.7,1.3-1.3.6c2.3.2,3.7,3.2,5.3,4.7l.3-1.2h1.2c0-.7-.2-1.2-.6-1.6h0ZM52.8,241.3c-1.8-.2-1.6.4-.4,1.5,3.9,3.8,8.7,6.2,12.6,9.3.3.2,3.2,3.8,3.6,3.3l.4-1.7-11.5-7.5c-.5-2.3-4.6-2.3-4.7-4.9h0ZM202.4,246.4l-1.3.3v1c-.4-.2-.8-.4-1.2-.2-1,.4-4.4,3.3-5.7,4.2-1.5,1-1.1,2.2.8,1,1.7-1.1,4.5-2.9,5.9-4.1.3-.3,2-1.7,1.5-2.1h0ZM75.4,258.3c-.9-1.5-2.6-2.6-4.1-3.3-.7-.4-.7-.8-1.4.1,1.7,1.1,3.5,3,5.5,3.2ZM105.2,256.6c-1.6.3-2.8-.7-4.1-1.2-.6-.2-.6-1-1.4,0l4.9,2.3.6-1.3h0ZM194.8,256.2c-1.2-.4-.8.8-1.2,1.1-.8.4-3.8,1.2-5.5,2.2-.7.4-2.4.9-2.2,1.9l6.6-3c.9,1.1-1.6,1.4-2,1.7l-.3,1.3c1.4-.4,3.5-.1,3.8-1.9.2-1-.4-.4-.9-.2-.5-1.8,1.8-1.3,1.7-3h0ZM123.1,260.9l-10.2-1.7c1.7,3,6.7,1.1,9.5,3l.7-1.3h0ZM178.1,260.1c-.8,0-1.6.2-2.4.2-3.8,0-8.1,2.2-12,2.7-2.6.3-5.4.6-8,.9-2.9.3-6,.1-8.9.6-.5,0-1,0-1,.7,1.3,0,2.7,0,4,0,6.1-.4,11.8-.7,17.9-1.7l10.5-3.4h0ZM185.4,260.9c-1.8.7-3.7,1-5.5,1.6-.7.2-1.1-.2-.9,1,2-.1,3.7-.6,5.5-1.5.6-.3,1.1.1.9-1h0ZM189.7,266c1.6-.5,1.9-1.3,1.7-3l-1.5,1.3-.4-.8c-1.3.8-2.2,1.3-1.9,3l1.7-1.7.4,1.3h0ZM108.2,263.9l-6.4-.4c.7,1.5-.2,1.7-.4,3l9,2.1c-.3-2.1-3.1-2.1-4.7-2.1v-1.3c1,0,2.7.3,2.6-1.3h0ZM176.9,263.5c-.7-.2-.9.5-1.5.6-.3,0-.9-.3-1-.2-.2.2-.2,1.4-.5,1.6-.5.3-1.7-.4-2.2,1.3l-1.9-.8-.4,1.3-.6-.8-.7,2.1-1.5-1.7-.6,3,6.9-2.2,1-1.2c2.2-.4-.2,1.3,1.3,1.3l4-2.3c-1.6-2.3-2.2,1.2-4.7.2.6-1,2.7-.2,2.5-2.1h0ZM187.1,264.7c-2.7.4-7.9,1-6.8,4.7l.4-2.1,1.1,1.3c2-1.2,5.8-.7,5.3-3.8h0ZM114.6,266.9c-1.6.5-2,.1-3.4-.4l-.4,2.6,2.1-.8-.8,1.7c.3.3,5.2.3,5.8,1.3l.2-.8h.8l1.1,1.3c.8-2.2,1-.2,1.4,0,1.3.7,11.3,1.6,13.5,1.7,2.6.2,5.3-.9,7.3.8.4-1.5.9-.5,1.9-.6,1.4,0,2.8-.2,4.2-.3v-1.3l-2.6.2-.6-1.9-.2,1.7c-1.5.7-3.3-.8-4-.9-.3,0-.2.8-.5.9-1.8.5-9.1-.5-11.4-.8-.2,0-1.6-2.4-2,0l-2.3-1.7c-.3.8-1.8,1.8-2.5,1.7-.2,0-.2-.7-.5-.8-1.3-.5-3.4-.7-4.8-.9l.4-1.3-3,.4.4-1.7h0ZM113.8,274.5c-.3-2,2.6-.5,2.6-1.5,0-1.3-3.6.2-4-1.1l-.6,1.3c2.1-.5.6,1.5,2.1,1.3h0ZM148.3,275c-5.8.4-11.5,0-17.3-.4-2.8-.2-5.9-.8-8.7-1.1-.8,0-1.2-.4-1.7.5l3.7,1.4c3.5.7,19.8,1.6,22.6.8.7-.2,1.2-.5,1.4-1.2Z"/>
  <path d="M160.7,79.7c2.2-1,4.2.3,5,2.4,4.2,10.5-7,22.7-16.1,26.5,6.7-5.2,12.9-11.8,13.6-20.7.3-4.1-.7-4.5-2.5-7.8l-7.5,11.9c-2.2,2.7-10.4,10.1-13.6,10.7-1,.2-.2-1.3-1.5-.9v1.6c-.2.2-1.9.6-2.4.5-.8,0-.5-.9-.8-.9-.7,0-.7.8-1.8.6-3.7-.7-8.1-6.4-8.9-9.9-1.6-6.8,1.2-11.9,3.7-18-1.2-1.2-5.1,6.1-5.4,7.2-2.1,6.3-1.2,8.9-.8,15,0,.5.5.7-.4.4-6.6-1.7-9.6-6.3-7.9-13.2l6.8,3c.6-.6-5-5.2-5.4-6.7-.5-1.7,0-3.5.3-5.2l3,1.1c-.3-3.2-3.3-5.2-3-8.7-.6-.7-.8,0-.8.6-.2,1.7.2,3.8,0,5.5-.3,2.2-1.6,8.6-2.2,10.6-.3,1.2-1.5,2.5-1.6,3.6-.2,1.6,1.4,4.2-.2,5.7-5.6-3.1-10.2-5.6-6.6-12.8l6.8,2.1c-2.8-3.3-9-6.4-4.6-11.2.7-.9,5.1.4,5-.5,0-.6-1.6-.7-2.1-.6l.4-.8c-.6-.1-1.2-.3-1.7-.7-.8-.6-.8-2.1-1.7-1.3-.4.3-2.8,4.6-2.9,5.2-.5,2.6,1.4,7.5-2.5,6.1-2.8-1-4.2-2-5.9-4.2-.3-.5-1.5-.4-1.2-1.4,1.7.4,1.1-.8,1.9-1.7,2-2.2,6.8-3.4,9.3-4.7.8-.4,1.4-1.7,2.3-1.8,2.2-.5,4.8,1.5,6.9,1.9l-3-3.6c-1.7-2.6,1.6-1.4,2.3-1.6.5-.1.5-.9,1-1.2,3.5-1.8,14.6-4,18.7-4.3,11.9-.8,34.4,6.2,27.9,22.2h0ZM148.2,82.8c-4.2,1.1-4.9,9.2.5,7.8,4.5-1.2,5-9.3-.5-7.8Z"/>
  <path d="M222.5,96.8c-.7.2-1-4.7-2.1-3.4l-1.1,4.7c-1.5-1.1-3.7-8.8-6.1-7.2-2,3.9,4.5,4.2,4.2,8.1h-1.7l1.1,2.1c-6.1,5.1-12.6,12.5-21.2,7.1-2.3-1.4-7.5-7.8-5.3-10.5,1-1.1,3,.5,3.2-.7.4-1.7-4-2.9,0-6.3,4-3.4,10.9-4.2,14.5,0l3.4,1.9c-.9-3.2-3.8-5.5-4.7-8.8-.9-3.1-.3-7.3,1.3-10.1.2-.4,2.7-3.3,2.9-3.5,2-1,3.2,1.4,5.1,1.5,0-5.5,4.9-3.2,7.7-1.1,4.1,3.2,6.3,8.3,4.8,13.4-1,3.3-2.3,4.5-4.2,6.9-1.1,1.4-2,4.2-1.9,6h0ZM219.3,87c-2.1,1.5-.6,3.9.8,5.5,1.2-1.1,2.4-4.4.6-5.3l-1.4-.2h0ZM215.2,98.5c-1.5-.9-7.6-2.6-7.3.6.3,2.7,6.5,1.6,7.3-.6Z"/>
  <path d="M227.9,105.9c.4.3,2.8,2.6,3.1,3,3.8,5-2.3,14.1-6.6,17.3-3.2,2.4-5,1.3-7.7-1.2l-2.9,2.1c-4-.6-6.5-4.8-5.7-8.5l-.8.4c-.2-.2.5-4.8.7-5.5,1-3.4,4.5-5.2,6.8-7.7,1.1-1.2,1.6-2.8,3-3.8,1.1,2.4-2.6,6.9,1.1,7.7l1.7-8.5c.8,0,.2,1,1.1,1.7,1.6,1.3,4.8,2,6.4,3.2h0Z"/>
  <path d="M245.1,89.1c6.6-1.9,2.9,6.6,1.2,9.5-4,7-13,10-19.4,4-.3-.3-.4-1.1-.8-1.6-.4-.5-1.5-.3-1-1.7l6.8-2.6-2.8-2c-2.8,1-4.3,2.4-6.2,4.6-1.1-2.3.5-2.4,1.5-3.9,2.6-3.8,5.4-11.1,9.6-13,4-1.8,10.3-.7,12.8,3l-1.7,3.6h0Z"/>
  <path d="M286.3,116.5c.3.3.2,1.3.8,1.6l-.2-1.7c1.4.1,2.3,1.3,1.7,2.5l1.2.2c-.8,1.8.9,2.5,1.2,3.9.2.8-.4,5.6-.7,6.3,0,.2-3.1,3.8-3.3,4-.8.6-5.3,2-6.2,1.7-1.2-.4-.8-1.5-1.3-1.9-.2-.2-.8,0-1.2-.4-1.2-1.3-.5-1.7-2.4-3.2-2.5-1.9-1-9,1.3-11,1.7-1.6,7.2-4.1,9.1-2h0Z"/>
  <path d="M70.7,123.2v1.7s1.3,0,1.3,0l-.4,1.5.7.7,9.4-.8c3.3,2.6,8.8.9,12.2,1.3.5,0,3.2,1.1,2.9,1.8-3.2,3.3-4.1,8.1-9.3,4.3l-2.6-3.2c-.1,2.9,2.6,4.2,3,6.8-.6.4-7-.9-7.8-1.3-1.1-.6-3.5-4.1-4.8-5l3.2,6.4c-4.5-1-9.1,1.1-10-4.9-.2-1.5.4-2.4,1-3.6l-1.3-.6,1.2-.7-.4-1c1.7-.3-.4-3.3,1.7-3.2h0Z"/>
  <path d="M215.9,3.1c1.3,1.3,2.9,6.3,2.1,8-.4.8-1.5.6-1.8,1-.8.9-.2.5-1.6,1.6-.6.5-1.1,1.4-1.8,1.6-2.9.9-7.1-.8-8.8-3.3-1.8-2.6-3.1-10.4,1.9-7.6v-2.1l2.1.8c-.2-1.3-1.3-1.6,0-2.8,1.5-1,6.8,1.8,7.9,2.9h0Z"/>
  <path d="M124.9,117c0-.5,1.2-2.7,0-3.2-1.4,8.1-2,15.9.4,23.9-2.6-1.8-3.9-5.8-4.2-8.8-.4-3.5.6-14,2.9-16.5.6-.7,1.3.4,1.3-1.3l2.4-.6.6.9c-2.7,9.5,2,17.7,3.5,26.8-1.1-.7-1.5.3-2.5.4-.5-2.3-1.7-4.5-2.4-6.7-.5-1.5-1.8-5.8-1.8-7.1,0-2.5-.1-5.2,0-7.7h0Z"/>
  <path d="M68.1,138.1c-.2,3.8,3,6.5,4.3,9.8-2.1-.6-4.7-.7-5.5,1.7h1.3c-.4,1.2.4,3.2,1.2,4.2,1.7,2.3,7.1,3.2,2.5,6.5-3.9,2.7-8.4-4.3-7.5-8.1h-1.3v-1.9l-.8.2,2.1-1.5-1.7.2c.8-1.7,0-2.3-.4-3.8l1.3.4c-1.7-2,.4-2.3.7-3.1,0-.2.1-2.7.2-3,.5-1.3,2.5-3.3,1.9-4.8-.3-.8-1.3-.4-1.2-1.1l1.7-.4v4.4c0,0,1.3.3,1.3.3h0Z"/>
  <path d="M90.7,103.2c.3-.3,5,1.4,6,1.5.7.1,3.8-.5,3.8.4-2.2,3.6.3,7,.9,10.6-2.6,1.3-7.3-.2-8.9-2.6-.3-.4-1.8-3.5-1.8-3.8v-6.2h0Z"/>
  <path d="M126.3,105.1c.1.1,1.4.3.7,1-.3.4-2.5.3-3.1.5-1,.3-1.3,1.6-3.1.8l.2,1.3-.9-1.2c-5.6.4-9.5-5.6-8.1-10.7,2.1.8,4.1,1.8,6.4,2.4,1.2.3,2.5,0,3.4.4.6.3,3.7,4.7,4.4,5.6Z"/>
  <path d="M228.9,149.2l1.7-.4c.7.6-3.2,1.3-3.3,1.4-.2.2-.3.9-.7,1.1-2.4,1.7-6.3,1.9-8.8.2-1.2-.8.7-.4.4-1-3.2-.3-4.6-3-1.8-5.1,4.6-3.4,11.4-2.2,12.5,3.8h0Z"/>
  <path d="M110.7,107.1l2.1,6.1c-2,.8-4.2,5.9-6.3,5.2-1-.3-3.9-3.2-3-4.1l1.3-.2c-2.5-1.8-4.2-4.7-3.4-7.9l9.3.9h0Z"/>
  <path d="M110.4,95.1c.4,2-.5,3.6-.4,5.8,0,1.9,1,3.8.9,5.7-3.3-1.7-6.7-1.5-8.8-5.1-1.8-3.2-1.3-5.1-1-8.5.4-.5,7.7,3.8,9.4,2.1Z"/>
  <path d="M90.7,116c-.3,3.6.2,6.8,1.3,10.2-8.5.2-10.1-4.2-11.5-11.5l10.2,1.3Z"/>
  <path d="M162.8,42.2c-2.6,2-6.2,4.7-7.1,8.1-.3,1.3,1.2,7.1,1.1,9.2,0,.9-.4,1.8-1.1,2.3l-2.3-1.5-.5-8.7c-.8.6-2.3-1.1-3.3-1.6-4.6-2.4-9.3-3.8-14.4-2.2-2.3.7-4.2,2.6-6.6,3,4.8-5.5,14-6.6,20.3-3.5,1.4.7,3.8,3.4,5,3,.6-.2,5.6-9.1,8.8-8.1h0Z"/>
  <path d="M89.5,103.2c-.7,4.1-.5,7.6.8,11.5-4.4.4-10.2-2.6-10.2-7.5,0-2.9,7-4.4,9.4-4Z"/>
  <path d="M100.6,92.1c-1.8,3.9-1.6,7-.8,11.1-6.7-.2-10.9-5.3-8.1-11.8,3.1-.3,5.7,1.9,9,.7h0Z"/>
  <path d="M105.2,120.7v1.2c-2.2.7-4.3,4.7-6.5,4.8-5.4.2-6.8-5.4-6.6-9.8,4.4,2.9,9.4.1,13.1,3.9h0Z"/>
  <path d="M78.5,153.3c1.3,1.2,5,1,5.2,3.5,0,.7-1.3,2.3-.2,3.9-.5.4-5.5-1.8-6.4-2.4-2.8-2-1.2-2.2-.5-4.9-3.5,3.9-7.2,0-7.2-4.3,1.6-.3,5.4-.6,6.8.2.7.4,1.4,3.2,2.3,3.9h0Z"/>
  <path d="M81.5,142.7c.4.5,2.1,1.7,2.8,1.9-.6,2.9-6,3-8.2,2.5-2.2-.5-5.4-5.4-5.8-7.6,1.4.8,1.8-.2,2.8-.4,1.9-.3,4.2,0,6-.8.3,0,2.1,4,2.5,4.5h0Z"/>
  <path d="M283.3,54.7l1.5,1.3c-3.8,4.2-10.9,10-16.2,5.1,3.8-3,9.7-8.7,14.7-6.4Z"/>
  <path d="M90.3,90.8c-.3,1.6-1.5,2.9-1.6,4.6,0,1.7,1.2,3.7.8,5.7-4.5-1.5-8.9.2-9-6.2,0-1.5.5-2.3.9-3.6,2.9,1,6,0,8.9-.4h0Z"/>
  <path d="M91.6,77.2c1.8,2.5-1,5.2-1.2,7.9-.2,1.8.7,3.5.4,5.3-.6.1-.3-.5-.8-.8-1.9-1.1-4.7-.8-6.8-.9-.7-1.6-.8-4.7.3-6.1.8-1,2.4-1.1,3.4-1.7.8-.5,4.3-3.9,4.7-3.6Z"/>
  <path d="M101.8,81.4c0,1.5-1.4,2.2-1.7,3.6-.3,2.1.5,4.2,0,6.2-5.7-1.5-9.9-4.4-6.5-10.7l8.2.9h0Z"/>
  <path d="M81.4,124.5h-6.2c-1.5,0-2.8-2.3-2.5-3.7.2-.8,2.4-5.8,2.8-6,.2-.1.8.4,1.2.2.3-.2.9-1.8,2.3-1.4,1.8,1.4.6,3.4.7,4.8.1,2.2,1.5,4.1,1.7,6.2h0Z"/>
  <path d="M83.9,169.2c-.8.1-4.6-.7-4.7-1.5,1-1.6,1.8-3.4,1.7-5.3-1.7,1-2.1,2.8-2.6,4.7-2.9-.3-8.3-2.3-5.9-6.1,2.4-3.8,7.5,2.2,10.6,1.2l.8,7.1h0Z"/>
  <path d="M73.1,115.4c-3.2,3.5-3.2,4.5-5.7,8.2-1.8,2.8-4.4,5.1-6.3,7.8-2.8,3.7-5.1,7.8-7.9,11.5,1.7-5.1,4.9-9.7,7.7-14.3,2.2-3.7,4.3-8.6,7.6-11.5,1.8-1.6,4.9-1.4,5.1-4.9l1.3,1.1c-1.3.4-1.4,1.7-1.8,2.2h0ZM63.5,125.8c.4.5,2.7-2,3-2.3.7-.8,1.7-2.6,2.1-3.6-1.4,1.3-3,3-4.3,4.5-.4.5-1,.7-.8,1.5h0Z"/>
  <path d="M112.9,28.2c-.6,1.5-2.4,1.5-3.6,2.2-9.8,6.1-20.7,17.2-25.4,27.9-1.2,2.8-1.8,5.6-2.6,8.5-.2.6,0,1.3-.8,1.5.3-1.5.3-3.3.6-4.7,3.5-14.1,15.5-26.7,27.7-33.7,1.6-.9,1.6-2.3,4.1-1.7h0Z"/>
  <path d="M218.6,13.7c-.7,2.3,0,1.3.8,2.4,2.5,3.3,4.3,8.7,8.2,10.2l3.4,4.9c-.4.4-6.5-3.1-5.6-5.1h-1.7c.2-2.2-1.2-2-2.6-3.2-2.5-2.1-2.2-1.7-4.8-3.3-2.2-1.3-2.1-2.3.6-2.5-.5-1.6-.7-3.5,1.7-3.4Z"/>
  <path d="M79.6,90.3c-.1,0-2.1-.2-2,1.2l1.7-.2c-.3,2.8-.9,5.4.4,8.1-1.4-.5-2.7-1.2-4.2-1.6-2-.6-5.8.1-4.4-3.3,1.3-3.2,6.5-3.3,6.4-3.8l-1.2-.7c-.9-1.5,4.1-4.9,4.8-6.3l-.7,4.9c0,.4-.7,1.7-.9,1.8h0Z"/>
  <path d="M117.6,134.3c-2.5-7-.2-17.7,5.5-22.6.2,2-1.3,3.4-1.9,5.1-2,5.7-2.1,10.2-2.8,16,0,.6,0,1.3-.9,1.5h0Z"/>
  <path d="M256.9,42.3c1.3,1.1,3.2,12.1,2.7,12.7-1.5.3-2.8-2-3.5-3.1-1.7-2.9-2.5-6.3-1.5-9.6.3-.4,2-.3,2.4,0h0Z"/>
  <path d="M83.9,75.5c.1,1.1-1.1,1.5-1.9,1.7-2.2.4-5.2-.4-7.8-.2-4,.3-8,1.7-12,1.9,0-.6.8-.8,1.3-1.1,3.5-1.9,14.7-3.8,18.5-3,.7.2,1.3.7,2,.7h0Z"/>
  <path d="M89.9,138.6c.2.2-2.2,5.8-2.8,5.9-2.2.5-6.5-3.7-7-5.9h9.8Z"/>
  <path d="M66.5,161.9c.2.1,4,0,3.3,2.2-.9.8-2.5-.8-3-.4-.8.7,1.3,1,1.3,1.9,0,1.2-2.2,2.3-.9,4.1-2.1.8-2.3-.1-3.8-1.6l.8-2.1c-1.7-.6-.8-2.7-.8-4,1.4-.2,1.2,2.5,3,1.5-1.5-1.7-3.5-2.1-3-4.9.9.4,2.7,3.1,3,3.3h0Z"/>
  <path d="M76.7,168.4l-1.5,4.7c-1.2-.4-3.8-.5-4.7-1.4-.5-.5-1.5-3.6-1.3-4.3.7-2.9,5.9.8,7.6,1h0Z"/>
  <path d="M81.7,170.3c.1,0,0,.6.4.7.5,0,1.5-.7,2.2.1l.5,3.3c-3.8,2.1-10.4-.8-7-5.5,1.3.6,2.6.9,3.9,1.4Z"/>
  <path d="M260.4,48.6c-.6,0-.7-1.5-.8-2-.3-2-1-7.7.2-9.1,1.7-2.1,4,2.6,4,4.1,0,2.2-3.1,4.8-3.4,7h0Z"/>
  <path d="M80,176.6v4.6c-4.7,1-7.4-.7-5.9-5.8,2.4-1,3.8,1,5.9,1.2h0Z"/>
  <path d="M257.3,196.4c-.1.2-.9.4-1.3,1-1.1,1.8-1.5,3.8-2.9,5.6-.3.4-.7,1.2-1.2.5,1.3-2.9,4.4-5.9,3.8-9.2h1.3l-.4-1.5c2.1-1.1,1.7-3.9,2.4-5.8,1.7-4.7,3.3-8.6,4.8-13.5.1-.5-.3-1-.2-1.3,0-.1,1.3-1.4,1.6-1.8-.1,2.5-1.2,4.8-1.9,7.2-1.6,5.4-3.6,10.5-5.5,15.9-.3.9-.1,2.3-.4,2.8h0Z"/>
  <path d="M285.5,171.4c.9-.2,1.8.2,2.6.6,5.1,2.9-3.4,9.3-5.4,2.9.6-1.2,1.3-3.2,2.8-3.5h0Z"/>
  <path d="M85.6,183.3l.4,5.1-5.6-.2c-.5-.4-1.6-5-1.3-5.3l6.4.4h0Z"/>
  <path d="M89,181.6c-1.7-.6-4.4,0-6-.5-.3-.1-.6-1.2-1.6-.8.5-1.1-.9-2.4.4-3.2,1-.5,3.1,0,4.1-1.4,1.8,1.4,3,3.6,3.2,5.9h0Z"/>
  <path d="M85.6,146.2c-1.1,2.4,0,5.6-2.4,7.2-1.3.3-5-2.6-6.1-3.6,1.9-1,3.8-.8,5.8-1.8,1-.6,1.5-1.7,2.7-1.8h0Z"/>
  <path d="M132.1,221.3c0,.8-.9.4-1.4.3-1.9-.2-5.2-1.2-7.2-1.8-7.2-2.3-13.4-6.3-18.3-12.2,1.3.5,2.7,1.6,3.8,2.4,1.4,1,2.6,2.3,4,3.3,5.9,4,12,6.8,19.1,8h0Z"/>
  <path d="M95.4,195.7l-4.7-.2-2.1-4.5c1.2,0,3.7-1.3,4.7-.7.6.4,2.5,5,2.1,5.3h0Z"/>
  <path d="M97.5,197c.2,1.1,1.2,4.5-.2,5-2.9.9-4.9-1.5-5.7-4-.3-.9.2-.5.6-.6.9-.2,4.9-.7,5.3-.4h0Z"/>
  <path d="M86.9,190.1l.8,5.1-3.8.2c-1.6-1.2-2.3-3.1-3-4.9l6-.4h0Z"/>
  <path d="M101.8,194.3l-4.2.7-2.1-4.5c3.6-.2,6.9-1.5,6.3,3.8Z"/>
  <path d="M80.9,78c-3.7,2.9-9.1,3.1-13.5,4.6-1.5.5-2.8,1.5-4.3,1.8,4.7-4.2,11.7-6.1,17.9-6.4h0Z"/>
  <path d="M72.8,180.3c-4.8-1.6-4.8-2.9-5.1-7.7l4.9,2.5c-.2,2.1-.7,2.8.2,5.1h0Z"/>
  <path d="M77.5,183.4c.1.7,0,1.5.1,2.2.2.6,1.6,2.6.2,2.4-3.2-.4-5.3-2-6.2-5.1l5.9.5h0Z"/>
  <path d="M92,188.4l-3.8.4-1.3-5.1,4.2.2c1.2,1.2.8,3,.9,4.5Z"/>
  <path d="M138.7,2.4c.3.3.9,0,.7.8-.6,1.2-7,.5-8.7.7-3.3.2-7.2,1-10.5,1.7-.4-1.1,1.8-1.5,2.4-1.6,4.6-1,10-1,14.8-1.6.4,0,.6-.4.9-.6.3-.1.1.4.4.7h0Z"/>
  <path d="M5.1,85.7l-.9-1.7c.5,0,.9.1,1.3-.3,2.6-2.9,4.8-10.8,6.8-14.4.9-1.7,3-3.8,4.2-5.4l-11.5,21.7h0Z"/>
  <path d="M103.7,198.9c0,.1.7.2.7.4,0,.7-.5,1.5-.5,2.3l-1.7-1.3.6,2.1c-2.7-1-3.2-3.3-4.5-5.5l4.3-.7c.6.8.6,1.8,1,2.7Z"/>
  <path d="M45.9,21.4c5.3-1.6,2.8,7.2-.5,5.1-1.7-1.1-1-4.6.5-5.1Z"/>
  <path d="M75.8,100.2l-9.8,4.3c.2-1.4,0-3,1.3-4.1,2.8,1,5.4-.8,8.5-.2h0Z"/>
  <path d="M118.9,113.4l-5.8,12.4c-.9-.6-.4-1-.4-1.6.2-3.5,1.1-5.3,3.2-8l3-2.8h0Z"/>
  <path d="M64.9,117.4c-1.1.8-2.1,2.4-3.6,1.7l11.9-10.9c-1.3,4.3-5,6.7-8.3,9.1Z"/>
  <path d="M119.7,108.3c.1.8-.7.2-1.1.5-.5.4-2.7,3.3-2.9,3.3l-3.6-4c.3-.7,1.2.2,1.5.2h6.2Z"/>
  <path d="M233.1,234.9l-1.8,3.3c-3.2,1.1-4.3,5.3-8,5.7l9.8-9h0Z"/>
  <path d="M89.9,200.8c-2-.6-4.1-.8-5.1-2.8.6-1,1.1-.1,1.8-.3.7-.2,1-1.1,2-.6,1.1.6,1.4,2.5,1.3,3.7h0Z"/>
  <path d="M195.2,27.3c0,.8-.9.3-1.3.2-2.1-.5-6.1-1.8-8.1-2.6-.8-.3-1.8-.7-2.1-1.5,3.9,0,7.6,2.8,11.5,3.8Z"/>
  <path d="M240.4,237l-1.7-.4c.8,3-2.5,3-4.7,3.4-.2-1.7,2.3-.5,1.7-2.6l1.7.4-.4-1.3,2.4-1.2,1,1.7h0Z"/>
  <path d="M246.2,230.5c-.6.6-1.6,1.1-2.2,1.8l-1-.8c1.7.4,1.1-.8,1.5-1.2.5-.5,1.1-.7,1.5-1.1,1.2-1.3,1.7-3.2,3.8-4.1.3.4-3,4.9-3.6,5.4h0Z"/>
  <path d="M79.2,190.1l-.2,3.8-3.6-2.8c-.5-1.2,3.3-1.1,3.8-1.1Z"/>
  <path d="M280.9,104.9c-1.1.2-.7-.3-1.1-.8-.8-1.3-1.2-2.9-2.3-4.1l.8-1.4c1-.6,2.9,5.5,2.5,6.4Z"/>
  <path d="M188.6,118.5c1.1-.3,3.1,1.4,1.7,3-2.1,2.3-3.9-2.3-1.7-3Z"/>
  <path d="M59.2,255.4c-1.4-1-2.6-.6-3.4-2.3l1.3-.2-.4-1.7c2.5-.6,2.7,2.5,2.5,4.3Z"/>
  <path d="M201.3,26.7c1.6,1,4.9,2.2,6.2,3.4.5.5.7.3.5,1.4l-8-4.7v-1.2c1-.3.9.8,1.4,1.1h0Z"/>
  <path d="M135.1,280.5l-.2-.8c.7,0,1.5-.1,2.1,0,.3,0,.5,2.2,1.3,0,.2.2.5.7.8.7.2,0,2.3-1.4,1.9.3-.2.8-4.9.4-5.8.9-1.2,0-.8-1.4-2.1-1.1-.1,0-1,1.9-1.9,1.1l.4-.7-1.3-.4c1-1.5,3.3-.6,4.7,0h0Z"/>
  <path d="M263.2,204.2l1.1,1c0,1-2.2,4.3-3.2,4.1-.5,0-.7-.7-.4-1.3.5-1,2-2.6,2.6-3.8h0Z"/>
  <path d="M182.8,23c.1.7-1,.5-1.5.4-1.6-.1-4.7-.6-6.2-1-.7-.2-1.8-.4-1.7-1.5l9.4,2.1Z"/>
  <path d="M79.2,71.2v.7c1.6-.8,2.5.8,2.9.9.9.2,3.3-.3,3.1,1.3-.3.3-7.9-1.6-8.5-1.9-.2,0-.5-.5-.4-.6l2.6.4-.2-.8h.6Z"/>
  <path d="M78.3,110.3c0,.1-.7.1-.9.6-.3.8.3,1.9-1.1,2.5l-1.2-2.9,2.5-3c.8.1,1,2.5.7,2.9h0Z"/>
  <path d="M53.6,18c.7,1.2-1.1,3.7-2.3,3.3-1.4-.4-.3-3.4.9-3.8.3,0,1.3.3,1.4.4h0Z"/>
  <path d="M146.6,16.6c-.5,2.3-4.6,1.2-6.4,1.7l.3-1.3,6.1-.4Z"/>
  <path d="M168.8,19.2l-.7,1.2c-2-.3-4,.5-5.2-1.7,2-.7,4,.4,6,.4h0Z"/>
  <path d="M148.6,280.6c.3.3,0,1.7,1.4,1.6,0,2.5-3.5.5-2.9-.4.1-.2,1.2.2.8-.9h-1.9l.2.8c-1.4,0-1.5-1-.6-1.7.3,0,2.9.4,3,.5Z"/>
  <path d="M17.4,212.3l-2.5-1.9.8-.2c.2-.7-.6-.3-.7-.5-.1-.2-.9-3.4,0-3.3l2.3,6h0Z"/>
  <path d="M114.5,278.1c.2.1.2.5.1.7,1-.8,1.3-.9,2.4,0l-.2,1.3-3.8-.5.2-1.7c.4-.6,1-.2,1.4.2h0Z"/>
  <path d="M249.3,124.5l1.3-.8c-1.4-1.1-1.1-1.1-1.2-2.9,0-.6-.6-1.1.5-1,1.2.5,2.5,6.6-.6,4.7h0Z"/>
  <path d="M214.8,216.6c.2.2-1.5,6-1.9,6-1.5-1.2.2-.7.2-1.1,0-.7-.6-1.3-.4-2.4.1-.5,1-1.3.8-2.2-.1-.5,1.2-.3,1.3-.3h0Z"/>
  <path d="M251.9,232.8l.2,1.3.9-.8,1,.9-.2.8-1.5.2.4,1.9-1.9-2.8c.2-.8-.1-1.8,1.1-1.5h0Z"/>
  <path d="M166.6,276.7l.4,1.7-1.2-.4-.7,1.2-1.1-.8c-.2,2.1-1,.2-1.7-.6l2.5-.6.4,1.3,1.3-1.7h0Z"/>
  <path d="M235.8,133.3c-1.4-1.3,1.4-2.9,2.3-1.6,1,1.5-.8,3-2.3,1.6Z"/>
  <path d="M36.2,44.3c.4,1.8-1.2,1.5-1.8,2.1-.8.7-1.1,1.9-2.4,2.2l2.2-3.7,2-.5h0Z"/>
  <path d="M147,232.8c1.6,1.4-4,.6-4.5.4-.6-.2-1.3,0-1.5-.9l6,.4Z"/>
  <path d="M73.3,105.7l-7.7,4.2c1.9-2,5-3.6,7.7-4.2Z"/>
  <path d="M257,215.3c-.2-1.8,1.6-3.7,3-4.7,0,2-1.4,3.7-3,4.7Z"/>
  <path d="M171.3,8.1c0,.8.2.9-.6.9-1.1,0-4.3-.4-5.3-.7-.8-.2-1-.1-.8-1.1,2.4.3,4.3,1.3,6.8.8h0Z"/>
  <path d="M105.2,8.1c0,.5-1.3.9-1.7,1.1-1.5.4-3.6.8-5.1,1.1,1.6-2.1,4.5-1.4,6.8-2.1h0Z"/>
  <path d="M130,279.7c0,2.7-1,1-1.5,1-.3,0-.6.5-.8.5-3-.1-.2-3.1,2.3-1.5Z"/>
  <path d="M223.2,40.6c.3.3.9,1.7.3,2l-4-3.8,3.7,1.8h0Z"/>
  <path d="M231,243.4c-.3-.8,1.4-1.5,1.9-1.7.9-.3,1.9,0,2.8-.8.2,2.7-1.9,1.5-3.1,1.8s-.8,1-1.6.8h0Z"/>
  <path d="M249.7,209.7c-.3.2-1.5.3-1.2-.6l3-4.1c0,.7-1.6,4.5-1.8,4.6h0Z"/>
  <path d="M224.6,249.4c-1.6.3-1.8,2.4-3.8,2.1,1.1-1.3,2-4.5,3.8-2.1Z"/>
  <path d="M220.3,265.2c.7.7-3.3,3.4-4.3,3,0-.9,4-3.2,4.3-3Z"/>
  <path class="st0" d="M54.5,234.5l-1.3,1.9c0,.2,3.4,1.7,3.7,2,.8.8,1.2,3.9,4,3.7l-.4-1.3h1.3l-.4,1.7,1.7.4.2-1.3c1,1.6,1.2,2,3.2,1.3v2.1c-1-1-3.2-1.6-3.4.4l3.2,1.7c.4-.6,0-1.1,1.1-.8v1.3l2.1-.4-.4,1,.7.3v.8c0,0,6.6,3.8,6.6,3.8,3.6,1.7,7.7,4.2,11,6.2.7.4,1.5.9,2.3,1.2,2.6,1,5.6.7,7.3,2.9l.6-1.3,1.1.4-.2.8c.8.9,2.2-1,2.5.3,0,.2-.6,1.6,0,2.3-1.7-.7-4.1-1.2-5.6-1.8-15.1-6.3-30.9-14.8-42.5-25.7-.5-.5-.3-1.5-1.3-1.7l1.3-1.3c0-1-.8-1.2-1.7-1.1l-.2,1.7c-1.6-.9-2-1.1-1.5-3l1.3.8.4-1.7c1.3.8,1.5,3.1,3.4,2.1h0Z"/>
  <path class="st1" d="M114.6,266.9l-.4,1.7,3-.4-.4,1.3c1.4.2,3.5.4,4.8.9.4.1.3.8.5.8.8,0,2.3-.9,2.5-1.7l2.3,1.7c.4-2.4,1.8,0,2,0,2.2.3,9.6,1.3,11.4.8.3,0,.2-.9.5-.9.7,0,2.5,1.6,4,.9l.2-1.7.6,1.9,2.6-.2v1.3c-1.4.1-2.8.2-4.2.3-1,0-1.5-.9-1.9.6-2-1.8-4.7-.6-7.3-.8-2.2-.2-12.3-1-13.5-1.7-.4-.2-.6-2.2-1.4,0l-1.1-1.3h-.8l-.2.8c-.5-1-5.4-1-5.8-1.3l.8-1.7-2.1.8.4-2.6c1.4.5,1.8,1,3.4.4h0Z"/>
  <path class="st1" d="M26.4,200.8l1.3-.4-1.3,1.5c2.8,1.6,2.5,4.3,3.5,6.3.5,1,1.7.2.8,2l3,.6c-2.6.2-.4,1.6.3,2.7,1,1.7,2.6,4.8,3.8,6,1.2,1.2,3.2,2.4,4.6,3.9.4.4.8.5.7,1.3-.6-.1-1.4.4-1.9.3-1-.2-7.1-9.5-8.8-10.8-2.1-3.7-4.5-8-6.9-11.9-.5-.8-1.7-.5-1.2-2l1.7.8c.8-1.1-3.1-3.6-3.6-4.3-.9-1.3-.7-4.2-1.9-5.5,2.6.2,1.9,3.1,2.4,4.1.7,1.4,4.1,3,3.5,5.2h0Z"/>
  <path class="st1" d="M20,93.8l-6.6,21.5c-.3,1.1.4,3.8-1.1,3.6l.9.6-3.4,19.4c-.9-1.9.2-4,.4-5.8,1-11.5,3.7-28.2,8.8-38.5.3-.6,0-1.1,1-.8h0Z"/>
  <path class="st1" d="M23.4,187.2c-2.9-7.8-5.7-15.7-7.5-23.9.1-4.1-1.6-8.1-1.4-12.4l1.2,3.7c.7,6.3,2.3,12.8,4.3,18.8.6,1.8,4.9,12.4,4.7,13-.2.6-.6.8-1.2.7h0Z"/>
  <path class="st1" d="M178.1,260.1l-10.5,3.4c-6.1,1-11.8,1.4-17.9,1.7-1.3,0-2.7,0-4,0,0-.7.6-.6,1-.7,2.9-.5,6-.3,8.9-.6,2.6-.3,5.4-.6,8-.9,4-.5,8.2-2.7,12-2.7.8,0,1.6-.3,2.4-.2h0Z"/>
  <path class="st1" d="M23.4,76.3c-.2.3.3,1.9-.9,2.1l-.2-1.6c-.5.3-1.1,0-1-.7,0-.3,2.3-4.9,2.5-5.1.4-.5,1.2-.2,1.3-.3.1,0-.3-.8-.2-1.3.3-.9,1.9-1.9,1.5-3.4l1.1.8c.9-1.7,2-3.2,3.6-4.3l-6.4,13.4c-.2.8-1.2.2-1.2.3h0Z"/>
  <path class="st1" d="M148.3,275c-.2.7-.7,1-1.4,1.2-2.8.7-19.1-.2-22.6-.8l-3.7-1.4c.6-.9,1-.6,1.7-.5,2.8.3,6,.9,8.7,1.1,5.7.5,11.5.9,17.3.4Z"/>
  <path class="st1" d="M172,210.3c3,2.4-1.2,8-4.5,5.2-3-2.5,1.3-7.8,4.5-5.2Z"/>
  <path class="st1" d="M112.2,13.4c-1,.3-2.8,1-4.3,1.4-5,1.4-10.1,2.1-14.6,4.8l.8,1.7-1.5.4c-.4-1.3-1.9-1.2-2-1.2-.2-.2.1-1.6.6-1.7,1-.2.7,1.3,1.5,1.3,0-.8.1-1.5.9-1.9.7-.4,6-2.3,7.1-2.7,5.1-1.6,10.9-2.7,16.1-4.4l.2,1.1c-1.6.8-3.4.8-5,1.2h0Z"/>
  <path class="st1" d="M18.4,86.4c.1.2.8,0,.7.3l-1.9,2.3.6-2.3c-1.4-1.6-1.5,1.7-1.3,2.5,0,.4,1,0,.8.9-.2.8-1.7,1.5-1.2,3.2l-1.3-.4c0,1.6-.4,3.8-.8,5.3-.5,2-1.7-1-1.6-2,0-1.1,1.2-3.4,1.7-4.7.2-.6.5-1.4.7-1.9.7-1.7,1.8-3.4,2.2-5.2,1.5-.2,1,1.2,1.4,2h0Z"/>
  <path class="st1" d="M176.9,263.5c.2,2-2,1.1-2.5,2.1,2.5,1,3.1-2.5,4.7-.2l-4,2.3c-1.5,0,1-1.7-1.3-1.3l-1,1.2-6.9,2.2.6-3,1.5,1.7.7-2.1.6.8.4-1.3,1.9.8c.5-1.7,1.7-.9,2.2-1.3.3-.2.3-1.5.5-1.6.2-.1.8.3,1,.2.6-.2.8-.8,1.5-.6h0Z"/>
  <path class="st1" d="M108.2,263.9c.1,1.5-1.5,1.3-2.6,1.3v1.3c1.6,0,4.4,0,4.7,2.1l-9-2.1c.3-1.3,1.2-1.5.4-3l6.4.4h0Z"/>
  <path class="st1" d="M52.8,241.3c0,2.6,4.2,2.6,4.7,4.9l11.5,7.5-.4,1.7c-.4.5-3.3-3.1-3.6-3.3-3.9-3.1-8.7-5.5-12.6-9.3-1.2-1.1-1.4-1.7.4-1.5h0Z"/>
  <path class="st1" d="M135.1,8.5c.2,1.2-.3.7-.9,1-.8.4-2.5.5-2.9.9-.5.5.2,1.5-.6,1.9-.3.1-.1-1.2-1.3-1.3-.3,0-6.3.8-6.7.9-.5.2-.5,1-1,1.3l-1.1-1.1c-.2-1,.5-.5,1-.7,2.9-.9,5.9-1.2,8-2.2,1-.5,4.1-.3,5.4-.7h0Z"/>
  <path class="st0" d="M73.1,241c.4.4.6,1,.6,1.6h-1.2c0,0-.3,1.3-.3,1.3-1.6-1.5-3-4.5-5.3-4.7l1.3-.6-1.7-1.3c.6-.8.8-.7,1.6-.3.3.1,4.9,3.8,5.1,4.1h0Z"/>
  <path class="st1" d="M187.1,264.7c.5,3.1-3.3,2.6-5.3,3.8l-1.1-1.3-.4,2.1c-1.1-3.7,4.2-4.3,6.8-4.7h0Z"/>
  <path class="st1" d="M21.3,77.6c-.5,1,.8,1.4.8,1.5,0,.9-1.1,1.3.5,1.7-2.1,1-2,3.5-3.8,4,.2-1.2-.4-1.3-1.3-1.9,1.8-1.2,2-3.1,2.9-4.7.2-.4-.2-.8.9-.6h0Z"/>
  <path class="st1" d="M194.8,256.2c0,1.7-2.2,1.2-1.7,3,.4-.2,1.1-.8.9.2-.4,1.8-2.5,1.5-3.8,1.9l.3-1.3c.5-.3,3-.6,2-1.7l-6.6,3c-.2-1,1.5-1.5,2.2-1.9,1.8-1,4.8-1.7,5.5-2.2.4-.2,0-1.5,1.2-1.1h0Z"/>
  <path class="st1" d="M10.2,141.5c.8,5,.3,9.9,1.3,14.9-1-.4-1-2-1.1-2.9-.5-2.5-.8-6.3-1-8.8,0-.5-.3-4.4.8-3.2h0Z"/>
  <path class="st1" d="M202.4,246.4c.5.4-1.2,1.8-1.5,2.1-1.3,1.2-4.3,3-5.9,4.1-1.9,1.2-2.3,0-.8-1,1.2-.8,4.6-3.8,5.7-4.2.5-.2.8,0,1.2.2v-1l1.3-.3h0Z"/>
  <path class="st0" d="M82.2,243c-3.4-1.2-6.5-3.5-9.6-5.3-.2-.1-.3-.6-.5-.7-1.2-.6-3.1.3-2.7-2.5l12.8,8.5Z"/>
  <path class="st1" d="M26.6,182.7c.3.6.3.8.5,1.4,1,2.4,2.1,4.8,2.7,7.3-.8-.6-1.5-2-1.9-3-1-2-2-4.5-2.8-6.6-.4-1.2-1.2-2.8-1.1-4.1,1.1,1.2,1.8,3.3,2.5,5h0Z"/>
  <path class="st1" d="M76.3,27.7c-.2.2-4,2.3-4.7,2.8-2.4,1.8-4.5,4.2-7.3,5.3l5.6-5.3,6.1-3.7.2.8h0Z"/>
  <path class="st1" d="M123.1,260.9l-.7,1.3c-2.9-1.9-7.8,0-9.5-3l10.2,1.7h0Z"/>
  <path class="st1" d="M83.9,19.6l-11,6.7-2.3.9c4-2.9,8.4-6.2,13.2-7.7h0Z"/>
  <path class="st1" d="M53.3,37.5h1.4s.2.9.2.9l-3.4,3.4,1.7-3.4-1.9,1.7c-.8-.3-.8-2.7,0-2.9.7-.1.8.9,1.7-.9l.2,1.2h0Z"/>
  <path class="st1" d="M132.5,17.5c0,1.1,0,.7-.6.8-3.3.5-6,1-9.2,2.1-.2-.9.6-1.2,1.3-1.5,2.4-1.1,5.9-1.3,8.5-1.5h0Z"/>
  <path class="st1" d="M36.2,199.1l-.8,1.1c1.9,2.2,2.8,5.2,5.5,6.7l-.4,1.6c-1.5-2.3-5.9-6.4-5.5-9.2l1.3-.2h0Z"/>
  <path class="st1" d="M106.5,11.1c.2,1-.3.8-.8,1.1-.9.4-6.9,2.2-7.2,1.9.1-2,3.1-.8,4-2.5l.4.8,3.6-1.3h0Z"/>
  <path class="st1" d="M189.7,266l-.4-1.3-1.7,1.7c-.3-1.7.6-2.2,1.9-3l.4.8,1.5-1.3c.2,1.7,0,2.5-1.7,3h0Z"/>
  <path class="st1" d="M204.6,184.6l-5.1-9c2.7,2,4.5,5.7,5.1,9Z"/>
  <path class="st1" d="M90.3,21.7c-1.4-.8-2.3.2-3.2,1.3l-1.5-1.1,4.5-2.3.2,2.1h0Z"/>
  <path class="st1" d="M75.4,258.3c-2.1-.2-3.8-2.1-5.5-3.2.7-.9.7-.5,1.4-.1,1.5.8,3.3,1.8,4.1,3.3Z"/>
  <path class="st1" d="M177.3,154.7c-2.3-.6-4.7-1.4-6.9-2.2-.5-.2-1.3-.1-1.2-.7,2.8.2,5.9,1.2,8.1,3Z"/>
  <path class="st1" d="M185.4,260.9c.2,1.2-.3.7-.9,1-1.8,1-3.5,1.4-5.5,1.5-.2-1.1.2-.7.9-1,1.8-.6,3.7-.9,5.5-1.6h0Z"/>
  <path class="st1" d="M28.9,62.2c.9-.8.6-2.8.9-3.3,0-.2,2.5-1.1,2.9-2.2l-.6,1.8-3.3,3.8h0Z"/>
  <path class="st1" d="M113.8,274.5c-1.6.3,0-1.8-2.1-1.3l.6-1.3c.4,1.3,4-.3,4,1.1,0,1-2.8-.5-2.6,1.5h0Z"/>
  <path class="st1" d="M185,191c-1.8-3.5,3.1-3.2,1.9-.8-.3.7-1.2,1-1.9.8Z"/>
  <path class="st1" d="M26.4,187.6l.4,2.1-1.3-1.3c-.3,1.4,2.2,2.8.4,3.8v-1.7c-3.5,1-.3-3.5.4-3h0Z"/>
  <polygon class="st0" points="62.6 232.8 61.3 234 60.4 232 59.6 232.3 58.4 229.4 62.6 232.8"/>
  <path class="st1" d="M105.2,256.6l-.6,1.3-4.9-2.3c.8-1.1.8-.3,1.4,0,1.3.5,2.6,1.5,4.1,1.2h0Z"/>
  <path class="st1" d="M120.6,21.3c-.5.3-2.4,0-2.5.1-.5.3-.5,1.5-2.2,1.2-.2-1.1.2-.7.8-1.1,1.2-.6,2.5-.8,3.7-1.5l.2,1.3h0Z"/>
  <path class="st1" d="M148.2,82.8c5.5-1.5,5,6.7.5,7.8-5.5,1.4-4.7-6.7-.5-7.8Z"/>
  <path class="st1" d="M215.2,98.5c-.7,2.2-7,3.3-7.3.6-.3-3.2,5.8-1.5,7.3-.6Z"/>
  <path class="st1" d="M219.3,87l1.4.2c1.8.9.6,4.3-.6,5.3-1.3-1.5-2.9-4-.8-5.5h0Z"/>
  <path class="st1" d="M63.5,125.8c-.2-.8.5-1,.8-1.5,1.2-1.5,2.9-3.1,4.3-4.5-.5,1.1-1.4,2.8-2.1,3.6-.3.4-2.5,2.8-3,2.3h0Z"/>
  <g>
    <path class="st1" d="M57.1,234.1c.1.2,0,.8.7,1.1-1.5.1-.9,1.7-.9,1.8,0,0-1.4,1.1-1.5,1.1-.9.3-2.3,0-3.2.3-.3-2,1.3-4.8,3.5-4.8.6,0,.6.3,1,.5.1,0,.4,0,.4,0h0Z"/>
    <path class="st1" d="M73.3,241.4c1.3-.5,1.2,1.6.2,1.6-.8,0-.8-1.4-.2-1.6Z"/>
    <g>
      <g>
        <path class="st1" d="M83.2,235.6s0,.2,0,.3c0,1,0,2.1,0,3.1,0,.8,0,2.1-.2,2.8-.2.6-.8,1.2-1.4,1.2v-.4s-.1,0-.1,0v.5s-.9,0-.9,0l-.2-.2v.2c-.1,0-.2,0-.3,0-1.3,0-2.6,0-3.9,0s-3.6.2-5.3,0c-.7,0-1.3-.2-2-.2-1.5,0-3.1.2-4.6.2-.3-.1-1.4,0-1.6-.2-.2-.2,0-.4.2-.5.3,0,.7,0,1,0,2.2,0,4.4.2,6.6,0,.3,0,.7,0,1,0,.6,0,1.3,0,1.9,0v.3c.1,0,.4,0,.4,0v-.2c0,0,0,0,.1,0,.3,0,.6,0,.9,0,1.8,0,3.6.3,5.4.2,1,0,2.7-.4,2.5-1.7,0-.7,0-.6,0-1.3.2-.9,0-1.8.2-2.6,0-.2.2-.3.2-.5,0-.2,0-.5,0-.8,0,0,0-.1.1,0h0ZM72.5,242.4h-.2c0,0,0,.1,0,.1v.5c.1,0,.3,0,.4-.2v-.2c0,0-.2,0-.2,0v-.3h0Z"/>
        <path class="st1" d="M71.9,243.8h0c-.4-.1-.8-.1-1.1-.1-.3,0-.6,0-.8,0-.4,0-.8,0-1.1,0-.6,0-1.2,0-1.7,0-1,0-2,.1-3,0h-.1c0,0-.3,0-.5,0-.5,0-1,0-1.3-.3-.2-.2-.3-.5-.3-.8,0-.3.3-.6.6-.8h.1c0,0,.1,0,.1,0,.2,0,.3,0,.5,0,.2,0,.3,0,.5,0,1.2,0,2.4,0,3.5,0,1,0,2.1,0,3.1,0,.1,0,.3,0,.5,0,.2,0,.4,0,.5,0,.3,0,.7,0,1,0h.8c0,0,0,0,0,0h.6c0,0,0,0,0,0,.2,0,.5,0,.7,0h.3c.8,0,1.6,0,2.4.1,1,0,2,.1,2.9,0v-.4c0,0,.4.4.4.4.7,0,1.3-.3,1.5-.6,0-.1.1-.3.1-.5,0-.7,0-.8,0-1.3v-.2c.1-.4.1-.8.1-1.2,0-.5,0-.9.1-1.4,0-.2,0-.3.2-.4,0,0,0,0,0,0h0c0-.4,0-.7.2-1,.1-.2.3-.3.4-.3.2,0,.4,0,.6.2h0c0,0,.2.2.2.6,0,.8,0,1.6,0,2.4,0,.2,0,.5,0,.7v.5c0,.8,0,1.8-.3,2.5-.2.6-.8,1.3-1.6,1.5h0c0,0-1.1.2-1.1.2h0c0,0-.4,0-.4,0h-.2s0,0-.2,0c0,0,0,0,0,0-.8,0-1.6,0-2.4,0h-1.5c-.7,0-1.5,0-2.2,0-.6,0-1.2,0-1.9,0h-.2c0,.1,0,0,0,0ZM62.8,242.4h0Z"/>
      </g>
      <g>
        <path class="st1" d="M67.8,231.3s0,0,0,0c0,0-.2,0-.2,0-.3.3-.5,1-.2,1.3.5.6,1.6,0,2.2.5-.3.7-1.1.4-1.8.4-.8,0-.3.8,0,1.1.4.5,1.9,1.2,1.6,1.8,0,0-.2.2-.2.2-.2,0-.6-.2-.7-.3-.2-.2-.2-.8-.8-.7-.5,0-.4.6-.4.9,0,.3.2.7.1,1,0,.3-.3.6-.3.9,0,.6.4,1,0,1.7-.4.8-1.1.4-1.1-.2,0-.4.2-.9.2-1.3,0-.2,0-.4,0-.7,0-.6.2-1.4,0-1.9,0,0-.1-.2-.2-.2-1.7.4-.5-.5-.2-1,.2-.3.5-1.2.2-1.5-.3-.2-.8-.2-1.2,0-.4.1-1.1.8-1.5.6-.3-.2.1-.8.3-1,.4-.4.6-.2,1.2-.3.2,0,1-.2,1.1-.3.5-.2.5-1.1,0-1.3-.2,0-1.2.2-1.6.1-.5-.1.2-1.1.8-1.1.3,0,.7.1,1,.2.4,0,1,0,1.4,0,.4,0,2.1-.4,1.6.3-.3.4-1,.3-1.3.4h0Z"/>
        <path class="st1" d="M66.4,241.2s0,0-.2,0c-.4,0-.7-.5-.7-.9,0-.3,0-.6.1-.8,0-.2,0-.3,0-.5,0,0,0-.2,0-.3,0,0,0-.2,0-.3,0-.2,0-.5,0-.7,0-.4,0-.8,0-1-.5,0-.9,0-1-.2-.2-.3.1-.6.4-1,.1-.1.2-.2.3-.3.2-.3.3-1,.2-1-.2-.2-.6-.1-.9,0,0,0-.2.1-.4.2-.4.3-.9.6-1.4.3-.1,0-.2-.2-.2-.4,0-.3.1-.6.5-1,.3-.4.7-.4,1-.4.1,0,.2,0,.4,0,.1,0,.9-.2,1-.3.2,0,.2-.3.2-.4s0-.3-.1-.3c0,0-.3,0-.5,0-.4,0-.8.1-1.1,0-.3,0-.4-.3-.4-.5,0-.5.7-1.1,1.3-1.1.2,0,.4,0,.6,0,.2,0,.3,0,.5,0,.4,0,1,0,1.4,0,0,0,.2,0,.3,0,.8-.1,1.4-.2,1.6.2,0,.1.1.3,0,.6-.3.4-.8.4-1.1.4,0,0-.2,0-.3,0,0,0,0,0-.1,0,0,0,0,0-.1,0,0,0,0,0,0,0-.1,0-.2.3-.2.5,0,.2,0,.3,0,.4.2.2.5.2.9.2.4,0,.9,0,1.3.3h.2c0,.1,0,.3,0,.3-.3.8-1,.7-1.6.6-.2,0-.3,0-.5,0s-.1,0-.1,0c0,0,.1.4.3.6.1.1.3.3.5.4.7.5,1.5,1.1,1.1,1.7,0,0-.2.3-.4.4-.4.2-.9-.2-1-.3-.1-.1-.2-.2-.2-.4,0-.2-.1-.3-.3-.2-.1,0-.2,0-.1.5h0c0,.2,0,.4,0,.5,0,.2,0,.4,0,.6,0,.2,0,.4-.2.5,0,.1-.1.3-.1.4,0,.2,0,.4,0,.5,0,.3.2.8,0,1.3-.2.4-.5.6-.8.6h0ZM65.9,235.9h0c.3,0,.4.5.4.5,0,.4,0,.8,0,1.3,0,.2,0,.5,0,.7,0,0,0,.1,0,.2,0,.1,0,.3,0,.5s0,.4,0,.5c0,.2-.1.5,0,.7,0,.2.1.3.2.4.1,0,.2,0,.3-.3.2-.4.1-.6,0-.9,0-.2-.1-.4-.1-.7s0-.4.2-.6c0-.1,0-.2.1-.3,0-.1,0-.3,0-.5,0-.2,0-.3,0-.5h0c0-.4,0-1.1.6-1.2.6,0,.8.3.9.5,0,0,0,.2.1.2,0,0,.3.2.4.2,0,0,0,0,0-.1,0-.2-.6-.7-.9-1-.2-.2-.5-.3-.6-.5-.2-.2-.6-.8-.4-1.2,0-.1.2-.4.6-.4s.4,0,.6,0c.4,0,.7,0,.8,0-.2,0-.4,0-.6,0-.5,0-1,0-1.3-.4-.2-.2-.2-.5-.2-.8,0-.4.2-.7.5-.8,0,0,.2,0,.2-.1,0,0,0,0,.2-.1h0c.2,0,.3,0,.5,0,.3,0,.5,0,.6-.1-.3,0-.8,0-1,0-.1,0-.3,0-.3,0-.4,0-1,0-1.5,0-.2,0-.3,0-.5,0-.2,0-.4,0-.5,0-.3,0-.6.3-.7.5.2,0,.5,0,.8,0,.4,0,.7,0,.8,0,.3.1.5.5.5.9s-.2.8-.6,1c-.2,0-1,.3-1.2.3-.2,0-.3,0-.5,0-.3,0-.3,0-.5.2-.2.3-.3.5-.3.5.2,0,.5-.2.7-.3.2-.1.3-.2.5-.3.4-.2,1-.2,1.4,0,.6.4.2,1.5,0,1.8,0,.1-.2.3-.3.4,0,0-.1.2-.2.2,0,0,.2,0,.4,0h0ZM65.8,231.7h0Z"/>
      </g>
      <g>
        <path class="st1" d="M71,222.1c.6.3.6.8.8,1.2.4.2.8.2,1.3.3,1,.1,2.2.3,3.2.3.7,0,2.2,0,2.7.2.3.1-.3.6-.4.8-.7.5-1,.3-1.7.1-1-.2-1.5-.4-2.3-.7,0,0,0,0-.2-.1-.2,0-.5,0-.8,0,0,0-.1.1-.4.2-.4,0-1,0-1.4.2-.3.2-.2,1.1-.4,1.5,0,.2-.5.7-.5.9s.5.5.7.8c.2.3,0,.9-.2,1.2-.4.5-.8.5-1.1,0l.2-1.4c0-.5,0-.9-.1-1.4,0-.5.2-1.5-.8-1.6-.6,0-2.1-.1-2.6,0-.6,0-2.1.6-2.7.8-.3.1-1,.6-1.4.4-.5-.3.5-1.1.7-1.4h.1c.3-.1.6,0,.8,0,.9,0,2-.2,2.9-.3.7,0,1.4,0,2.1-.2.5,0,.6-.1.7-.5.1-.3,0-1.4.8-1h0Z"/>
        <path class="st1" d="M70.8,229.5h0c-.2,0-.5-.1-.8-.5h0c0,0,.2-1.6.2-1.6,0-.3,0-.5,0-.8,0-.2,0-.3,0-.5v-.4c0-.7,0-1-.5-1-.5,0-2.1-.1-2.6,0-.5,0-2,.5-2.6.8,0,0-.2,0-.3.1-.4.2-1,.5-1.4.3-.2-.1-.2-.3-.3-.4,0-.4.3-.8.6-1.1,0-.1.2-.2.3-.3h0c0,0,.3-.2.3-.2.2,0,.4,0,.6,0,0,0,.2,0,.3,0,.5,0,1.2-.1,1.9-.2.4,0,.7,0,1-.1.2,0,.5,0,.7,0,.5,0,.9,0,1.3-.2.4,0,.4,0,.5-.3,0,0,0-.2,0-.3,0-.3.1-.8.5-.9.2,0,.4,0,.7,0h0c.6.3.7.8.8,1.2,0,0,0,0,0,.1.3.1.6.2,1,.2h.1c1,.1,2.1.3,3.2.4.2,0,.5,0,.7,0,.8,0,1.6,0,2.1.2.2,0,.2.2.3.3,0,.4-.6.9-.7.9-.7.5-1.1.4-1.6.2,0,0-.2,0-.3,0-1-.2-1.5-.4-2.4-.7,0,0-.2,0-.2-.1-.1,0-.3,0-.5,0,0,0-.2.2-.4.2-.1,0-.3,0-.5,0-.3,0-.7,0-.8.1,0,0-.1.5-.1.7,0,.2,0,.5,0,.6,0,.1-.2.3-.3.5,0,0-.2.2-.2.3,0,0,.2.2.2.2.2.1.3.3.4.4.2.4,0,1.2-.2,1.5-.3.4-.6.5-.8.5h0ZM70.6,228.8c0,.1.2.2.2.2.1,0,.2,0,.4-.2.2-.2.3-.7.2-.8,0,0-.2-.2-.2-.3-.1-.1-.3-.2-.3-.4,0,0,0,.2,0,.2l-.2,1.3h0ZM67.8,224.1c.7,0,1.5,0,1.9.1,1,.1,1,1.1,1,1.6v.3c0,.1,0,.3,0,.5,0,0,0,.2,0,.3,0-.1.1-.3.3-.5,0-.1.2-.3.2-.3,0,0,0-.3,0-.5,0-.5,0-.9.4-1.2.3-.2.7-.2,1.1-.2.2,0,.3,0,.4,0,0,0,0,0,.1,0,0,0,0,0,.2,0h0c-.2,0-.3,0-.5,0h-.1c-.4,0-.8-.1-1.3-.3h-.1s0-.2,0-.2c0,0,0-.2,0-.3,0-.3-.2-.7-.5-.8h0c0,0-.1,0-.1,0,0,0-.1.4-.2.5,0,.2,0,.3,0,.4-.2.5-.5.5-.9.6-.5,0-.9.1-1.4.2-.2,0-.3,0-.4,0h0ZM63,225.4c.2,0,.6-.2.8-.3.1,0,.2-.1.3-.2.3-.1,1.1-.4,1.8-.6-.5,0-.9.1-1.3.1-.1,0-.2,0-.3,0-.1,0-.3,0-.4,0h0c0,0-.2.2-.3.3-.1.1-.4.5-.5.6h0ZM74.7,224.1c.8.3,1.3.5,2.2.7.1,0,.2,0,.4,0,.5.1.7.2,1.2-.2,0,0,.2-.2.3-.3-.4,0-1.2-.1-1.7-.1-.3,0-.5,0-.8,0-.5,0-1,0-1.6-.1h0Z"/>
      </g>
      <g>
        <path class="st1" d="M81.8,216.1s.4.2.5.3c.5.3.8,1.1.8,1.7.1,1.6,0,3.3,0,4.9,0,.5,0,1,0,1.5,0,2.2-.2,4.4,0,6.6,0,1.1.2,2.4,0,3.5,0,0,0,.1,0,.2-.2-.1-.4-.3-.5-.6,0-.1,0-.2,0-.4,0,0-.1-.1-.2-.2-.2-.4,0-2.2.1-2.7,0-2.2-.2-4.5,0-6.7,0-.5.1-1.1.1-1.6,0-1.5-.1-3.1,0-4.7,0-.5-.4-.9-.8-1.2-.1,0,0-.2-.3-.2-.9-.1-2.1,0-3,0-.1,0-.3,0-.4,0,0,0,0,0,0,0-.1,0-.3,0-.4,0-.2-.2-.7-.2-.6-.6,0-.1.6-.2.8-.2.7,0,1.3,0,2,0,.6,0,1.7,0,2.2,0h0Z"/>
        <path class="st1" d="M83.1,235.5l-.3-.2c-.6-.3-.7-.7-.8-1,0,0,0-.2,0-.2,0,0,0,0-.1-.2-.2-.3-.1-1,0-2.3,0-.3,0-.5,0-.6,0-1.1,0-2.2,0-3.3,0-1.1,0-2.2,0-3.4,0-.3,0-.6,0-.9,0-.3,0-.5,0-.8,0-.8,0-1.7,0-2.5,0-.7,0-1.4,0-2.2,0-.2-.2-.4-.5-.7,0,0,0,0-.1-.1-.8-.1-1.9,0-2.8,0h-.2c0,0-.2,0-.3,0-.1,0-.2,0-.3,0h-.4s-.2-.2-.2-.2c0,0,0,0,0,0-.2,0-.8-.4-.6-1.1h0c.2-.5.6-.6,1.3-.6.5,0,.9,0,1.3,0,.2,0,.5,0,.7,0,.2,0,.4,0,.6,0,.6,0,1.2,0,1.7,0h0c.1,0,.6.3.6.3.8.4,1.1,1.5,1.1,2.2,0,1,0,2,0,2.9,0,.7,0,1.4,0,2,0,.2,0,.5,0,.7,0,.3,0,.5,0,.8,0,1.1,0,2.1,0,3.2,0,1.1,0,2.3,0,3.4,0,.3,0,.7,0,1.1,0,.9.1,1.7,0,2.5,0,.1,0,.4-.3.6l-.3.2h0ZM82.6,234.6h0s.4,0,.4,0h-.4s0,0,0,0Z"/>
      </g>
      <g>
        <path class="st1" d="M59.4,227.9s0,.3,0,.3c0,1.6-.1,3.3,0,4.9,0,.4.2.9,0,1.2h0c0,0,0,2.2,0,2.2.1,1.4-.1,3.1,0,4.5,0,.5.6,1.2,1.1,1.2.5,0,1-.1,1.4.2,0,.4-.1.4-.4.5-.8,0-1.7,0-2.3-.7-.6-.8-.4-1.6-.4-2.6,0-1.5,0-3.1,0-4.6,0-2-.2-4.2,0-6.3,0-.2,0-.5,0-.7,0-.2.1-.3.3-.3s.3,0,.3,0h0Z"/>
        <path class="st1" d="M60.9,243.5c-.8,0-1.5-.2-2.1-.9-.6-.8-.6-1.6-.5-2.4,0-.2,0-.4,0-.5v-.7c0-1.3,0-2.6,0-3.9,0-.7,0-1.5,0-2.2,0-1.4,0-2.8,0-4.1,0,0,0-.5,0-.7,0-.5.4-.8.9-.9h0c0,0,.5,0,.7.3h0c.2.2.2.6.2.7,0,.5,0,1,0,1.6,0,1.1,0,2.3,0,3.3,0,0,0,.2,0,.3,0,.2,0,.5,0,.8h0s-.1,2.3-.1,2.3c0,.7,0,1.4,0,2.2,0,.8,0,1.6,0,2.2,0,.3.4.7.6.7.1,0,.2,0,.4,0,.4,0,.8,0,1.2.2h.2c0,.1,0,.4,0,.4,0,.1,0,.5-.1.8-.2.3-.6.3-.8.4-.2,0-.4,0-.6,0h0Z"/>
      </g>
      <g>
        <path class="st1" d="M74.5,238.4c0,0-.2,0-.3.2-.4.4-1,1.1.2.9.2,0,.2-.1.3-.2,1-.4.7.2.9.3.1,0,.8,0,.9,0,.5,0,.9-.2,1.4-.4,1.1-.4,1,.2.6.7-.3.4-1.2.8-1.8.9,0,0,0,0-.1,0-.2,0-1,0-1.2,0,0,0-.9-.2-1-.3-.4-.1-.5-.3-.8-.5-.6-.3-1.3-.7-2.2-.7-.1.2-.3.5-.7.4-.2-.1.2-.9.3-1.1.2-.6,0-1.2.4-1.7.1,0,.4.1.5.2.4.4.1,1.3.6,1.5.4.2,1-.3,1.2-.5.3-.3.3-1.3.7-1.5.3-.2,1.1-.2,1.2.1.2.5-.6.9-1,1.3h0Z"/>
        <path class="st1" d="M76,241.4c-.3,0-.5,0-.7,0-.1,0-1-.3-1.1-.3-.3,0-.4-.2-.6-.3,0,0-.2-.1-.2-.2-.6-.3-1.2-.6-1.8-.7-.3.5-.7.5-.9.4h0c-.5-.3-.1-.9,0-1.3,0,0,0-.2,0-.2,0-.2,0-.4.1-.6,0-.4,0-.8.3-1.2h0s0,0,0,0c.3-.2.8.2.9.3.2.2.3.6.3.9,0,.3,0,.5.2.6.2,0,.6-.2.8-.4,0-.1.2-.4.2-.6.1-.4.2-.8.5-1,.3-.2.8-.2,1.2,0,.3,0,.4.2.5.4.3.6-.4,1.1-.9,1.5,0,0-.1,0-.2.2h0s-.1,0-.2,0c0,0,0,0-.1,0-.2.2-.3.3-.4.4,0,0,.2,0,.3,0,0,0,.1,0,.2-.1.4-.2.7-.2.9,0s.3.3.3.4h0c.2,0,.6,0,.8,0,.4,0,.7-.1,1-.3,0,0,.2,0,.3,0,.4-.1.9-.3,1.2,0,.1.2.2.5-.2,1.1-.3.5-1.3.9-1.8,1,0,0-.2.1-.3.1-.1,0-.4,0-.6,0h0ZM71.5,239.3c.8,0,1.6.4,2.2.7.1,0,.2.2.3.2.1.1.2.2.4.3,0,0,.9.3,1,.3.2,0,.8,0,1.1,0,0,0,0,0,.2,0,.5-.1,1.4-.5,1.6-.8.1-.2.2-.3.2-.4,0,0-.2,0-.5,0,0,0-.2,0-.3,0-.3.1-.7.3-1.2.3,0,0-.8,0-1.1,0-.2,0-.2-.3-.3-.4,0,0,0,0,0,0,0,0-.2,0-.4,0h0c0,0-.2.2-.3.2-.2,0-.8.1-1-.3,0-.1,0-.3,0-.5-.3.2-.8.4-1.1.2-.4-.2-.5-.7-.5-1,0-.2,0-.5-.2-.6,0,0,0,0-.1,0-.1.2-.1.5-.2.8,0,.2,0,.5-.1.8,0,0,0,.2-.1.3,0,0-.1.3-.2.4,0,0,.1-.1.2-.2h0c0-.1.2-.1.2-.1h0ZM76.6,240.8h0ZM74.8,237.1c-.1,0-.3,0-.3,0-.1,0-.2.4-.3.7,0,.2,0,.3-.2.4,0,0,.1,0,.2-.1,0,0,0,0,0,0,0,0,.1-.1.2-.2.3-.2.7-.5.7-.8,0,0-.2,0-.4,0h0ZM75.2,237.2h0Z"/>
      </g>
      <g>
        <path class="st1" d="M76.2,231.8c.3.2.3.4.1.6-.2.2-1,.2-1,.6,0,.4.8.2,1,.2,1.1,0,.8,1.1.8,1.6,0,.6.2,1.3,0,1.9,0,.2-.3.3-.5.3-.3,0-.6-.3-.9-.4-.3,0-1.4-.2-1.5-.3,0-.1,0-.2.1-.3.5,0,1.4,0,1.7-.3.2-.2.2-.8.2-1-.1-1.2-2.3-.9-3.4-.8-.3,0-.8,0-1.1,0-.5,0-1.2.5-1.6.5-.8,0-.3-.9.3-1,.3,0,1,0,.7-.3-.2-.3-.7-.3-.5-.7.2-.5,1.1-.3,1.2,0,0,.4,0,1,.7,1,1.1,0,.5-.7.5-1.1,0-.5.8-.7,1.2-.3.4.5-.6.7-.5,1.1,0,.4.5.3.8.2.8-.3.4-1.1.8-1.4.2-.1.7,0,.9,0h0Z"/>
        <path class="st1" d="M76.8,237.3h-.1c-.2,0-.4-.1-.6-.2-.1,0-.3-.2-.4-.2,0,0-.3,0-.5,0-.8-.1-1.1-.2-1.2-.4,0-.2,0-.5.2-.7h0s0,0,0,0c.2,0,.4,0,.6,0,.3,0,.8,0,.9-.2,0-.1.2-.6.2-.8,0-.7-1.3-.7-2.6-.6-.2,0-.3,0-.5,0h-.5c-.2,0-.4,0-.6,0-.2,0-.5.1-.7.2-.3.1-.6.2-.9.2h0c-.5,0-.7-.3-.7-.5,0-.5.4-1,.9-1.1,0,0,.2,0,.3,0h0c-.2-.1-.5-.3-.3-.8.2-.3.5-.5.9-.5.4,0,.7.3.8.6,0,0,0,.2,0,.3,0,.4,0,.5.4.4.3,0,.3,0,.3,0,0,0,0-.2,0-.3,0-.1,0-.3,0-.4,0-.3.3-.6.7-.7.4-.1.8,0,1,.3.4.5,0,.9-.2,1.1,0,0-.2.2-.2.2,0,0,.2,0,.5,0,.3,0,.3-.3.4-.6,0-.3,0-.6.4-.8.3-.2.9-.1,1.2,0h0c.2.1.4.3.4.5,0,.2,0,.4-.2.5s-.4.2-.6.3c0,0-.1,0-.2,0,.1,0,.2,0,.3,0,.1,0,.2,0,.3,0,.4,0,.6,0,.8.3.3.3.3.8.3,1.2,0,.1,0,.2,0,.3,0,.2,0,.4,0,.5,0,.5,0,1,0,1.4,0,.3-.4.5-.7.5h0ZM75.2,236.2s0,0,.1,0c.2,0,.4,0,.5,0,.2,0,.4.2.5.2.1,0,.2.1.4.2.1,0,.2,0,.2,0,0-.4,0-.8,0-1.2,0-.2,0-.4,0-.6v-.4c0-.3,0-.7-.1-.8,0,0-.2-.1-.4-.1h0c0,0-.1,0-.2,0-.1,0-.3,0-.4,0,.5.2.8.5.9,1,0,.2,0,.9-.3,1.2-.2.3-.7.4-1.1.4h0ZM70.1,233.9s0,0,0,0c.2,0,.5-.1.7-.2.3-.1.6-.2.9-.3.1,0,.3,0,.4,0-.6-.1-.6-.7-.6-.9,0,0,0-.2,0-.2,0,0-.1-.1-.3-.2,0,0-.3,0-.3.1,0,0,0,0,0,0,0,0,0,0,.1,0,.1,0,.3.2.4.3.2.2.1.4,0,.5-.1.3-.5.3-.8.3h-.2c-.1,0-.3.1-.3.2,0,0,0,.2,0,.2h0ZM72.7,233.5h.2c.1,0,.3,0,.5,0,0,0,.1,0,.2,0,0,0-.2-.2-.2-.3,0,0,0,0,0,0-.2.2-.4.3-.6.3h0ZM74.7,233.4c.2,0,.4,0,.6,0,0,0,0,0,0,0,0,0-.1-.2-.2-.3,0,0-.2.2-.4.3ZM73.7,231.9c0,0-.1,0-.2,0-.1,0-.2.1-.2.2,0,0,0,.1,0,.2,0,0,0,.2,0,.3,0-.2.2-.3.4-.4,0,0,.2-.2.2-.2,0,0,0,0,0,0,0,0-.2-.1-.2-.1h0ZM75.7,232c0,0-.2,0-.2,0,0,0-.1.2-.2.4,0,0,0,0,0,.2.2-.1.4-.2.5-.2,0,0,.3,0,.3-.1s0,0,0,0c0,0,0,0-.1-.1h0c0,0-.2,0-.4,0h0Z"/>
      </g>
      <g>
        <path class="st1" d="M62.1,216.1c.2,0,.2.5.2.7-.1,0-.2,0-.3,0-.6,0-1-.2-1.5,0-.6.2-1,.7-1,1.3,0,2.7,0,5.5,0,8.2,0,.2.1.4,0,.6-.3.3-.6-.2-.6-.5,0-.8,0-2.2,0-3.1,0-1.2,0-2.3.1-3.5,0-1-.2-2.8.7-3.5.7-.6,1.6-.6,2.5-.4,0,0,0,0,.1,0h0Z"/>
        <path class="st1" d="M59.2,227.7c-.1,0-.2,0-.2,0-.5-.2-.7-.7-.7-1.1,0-.7,0-1.6,0-2.4v-.8c0-.8,0-1.5,0-2.2,0-.4,0-.8,0-1.2v-.7c0-1.1,0-2.5.9-3.3,1-.8,2.2-.7,3-.5.1,0,.2,0,.3.1.5.3.6,1,.4,1.4l-.2.3h-.4s0,0,0,0c0,0-.2,0-.3,0h0c-.2,0-.4,0-.6,0-.3,0-.5,0-.8,0-.4.1-.5.3-.5.8,0,1.5,0,2.9,0,4.4,0,1.3,0,2.6,0,3.9,0,0,0,0,0,0,0,.2.1.6-.2.9-.2.2-.5.3-.6.3h0ZM62.3,217.3h0ZM62.4,215.6h0ZM62.4,215.6h0Z"/>
      </g>
      <g>
        <path class="st1" d="M74.3,216.1s.3.2.4.3c.2.2.2.4,0,.4-.9,0-2,0-2.9,0-2-.2-4.2.2-6.1,0,0,0,0,0-.1,0-.2,0-.7,0-.9,0-.2,0-.3-.5-.1-.6,0-.1.7,0,.9,0,2.3,0,4.7,0,7,0,.5,0,1.5,0,1.9,0h0Z"/>
        <path class="st1" d="M74.1,217.4c-.3,0-.6,0-.9,0-.5,0-.9,0-1.3,0h-.1c-.9-.1-2,0-3,0-1,0-2.1,0-3.1,0,0,0-.2,0-.3,0h-.2c-.3,0-.5,0-.7,0-.3,0-.5-.3-.5-.7,0-.3,0-.7.2-.9.2-.3.7-.3,1.3-.3h0c1.2,0,2.4,0,3.5,0,1.2,0,2.3,0,3.5,0h.5c.7,0,1.2,0,1.6.1h0c.1,0,.5.3.6.4.3.3.4.6.3.9,0,.1-.2.4-.7.5-.2,0-.5,0-.7,0h0Z"/>
      </g>
      <g>
        <path class="st1" d="M77.3,218.8s.1,0,.2,0c0,.4-.6.9-1.1,1-.5,0-1.2-.2-1.8-.3-.5,0-1-.2-1.4-.2-.5-.1-1.1,0-1.5.2-.4.3-.3,1-.5,1.4-.2,0-.6,0-.7,0-.2-.1-.2-1-.4-1.2-.2-.2-.9-.4-1-.5,0-.1.1-.4.2-.4,0,0,1.1-.2,1.3-.2,1.3,0,3,.1,4.3.2.7,0,1.7,0,2.3.1h0Z"/>
        <path class="st1" d="M71.4,221.2h-.2s-.1,0-.2,0c-.2,0-.5,0-.7-.1-.2-.1-.2-.4-.3-.7,0-.2,0-.5-.2-.5,0,0-.3-.2-.5-.2-.3-.2-.5-.2-.5-.4h0c0,0,0-.2,0-.2,0-.2.2-.4.4-.5.2,0,1.2-.2,1.3-.2.9,0,2,0,3,0,.5,0,1,0,1.4,0h.7c.6,0,1.2,0,1.7.1h.1c0,0,0,0,0,0h.3v.3c0,.6-.8,1.2-1.4,1.3-.4,0-.9,0-1.3-.2-.2,0-.4,0-.5-.1-.2,0-.3,0-.5,0-.3,0-.6-.1-1-.2-.4,0-.9-.1-1.3.2-.2.1-.2.4-.3.7,0,.2,0,.5-.2.6v.2c0,0,0,0,0,0ZM70.7,220.6h0ZM70.7,220.6c0,0,.2,0,.3,0h0c0,0,0-.2,0-.3,0-.4.2-.8.5-1,.4-.3,1-.4,1.7-.2.3,0,.6.1.9.2.2,0,.3,0,.5,0,.2,0,.4,0,.6.1.4,0,.8.2,1.1.2.3,0,.6-.3.8-.5-.4,0-1,0-1.5,0h-.8c-.5,0-.9,0-1.4,0-1,0-2-.2-2.9,0-.2,0-1,.1-1.2.1,0,0,0,0,0,0,0,0,0,0,.1,0,.3.2.6.3.7.4.2.2.2.5.3.8,0,.1,0,.3,0,.4h0Z"/>
      </g>
      <g>
        <path class="st1" d="M76.8,231.3s0,0-.1,0c-.4,0-.9,0-1.4,0-.4,0-.8,0-1.2,0-.5,0-1,0-1.6,0-.9,0-1.7.4-2.7.3-.9,0-.3-.8.2-.9.5,0,1.7.3,2.2.3.3,0,.9-.2,1.2-.3.6-.1,1.2-.1,1.7-.2.7-.1.4-.3.5-.7.7-.1,1.7.7,1.5,1.1,0,.1-.4.2-.5.3h0Z"/>
        <path class="st1" d="M70.3,232c-.1,0-.2,0-.4,0-.7,0-.7-.4-.7-.6,0-.4.5-.8.9-.9.3,0,.8,0,1.3.2.4,0,.8.2,1,.2.1,0,.4,0,.7-.2.2,0,.3,0,.5-.1.3,0,.6,0,.9-.1.3,0,.6,0,.8-.1.1,0,.2,0,.2,0h0c0-.1,0-.3,0-.4h0c0-.1.2-.2.2-.2.6-.1,1.3.3,1.7.8.3.4.2.7,0,.8-.1.2-.4.3-.6.4,0,0-.2.1-.3.1-.2,0-.5,0-.8,0-.2,0-.4,0-.6,0-.2,0-.3,0-.5,0-.2,0-.5,0-.7,0s-.5,0-.7,0c-.3,0-.5,0-.8,0-.3,0-.6,0-.9.1-.4,0-.9.2-1.4.2h0ZM69.8,231.4s0,0,.2,0c.5,0,1,0,1.5-.1,0,0-.1,0-.2,0-.4,0-.8-.2-1.1-.2-.2,0-.3.2-.4.3ZM73.5,231.1c.2,0,.4,0,.7,0s.4,0,.6,0c.2,0,.4,0,.5,0h.6c.2,0,.4,0,.6,0h.2c0-.1.2-.2.3-.2,0,0,0,0,0-.1-.2-.2-.6-.5-.9-.5h0c0,.4-.2.6-.7.7-.3,0-.6,0-.9.1-.3,0-.6,0-.8.1,0,0,0,0-.2,0h0Z"/>
      </g>
      <g>
        <path class="st1" d="M69.3,237.2s.4.2.5.3c.3.2.4.4.3.7,0,.3-.4,1.3-.5,1.5-.4.8-1.1.6-1.9.3,0,0,0-.2,0-.2.1-.5,1.6-.8,1.5-1.7,0-.2-.5-1.2.1-1h0Z"/>
        <path class="st1" d="M68.7,240.6c-.4,0-.8-.2-1.1-.3h0s0,0,0,0c-.1-.1,0-.3,0-.5,0-.3.4-.5.8-.8.5-.3.8-.5.7-.8,0,0,0,0,0-.1-.1-.3-.3-.8,0-1.1,0,0,.3-.2.5,0,0,0,.5.3.6.3.4.3.5.6.4,1,0,.3-.4,1.4-.5,1.7-.3.5-.7.7-1.1.7h0ZM68,239.8c.8.3,1.1.2,1.3-.2.1-.2.5-1.2.5-1.5,0-.2,0-.3-.2-.4,0,0-.2-.1-.3-.2,0,.1,0,.3,0,.3,0,0,0,.2,0,.2,0,.7-.5,1.1-1,1.4-.2,0-.4.2-.5.3h0Z"/>
      </g>
      <g>
        <path class="st1" d="M75.4,234.5c.1,0,.1.3,0,.4-.3.2-2.1,0-2.7,0-.6,0-1.1.3-1.6.3s-.5,0-.5-.1c0-.2.3-.6.6-.6.3,0,.6,0,.8,0,1.1,0,1.9-.2,3,0,0,0,.4,0,.4,0h0Z"/>
        <path class="st1" d="M71,235.5c-.5,0-.7,0-.8-.3,0,0,0-.3,0-.5.1-.2.5-.5.8-.5.2,0,.3,0,.5,0h.7c1-.1,1.7-.2,2.8,0,0,0,.4,0,.6.2h0c.1.1.2.3.2.5s-.1.3-.3.4c-.3.1-.8.1-1.8,0-.4,0-.8,0-1,0-.3,0-.5,0-.7.1-.3,0-.6.2-.9.2h0ZM70.8,234.9c.3,0,.6,0,.9-.1,0,0,.1,0,.2,0h0c-.2,0-.3,0-.4,0h-.4c0,0-.2,0-.3.2h0ZM73.2,234.7c.1,0,.3,0,.5,0,.4,0,1.1,0,1.4,0,0,0,0,0-.1,0-.7,0-1.2,0-1.7,0h0Z"/>
      </g>
      <g>
        <path class="st1" d="M75,222.1c-.4.2-.5.4-.9.5,0,0,0,0,0,0,0,0-.4,0-.5,0,0,0,0,0,0,0-.2,0-.5,0-.2-.3.2-.2.9-.5,1.1-.7.2-.2.5-.9.7-1.1.5-.2,1.1.7,1.1,1,0,.4-.7.4-1,.6h0Z"/>
        <path class="st1" d="M73.7,223c-.1,0-.2,0-.3,0,0,0-.2,0-.2-.1h0c-.1,0-.4,0-.4-.3,0-.2.1-.4.2-.5.1-.1.4-.2.6-.4.2,0,.4-.2.5-.3,0,0,.2-.2.2-.4.2-.3.3-.6.6-.7.1,0,.4-.2.8.1.4.3.7.8.7,1.2,0,.5-.5.6-.9.7-.1,0-.2,0-.3,0h0c-.1,0-.2.1-.4.2-.1,0-.3.2-.5.3,0,0-.1.1-.2.1,0,0-.2,0-.3,0h0ZM73.2,222.8h0ZM73.6,222.4h.2s0,0,.1,0c.2,0,.3-.2.5-.2.1,0,.3-.2.4-.2h0c.1,0,.2,0,.4-.1.2,0,.5-.1.5-.2,0,0-.2-.5-.5-.6,0,0-.1,0-.2,0,0,0-.2.3-.3.5-.1.2-.2.4-.3.5-.1.1-.4.3-.6.4,0,0-.2,0-.2.1,0,0,0,0,0,0h0ZM73.9,222.4h0ZM73.5,222.4h0Z"/>
      </g>
      <g>
        <path class="st1" d="M68,222.6c-.2,0-.3,0-.4,0-.5-.2-1.2-.6-1.6-.7-.2,0-.6,0-.7-.2,0-.4.5-.5.7-.7.3-.2.7-.4,1-.2.3.2.2.8.4,1,0,.2.7.6.7.7,0,0-.2.3-.2.3h0Z"/>
        <path class="st1" d="M67.9,223c-.2,0-.3,0-.3-.1-.3,0-.5-.2-.8-.4-.3-.1-.5-.3-.7-.3,0,0-.1,0-.2,0-.2,0-.6,0-.7-.4-.1-.4.2-.7.5-.8,0,0,.2-.1.2-.2h0s0,0,0,0c.3-.2.8-.5,1.3-.2.3.2.4.5.4.8,0,.1,0,.3,0,.3,0,0,.2.2.4.3.2.2.3.2.4.3h0c0,0,0,.3,0,.3,0,.2-.3.4-.4.5h0c0,0-.2,0-.2,0h0ZM65.7,221.5c0,0,.1,0,.2,0,0,0,.2,0,.3,0,.2,0,.5.2.8.4.2.1.5.2.7.3-.2-.2-.3-.3-.4-.4,0-.2-.1-.3-.2-.5,0-.2,0-.4-.1-.4-.2-.1-.4,0-.7.2-.1.1-.2.2-.4.3,0,0-.1,0-.2.1h0Z"/>
      </g>
      <g>
        <path class="st1" d="M65.9,218.8c.2,0,.4.1.7,0,.1,0,0,0,.1,0,0,0,.6,0,.7,0,.5.8-1,.8-1.7,1.1,0,0,0,0-.1.1-.1,0-.8.2-.9.2-.4-.5.3-1,.7-1.4,0,0,.4,0,.5,0h0Z"/>
        <path class="st1" d="M64.7,220.5c0,0,0,0-.1,0h0s0,0,0,0c-.5-.7.1-1.2.5-1.6,0,0,.2-.1.2-.2h0s0,0,0,0c.2,0,.6,0,.7,0h0c.2,0,.3,0,.5,0,0,0,.1,0,.2,0,0,0,.7,0,.8,0h0s0,.1,0,.1c.2.3.1.5,0,.7-.2.4-.8.6-1.4.7-.2,0-.3,0-.4.1,0,0,0,0-.2.1-.3.1-.8.2-1,.2h0ZM65.5,219.1c0,0-.1,0-.2.2-.4.3-.5.5-.5.6.2,0,.5-.1.6-.2,0,0,0,0,.2-.1.2,0,.3,0,.5-.1.3,0,.9-.2,1-.4h0c0,0-.2,0-.3,0,0,0-.2,0-.2,0-.4,0-.6,0-.8,0,0,0-.2,0-.3,0h0ZM65.5,219.7h0Z"/>
      </g>
      <g>
        <path class="st1" d="M64.8,236.6v.3c-.3.5-1.1,1.7-2,1.6-.7,0-.4-1,0-1.2.2,0,.2,0,.3-.1.4-.1.7-.3,1.1-.5.2,0,.2-.3.6-.1h0Z"/>
        <path class="st1" d="M62.9,238.8h0c-.3,0-.6-.2-.7-.5-.1-.4.1-1,.5-1.2.1,0,.2,0,.3-.1,0,0,0,0,0,0,.3-.1.7-.3,1-.5,0,0,0,0,0,0,.2-.1.4-.3.8,0h.1c0,0,.1.6.1.6l-.2.2c-.4.6-1.2,1.7-2.2,1.7h0ZM64.5,236.9s0,0,0,0c0,0,0,0-.2.1-.4.2-.8.4-1.1.5,0,0-.1,0-.2,0,0,0,0,0-.1,0-.1,0-.3.4-.2.6,0,0,0,0,.1,0h0c.7,0,1.3-.9,1.7-1.4h0Z"/>
      </g>
      <g>
        <path class="st1" d="M71,236.7s0,0-.1,0c-.3,0-1,.3-1.2,0-.2-.2.4-.8.7-.8.4-.1,1.6,0,2.2,0,.3,0,.7-.2.9,0-.2.6-1,.5-1.7.6-.3,0-.5,0-.7.2Z"/>
        <path class="st1" d="M70,237.2c-.2,0-.4,0-.5-.2-.1-.1-.1-.3,0-.4,0-.4.6-.8.9-.9.3-.1,1-.1,1.7,0h.5c0,0,.2,0,.2,0,.3,0,.6,0,.9.2h.1c0,.1,0,.3,0,.3-.2.6-.9.7-1.5.7-.2,0-.3,0-.5,0-.2,0-.4,0-.6.1,0,0-.1,0-.2,0h0c-.4,0-.7.2-.9.2h0ZM71.3,236.2c-.4,0-.7,0-.9,0-.1,0-.3.2-.5.4.1,0,.3,0,.8-.1,0,0,0,0,.2,0h0c.2,0,.5-.1.8-.2.2,0,.3,0,.5,0h0-1,0Z"/>
      </g>
      <g>
        <path class="st1" d="M77.9,238.1c0,0-.4.2-.5.2,0,0,0,0-.1.1-.5.2-1.7.6-1.2-.2.2-.3.7-.8.9-1,.1-.1.3-.2.5-.2.3,0,.6.9.3,1.1h0Z"/>
        <path class="st1" d="M76.2,238.9c-.3,0-.4-.1-.5-.2-.1-.2,0-.4.1-.7.2-.3.7-.8.9-1.1.2-.2.5-.3.8-.3.4,0,.6.5.6.7.1.4,0,.8-.1.9h0c0,0-.2.1-.4.2,0,0,0,0-.1,0,0,0,0,0-.2.1-.6.2-.9.3-1.2.3h0ZM77.5,238.5h0ZM77.5,237.2c0,0-.2,0-.3.1-.2.2-.6.7-.8,1,.2,0,.5,0,.8-.2,0,0,0,0,.1-.1,0,0,.1,0,.2,0,0,0,.2,0,.2,0,0-.1,0-.5-.2-.6h0ZM77.1,238.1h0ZM77.7,237.9h0ZM77.5,237.2h0Z"/>
      </g>
      <g>
        <path class="st1" d="M63.1,216.1c0,0,0,0,.2-.2.2,0,.6-.1.8.1.3.6-1,.7-1.1.3,0-.1,0-.2.2-.2h0Z"/>
        <path class="st1" d="M63.5,217.2c0,0-.2,0-.3,0-.4,0-.7-.3-.8-.7,0-.2,0-.5.3-.8,0-.1.2-.2.4-.3.5-.2,1.2-.2,1.5.4.2.3.2.7,0,1-.2.3-.6.5-1,.5h0Z"/>
      </g>
    </g>
  </g>
</svg>