<?xml version="1.0" encoding="UTF-8"?>
<svg id="_图层_1" data-name=" 图层 1" xmlns="http://www.w3.org/2000/svg" viewBox="0 0 291.06 283.47">
  <defs>
    <style>
      .cls-1 {
        fill: #fff;
      }
    </style>
  </defs>
  <path class="cls-1" d="M142.81,5.88c7.1-.76,14.17.25,21.25.96v1.28c-1.09-.25-3.16-1.19-4.14-1.18-.64,0-1.1.75-2.03.78-1.15.04-3.25-.62-4.72-.65-1.29-.03-2.44,1.27-3.4-.22l-.42.86-.42-.86c-1.18,1.76-4.52-.58-4.49,1.27l-1.26-.85c.08,1.52-2.07,1.16-2.56,2.12,1.2-.27,4.8.25,5.69-.05.61-.21.52-.79.66-.94,1.26-1.29.4.93,1.1.98.97-.62,2.05-.62,3.14-.6,1.89.03,4.6.18,6.47.39,2.86.33,5.36,1.62,8.09,1.08l-.85,1.27.85.43c-3.62-.09-7.13-.97-10.76-1-.56,0-.94-.38-1.17.57,3,.6,6.08.53,9.11.91,1.85.23,4.32,1.11,6.03,1.23.47.03.74.13.63-.43l-3.83-2.15c1.39-2.54,3.83.87,4.08.87,8.12,0,15.68,3.67,23.09,6.71.82.34,4.3,1.21,4.5,1.34.69.46.3,1.68,1.96.91l.47,1.26-13.18-4.84-15.16-4.11.33.96,15.37,4.68c.95,1.75,1.66.87,2.97,1.27,1,.3,3.16,2.33,4.57,2.48-.35,2.79-3.62-.65-5.51-.05l-.03-1.24c-.81,1.1-3.42.46-4.04-.45-.36-.53.03-1.88-1.02-1.04l-.26,1.06c-5.72-1.85-11.58-3.29-17.53-4.2-10.02-1.54-20.67-1.46-30.69.32-.75.13-1.54.04-2.29.05-.12,1.32.1.68.81.71,1.62.06,3.15-.79,4.72-.28l-.42,1.06-14.59,3.23c-1.02,1.65-3.35-.12-2.9,2.94l-.42-1.71c-.22-.27-5.16,1.15-5.73,1.42-.71.34-2.07,1.62-2.92,2.08-6.72,3.61-12.83,7.02-18.43,12.68-.68.69-1.49,2.46-2.03,2.88-2.58,2.02-1.54.47-3.79,3.68-3.92,5.61-7,10.55-8.58,17.42-.54,2.36-.61,4.64-1.15,6.97-9.28-.78-17.77-.51-26.02,4.22-2.33,1.34-5.81,3.85-6.81,6.41-.27.69.13.64.65.63,2.42-.06,8.65-1.37,10.44.23.62.56-.03,1.91,1.7,1.49l-1.29,1.91,1.09,1.49c1.1-.85,2.19-.72,3.62-1.27l-1.17,1.48c1.29,1.28-.64,2.97,1.82,3.62,1.24.33.35-1.73.63-2.13,1.58.27,1.51-.08,2.55,1.28,1.72-3.43,6.41-6.39,10.23-6.61-2.74,2.63-6.64,3.67-9.77,5.8l.4,1.66c1.35-.78,2.88-.23,4.26.21-1.55,2.43-3.12,4.85-4.55,7.36-.27.47-.83.52-1.11,1.06-1.11,2.15-1.94,6.52-3.27,8.54-.87,1.33-6.87,4.34-8.41,5.55-1.59,1.25-4.95,6.31-6.2,7.02-.44.25-1.21-.05-1.53.15-.46.3-.29,2.08-.59,2.41-.32.35-1.99-.03-1.62,1.79h-.63l.21-.85c-1.73-.18-1.4,1.72-1.86,2.41-1.56,2.33-4.07,3.35-4.55,7.16-.07.59-.21,1.31.64,1.07,2.76-2.95,6.58-3.95,9.82-6.39l-.42,1.71,7.03-1.71c-1.67,4.61-1.99,9.47-3.02,14.24-.65,2.98-1.98,6.7-2.51,9.06-.21.92.11,2.15,0,3.13l1.27-2.55-.85,5.12-.85-.43,1.06,4.69,9.36-19.63,5.77-10.35,1.28-.29c.4,1.5-1,1.29-1.37,2.32-.38,1.05.17,1.92-.22,3.09-1.16,3.5-5.22,9.16-7.01,13.06-1,2.17-6.52,15.58-6.21,16.84.09.37,1.48,1.13,2.02.5l-.78-1.84,1.64-2.84.63,1.28.22-1.71.85.43c-.8-1.69.39-1.29.87-2.02,1.88-2.91,2.56-5.78,3.95-8.73.31-.65.61-1.88,1.58-1.61-1.13,2.92-1.83,5.97-2.78,8.94-.48,1.52-1.97,2.9-1.12,4.66l-.79.46c2.27-.38.62,1.49,2.16,1.97-.86,1.81.13,1.24.36,1.77,1.45,3.44,2.84,6.89,4.71,10.14l-.83,1.46c1.86-.81,3.06,2.77,4.09,4.2.66.92,2.17,1.19,1.88,3.05l.78-.36c.67,1.12,1.76,2.63,2.64,3.56,3.91,4.16,10.36,10.63,14.94,13.6,2.47,1.6,11.96,5.6,12.94,7.51.39.76.29,1.77.71,2.72.48,1.1,1.33,1.32,1.53,1.67,1.02,1.8,2.48,5.38,4.18,6.73.45.36,1.03-.08,1.05-.04.21.34-.11,1.53.68,2.53,3.66,4.64,19.14,14.75,24.8,16.97,10.85,4.25,24.66,5.32,36.95,4.32,1.21-.99,6.14-1.42,6.64-2.31.09-.16.11-.7-.21-.63-.65.7-2.55,1.01-3.47,1.15-.76.11-1.61-.96-1.44.56l-.84-1.27-.86,1.7.42-1.7-2.98.86-.21-1.28-1.49,1.27-.26-.85c-1.3.69-2.3-.2-3.58-.43l2.69-.4.71-1.29c-.61-.62-1.55,2.31-2.31.04l-3.65.38.65-.85-.44-.84c-.23.24-.51.61-.84.65-3.08.43-4.41-1.58-6.19-2.52-.39-.21-1.03-.02-1.5-.24-1.8-.82-4.28-1.54-5.33-3.01l2.56.42v-1.7c.97-.53,2.27,1.91,2.57-.22l-.86-.42,1.28-1.06c-1.28.37-1.24-.86-2.08-1.1-1.31-.37-3.19-.09-4.44-.71-.58-.29-.63-.95-1.05-1.17-1.24-.65-3.89.08-3.93-2.14l4.68,1.28.21-1.28.7,1.24,2.24-.42.27.88,1.09-1.21,3.59.37v-1.28c-.27-.29-4.77-.41-5.66-.6-.27-.06-3.67-1.07-3.85-1.17-.59-.36-.64-1.17-1.02-1.23-.33-.06-.9.34-1.19.25-.85-.25-1.59-1.32-2.78-1.09-.06-1.49,2.02-1.78,2.98-1.28.17-2.92-2.5-2-3.4-4.05,1.65.15,2.33.25,3.83-.64l-2.98-.43,2.13-.42-.63-1.32c-3.34-1.2-6.68-2.49-10.11-3.49-2.58-.76-15.63-3.45-16.53-5.21-.1-.19-.09-.72.21-.63l24.47,5.5.44-1.04-1.68-1.48c1.65.08,3.01.92,4.26-.65l-1.49-.21c.39-2.2,3.61-.1,4.48-1.7h-5.11l1.28-1.28c-7.21-1.62-14.66-.86-21.95-1.71-.54-.06-2.26-.15-2.35-.85,9.5-1.31,19.14.97,28.56-.86l-.85-1.27c1.71.12,4.23.14,5.54-1.07l-2.55-.64c-.16-.93,2.27.12,1.7-1.05-.41-.85-1.78-.66-2.55-.65,1.04-1.21,3.28-.3,4.89-1.73l.48.9c1.97-.82,4.73.08,5.71-2.15l-1.91.7c-.98.07-1.09-1.14-1.31-1.15-.57-.02-1.89.77-2.95.88-4.26.42-8.98.09-13.24.44-6.36.53-12.79,2.03-19.17,2.53-.47.04-1.98.34-1.91-.41,4.61-1.44,9.93-2.73,14.75-3.37,4.32-.57,9.03.34,12.33,0,.71-.08.48-.69,1.24-.93,5.16-1.63,13.38-2.35,18.81-2.96.93-.1,2.95.96,2.52-1.27l-7.45,1.29,1.71-1.29-.43-.84c.65-.44,2.64,1,2.99-.42h-7.88l-.21-.85c1.79-.38.36-1.69,2.8-2.11,4.39-.76,9-.68,13.4-.46-.05-.48-1.68-1.04-2.05-1.14-2.83-.73-5.74-.19-8.6-.14-.1-.61.76-.61,1.2-.72,2.64-.72,5.89-1.06,8.61-.98.23-2.17-3.13.13-2.98-2.13,1.28.57,6.49-.11,7.03.09.23.08.16.68.5.75,1.45.27,3.35.27,4.82.02l-.42,1.27c2.57-1.88,5.27,1.93,8.09,1.07-11.01-7.07-24.04-8.29-36.77-6.08-13.12,2.28-21.05,8.09-32.72,12.47-2.79,1.05-9.38,2.9-12.15,2.57-.72-.09-6.28-3.19-6.6-2.78-.12.15.28.98-.28,1.3-.52.3-3.48.63-3.93.34-1.36-2.9-1.11-3.61.79-5.9-1.09-.02-2.23.27-3.01-.62-.32-.36-3.28-6.64-3.59-7.49-.77-2.12-2.05-7.9-1.97-10.03.01-.4,1.7-1.58.91-3.18l4.89,6.82c1.3.08,2.81,1.88,3.42,2.12,1.14.46.17-1.44,1.06-1.27l.22,1.71,1.48-.43c-.4,1.48,2.68,2.5,3.97,3.07.34.15.89.74,1.15.13-1.97-5.95-6.07-10.82-8.6-16.55-.97-2.21-2.59-5.49-2.05-7.74l-.86.21.84-1.5-1.27-.21c-.49-1.06.85-.76.87-1.09.06-1.03-1.03-2.78-.53-4.28.21-.62.76-.53.92-.92.61-1.53.43-3.04,1.54-4.77,2.19-3.42,4.74-5.47,7.66-8.11.93-.84,1.12-2.28,2.45-2.09.5.07,5.29,4.13,5.62,4.65.85,1.32.6,2.84,1.08,4.25,1.48.31.8-1.55,1.7-1.7l.43,4.26,1.27-.85-.25,1.73c2.27.28,1.48,2.22,2.6,3.81.23.32,3.05,3.13,3.41,3.4.56.43,1.14.95,1.91.86.35-.37-1.71-4.76-.21-5.53.66.31.45,1.35.75,1.62.29.26,1.07,0,1.17.08.11.1-.43,1.23-.35,1.82.14,1.05,1.61,2.45,1.63,3.72.91.87,1.38-2.29,1.08-2.97-.18-.41-.92-.74-1.08-1.09-.31-.7.58-.86.84-.63.05.05.19.84.62,1.28,2.2,2.31,4.25,4.16,6.99,5.49.51.25,3.27,1.55,3.48,1.32.15-3.74-1.22-7.26-2.55-10.65,2.18.52,4.4.27,6.6.43,5.15.37,10.58.2,15.73.9,12.18,1.66,27.06,8,36.09,16.34,8.86,8.18,14.08,17.86,19.14,29.03,1.22,2.69,1.13.63,1.37,4.21.12,1.72.86,3.27.36,4.94h1.71c-.38.71-.85.98-.9,1.91-.16,3.04.89,7.21.91,10.25,0,1.16-.35,4.71-.67,5.76-.23.75-.07,1-1.05.84.36-2.3.48-4.63.38-6.95-.31-7.54-2.48-18.48-5.17-25.56-.5-1.32-1.34-3.25-2.46-4.15,1.66,6.75,4.33,13.37,4.96,20.32.2,2.16.34,1.65.57,2.57,1.17,4.71-1.56,21.71-4.43,25.76-.36.5-.01,1.05-1.1.8l.85-6.82,1.27.85.66-2.76-1.3-2.78c-1.64,4.16-1.7,12.13-4.46,15.59-.48.6-1.98.52-1.07,1.47l1.53-.21,1.24-2.35c-.41,1.74.35,1.77.83,2.73-.68.64-.95,2.09-2.1,1.95l.21-2.13c-1.98.78-1.8,3.47-4.05,3.84l1.27.42c.17,1.09-.73.89-1.36,1.83-.33.5-.64.96.29.72.7-.18,2.59-2.43,3.29-3.1.29-.27.61-1.3,1.19-.52-1.24,2.28-3.29,3.48-5.33,4.9l-.84-1.27c-.41.41-.94.81-1.26,1.3-1.74,2.65.41,2.02.59,2.78.33,1.38-2.63,2.46-3.81,2.31l1.27-2.98c-1.2-1.21-4.2,5.34-4.73,5.93-1.18-.83-1.62.64-2.94,1.1l1.06,1.49c1.77-.89,3.37-2.02,5.04-3.06,1.73-1.08,2.7-1.99,4.47-2.87.97-.48,3.45-.9,1.36-1.52l.46-1.04c1.24.78,1.4-.3,2.14-.66.53-.26,1.3-.1,1.6-.33.11-.09,1.01-2.15,1.36-2.56,1.08-1.26,2.82-2.38,3.82-3.52,2.54-2.91,4.6-6.16,6.84-9.16l-1.28-.43,2.55-.86-1.27-.63,2.14-.64c-.86-1.39.29-1.5.86-2.34.3-.43.28-1.12.54-1.38,7.04-7.23,12.41-13.79,17.78-22.82.99-1.66.2-.53.49-2.13.15-.83,1.55-1.8,1.82-2.46.47-1.16.18-2.3.96-3.71.56-1.01,2.07-1.14,1.02-3.28l2.04-.92c-.85-2.35,1.32-4.32,1.98-6.12.26-.71.07-1.58.32-2.24.71-1.89,1.7-3.8,2.46-5.68l-1.33-1.29c2.27-3.01,1.52-6.29,1.83-9.68.11-1.17,1.29-1.64-.09-3.5.3-.79,1.25-.16,1.28-.22.12-.22-.28-.74-.21-1.07.74-3.97.25-8.56.43-12.6.07-1.62-1.1-1.43-1.07-2.73l.64.64.65-1.05-4.25-9.85.83-1.04.65,1.27,1.06-.85v1.29l.77-.3.29.72,1.07-.44-.85-.42v-3.41l.42,2.13h1.28c-.7-.73-.38-3.01.43-2.35.45.36.1,1.41,1.27,1.07.83-2.27,1.28-4.74,1.58-7.16.97-7.69.64-14.17.1-22.03-.27-3.9-.18-6.19-1.04-10.01-2.91-12.87-5.18-18.76-14.31-28.31-.69-.73-2-1.23-2.68-2.01-.67-.77-.95-2.11-1.23-2.39-.49-.48-4.06-1.32-.73-2.04l-1.49-3.2,11.51,11.08c-.06-2.09-1.48-5.66-2.63-7.61-1.01-1.72-4.64-3.59-1-3.68-2.43-1.32-2.02-2.68-2.82-4.42-1.75-3.82-3.56-7.55-5.18-11.44-.32-.77-.41-2.27-.73-2.69-.48-.63-2.2-.09-1.29-1.21l1.07-.47-.87-.24c1.12-3.11-1.09-6.62-1.65-9.82-.35-2.03-.15-4.37-.25-6.16-.14-2.27-.3-4.55-.63-6.8,1.81,1.53,1.04,4.45,1.39,6.49.45,2.65,1.6,5.48,2.01,7.82.09.49-.45,1.26-.35,1.41.08.12.81.15,1.14.75,1.16,2.1,1.66,6.1,2.73,8.37,1.28,2.72,2.65,5.43,4.11,8.25.83,1.59.49,2.69,2.61,3.79l-1.27.42,13.85,25.79c1.49-1.13,1.34-2.78,1.83-4.12.26-.71,1.08-1.26,1.28-2.14.35-1.55.08-8.66.29-9.08.09-.2.56-.54.65-.42l.64,3.4,1.9-2.53c-1.53.13-1.64-4-1.58-5.23.23-4.63,4.66-9.21,8.85-10.77,3.53-1.31,7.39-2.24,8.83,2.24.6,1.88.65,7.15-.22,8.93-.39.8-1.91,2.31-2.64,2.9-1.08.89-6.95,4.82-7.94,4.87-.66.04-1.23-.39-1.88-.4-.09.82.42,1.54.43,2.34.02,2.86-3.14,3.27-4.4,5.45-.48.83-3.05,7.9-3.49,9.26-.6,1.89,1.16,7.59,1.92,9.61.29.77.19,1.77,1.27,1.47l3.65-8.09,2.76-2.78c-.53,4.87-2.4,9.12-3.67,13.85-.19.72.22,1.38.13,1.86-.17.82-1.19,1.6-1.33,3.2-.24,2.68,1.4,5.45,1.03,8.16l-.84-.23c.92,1.28.42,2.19.53,3.32.17,1.7,1.59,4.39-.56,5.24l.88,2.33h-1.28c-.18.71.61.23.76.62.03.08.12,1.58.1,1.66-.11.54-1.05-.02-.87.7l1.27.65-.84,1.06.73.08c-.62,1.1.8.88,1.38,1.84-.72,1.14-1.28.02-2.12-.21-.36,2.47.25,5.65-.59,7.96-.05.13-.69.16-.71.41-.1,1.05,1.22,1.57-.41,2.12l.39,1-.81.45.84.2-2.12,3.86c-.16.36.74.04.86.49.09.35.32,5.35.29,6-.05,1.03-.97,2.23-1.05,3.43-.07,1.11.56,2.32.33,3.52l2.55-.86-.85-1.7.84.43.47-1.67.81.4c-.32-1.28,2.41-2.64.43-3.2l1.07-1.07c.47.63.21,1.93,1.49,1.7-.46-2.75,2.44-4.29,3.77-6.25.88-1.3,1.82-3.29,2.21-4.83l1.05,1.24,1.89-.8.69,1.26,1.91-.85c-1.27,2.1-1.98,4.04-4.26,4.69-.09.72,1.95.5,2.25.43.49-.12.6-1.25.94-1.28.66-.06,1,1.83-.19,2.32-.55.22-3.2-.43-4.11.64l.26,1.72c-1.7-.38-1.19.8-1.68,1.39-1.98,2.38-4.45,6.59-5.59,9.46-1.31,3.31-1.38,7.8-4.67,9.83l1.7-.21v1.28l-1.27-.43c-.1,1.52-1.08,3.79.85,4.48l-1.07,1.07-.22-1.28c-1.57.57.35,2.28-1.27,3.2l1.7,1.49h-1.71c-.15.14.5,3.32.4,4-.02.13-1.58,1.24-1.84,1.96-.34.95-.91,3.04-1.27,4.24-.28.95.35,3.16-1.12,3.02-.19.71.64.28.78.47.8,1.13-2.03,2.08-2.08,3.56.92.55,1.79,1.11,1.72,2.36-1.37.32-.5-.8-1.12-1.3-.22-.18-1.27-.56-1.43-.4l.85,1.92-.85.21.84,1.48c-.46.94-1.32.22-1.62.34-1.37.53-3.81,7.98-5.19,9.48-.08,1.76,1.62-.7,2.13-.22-.29,1.75-1.32.99-2,1.41-1.09.68-1.31,2.75-1.44,2.85-.16.13-1.28-.69-1.68.22l1.27.42-1.92,2.35-.22-.84h-.85l.19.86-1.06.66.45,1.45-2.14.44.36.78-1.21.71,1.27,1.05c-1.25.55-.89,1.18-2.55.43v1.71h-2.13l1.71,1.52-.05.79c-1.21.71-1.12,2.06-2.52,1.09.31,1.61-.82,1.57-2.13,1.71-.19.72.82.2.89.67.09.58-.4,1.72-.89,2.05-.59.41-2.62,2.11-3.42,3.14-.65.83-1.68,3.41-2.25,3.81-.94.68-2.99.26-4.13,1.42v.84l1.27-.21c-2.62,2.87-6.89,4.52-9.36,7.36-2.3,2.64-5.3,3.89-8.24,6.05-1.19.87-2.41,2.55-4.14,3.22,1.72.06,4.43-1.5,6.03-2.4,10.31-5.83,18.49-14.31,25.64-22.87.7-.84,4.44-1.68,4.15-3.91l1.26-.02c-.72,1.24-.1,2.23.43,3.4l-1.49-1.69-1.51,2.79.87,1.46-1.92-.84-1.98,3.74c-2.93.86-5.36,3.67-7.81,5.62-7.04,5.61-14.26,11.31-21.65,16.31-1.98,1.34-6.72,2.54-5.43,5.01-.97.31-2.48-.35-3.21-.25-.52.07-3.78,2.62-1.7,2.8l5.34-2.12c-.97,1.46-3.84,1.94-5.54,2.56-.36,2,1.82-.42,1.71,1.06l-1.71,1.07c1.29-.02,2.44-.17,2.14-1.7,1.92,2.02,3.48-.35,4.98-1.72,1.49-.43,1.41.78,1.69.86,1.91.55,1.2-.73,1.54-1.13.48-.56,1.93-1.2,2.46-2.04,1.74.45,10.5-5.42,11.07-4.91-.49,2.29-2.81,1.99-3.96,2.6-1.8.95-4.84,3.27-5.85,5.07l-.63-.85c-.44.4-.83.96-1.36,1.24-3.63,1.91-7.41,4.43-11.36,6.08-2.26.95-11.03,3.06-12.02,4.63-.29.46.39,1.27-.43,1.68l-.85-2.12c-.41,1.24-3.9,1.06-4.05,1.28-.66.99,1.61,1.69.85,2.55-.67.76-1.68-1.55-1.79-1.62-1.01-.59-4.93,1.13-6.27,1.36-1.46.26-3.52-.94-3.04,1.11-1.05-.18-2.06-.8-2.34.44l-1.89-.85c-.52,2.47-3.26,1.14-5.14,1.69l.23-1.3c1.67-.97,4.1.49,4.68-1.27l1.91.86-.42-1.01c-.05-1.06,5.47-1.8,6.48-2.1,1.3-.38,3.34-.88,4.33-1.21.62-.21.56-1.01.77-1.17.25-.19,3.67.99,3.34-2.19l-15.34,3.83c-.41-1.14.76-.69.86-1.11.38-1.58-1.23-2.64-2.57-1.87v-1.71h-1.71c.48,3.68-.45,2.53-2.55,4.02-1.39-.68-1.85,1.99-2.17-.14l-.81-.04c-.16,1.1-.6,1.46-1.71,1.27l.85-1.27-1.5-.39c-1.04.6-.3,1.19-.2,2.09h-1.28c.34-.51.42-2.01-.63-1.7-.64.19-.59,2.58-2.32,2.17l-.03,1.24c2.03.33,3.64-2.09,4.68-.21l-4.07,1.46c-.7,2.39,1.23,1.25,2.59,1.26,2.91.01,1.3-.18,2.19-.39.91-.21,1.56.36,2.1.39.19.01.17-.61.29-.66,1.47-.59,2.29.02,1.18,1.34-2.58,1.07-4.36-.63-6.86.85l-.18,1.07-1.91-.44,1.27-.84c-.8-.25-1.13.11-1.67.32-4.56,1.81-19.49-.25-25.45-.71-1.71-.13-2.08.71-4.15-.48-.64-.37.17-.76.14-1.26l-1.07,1.28c-1.6-.2-3.27-.82-4.76-1.13-1.26-.26-2.77-.76-3.89-.92-1.09-.16-2.39.3-3.5.33l.85-1.27c-3.22-.63-6.15-.88-9.27-2.01-.47-.17-.45-.77-.86-.94-6.68-2.72-15.76-5.29-21.91-9.13-.82-.51-1.05-1.18-1.76-1.71l-.73-.05c-1.44,3.04-8.28-2.12-7.24-3.21,1.93.19,3.14,2.61,5.11,1.92-1.64-1.32-3.37-2.66-5.15-3.8-2.64-1.68-2.46-1.62-4.78-3.53-1.72-1.42-5.32-2.26-6.29-4.37l-1.47.82c-1.04-.53-.1-1.17-.29-1.59-.05-.12-1.65-1.67-1.83-1.82-.79-.64-1.91-.85-2.57-1.69-.36,2.02,3.17,2.52,3.41,4.27-1.14-.71-3.04-1.1-3.87-2.11-1.03-1.24.18-1.71-.82-2.59l-1.48.43.85-.85-.86-1.07.95-1.83.77.34.07-1.18c2.27-.35,2.57-.88,2.06-3.09l-1.27.43c-.43-1.26.85-1.83.86-1.95.12-2.26-2.74-3.06-.85-5.08l-.9-.47.47-1.87-2.13-.43.05,1.66,1.22.04-.64,1.7c-.81-1.42-1.22-2.76-3.19-2.55-.63.57,2.45,3.14,2.83,3.58.22.26.09.89.21,1.03.07.08.96-.45,1.19.33.26,1.16-.07,2.29-1.24,2.73-.41-1.64-1.22-1.47-2.36-1.7.64-1.99-1.71-2.51-1.92-4.69-1.01-.59-.77.95-1.05.85l-2.96-2.09-1.51.4-.23,1.68c-.94.28-.6-.78-1.03-1.05-.29-.18-.91.23-1.29,0-.71-.42-9.31-12.4-9.6-13.39-.12-.4.33-1.16.19-1.29-.1-.1-.85-.03-1.22-.28-1.33-.87-5.78-8.22-5.16-9.13l1.28-.42-2.55-1.07c2.6-2.28,3.8,1.6,5.53,2.77l-1.69-4.05c.64-1.03,1.2-.33,2.12-.21l.02-1.44c-.16-.63-2.32-.24-1.73-1.98l-1.27.43c.87-1.51-2.75-3.46-.29-5,.46-.29,2.71-.26.4-1.04-.55-1.73,1.59-2.12,2.87-2.05v-.62c-1.22-.71-.41-2.61-.49-2.73-.24-.34-1.77-.36-1.21-2.19l-1.06,1.28c-1.75-1.46-1.33-3.42-1.94-5.3-.76-2.33-1.77-4.58-2.41-6.97-.6-2.23-1.09-7.81-2.04-9.47-.12-.2-.55-.55-.64-.42-.59,2.19,1.07,3.67.42,5.55l.85-.43-.26,2.57,5.8,17.69-.85.63-.42-.85-.44,1.49.85-.21c-.39,2.37-2.03,1.12-1.7-.86-.1-.12-.9.38-1.3.21-1.72-.73-6.66-18.37-8.09-21.09-.87,0-.34,1.69-.23,2.15,1.36,5.67,5.24,12.95,6.17,18.13.06.32.22,1-.18,1.03-1.92-.82-.16-2.34-2.77-1.28-.35-3.79-2.17-7.41-3.2-11.08-2.93-10.42-5.19-23.65-4.91-34.3.01-.44-.2-.89-.32-1.32l2.03-.62-1.28-1.53c.9-2.27.38-4.87.6-7.14.2-2.12.71-2.48.68-4.75-.04-3.38.66-6.32,1.28-9.59,1.56.64,2.8.17,1.93,2.17l-1.07-.04c.87,2.74-.34,5.68-.62,8.47-.7,7.01-.84,14.2-.23,21.12l1.27,3.23c.18-2.97.4-7.11.04-10.04-.11-.86-2.34-1.1.38-2.52-1.3-1.16-.21-1.93-.15-3.06.07-1.41-.28-3.86-.14-4.99.09-.75,1.67-1.16-.14-1.83l4.61-18.79-.13-1.82,2.78-9.38-.88,1.24c-.33-.07-.74-.31-1.03,0-.53.57-2.65,7.61-3.01,8.97-.27,1.01-.67,5.39-1.13,5.9-.17.19-1.2.2-1.61.51-.25-.76.63-.99.72-1.55.07-.45-.26-1-.18-1.52.07-.45,1.29-3.9.1-3.31-1.4.69-.77,3.04-1.17,3.74-.11.2-.88.31-1.29,1.05-.55,1-.55,4.27-1.82,5.46l-1.93-.29c-.19-5.92,1.4-11.33,3.1-16.91.22-.72.85-1.27,1.06-1.92,1.66-5.13,2.28-9.52,5.3-14.3.27-.43.88-1.32.78-.07-2.11,4.84-5.35,10.21-4.68,15.57,1.68-1.34.85-4.57,2.97-5.54l.43,1.92.85-.44c-.93-1.82.08-3.44,0-5.32l.43,2.56c1.13-.42,1-2.04,1.4-3.07.71-1.83,1.32-2.58,1.53-4.87.04-.48.4-1.53-.37-1.43l-1.72,4.26-.84-.21c1.4-4.02,4.55-7.4,6.28-11.2.77-1.68.61-3.87,2.03-5.22l.59.05c-.2,1.19,1.97,1.06,2.43.38.28-.41-.25-1.16-.06-1.73.47-1.44,2.3-4.46,3.22-5.75-.42-.68-.95.1-1.27.43-.83.88-2.59,5.02-3.2,5.32-.14.07-1.07.15-1.06-.21,1.12-2.08,2.78-3,3.41-5.33l-2.13-.24-3.63,5.35c-.38-.86.48-2.2.84-3,.91-2.04,3.24-5.51,4.69-7.25.3-.35,1.93-2.12,2.35-1.69l-3.39,5.35c-.36.85.09.39.4.47,1.91.51.99-.35,1.4-.99.32-.5,1.77-.78,1.96-1.08.14-.22-.3-.81-.12-1.19.73-1.52,2.98-2.4,2.75-4.67l2.12.21c.13-2.29.84-1.38,1.73-2.23.98-.94,1.7-4.75,2.95-5.89.74-.67.22.83.64.64l2.34-1.71-.05-.81c-1.54-.16-1.15-2.95.47-3.02l.8,1.49-.37,1.07,1.89-.45.45.88.65-2.55c.7-.13.5,1.09.44,1.5-.19,1.3-1.02,2.26-.87,3.62l-1.27-.85v2.98l-1.28-2.13-.27,1.31-1.44-.03c-.2,1.71,1.53.96.42,2.98l-1.27-.85-.86,1.7.85.43-2.13.65,1.27.21-.85,1.7c2.01.24,1.87-1.13,2.44-1.68,2.17-2.11,5.21-4.52,5.24-7.69l1.27,1.28c-.23-.96,1.42-5.42,2.56-4.68l.42,1.27,2.14-4.26-.83.41-.45-1.05,1.28-.22-1.27-.42.43-1.7,1.7.85c-.63-1.73,1.17-2.01,1.29-2.35.43-1.31-2.01.42-1.28-.84.25-.44,1.4-.95,1.93-1.49,8.55-8.55,19.78-14.23,30.35-19.93.5-.27.54-.89.84-.96,1.66-.35,5.36,0,5.25-2.56l.62.84c1.16-.34,2.5-1.25,3.54-1.59.4-.13,1.48-.45,1.38.31-3.59,1.07-6.68,3.59-9.84,5.29-5.17,2.8-10.84,4.87-16.05,7.81-4.08,2.3-7.66,6.34-11.36,9.78-.32.3-1.24-.05-1.53,1.22-.27,1.23,1.18.52,1.73.02.47-.42.73-1.33.89-1.45,8.76-6.1,18.98-13.56,29.77-17.76,1.34-.52,2.73-.9,4.05-1.5,1.51.16-.41,1.91,1.91.85l-.85-1.27,4.04-1.72.22,1.28c.86.14,1.66-.06,1.71-1.06h-.86c-.12-.31.02-.45.2-.66.15-.17,3.69-1.83,4.04-1.93,1.56-.45,4.05-.49,5.92-.9,1.68-.36,3.22-1.33,4.97-1.43.67-.04.73-.08.64.64l-1.27,1.07,1.95-.42.15-1.49c1.63-.28,3.71-1.81,5.37-1.41.65.16-.53.24,1.68.33,3.45.15,2.63-.58,5.21-1.11,4.77-.99,12.03.24,17-1.4l.24.71-.07-.11ZM135.07,8.54c-1.32.4-4.41.25-5.43.72-2.19,1-5.14,1.34-8.04,2.22-.56.17-1.21-.32-1.01.68l1.06,1.06c.45-.3.42-1.11.95-1.27.38-.12,6.39-.93,6.72-.88,1.14.15.97,1.41,1.28,1.31.87-.46.13-1.48.62-1.93.4-.38,2.12-.57,2.92-.92.63-.28,1.17.22.94-.98h-.01ZM106.51,11.1l-3.63,1.28-.42-.85c-.91,1.73-3.92.53-4.05,2.55.31.27,6.38-1.46,7.25-1.88.56-.27,1.02-.15.84-1.1h0ZM112.18,13.38c1.58-.46,3.44-.45,4.99-1.21l-.21-1.06c-5.18,1.66-10.97,2.73-16.09,4.36-1.15.37-6.43,2.25-7.14,2.67-.73.43-.86,1.1-.87,1.9-.77.07-.45-1.49-1.48-1.27-.52.11-.89,1.45-.64,1.7.09.09,1.59-.1,1.96,1.24l1.45-.39-.85-1.69c4.51-2.69,9.64-3.45,14.59-4.81,1.5-.41,3.29-1.15,4.29-1.44h0ZM132.52,17.5c-2.64.2-6.1.43-8.52,1.49-.68.3-1.43.56-1.28,1.49,3.2-1.09,5.84-1.65,9.16-2.14.74-.11.72.23.64-.84h0ZM83.92,19.63c-4.83,1.42-9.16,4.77-13.21,7.66l2.26-.94,10.95-6.73h0ZM90.32,21.75l-.21-2.13-4.47,2.34,1.48,1.08c.92-1.15,1.81-2.04,3.2-1.3h0ZM120.58,21.32l-.21-1.26c-1.14.68-2.48.85-3.65,1.48-.59.32-1.05-.04-.83,1.07,1.66.31,1.75-.86,2.2-1.17.1-.07,1.97.23,2.49-.11h0ZM76.25,27.72l-.21-.84-6.14,3.67-5.58,5.28c2.77-1.11,4.88-3.54,7.27-5.3.71-.52,4.48-2.6,4.66-2.81h0ZM53.25,37.5l-.23-1.25c-.87,1.85-.91.81-1.66.94-.8.15-.88,2.54-.05,2.89l1.91-1.7-1.7,3.41,3.4-3.42-.24-.85-1.44-.02h0ZM28.93,62.25l3.26-3.77.57-1.77c-.38,1.06-2.81,2.05-2.91,2.2-.31.48.02,2.55-.93,3.33h0ZM23.41,76.33c.04-.06,1.02.56,1.23-.26l6.42-13.4c-1.65,1.04-2.72,2.58-3.63,4.26l-1.06-.85c.47,1.53-1.17,2.47-1.46,3.4-.13.43.28,1.18.17,1.28-.12.1-.87-.22-1.31.27-.19.21-2.43,4.85-2.46,5.14-.09.75.46.95,1.02.65l.21,1.62c1.14-.2.64-1.77.87-2.12h0ZM21.25,77.6c-1.1-.23-.66.22-.89.61-.96,1.6-1.16,3.57-2.93,4.72.85.59,1.52.69,1.27,1.92,1.79-.5,1.71-3.09,3.83-4.05-1.57-.45-.56-.83-.48-1.72,0-.09-1.26-.5-.8-1.48h0ZM18.42,86.43c-.39-.78.03-2.18-1.42-2.01-.45,1.81-1.55,3.58-2.24,5.25-.2.48-.49,1.35-.7,1.92-.47,1.25-1.6,3.55-1.66,4.68-.06,1.06,1.1,3.99,1.64,2.01.42-1.54.77-3.73.83-5.33l1.27.43c-.49-1.76,1.1-2.4,1.25-3.25.14-.79-.71-.46-.81-.87-.2-.81-.17-4.11,1.26-2.49l-.63,2.34,1.92-2.35c.13-.32-.6-.11-.7-.33h-.01ZM19.98,93.8c-1.14-.22-.74.25-1.04.85-5.1,10.36-7.81,27.04-8.79,38.51-.16,1.83-1.27,3.88-.39,5.82l3.42-19.39-.86-.64c1.47.2.77-2.5,1.1-3.61l6.57-21.55h-.01ZM10.17,141.54c-1.14-1.2-.87,2.72-.84,3.19.15,2.51.51,6.37.98,8.83.18.93.13,2.49,1.14,2.9-.95-4.99-.46-9.89-1.28-14.92h0ZM23.39,187.16c.61.11.97-.12,1.17-.71.23-.66-4.12-11.17-4.71-13.02-1.91-6.01-3.57-12.49-4.26-18.76l-1.16-3.74c-.19,4.23,1.55,8.24,1.44,12.37,1.84,8.18,4.58,16.04,7.51,23.86h.01ZM177.28,154.75c-2.17-1.77-5.33-2.76-8.1-2.98-.1.61.72.56,1.17.74,2.22.87,4.6,1.67,6.93,2.24ZM204.56,184.6c-.57-3.26-2.42-6.96-5.11-8.95l5.11,8.95ZM26.56,182.74c-.69-1.64-1.41-3.71-2.54-4.96-.11,1.24.63,2.88,1.06,4.06.77,2.11,1.78,4.61,2.77,6.61.45.91,1.09,2.4,1.93,2.97-.68-2.47-1.79-4.91-2.74-7.3-.22-.54-.21-.74-.48-1.38h0ZM26.37,187.59c-.67-.49-3.91,4.04-.42,2.99v1.7c1.82-1-.7-2.4-.43-3.83l1.27,1.28-.43-2.13h0ZM184.96,190.99c.73.13,1.58-.17,1.92-.84,1.16-2.31-3.68-2.65-1.92.84ZM26.38,200.8c.58-2.28-2.88-3.85-3.54-5.23-.51-1.06.16-3.92-2.43-4.14,1.22,1.37,1.06,4.17,1.94,5.51.47.72,4.38,3.18,3.59,4.29l-1.7-.85c-.43,1.47.75,1.2,1.22,1.96,2.39,3.92,4.74,8.22,6.88,11.9,1.66,1.24,7.78,10.59,8.79,10.78.5.09,1.27-.45,1.87-.34.17-.73-.25-.86-.66-1.27-1.47-1.43-3.39-2.65-4.63-3.86-1.21-1.18-2.87-4.36-3.81-6.01-.65-1.14-2.9-2.48-.27-2.71l-2.98-.64c.9-1.79-.27-.99-.77-1.99-1.03-2.06-.67-4.74-3.49-6.32l1.27-1.49-1.27.43v-.02ZM36.18,199.09l-1.28.22c-.38,2.71,4.07,6.89,5.54,9.15l.37-1.62c-2.74-1.46-3.54-4.49-5.49-6.69l.85-1.06h.01ZM172.04,210.3c-3.23-2.61-7.52,2.63-4.55,5.19,3.3,2.84,7.54-2.77,4.55-5.19ZM62.6,232.77l-4.26-3.42,1.28,2.99.77-.35.93,2.05,1.27-1.27h0ZM54.5,234.48c-1.89.93-2.12-1.34-3.4-2.13l-.44,1.7-1.27-.85c-.54,1.83-.09,2.11,1.49,2.97l.21-1.69c.86-.14,1.66.06,1.71,1.06l-1.29,1.29c1.02.22.79,1.22,1.27,1.68,11.69,10.93,27.44,19.41,42.55,25.68,1.57.65,3.94,1.18,5.63,1.83-.6-.73,0-2.13-.04-2.35-.24-1.27-1.59.68-2.45-.26l.15-.8-1.07-.43-.64,1.28c-1.72-2.21-4.73-1.9-7.33-2.91-.73-.28-1.59-.74-2.27-1.15-3.28-1.96-7.37-4.49-10.99-6.15l-6.69-3.84.06-.78-.74-.34.44-1.03-2.13.42v-1.28c-1.15-.23-.63.26-1.06.85l-3.2-1.71c.16-2.05,2.37-1.37,3.4-.42v-2.13c-1.95.77-2.16.35-3.19-1.28l-.21,1.28-1.71-.44.43-1.7h-1.28l.42,1.27c-2.76.2-3.14-2.91-3.96-3.71-.33-.32-3.63-1.85-3.71-2.05l1.27-1.91.04.03ZM82.22,243l-12.79-8.52c-.44,2.82,1.51,1.91,2.66,2.55.23.13.3.58.49.69,3.11,1.82,6.26,4.11,9.64,5.28ZM73.12,241.01c-.21-.25-4.8-3.94-5.09-4.08-.82-.38-.99-.46-1.58.32l1.7,1.28-1.28.63c2.32.22,3.69,3.19,5.33,4.69l.28-1.22,1.21-.06c.07-.6-.2-1.13-.57-1.57h0ZM52.79,241.31c-1.83-.22-1.57.38-.42,1.49,3.92,3.78,8.69,6.16,12.64,9.29.28.22,3.15,3.75,3.56,3.28l.39-1.65-11.47-7.53c-.47-2.28-4.64-2.3-4.7-4.88h0ZM202.43,246.41l-1.28.32v.96c-.41-.16-.78-.42-1.25-.23-1.03.41-4.43,3.34-5.66,4.18-1.51,1.03-1.11,2.24.79.99,1.65-1.09,4.55-2.91,5.9-4.11.32-.29,1.99-1.7,1.5-2.12h0ZM75.4,258.34c-.88-1.47-2.63-2.56-4.14-3.31-.73-.36-.69-.81-1.39.12,1.72,1.08,3.47,2.95,5.53,3.19ZM105.24,256.65c-1.56.3-2.79-.69-4.14-1.16-.64-.23-.63-.97-1.4.1l4.91,2.33.63-1.26h0ZM194.75,256.22c-1.17-.41-.81.84-1.25,1.08-.77.43-3.75,1.15-5.52,2.17-.73.42-2.38.86-2.18,1.87l6.61-2.98c.9,1.14-1.59,1.39-2.05,1.7l-.29,1.28c1.36-.41,3.46-.11,3.84-1.91.22-1.03-.44-.44-.86-.21-.55-1.76,1.77-1.28,1.7-2.98v-.02ZM123.14,260.91l-10.23-1.71c1.73,3,6.65,1.11,9.55,2.99l.68-1.29h0ZM178.13,260.06c-.8-.1-1.58.18-2.37.19-3.83.06-8.07,2.19-12.04,2.7-2.57.34-5.39.59-8.02.9-2.93.34-6.01.14-8.93.63-.49.08-.96-.02-1.05.68,1.34-.04,2.7.08,4.05,0,6.07-.37,11.79-.74,17.89-1.72l10.46-3.38h0ZM185.38,260.91c-1.75.72-3.66,1.01-5.46,1.58-.72.23-1.12-.17-.92.97,2.02-.12,3.74-.57,5.53-1.52.57-.3,1.09.13.86-1.03h-.01ZM189.65,266.02c1.63-.51,1.92-1.32,1.7-2.99l-1.49,1.28-.42-.85c-1.3.75-2.21,1.27-1.92,2.99l1.71-1.7.42,1.28h0ZM108.22,263.89l-6.39-.43c.74,1.45-.16,1.71-.43,2.98l8.95,2.13c-.29-2.08-3.06-2.08-4.69-2.13v-1.28c1.01.04,2.67.26,2.56-1.28h0ZM176.85,263.46c-.74-.17-.89.47-1.5.64-.26.08-.86-.32-1.02-.21-.21.15-.2,1.42-.54,1.63-.54.34-1.7-.41-2.24,1.28l-1.94-.79-.43,1.28-.64-.85-.65,2.13-1.49-1.69-.64,2.97,6.94-2.24.95-1.18c2.25-.39-.24,1.27,1.28,1.3l4.04-2.35c-1.59-2.27-2.16,1.23-4.68.21.58-1.05,2.71-.17,2.55-2.12h.01ZM187.08,264.74c-2.66.4-7.87.99-6.82,4.68l.42-2.13,1.07,1.28c2-1.23,5.82-.71,5.32-3.84h.01ZM114.61,266.88c-1.6.53-1.99.12-3.41-.43l-.42,2.56,2.13-.85-.85,1.7c.35.3,5.23.26,5.76,1.28l.22-.83h.83l1.08,1.26c.78-2.17.96-.25,1.36-.02,1.26.72,11.3,1.57,13.53,1.74,2.56.19,5.28-.92,7.27.84.41-1.46.94-.52,1.93-.57,1.4-.07,2.84-.18,4.24-.3v-1.27l-2.58.23-.62-1.93-.21,1.71c-1.51.72-3.35-.85-4.05-.87-.26,0-.15.78-.5.87-1.77.46-9.12-.49-11.37-.84-.15-.02-1.59-2.37-2-.02l-2.33-1.72c-.26.8-1.78,1.76-2.54,1.74-.22,0-.15-.7-.55-.84-1.34-.47-3.37-.66-4.8-.88l.43-1.27-2.98.42.42-1.7h0ZM113.75,274.54c-.26-2,2.6-.51,2.56-1.49-.05-1.34-3.6.22-4.04-1.06l-.64,1.27c2.08-.51.56,1.55,2.12,1.28h0ZM148.29,274.98c-5.75.44-11.54.07-17.27-.42-2.76-.24-5.93-.78-8.71-1.11-.77-.09-1.15-.41-1.72.47l3.73,1.37c3.46.69,19.77,1.57,22.59.85.66-.17,1.18-.46,1.38-1.16Z"/>
  <path class="cls-1" d="M160.66,79.73c2.2-1.04,4.18.32,5.02,2.43,4.21,10.5-7.02,22.73-16.11,26.55,6.69-5.19,12.87-11.81,13.58-20.72.33-4.07-.74-4.53-2.51-7.83l-7.49,11.9c-2.19,2.73-10.37,10.12-13.62,10.71-.98.18-.21-1.28-1.48-.87l-.06,1.64c-.15.25-1.87.56-2.31.54-.84-.04-.55-.93-.84-.92-.69.03-.74.79-1.8.59-3.68-.66-8.11-6.37-8.94-9.87-1.62-6.79,1.23-11.94,3.71-17.99-1.23-1.22-5.08,6.13-5.42,7.15-2.14,6.33-1.22,8.93-.75,15.02.04.55.47.65-.42.42-6.63-1.73-9.64-6.32-7.89-13.21l6.81,2.98c.59-.62-5.04-5.22-5.43-6.71-.45-1.73.07-3.53.32-5.23l2.98,1.06c-.26-3.16-3.3-5.25-2.99-8.74-.56-.68-.78.05-.85.63-.22,1.72.25,3.81-.02,5.52-.35,2.17-1.64,8.58-2.23,10.56-.35,1.19-1.48,2.49-1.58,3.57-.15,1.64,1.39,4.21-.22,5.71-5.57-3.1-10.22-5.6-6.6-12.78l6.81,2.13c-2.75-3.29-9-6.43-4.59-11.19.7-.9,5.06.42,5.01-.53-.03-.56-1.6-.74-2.13-.64l.42-.82c-.59-.11-1.2-.3-1.69-.67-.76-.57-.77-2.09-1.72-1.29-.4.33-2.75,4.61-2.88,5.22-.53,2.61,1.37,7.54-2.46,6.1-2.76-1.04-4.22-2.01-5.86-4.16-.35-.45-1.46-.36-1.16-1.4,1.67.37,1.1-.84,1.9-1.72,1.98-2.19,6.77-3.4,9.34-4.73.8-.41,1.43-1.65,2.35-1.85,2.22-.49,4.82,1.5,6.88,1.91l-3-3.6c-1.69-2.59,1.59-1.41,2.34-1.59.48-.11.49-.94.99-1.2,3.53-1.8,14.57-4,18.66-4.28,11.87-.82,34.38,6.19,27.91,22.18l.02.02ZM148.18,82.82c-4.15,1.12-4.93,9.22.55,7.8,4.45-1.15,5-9.29-.55-7.8Z"/>
  <path class="cls-1" d="M222.46,96.78c-.7.16-1.04-4.65-2.12-3.41l-1.07,4.69c-1.49-1.06-3.74-8.84-6.14-7.2-2.05,3.86,4.48,4.21,4.22,8.06h-1.71l1.08,2.14c-6.08,5.1-12.56,12.48-21.2,7.1-2.32-1.44-7.55-7.84-5.26-10.52.96-1.12,2.96.51,3.21-.65.36-1.7-4.01-2.87.03-6.35,3.95-3.39,10.87-4.25,14.48-.06l3.39,1.94c-.94-3.25-3.77-5.52-4.68-8.78-.87-3.11-.28-7.31,1.35-10.11.25-.43,2.66-3.34,2.91-3.47,1.97-1.04,3.23,1.38,5.11,1.48.04-5.47,4.91-3.22,7.69-1.08,4.1,3.17,6.31,8.29,4.81,13.36-.97,3.3-2.31,4.54-4.17,6.91-1.11,1.41-2.03,4.16-1.94,5.95h.01ZM219.34,87.02c-2.13,1.51-.56,3.94.78,5.49,1.22-1.07,2.4-4.44.64-5.33l-1.43-.16h0ZM215.22,98.49c-1.49-.89-7.58-2.58-7.27.61.27,2.67,6.54,1.61,7.27-.61Z"/>
  <path class="cls-1" d="M227.87,105.88c.4.27,2.77,2.59,3.12,3.05,3.78,4.96-2.33,14.07-6.6,17.26-3.23,2.41-4.98,1.28-7.73-1.25l-2.94,2.11c-3.97-.62-6.46-4.83-5.74-8.54l-.85.43c-.16-.23.52-4.79.71-5.47.96-3.37,4.49-5.2,6.75-7.74,1.07-1.2,1.64-2.83,2.98-3.84,1.08,2.4-2.61,6.9,1.06,7.67l1.72-8.52c.79.08.23.97,1.1,1.67,1.58,1.27,4.78,2.05,6.43,3.17h-.01Z"/>
  <path class="cls-1" d="M245.06,89.11c6.56-1.87,2.89,6.58,1.2,9.52-4.02,7.02-13.04,9.98-19.41,4-.29-.27-.44-1.06-.79-1.57-.37-.52-1.5-.26-.99-1.68l6.77-2.61-2.76-2.01c-2.75.97-4.33,2.44-6.18,4.58-1.12-2.32.48-2.42,1.46-3.86,2.61-3.85,5.36-11.08,9.62-12.98,4.01-1.78,10.27-.65,12.82,2.99l-1.74,3.61h0Z"/>
  <path class="cls-1" d="M286.3,116.51c.28.31.18,1.27.76,1.58l-.22-1.7c1.39.13,2.33,1.3,1.71,2.55l1.25.25c-.82,1.79.92,2.53,1.22,3.89.17.75-.4,5.59-.69,6.32-.09.24-3.13,3.82-3.34,3.97-.84.6-5.34,1.99-6.23,1.68-1.23-.43-.85-1.48-1.3-1.94-.18-.19-.81-.01-1.17-.39-1.25-1.3-.46-1.73-2.4-3.23-2.45-1.9-.95-8.95,1.33-11,1.72-1.56,7.19-4.13,9.08-1.99h0Z"/>
  <path class="cls-1" d="M70.71,123.21l.04,1.69,1.24.02-.4,1.46.65.65,9.37-.79c3.33,2.56,8.84.86,12.22,1.31.5.07,3.16,1.1,2.86,1.82-3.16,3.31-4.06,8.14-9.33,4.26l-2.58-3.17c-.14,2.88,2.59,4.24,2.98,6.81-.62.36-6.99-.9-7.81-1.35-1.07-.6-3.54-4.1-4.77-5.03l3.2,6.39c-4.45-.97-9.11,1.1-10-4.91-.21-1.45.36-2.39,1.05-3.61l-1.28-.64,1.24-.69-.39-.98c1.69-.26-.43-3.28,1.71-3.24h0Z"/>
  <path class="cls-1" d="M215.93,3.14c1.3,1.29,2.92,6.35,2.07,7.97-.43.81-1.51.62-1.82.97-.81.9-.25.5-1.6,1.56-.6.48-1.08,1.42-1.79,1.63-2.92.87-7.14-.85-8.84-3.35-1.77-2.62-3.11-10.38,1.89-7.64v-2.13l2.13.85c-.22-1.27-1.34-1.57.02-2.78,1.51-1.01,6.8,1.78,7.94,2.92h0Z"/>
  <path class="cls-1" d="M124.85,117.03c.03-.53,1.24-2.7,0-3.19-1.43,8.1-2.05,15.89.42,23.87-2.57-1.75-3.86-5.78-4.21-8.78-.41-3.45.58-13.98,2.9-16.53.61-.67,1.34.41,1.28-1.33l2.36-.61.58.93c-2.68,9.47,2.03,17.73,3.49,26.75-1.12-.74-1.47.3-2.55.42-.54-2.32-1.74-4.46-2.44-6.73-.48-1.55-1.83-5.8-1.83-7.12,0-2.52-.13-5.17,0-7.67h0Z"/>
  <path class="cls-1" d="M68.14,138.13c-.19,3.81,2.97,6.5,4.27,9.8-2.14-.57-4.73-.71-5.54,1.7l1.28.02c-.41,1.23.42,3.13,1.17,4.15,1.7,2.31,7.11,3.22,2.46,6.49-3.86,2.71-8.44-4.32-7.46-8.09h-1.29v-1.92l-.85.21,2.13-1.5-1.7.21c.76-1.68-.05-2.3-.43-3.84l1.27.42c-1.74-1.99.37-2.34.72-3.07.09-.19.14-2.68.25-2.99.47-1.27,2.53-3.3,1.92-4.76-.31-.76-1.26-.39-1.19-1.11l1.7-.43.07,4.42,1.21.27v.02Z"/>
  <path class="cls-1" d="M90.74,103.18c.31-.33,4.98,1.36,5.95,1.51.72.11,3.76-.54,3.84.41-2.22,3.6.28,7.03.89,10.63-2.62,1.31-7.26-.25-8.91-2.59-.3-.42-1.78-3.52-1.78-3.76v-6.2Z"/>
  <path class="cls-1" d="M126.3,105.15c.11.14,1.37.27.68,1-.34.36-2.45.32-3.1.53-1.02.34-1.34,1.63-3.07.75l.2,1.28-.88-1.23c-5.64.41-9.46-5.61-8.07-10.7,2.13.81,4.14,1.78,6.37,2.36,1.16.31,2.45-.03,3.43.41.58.26,3.71,4.66,4.44,5.6Z"/>
  <path class="cls-1" d="M228.86,149.22l1.7-.43c.74.58-3.16,1.3-3.32,1.41-.25.18-.34.88-.71,1.14-2.38,1.68-6.33,1.89-8.75.2-1.22-.85.67-.39.42-1.05-3.22-.28-4.62-3.01-1.79-5.09,4.57-3.37,11.39-2.24,12.46,3.81h-.01Z"/>
  <path class="cls-1" d="M110.73,107.06l2.11,6.09c-2.05.8-4.18,5.89-6.34,5.2-1.02-.33-3.89-3.18-2.97-4.09l1.27-.22c-2.52-1.76-4.24-4.74-3.39-7.88l9.31.89h.01Z"/>
  <path class="cls-1" d="M110.35,95.08c.4,1.98-.53,3.57-.44,5.77.08,1.93,1.01,3.78.87,5.74-3.32-1.73-6.7-1.49-8.76-5.09-1.8-3.16-1.34-5.09-1.04-8.55.44-.49,7.74,3.84,9.37,2.13Z"/>
  <path class="cls-1" d="M90.74,115.96c-.28,3.6.23,6.82,1.28,10.23-8.51.22-10.08-4.15-11.51-11.5l10.23,1.27Z"/>
  <path class="cls-1" d="M162.78,42.22c-2.6,1.98-6.24,4.74-7.07,8.1-.33,1.33,1.21,7.09,1.13,9.16-.03.86-.36,1.79-1.08,2.3l-2.29-1.5-.5-8.68c-.82.63-2.31-1.12-3.27-1.63-4.59-2.41-9.29-3.84-14.44-2.23-2.26.71-4.24,2.56-6.58,3,4.76-5.53,13.95-6.61,20.32-3.48,1.37.67,3.77,3.38,4.97,3.03.59-.18,5.56-9.12,8.8-8.06h.01Z"/>
  <path class="cls-1" d="M89.47,103.18c-.66,4.1-.51,7.57.85,11.51-4.43.43-10.19-2.6-10.22-7.52-.02-2.91,7.01-4.44,9.37-3.99Z"/>
  <path class="cls-1" d="M100.55,92.1c-1.76,3.9-1.63,6.97-.85,11.08-6.71-.23-10.94-5.26-8.11-11.75,3.11-.29,5.74,1.93,8.97.67h-.01Z"/>
  <path class="cls-1" d="M105.15,120.72v1.15c-2.22.72-4.32,4.7-6.5,4.78-5.37.19-6.83-5.44-6.63-9.83,4.39,2.86,9.38.13,13.13,3.9h0Z"/>
  <path class="cls-1" d="M78.51,153.35c1.35,1.21,5.05,1.05,5.22,3.51.05.74-1.32,2.31-.24,3.87-.49.44-5.55-1.77-6.36-2.37-2.79-2.04-1.16-2.22-.46-4.87-3.53,3.93-7.24-.04-7.24-4.26,1.57-.26,5.44-.63,6.82.22.68.42,1.41,3.15,2.26,3.91h0Z"/>
  <path class="cls-1" d="M81.51,142.68c.42.52,2.09,1.65,2.84,1.86-.61,2.92-5.95,2.97-8.22,2.46-2.17-.49-5.38-5.4-5.84-7.58,1.36.79,1.84-.25,2.79-.4,1.92-.31,4.16.05,5.96-.85.26.01,2.06,4,2.48,4.51h-.01Z"/>
  <path class="cls-1" d="M283.25,54.75l1.45,1.32c-3.79,4.16-10.88,10.04-16.19,5.12,3.77-2.99,9.65-8.7,14.74-6.44Z"/>
  <path class="cls-1" d="M90.31,90.82c-.29,1.58-1.5,2.92-1.6,4.58-.1,1.69,1.24,3.74.75,5.65-4.53-1.51-8.89.17-8.98-6.18-.02-1.5.46-2.3.9-3.62,2.89,1.02,6.04-.05,8.93-.43h0Z"/>
  <path class="cls-1" d="M91.59,77.18c1.76,2.53-.97,5.25-1.25,7.93-.18,1.79.68,3.47.4,5.28-.63.14-.26-.52-.76-.82-1.91-1.12-4.71-.75-6.85-.94-.72-1.64-.81-4.71.35-6.14.82-1.01,2.41-1.1,3.38-1.74.76-.5,4.32-3.88,4.73-3.57Z"/>
  <path class="cls-1" d="M101.82,81.44c-.08,1.45-1.43,2.18-1.68,3.64-.35,2.08.51,4.15-.03,6.16-5.67-1.47-9.9-4.4-6.54-10.7l8.24.9h.01Z"/>
  <path class="cls-1" d="M81.36,124.49h-6.18c-1.5,0-2.8-2.29-2.5-3.74.16-.75,2.42-5.8,2.79-6.02.24-.14.84.37,1.21.16.3-.17.87-1.79,2.3-1.43,1.81,1.36.63,3.37.71,4.8.13,2.2,1.48,4.06,1.66,6.23h.01Z"/>
  <path class="cls-1" d="M83.92,169.25c-.84.12-4.59-.69-4.65-1.49.98-1.61,1.84-3.39,1.66-5.33-1.69,1.04-2.11,2.85-2.58,4.67-2.91-.29-8.34-2.33-5.9-6.12,2.44-3.78,7.52,2.17,10.63,1.21l.83,7.06h.01Z"/>
  <path class="cls-1" d="M73.12,115.39c-3.15,3.45-3.23,4.52-5.65,8.21-1.81,2.75-4.37,5.1-6.32,7.75-2.75,3.74-5.14,7.76-7.92,11.47,1.69-5.14,4.89-9.67,7.68-14.27,2.22-3.67,4.32-8.6,7.64-11.54,1.77-1.57,4.92-1.44,5.14-4.88l1.27,1.07c-1.3.4-1.41,1.72-1.84,2.2h0ZM63.46,125.77c.44.47,2.67-1.96,2.98-2.34.7-.85,1.67-2.57,2.13-3.62-1.39,1.34-3.02,3-4.26,4.48-.4.48-1.03.69-.85,1.49h0Z"/>
  <path class="cls-1" d="M112.91,28.16c-.59,1.53-2.4,1.47-3.56,2.19-9.83,6.11-20.7,17.23-25.37,27.92-1.2,2.75-1.83,5.58-2.62,8.46-.16.58.03,1.33-.85,1.49.26-1.49.26-3.28.61-4.71,3.49-14.06,15.48-26.7,27.72-33.67,1.6-.91,1.56-2.34,4.06-1.69h.01Z"/>
  <path class="cls-1" d="M218.63,13.66c-.74,2.29,0,1.32.79,2.39,2.46,3.32,4.34,8.73,8.19,10.15l3.37,4.94c-.42.42-6.54-3.08-5.56-5.1l-1.65-.05c.15-2.16-1.18-1.92-2.6-3.15-2.45-2.13-2.2-1.71-4.82-3.28-2.21-1.32-2.11-2.29.58-2.51-.45-1.61-.65-3.54,1.7-3.39Z"/>
  <path class="cls-1" d="M79.57,90.27c-.14.1-2.14-.25-2.05,1.18l1.71-.21c-.28,2.81-.92,5.4.43,8.09-1.41-.45-2.74-1.16-4.17-1.58-2.03-.61-5.78.12-4.39-3.34,1.27-3.16,6.48-3.28,6.42-3.81l-1.21-.69c-.9-1.51,4.14-4.92,4.85-6.34l-.67,4.87c-.08.39-.67,1.65-.91,1.83h-.01Z"/>
  <path class="cls-1" d="M117.6,134.3c-2.55-7.01-.24-17.66,5.53-22.59.21,1.95-1.29,3.42-1.91,5.12-2.04,5.67-2.08,10.19-2.76,15.99-.08.64-.08,1.31-.86,1.47h0Z"/>
  <path class="cls-1" d="M256.88,42.33c1.29,1.09,3.22,12.1,2.67,12.68-1.49.26-2.82-1.98-3.49-3.11-1.72-2.93-2.53-6.27-1.54-9.59.3-.44,1.96-.32,2.37.03h-.01Z"/>
  <path class="cls-1" d="M83.92,75.47c.14,1.09-1.08,1.53-1.94,1.67-2.23.36-5.19-.43-7.84-.2-3.96.34-7.98,1.65-11.96,1.93.1-.61.79-.82,1.26-1.08,3.47-1.9,14.71-3.82,18.49-3.02.69.15,1.26.65,1.99.7h0Z"/>
  <path class="cls-1" d="M89.89,138.56c.25.22-2.18,5.75-2.81,5.9-2.18.51-6.55-3.72-6.99-5.9h9.8Z"/>
  <path class="cls-1" d="M66.51,161.92c.19.13,4.02-.08,3.34,2.22-.89.77-2.47-.83-2.98-.42-.85.69,1.27.95,1.29,1.9.02,1.24-2.23,2.34-.86,4.07-2.11.83-2.35-.14-3.79-1.57l.81-2.06c-1.66-.61-.84-2.71-.85-4.04,1.43-.19,1.2,2.53,2.98,1.49-1.53-1.72-3.5-2.09-2.98-4.9.86.38,2.66,3.07,3.05,3.32h-.01Z"/>
  <path class="cls-1" d="M76.67,168.41l-1.54,4.71c-1.25-.39-3.82-.5-4.73-1.43-.5-.51-1.49-3.6-1.33-4.27.69-2.87,5.89.8,7.61.99h-.01Z"/>
  <path class="cls-1" d="M81.65,170.28c.12.05.07.64.4.67.53.04,1.54-.67,2.19.12l.5,3.27c-3.85,2.06-10.43-.8-7.01-5.45,1.29.56,2.61.86,3.92,1.39Z"/>
  <path class="cls-1" d="M260.4,48.61c-.64.02-.73-1.49-.8-1.97-.28-1.95-1-7.73.16-9.11,1.73-2.07,4.04,2.56,4.01,4.06-.05,2.16-3.07,4.78-3.37,7.02h0Z"/>
  <path class="cls-1" d="M80,176.58l.07,4.6c-4.79,1.03-7.49-.66-5.98-5.77,2.39-1,3.76.96,5.91,1.17h0Z"/>
  <path class="cls-1" d="M257.32,196.44c-.11.19-.92.42-1.29,1.04-1.1,1.84-1.45,3.84-2.94,5.6-.3.36-.7,1.22-1.21.5,1.27-2.88,4.36-5.86,3.83-9.17h1.28l-.44-1.47c2.06-1.08,1.68-3.91,2.37-5.77,1.73-4.71,3.35-8.63,4.81-13.55.13-.45-.33-1.04-.23-1.3.04-.11,1.35-1.43,1.59-1.78-.12,2.55-1.16,4.82-1.88,7.21-1.62,5.36-3.64,10.5-5.5,15.89-.32.94-.11,2.3-.39,2.81h0Z"/>
  <path class="cls-1" d="M285.45,171.45c.91-.16,1.85.16,2.63.61,5.14,2.93-3.36,9.28-5.44,2.87.59-1.23,1.34-3.22,2.8-3.48h.01Z"/>
  <path class="cls-1" d="M85.63,183.33l.42,5.1-5.56-.19c-.55-.37-1.58-5.03-1.26-5.34l6.4.44h0Z"/>
  <path class="cls-1" d="M89.03,181.61c-1.74-.58-4.42.09-6.04-.46-.34-.12-.62-1.15-1.6-.85.46-1.07-.9-2.42.39-3.17.95-.55,3.07.08,4.06-1.41,1.85,1.38,3.01,3.58,3.19,5.9h0Z"/>
  <path class="cls-1" d="M85.62,146.23c-1.09,2.36.03,5.6-2.43,7.19-1.35.34-5.04-2.58-6.09-3.57,1.87-.95,3.84-.77,5.83-1.83,1.05-.56,1.5-1.74,2.68-1.79h.01Z"/>
  <path class="cls-1" d="M132.09,221.26c.09.78-.91.36-1.37.31-1.92-.24-5.25-1.19-7.16-1.8-7.23-2.28-13.44-6.35-18.32-12.15,1.27.47,2.7,1.56,3.8,2.38,1.36,1.01,2.58,2.31,3.99,3.26,5.88,3.99,12,6.85,19.07,8h-.01Z"/>
  <path class="cls-1" d="M95.43,195.68l-4.69-.21-2.13-4.47c1.19-.09,3.74-1.26,4.69-.66.58.37,2.51,4.99,2.13,5.35h0Z"/>
  <path class="cls-1" d="M97.52,197.01c.24,1.09,1.19,4.54-.22,5-2.91.94-4.94-1.48-5.69-4-.26-.87.22-.53.64-.61.87-.17,4.87-.73,5.27-.39h0Z"/>
  <path class="cls-1" d="M86.9,190.14l.85,5.11-3.82.23c-1.59-1.21-2.34-3.09-3-4.92l5.96-.43h.01Z"/>
  <path class="cls-1" d="M101.77,194.35l-4.2.72-2.14-4.5c3.64-.25,6.92-1.48,6.34,3.78Z"/>
  <path class="cls-1" d="M80.94,78.03c-3.65,2.88-9.13,3.06-13.55,4.56-1.54.52-2.8,1.49-4.35,1.82,4.65-4.24,11.74-6.09,17.9-6.39h0Z"/>
  <path class="cls-1" d="M72.83,180.34c-4.84-1.61-4.75-2.86-5.11-7.67l4.92,2.55c-.22,2.1-.73,2.85.18,5.12h.01Z"/>
  <path class="cls-1" d="M77.48,183.36c.13.73-.05,1.48.14,2.21.16.61,1.61,2.59.15,2.43-3.2-.37-5.29-2.01-6.2-5.1l5.92.46h-.01Z"/>
  <path class="cls-1" d="M92.02,188.44l-3.8.39-1.32-5.08,4.25.19c1.19,1.2.85,2.97.87,4.5Z"/>
  <path class="cls-1" d="M138.66,2.4c.26.26.9.03.67.81-.57,1.17-7.05.53-8.73.65-3.35.24-7.15,1.03-10.45,1.7-.36-1.07,1.77-1.46,2.44-1.6,4.64-.97,10.04-1.02,14.82-1.59.36-.04.62-.37.86-.62.31-.13.13.41.38.66h.01Z"/>
  <path class="cls-1" d="M5.07,85.7l-.86-1.7c.47.02.94.14,1.31-.27,2.58-2.86,4.83-10.76,6.85-14.37.94-1.68,2.97-3.79,4.19-5.4l-11.5,21.74h.01Z"/>
  <path class="cls-1" d="M103.7,198.94c.06.13.66.15.7.43.08.66-.54,1.53-.45,2.28l-1.7-1.28.64,2.13c-2.66-.97-3.15-3.33-4.48-5.53l4.29-.68c.56.81.62,1.76,1,2.65Z"/>
  <path class="cls-1" d="M45.85,21.41c5.26-1.62,2.8,7.24-.53,5.06-1.73-1.13-1.02-4.58.53-5.06Z"/>
  <path class="cls-1" d="M75.82,100.2l-9.8,4.26c.21-1.41,0-3.03,1.26-4.06,2.81,1.01,5.41-.82,8.54-.19h0Z"/>
  <path class="cls-1" d="M118.88,113.41l-5.75,12.36c-.87-.56-.41-.95-.37-1.61.2-3.49,1.07-5.29,3.15-7.97l2.98-2.78h-.01Z"/>
  <path class="cls-1" d="M64.91,117.42c-1.07.76-2.1,2.41-3.58,1.74l11.93-10.87c-1.28,4.28-4.95,6.72-8.35,9.13Z"/>
  <path class="cls-1" d="M119.73,108.29c.13.77-.74.24-1.14.55-.53.41-2.69,3.27-2.91,3.28l-3.62-4.04c.35-.71,1.25.22,1.49.22h6.18Z"/>
  <path class="cls-1" d="M233.12,234.9l-1.84,3.29c-3.19,1.1-4.34,5.33-7.96,5.66l9.8-8.95h0Z"/>
  <path class="cls-1" d="M89.89,200.8c-2.01-.57-4.1-.77-5.1-2.77.59-1.02,1.13-.14,1.79-.3.7-.17.98-1.14,2.04-.58,1.07.56,1.44,2.52,1.28,3.65h-.01Z"/>
  <path class="cls-1" d="M195.18,27.3c.1.79-.87.34-1.3.23-2.09-.5-6.07-1.78-8.07-2.59-.75-.3-1.83-.65-2.14-1.48,3.93-.1,7.63,2.85,11.51,3.84Z"/>
  <path class="cls-1" d="M240.37,237.03l-1.7-.42c.78,2.96-2.51,3.04-4.69,3.41-.15-1.69,2.27-.5,1.71-2.56l1.7.43-.43-1.27,2.39-1.25,1.02,1.67h0Z"/>
  <path class="cls-1" d="M246.19,230.49c-.62.6-1.64,1.07-2.23,1.83l-1.03-.82c1.65.41,1.13-.83,1.53-1.23.49-.49,1.12-.71,1.47-1.11,1.15-1.32,1.71-3.22,3.82-4.06.35.37-3.04,4.89-3.56,5.39h0Z"/>
  <path class="cls-1" d="M79.23,190.14l-.21,3.83-3.62-2.77c-.49-1.19,3.34-1.14,3.83-1.06Z"/>
  <path class="cls-1" d="M280.86,104.88c-1.13.23-.73-.29-1.06-.84-.8-1.35-1.24-2.92-2.31-4.12l.82-1.43c.98-.59,2.91,5.46,2.55,6.39Z"/>
  <path class="cls-1" d="M188.63,118.55c1.08-.32,3.09,1.43,1.66,2.97-2.14,2.31-3.86-2.33-1.66-2.97Z"/>
  <path class="cls-1" d="M59.19,255.36c-1.4-.99-2.62-.61-3.4-2.35l1.27-.21-.42-1.7c2.55-.6,2.67,2.48,2.55,4.26Z"/>
  <path class="cls-1" d="M201.29,26.73c1.61,1.05,4.92,2.19,6.16,3.42.5.5.73.32.52,1.41l-8.04-4.74-.05-1.22c1.04-.28.96.84,1.41,1.14h0Z"/>
  <path class="cls-1" d="M135.08,280.51l-.22-.85c.66.07,1.45-.14,2.07,0,.28.06.54,2.2,1.34,0,.25.23.54.69.85.74.2.03,2.27-1.44,1.92.32-.17.85-4.92.36-5.78.86-1.22.03-.75-1.4-2.09-1.08-.12.03-.97,1.89-1.94,1.08l.43-.65-1.28-.43c1.01-1.51,3.27-.63,4.69,0h.01Z"/>
  <path class="cls-1" d="M263.18,204.21l1.06,1.04c.02.95-2.22,4.27-3.19,4.07-.47-.1-.74-.7-.44-1.28.52-1.01,2-2.63,2.57-3.83h0Z"/>
  <path class="cls-1" d="M182.82,23.04c.11.73-1.01.45-1.48.42-1.6-.12-4.72-.56-6.2-1.05-.73-.24-1.85-.36-1.69-1.5l9.37,2.13Z"/>
  <path class="cls-1" d="M79.23,71.22l.07.73c1.55-.83,2.46.85,2.8.94.88.25,3.34-.35,3.09,1.3-.34.27-7.93-1.62-8.53-1.91-.2-.09-.54-.55-.42-.64l2.56.42-.21-.85h.64Z"/>
  <path class="cls-1" d="M78.28,110.33c-.06.12-.71.13-.9.63-.29.75.34,1.93-1.12,2.45l-1.22-2.92,2.5-3.04c.76.14.95,2.48.74,2.88h0Z"/>
  <path class="cls-1" d="M53.59,17.98c.74,1.2-1.13,3.68-2.28,3.34-1.39-.41-.3-3.41.91-3.75.26-.05,1.29.28,1.37.41h0Z"/>
  <path class="cls-1" d="M146.58,16.64c-.5,2.35-4.64,1.25-6.39,1.7l.27-1.31,6.12-.39Z"/>
  <path class="cls-1" d="M168.75,19.2l-.71,1.23c-2.01-.28-4,.45-5.25-1.66,1.98-.66,3.96.41,5.97.42h0Z"/>
  <path class="cls-1" d="M148.62,280.61c.29.27.07,1.71,1.36,1.63.06,2.54-3.45.5-2.89-.38.11-.17,1.18.21.77-.92h-1.92l.22.85c-1.38.08-1.45-.96-.57-1.73.28-.06,2.91.44,3.03.55Z"/>
  <path class="cls-1" d="M17.42,212.31l-2.55-1.92.85-.21c.19-.69-.6-.3-.72-.49-.12-.21-.87-3.36.08-3.33l2.34,5.96h0Z"/>
  <path class="cls-1" d="M114.48,278.12c.16.13.16.47.14.69.98-.81,1.34-.94,2.37,0l-.25,1.29-3.81-.47.18-1.67c.39-.62.97-.16,1.38.16h-.01Z"/>
  <path class="cls-1" d="M249.32,124.49l1.28-.85c-1.39-1.06-1.12-1.07-1.15-2.86,0-.57-.56-1.13.5-.96,1.25.49,2.49,6.58-.63,4.68h0Z"/>
  <path class="cls-1" d="M214.79,216.57c.24.21-1.46,5.95-1.92,5.96-1.48-1.15.22-.68.25-1.1.05-.72-.58-1.34-.37-2.39.11-.55,1.02-1.28.78-2.16-.13-.54,1.21-.35,1.26-.31h0Z"/>
  <path class="cls-1" d="M251.88,232.77l.21,1.28.86-.85,1.05.86-.21.85-1.46.2.4,1.93-1.93-2.76c.2-.79-.11-1.79,1.08-1.5h0Z"/>
  <path class="cls-1" d="M166.62,276.68l.43,1.7-1.22-.41-.69,1.25-1.06-.85c-.16,2.12-1.03.19-1.71-.64l2.55-.64.42,1.28,1.28-1.7h0Z"/>
  <path class="cls-1" d="M235.79,133.34c-1.41-1.31,1.39-2.87,2.26-1.62,1.04,1.5-.81,2.97-2.26,1.62Z"/>
  <path class="cls-1" d="M36.17,44.35c.44,1.79-1.19,1.55-1.82,2.11-.76.69-1.07,1.9-2.44,2.15l2.24-3.72,2.01-.54h.01Z"/>
  <path class="cls-1" d="M147.01,232.77c1.56,1.43-3.97.59-4.5.44-.58-.16-1.32-.05-1.47-.87l5.97.43Z"/>
  <path class="cls-1" d="M73.26,105.74l-7.67,4.25c1.86-2.05,4.97-3.57,7.67-4.25Z"/>
  <path class="cls-1" d="M257,215.29c-.19-1.83,1.6-3.65,2.98-4.69-.06,1.95-1.39,3.69-2.98,4.69Z"/>
  <path class="cls-1" d="M171.31,8.12c.04.8.2.87-.64.87-1.1-.01-4.35-.39-5.34-.65-.76-.21-.99-.13-.83-1.06,2.38.33,4.3,1.27,6.82.85h0Z"/>
  <path class="cls-1" d="M105.23,8.12c.02.54-1.29.94-1.7,1.07-1.47.44-3.56.75-5.12,1.06,1.64-2.14,4.5-1.39,6.82-2.12h0Z"/>
  <path class="cls-1" d="M129.96,279.67c-.04,2.72-.95,1.03-1.49,1.02-.26,0-.6.52-.84.51-3.04-.14-.25-3.06,2.33-1.53Z"/>
  <path class="cls-1" d="M223.2,40.63c.3.26.86,1.69.34,2.01l-4.05-3.83,3.71,1.82h0Z"/>
  <path class="cls-1" d="M230.99,243.42c-.31-.85,1.41-1.53,1.91-1.72.88-.34,1.88-.04,2.78-.83.18,2.74-1.94,1.48-3.08,1.78-.57.15-.85.98-1.61.77h0Z"/>
  <path class="cls-1" d="M249.69,209.69c-.34.24-1.55.27-1.21-.56l2.96-4.07c.09.71-1.56,4.49-1.76,4.63h.01Z"/>
  <path class="cls-1" d="M224.6,249.39c-1.64.31-1.76,2.39-3.84,2.13,1.08-1.34,1.99-4.5,3.84-2.13Z"/>
  <path class="cls-1" d="M220.33,265.17c.71.7-3.3,3.42-4.26,2.98.1-.89,3.98-3.25,4.26-2.98Z"/>
  <path class="cls-1" d="M54.5,234.48l-1.27,1.91c.07.2,3.38,1.73,3.71,2.05.82.8,1.2,3.91,3.96,3.71l-.42-1.27h1.28l-.43,1.7,1.71.44.21-1.28c1.04,1.63,1.24,2.04,3.2,1.28v2.13c-1.04-.95-3.25-1.63-3.41.42l3.2,1.71c.44-.59-.08-1.08,1.06-.85v1.28l2.13-.42-.44,1.03.74.34-.06.78,6.69,3.84c3.62,1.66,7.71,4.19,10.99,6.15.68.41,1.54.87,2.27,1.15,2.59,1.01,5.61.7,7.33,2.91l.64-1.28,1.07.43-.15.8c.85.94,2.21-1.01,2.45.26.04.22-.56,1.62.04,2.35-1.69-.65-4.06-1.18-5.63-1.83-15.11-6.27-30.86-14.75-42.55-25.68-.49-.45-.26-1.46-1.27-1.68l1.29-1.29c-.05-1-.85-1.2-1.71-1.06l-.21,1.69c-1.58-.86-2.03-1.14-1.49-2.97l1.27.85.44-1.7c1.29.8,1.51,3.07,3.4,2.13l-.04-.03Z"/>
  <path class="cls-1" d="M114.61,266.88l-.42,1.7,2.98-.42-.43,1.27c1.43.23,3.46.42,4.8.88.4.14.33.84.55.84.76.02,2.28-.94,2.54-1.74l2.33,1.72c.4-2.36,1.85,0,2,.02,2.25.35,9.6,1.3,11.37.84.35-.09.24-.88.5-.87.7.02,2.54,1.59,4.05.87l.21-1.71.62,1.93,2.58-.23v1.27c-1.39.12-2.84.23-4.24.3-.99.05-1.52-.89-1.93.57-2-1.76-4.71-.64-7.27-.84-2.23-.17-12.27-1.02-13.53-1.74-.41-.23-.59-2.15-1.36.02l-1.08-1.28h-.83l-.22.85c-.52-1.02-5.4-.98-5.76-1.28l.85-1.7-2.13.85.42-2.56c1.41.55,1.81.96,3.41.43h0Z"/>
  <path class="cls-1" d="M26.38,200.8l1.27-.43-1.27,1.49c2.82,1.58,2.46,4.26,3.49,6.32.5,1,1.67.2.77,1.99l2.98.64c-2.62.23-.38,1.57.27,2.71.95,1.65,2.6,4.83,3.81,6.01,1.24,1.21,3.16,2.42,4.63,3.86.42.41.83.54.66,1.27-.6-.11-1.37.43-1.87.34-1.01-.18-7.13-9.53-8.79-10.78-2.13-3.68-4.49-7.97-6.88-11.9-.46-.76-1.65-.49-1.22-1.96l1.7.85c.78-1.11-3.12-3.57-3.59-4.29-.88-1.34-.73-4.15-1.94-5.51,2.59.23,1.92,3.09,2.43,4.14.66,1.38,4.12,2.95,3.54,5.23v.02Z"/>
  <path class="cls-1" d="M19.98,93.8l-6.57,21.55c-.33,1.11.37,3.81-1.1,3.61l.86.64-3.42,19.39c-.88-1.94.24-3.99.39-5.82.97-11.46,3.69-28.15,8.79-38.51.3-.61-.1-1.07,1.04-.85h.01Z"/>
  <path class="cls-1" d="M23.39,187.16c-2.93-7.83-5.67-15.69-7.51-23.86.11-4.12-1.63-8.13-1.44-12.37l1.16,3.74c.69,6.28,2.34,12.75,4.26,18.76.59,1.85,4.94,12.37,4.71,13.02-.2.58-.56.82-1.17.71h-.01Z"/>
  <path class="cls-1" d="M178.13,260.06l-10.46,3.38c-6.09.99-11.82,1.36-17.89,1.72-1.34.08-2.7-.04-4.05,0,.09-.7.56-.6,1.05-.68,2.91-.5,6-.3,8.93-.63,2.63-.3,5.44-.56,8.02-.9,3.97-.52,8.21-2.65,12.04-2.7.79-.01,1.57-.29,2.37-.19h0Z"/>
  <path class="cls-1" d="M23.41,76.33c-.23.35.27,1.92-.87,2.12l-.21-1.62c-.55.3-1.1.09-1.02-.65.03-.28,2.27-4.92,2.46-5.14.44-.49,1.19-.17,1.31-.27.11-.09-.31-.84-.17-1.28.28-.93,1.93-1.87,1.46-3.4l1.06.85c.9-1.68,1.97-3.22,3.63-4.26l-6.42,13.4c-.21.82-1.19.2-1.23.26h0Z"/>
  <path class="cls-1" d="M148.29,274.98c-.2.69-.72.99-1.38,1.16-2.82.72-19.13-.16-22.59-.85l-3.73-1.37c.58-.88.95-.56,1.72-.47,2.78.33,5.95.87,8.71,1.11,5.73.49,11.52.86,17.27.42Z"/>
  <path class="cls-1" d="M172.04,210.3c2.99,2.42-1.25,8.02-4.55,5.19-2.97-2.55,1.32-7.79,4.55-5.19Z"/>
  <path class="cls-1" d="M112.18,13.38c-1,.29-2.79,1.03-4.29,1.44-4.95,1.36-10.07,2.12-14.59,4.81l.85,1.69-1.45.39c-.37-1.34-1.87-1.15-1.96-1.24-.24-.25.12-1.59.64-1.7,1.03-.22.71,1.34,1.48,1.27.01-.81.14-1.48.87-1.9.71-.42,5.98-2.3,7.14-2.67,5.12-1.63,10.91-2.71,16.09-4.36l.21,1.06c-1.56.76-3.41.75-4.99,1.21h0Z"/>
  <path class="cls-1" d="M18.42,86.43c.11.22.83,0,.7.33l-1.92,2.35.63-2.34c-1.43-1.62-1.47,1.68-1.26,2.49.1.41.96.08.81.87-.15.85-1.74,1.49-1.25,3.25l-1.27-.43c-.06,1.6-.41,3.79-.83,5.33-.54,1.98-1.7-.95-1.64-2.01.06-1.12,1.19-3.42,1.66-4.68.21-.56.5-1.44.7-1.92.69-1.67,1.8-3.44,2.24-5.25,1.45-.17,1.03,1.23,1.42,2.01h.01Z"/>
  <path class="cls-1" d="M176.85,263.46c.16,1.95-1.97,1.07-2.55,2.12,2.52,1.02,3.09-2.48,4.68-.21l-4.04,2.35c-1.52-.03.97-1.69-1.28-1.3l-.95,1.18-6.94,2.24.64-2.97,1.49,1.69.65-2.13.64.85.43-1.28,1.94.79c.54-1.69,1.7-.93,2.24-1.28.34-.22.34-1.49.54-1.63.15-.11.76.29,1.02.21.61-.18.76-.82,1.5-.64h-.01Z"/>
  <path class="cls-1" d="M108.22,263.89c.11,1.54-1.55,1.32-2.56,1.28v1.28c1.63.05,4.4.05,4.69,2.13l-8.95-2.13c.27-1.27,1.17-1.53.43-2.98l6.39.43h0Z"/>
  <path class="cls-1" d="M52.79,241.31c.06,2.57,4.22,2.59,4.7,4.88l11.47,7.53-.39,1.65c-.41.47-3.28-3.06-3.56-3.28-3.94-3.13-8.72-5.51-12.64-9.29-1.15-1.11-1.41-1.71.42-1.49h0Z"/>
  <path class="cls-1" d="M135.07,8.54c.23,1.2-.32.69-.94.98-.79.36-2.51.55-2.92.92-.48.45.25,1.47-.62,1.93-.3.11-.14-1.16-1.28-1.31-.34-.04-6.34.76-6.72.88-.53.16-.5.97-.95,1.27l-1.06-1.06c-.2-1,.45-.51,1.01-.68,2.9-.87,5.86-1.22,8.04-2.22,1.03-.47,4.12-.32,5.43-.72h.01Z"/>
  <path class="cls-1" d="M73.12,241.01c.37.44.64.97.57,1.57l-1.21.06-.28,1.22c-1.64-1.5-3.01-4.47-5.33-4.69l1.28-.63-1.7-1.28c.6-.78.76-.7,1.58-.32.3.14,4.88,3.83,5.09,4.08h0Z"/>
  <path class="cls-1" d="M187.08,264.74c.5,3.13-3.32,2.61-5.32,3.84l-1.07-1.28-.42,2.13c-1.06-3.69,4.16-4.29,6.82-4.68h-.01Z"/>
  <path class="cls-1" d="M21.25,77.6c-.46.97.81,1.39.8,1.48-.08.89-1.09,1.27.48,1.72-2.12.96-2.04,3.55-3.83,4.05.25-1.22-.43-1.33-1.27-1.92,1.77-1.15,1.98-3.12,2.93-4.72.23-.39-.21-.84.89-.61h0Z"/>
  <path class="cls-1" d="M194.75,256.22c.07,1.71-2.25,1.22-1.7,2.98.41-.22,1.07-.82.86.21-.38,1.8-2.48,1.5-3.84,1.91l.29-1.28c.47-.31,2.95-.56,2.05-1.7l-6.61,2.98c-.2-1.01,1.45-1.45,2.18-1.87,1.77-1.01,4.75-1.74,5.52-2.17.43-.24.08-1.49,1.25-1.08v.02Z"/>
  <path class="cls-1" d="M10.17,141.54c.82,5.04.33,9.93,1.28,14.92-1.01-.41-.96-1.97-1.14-2.9-.47-2.45-.83-6.31-.98-8.83-.03-.47-.29-4.39.84-3.19h0Z"/>
  <path class="cls-1" d="M202.43,246.41c.49.42-1.18,1.83-1.5,2.12-1.35,1.2-4.26,3.02-5.9,4.11-1.89,1.25-2.3.03-.79-.99,1.24-.84,4.63-3.76,5.66-4.18.47-.19.84.07,1.25.23v-.96l1.28-.32h0Z"/>
  <path class="cls-1" d="M82.22,243c-3.38-1.18-6.53-3.46-9.64-5.28-.19-.11-.26-.57-.49-.69-1.15-.64-3.1.27-2.66-2.55l12.79,8.52Z"/>
  <path class="cls-1" d="M26.56,182.74c.26.63.26.83.48,1.38.95,2.39,2.06,4.83,2.74,7.3-.84-.57-1.48-2.05-1.93-2.97-.99-2.01-1.99-4.5-2.77-6.61-.43-1.18-1.17-2.82-1.06-4.06,1.13,1.25,1.85,3.32,2.54,4.96h0Z"/>
  <path class="cls-1" d="M76.25,27.72c-.18.21-3.95,2.29-4.66,2.81-2.39,1.76-4.5,4.19-7.27,5.3l5.58-5.28,6.14-3.67.21.84h0Z"/>
  <path class="cls-1" d="M123.14,260.91l-.68,1.29c-2.91-1.89-7.82,0-9.55-2.99l10.23,1.71h0Z"/>
  <path class="cls-1" d="M83.92,19.63l-10.95,6.73-2.26.94c4.05-2.9,8.38-6.25,13.21-7.66h0Z"/>
  <path class="cls-1" d="M53.25,37.5l1.44.02.24.85-3.4,3.42,1.7-3.41-1.91,1.7c-.83-.35-.75-2.74.05-2.89.74-.14.79.91,1.66-.94l.23,1.25h0Z"/>
  <path class="cls-1" d="M132.52,17.5c.08,1.07.1.73-.64.84-3.32.49-5.97,1.05-9.16,2.14-.16-.93.59-1.19,1.28-1.49,2.42-1.06,5.88-1.29,8.52-1.49h0Z"/>
  <path class="cls-1" d="M36.18,199.09l-.85,1.06c1.94,2.2,2.75,5.24,5.49,6.69l-.37,1.62c-1.47-2.26-5.93-6.44-5.54-9.15l1.28-.22h-.01Z"/>
  <path class="cls-1" d="M106.51,11.1c.18.95-.28.83-.84,1.1-.87.41-6.94,2.15-7.25,1.88.13-2.03,3.14-.83,4.05-2.55l.42.85,3.63-1.28h0Z"/>
  <path class="cls-1" d="M189.65,266.02l-.42-1.28-1.71,1.7c-.29-1.71.62-2.23,1.92-2.99l.42.85,1.49-1.28c.23,1.67-.07,2.48-1.7,2.99h0Z"/>
  <path class="cls-1" d="M204.56,184.6l-5.11-8.95c2.69,1.99,4.53,5.69,5.11,8.95Z"/>
  <path class="cls-1" d="M90.32,21.75c-1.39-.75-2.28.15-3.2,1.3l-1.48-1.08,4.47-2.34.21,2.13h0Z"/>
  <path class="cls-1" d="M75.4,258.34c-2.06-.24-3.81-2.11-5.53-3.19.7-.93.66-.48,1.39-.12,1.51.75,3.27,1.84,4.14,3.31Z"/>
  <path class="cls-1" d="M177.28,154.75c-2.32-.57-4.7-1.36-6.93-2.24-.45-.18-1.27-.12-1.17-.74,2.77.21,5.93,1.2,8.1,2.98Z"/>
  <path class="cls-1" d="M185.38,260.91c.23,1.17-.29.73-.86,1.03-1.79.96-3.51,1.4-5.53,1.52-.2-1.14.2-.74.92-.97,1.8-.57,3.71-.87,5.46-1.58h.01Z"/>
  <path class="cls-1" d="M28.93,62.25c.94-.79.62-2.85.93-3.33.1-.16,2.53-1.14,2.91-2.2l-.57,1.77-3.26,3.77h0Z"/>
  <path class="cls-1" d="M113.75,274.54c-1.56.27-.04-1.79-2.12-1.28l.64-1.27c.44,1.28,3.99-.29,4.04,1.06.04.98-2.82-.51-2.56,1.49h0Z"/>
  <path class="cls-1" d="M184.96,190.99c-1.76-3.49,3.08-3.15,1.92-.84-.34.68-1.18.98-1.92.84Z"/>
  <path class="cls-1" d="M26.37,187.59l.43,2.13-1.27-1.28c-.28,1.43,2.25,2.84.43,3.83v-1.7c-3.49,1.05-.26-3.48.42-2.99h0Z"/>
  <polygon class="cls-1" points="62.6 232.77 61.33 234.04 60.4 232 59.63 232.35 58.35 229.36 62.6 232.77"/>
  <path class="cls-1" d="M105.24,256.65l-.63,1.26-4.91-2.33c.77-1.06.76-.32,1.4-.1,1.34.47,2.58,1.46,4.14,1.16h0Z"/>
  <path class="cls-1" d="M120.58,21.32c-.51.34-2.38.04-2.49.11-.45.31-.53,1.48-2.2,1.17-.22-1.1.24-.74.83-1.07,1.17-.64,2.51-.8,3.65-1.48l.21,1.26h0Z"/>
  <path class="cls-1" d="M148.18,82.82c5.55-1.49,5,6.65.55,7.8-5.48,1.42-4.7-6.68-.55-7.8Z"/>
  <path class="cls-1" d="M215.22,98.49c-.72,2.22-7,3.28-7.27.61-.32-3.19,5.78-1.5,7.27-.61Z"/>
  <path class="cls-1" d="M219.34,87.02l1.43.16c1.76.89.58,4.26-.64,5.33-1.34-1.55-2.92-3.98-.78-5.49h0Z"/>
  <path class="cls-1" d="M63.46,125.77c-.18-.8.45-1.01.85-1.49,1.23-1.47,2.87-3.13,4.26-4.48-.46,1.06-1.43,2.77-2.13,3.62-.31.38-2.54,2.81-2.98,2.34h0Z"/>
  <g>
    <path class="cls-1" d="M57.05,234.12c.12.17.05.79.7,1.1-1.52.11-.86,1.69-.92,1.79-.05.08-1.42,1.09-1.51,1.12-.93.29-2.27.05-3.24.27-.29-2.05,1.26-4.83,3.53-4.78.6.01.64.33,1.02.55.12.07.4-.08.42-.04h0Z"/>
    <path d="M73.33,241.37c1.35-.46,1.24,1.57.2,1.58-.75,0-.79-1.38-.2-1.58Z"/>
    <g>
      <g>
        <path d="M83.16,235.6s.05.21.05.26c.07,1-.02,2.06-.05,3.06-.03.77.03,2.14-.24,2.82-.23.56-.82,1.16-1.43,1.21l-.02-.42-.12.02-.02.45-.83.05-.15-.19-.05.19c-.09-.01-.18-.05-.28-.05-1.26-.04-2.63,0-3.9,0-1.77,0-3.58.19-5.34.1-.68-.03-1.29-.16-2-.15-1.53.02-3.09.25-4.64.15-.35-.12-1.38.03-1.62-.19-.23-.2-.06-.43.16-.54.33,0,.68-.06,1-.07,2.22-.09,4.42.15,6.64.1.32,0,.7-.09,1.02-.1.63-.02,1.27.02,1.9,0l.12.26.28.02-.04-.16c.03-.07.09-.07.16-.08.26-.03.61,0,.89,0,1.78-.01,3.6.29,5.38.19.95-.05,2.72-.37,2.53-1.72-.1-.68-.08-.63.03-1.29.16-.87.05-1.78.2-2.62.03-.18.16-.35.18-.48.04-.25-.08-.54.08-.76.03-.04.04-.12.11-.06h0ZM72.49,242.43l-.23.07.09.04-.04.45c.17.02.32-.07.41-.21l-.08-.17-.14.09v-.28h-.01Z"/>
        <path d="M71.91,243.8v-.11c-.38,0-.76,0-1.14-.02-.29-.01-.56-.04-.83-.07-.38-.04-.75-.08-1.13-.07-.57,0-1.16.05-1.73.08-.96.06-1.96.13-2.96.06h-.07l-.07-.03c-.08-.02-.34-.02-.52-.02-.52,0-1.01,0-1.31-.28-.22-.2-.33-.47-.29-.75.04-.31.26-.59.58-.75l.13-.06h.14c.16,0,.33-.01.52-.03.15-.02.31-.03.45-.04,1.19-.05,2.39,0,3.54.04,1.02.04,2.07.08,3.11.05.13,0,.29-.02.46-.05.18-.02.37-.05.55-.05.32-.01.65,0,.96,0h.57l.21-.06v.06h.55l.03.06h.04c.22-.02.45-.02.67-.01h.29c.81,0,1.62.05,2.42.11.97.07,1.97.14,2.93.09l.1-.4.28.37c.71-.08,1.28-.3,1.51-.57.1-.12.14-.26.11-.45-.1-.66-.09-.75,0-1.3l.03-.17c.07-.39.08-.81.09-1.24.01-.45.03-.92.11-1.38.03-.17.1-.32.15-.42.01-.02.02-.05.03-.07v-.14c-.01-.21-.03-.51.16-.81.12-.24.31-.33.44-.35.2-.04.4.02.56.17h0c.07.06.2.19.23.64.05.79.02,1.6-.02,2.38-.01.25-.02.5-.03.74v.54c0,.82-.02,1.84-.27,2.48-.25.63-.85,1.29-1.57,1.5v.09l-1.13.06-.02.07-.38-.04h-.13l-.02-.02s-.1-.02-.16-.03c-.02,0-.03,0-.05-.01-.77-.02-1.61-.02-2.42,0h-1.45c-.73,0-1.47.03-2.2.06-.61.03-1.24.05-1.86.06l-.17.11-.02-.02ZM62.84,242.42h0Z"/>
      </g>
      <g>
        <path d="M67.76,231.29s-.02.06-.06.08c-.08.04-.16.04-.24.1-.35.26-.46.96-.21,1.28.46.58,1.6,0,2.16.48-.34.74-1.13.4-1.83.41-.75,0-.26.83-.02,1.09.44.46,1.89,1.2,1.56,1.81-.01.02-.21.23-.22.24-.18.07-.58-.15-.69-.26-.25-.23-.21-.75-.8-.67-.47.07-.38.64-.37.91.01.31.15.73.14,1.03-.01.3-.26.61-.27.94-.01.63.41,1.01.07,1.74-.37.8-1.09.43-1.11-.19,0-.42.16-.91.2-1.31.02-.24-.07-.44-.07-.66,0-.56.18-1.36.05-1.87,0-.04-.11-.22-.16-.23-1.73.38-.51-.53-.2-1,.2-.31.51-1.2.15-1.45-.31-.21-.8-.16-1.15-.04-.4.14-1.08.81-1.5.56-.32-.19.12-.75.3-.96.36-.41.6-.23,1.18-.27.19-.01.97-.23,1.13-.3.51-.22.53-1.11.07-1.32-.19-.09-1.22.2-1.64.11-.55-.12.25-1.06.83-1.08.27,0,.71.13,1.03.15.41.02,1.01.02,1.43,0,.36-.02,2.06-.37,1.58.3-.3.42-.96.26-1.34.37h0Z"/>
        <path d="M66.42,241.23s-.1,0-.16-.02c-.39-.08-.68-.47-.69-.92,0-.28.05-.57.11-.85.04-.18.07-.34.09-.49,0-.1,0-.19-.03-.3-.02-.1-.04-.21-.04-.32,0-.23.02-.49.05-.74.04-.38.08-.77.02-1.04-.52.1-.87.09-1.02-.17-.18-.31.11-.64.42-.98.11-.12.22-.24.27-.33.22-.34.34-.97.23-1.05-.21-.15-.6-.11-.89,0-.09.03-.24.13-.38.22-.41.26-.92.58-1.36.32-.14-.08-.22-.21-.25-.36-.04-.27.12-.62.48-1.04.35-.4.65-.39.98-.37.12,0,.24.01.4,0,.14-.01.9-.22,1.04-.28.15-.07.22-.26.22-.43,0-.16-.05-.3-.14-.35-.09,0-.34.03-.52.06-.4.06-.8.12-1.08.06-.27-.06-.43-.27-.41-.53.04-.49.74-1.1,1.29-1.12.17,0,.39.03.61.08.16.03.32.06.45.07.4.02,1,.02,1.4,0,.06,0,.16-.02.28-.03.82-.11,1.42-.15,1.63.2.07.12.12.32-.08.59-.28.39-.76.42-1.12.44-.1,0-.2.01-.28.02-.03.03-.06.06-.11.08-.04.02-.09.03-.13.05-.02,0-.05.02-.06.02-.11.08-.2.26-.22.46-.02.17,0,.32.07.4.15.19.49.18.86.17.43-.01.91-.03,1.27.28l.17.14-.09.2c-.35.75-1.04.67-1.6.61-.17-.02-.34-.03-.49-.03-.1,0-.13.02-.13.02-.01.07.14.39.31.58.11.11.31.26.52.42.65.48,1.45,1.08,1.09,1.73-.02.03-.25.31-.37.36-.37.15-.91-.23-1-.31-.12-.11-.18-.24-.24-.36-.1-.21-.12-.26-.32-.23-.11.02-.16.1-.13.52v.1c0,.12.04.26.07.42.04.21.08.43.07.64,0,.2-.08.37-.15.54-.06.14-.11.28-.12.39,0,.19.04.36.09.54.1.35.21.76-.05,1.32-.19.4-.48.63-.81.63l-.02-.03ZM65.88,235.92h.05c.26.05.39.45.39.45.09.37.04.82,0,1.26-.02.25-.05.48-.04.68,0,.07.01.14.03.22.03.13.06.29.04.47s-.06.37-.1.55c-.05.25-.11.51-.1.73,0,.2.12.34.23.36.11.02.23-.09.32-.29.17-.37.11-.6.02-.92-.06-.2-.12-.43-.12-.71,0-.23.09-.43.16-.61.05-.13.1-.25.11-.34,0-.14-.03-.32-.06-.5-.03-.17-.07-.34-.07-.51v-.08c-.02-.28-.07-1.03.62-1.13.62-.09.82.33.93.55.04.08.08.16.11.19.07.06.26.16.37.19.04-.04.08-.08.1-.11.07-.22-.6-.72-.93-.97-.23-.17-.45-.33-.59-.48-.17-.17-.6-.77-.42-1.22.06-.13.21-.36.64-.36.2,0,.38.02.56.04.41.04.66.05.83-.05-.17-.04-.39-.03-.61-.02-.47.01-1,.03-1.33-.39-.16-.2-.23-.51-.19-.84.05-.36.21-.68.45-.85.09-.07.17-.09.24-.11.03-.04.08-.09.16-.11h0c.16-.05.34-.06.51-.07.29-.02.5-.04.62-.14-.26-.02-.76.04-.95.07-.14.02-.26.03-.33.04-.4.02-1.02.03-1.46,0-.17,0-.35-.04-.53-.08-.18-.03-.36-.07-.48-.07-.26,0-.6.32-.7.51.2.01.54-.04.8-.08.44-.07.67-.09.82-.02.31.14.5.48.5.89s-.23.81-.57.95c-.19.08-1,.31-1.23.33-.19.01-.34,0-.47,0-.28-.01-.35-.02-.52.17-.23.26-.32.45-.34.53.16.03.51-.19.72-.32.18-.11.34-.22.5-.27.42-.15,1.01-.21,1.42.07.58.4.15,1.51-.07,1.84-.08.12-.2.26-.33.4-.06.06-.14.15-.2.23.1-.01.24-.03.43-.07h.06ZM65.78,231.71h0Z"/>
      </g>
      <g>
        <path d="M71.02,222.07c.56.26.6.81.75,1.24.42.19.85.23,1.32.29,1.03.13,2.15.26,3.23.34.7.05,2.16-.03,2.74.22.29.13-.27.63-.44.75-.71.47-.99.27-1.74.13-.95-.18-1.46-.38-2.33-.71-.08-.03-.08-.09-.16-.12-.23-.09-.54-.06-.78.02-.08.03-.13.14-.36.17-.42.05-1.05-.03-1.41.2-.32.2-.23,1.12-.36,1.48-.08.23-.52.73-.52.9,0,.18.55.53.66.75.15.29,0,.91-.21,1.17-.4.48-.82.46-1.14-.04l.18-1.4c.06-.46-.09-.91-.13-1.36-.04-.48.21-1.52-.75-1.62-.56-.06-2.12-.14-2.64-.09-.6.06-2.13.59-2.69.82-.33.13-1.03.64-1.36.43-.49-.31.54-1.1.71-1.42l.11-.06c.26-.06.59.03.82.02.88-.04,2.03-.25,2.93-.35.71-.08,1.38-.09,2.07-.23.45-.09.59-.14.72-.47.13-.32.06-1.36.77-1.03v-.03Z"/>
        <path d="M70.84,229.53h-.05c-.2-.01-.49-.12-.75-.53l-.05-.09.19-1.51c.03-.26-.01-.53-.06-.81-.03-.16-.06-.32-.07-.49v-.36c.02-.66-.05-.95-.48-1-.54-.06-2.08-.14-2.59-.09-.53.05-2.01.55-2.61.8-.07.03-.16.08-.27.14-.43.23-.96.52-1.36.27-.19-.12-.25-.28-.26-.39-.05-.38.3-.76.62-1.1.1-.11.23-.25.26-.31l.04-.08.26-.13c.2-.05.42-.02.61,0,.1.01.19.02.26.02.55-.02,1.23-.12,1.88-.21.36-.05.71-.1,1.03-.14.25-.03.49-.05.72-.07.45-.04.88-.07,1.32-.16.43-.09.43-.1.51-.29.02-.05.04-.16.06-.26.06-.34.13-.77.46-.94.19-.1.4-.09.65.02h0c.58.27.72.77.83,1.18.01.04.02.07.03.11.31.11.63.15.99.2l.13.02c.97.12,2.11.26,3.21.33.19.01.45.02.73.02.77.01,1.64.02,2.1.22.15.07.24.19.26.35.04.43-.64.9-.65.91-.69.46-1.08.37-1.61.25-.1-.02-.22-.05-.34-.08-.98-.19-1.5-.39-2.38-.72-.1-.04-.15-.09-.19-.13-.14-.05-.35-.04-.53.02-.09.07-.21.16-.43.19-.14.02-.3.02-.47.03-.3,0-.65.02-.83.13-.08.07-.12.5-.14.7-.02.24-.04.46-.1.63-.05.14-.16.3-.29.48-.06.09-.15.22-.19.3.05.06.16.16.22.22.16.14.3.28.38.42.21.4.04,1.16-.25,1.49-.31.37-.6.45-.81.45h0ZM70.59,228.77c.08.11.17.17.24.17.11,0,.24-.08.37-.24.16-.19.26-.69.17-.85-.03-.05-.17-.18-.25-.26-.14-.13-.27-.25-.35-.37,0,.08,0,.17-.02.25l-.17,1.3h.01ZM67.76,224.06c.67.01,1.48.06,1.86.11,1.04.12,1.01,1.07,1,1.59v.3c.01.14.04.29.07.45.02.09.03.18.05.27.05-.12.14-.26.27-.45.08-.12.19-.28.22-.35.03-.1.05-.29.07-.48.04-.46.08-.94.41-1.15.32-.2.74-.21,1.12-.22.15,0,.29,0,.41-.02.07,0,.09-.03.13-.06.04-.03.09-.07.17-.1h0c-.16-.02-.32-.04-.47-.06l-.13-.02c-.44-.05-.85-.11-1.27-.29l-.12-.05-.04-.12c-.03-.08-.05-.17-.08-.26-.1-.35-.18-.65-.52-.81h0c-.1-.04-.13-.04-.13-.04-.08.04-.14.39-.16.53-.03.15-.05.28-.09.38-.19.47-.46.55-.93.64-.48.1-.94.14-1.4.17-.15.01-.29.02-.44.04h0ZM63.04,225.36c.15.05.61-.2.77-.29.12-.07.24-.13.32-.16.31-.13,1.07-.4,1.75-.6-.47.06-.94.12-1.35.14-.11,0-.23,0-.35-.02-.14-.01-.28-.03-.39-.01h0c-.07.1-.17.22-.29.34-.13.14-.43.47-.46.61h0ZM74.74,224.08c.82.31,1.3.49,2.19.66.13.03.25.05.36.08.48.11.67.16,1.16-.16.09-.06.23-.19.31-.29-.42-.1-1.15-.11-1.71-.12-.28,0-.55,0-.76-.02-.52-.04-1.04-.08-1.56-.14h.01Z"/>
      </g>
      <g>
        <path d="M81.8,216.09s.43.21.51.26c.54.32.81,1.12.85,1.73.11,1.58-.08,3.33-.05,4.94,0,.5.04,1,.05,1.51.04,2.21-.16,4.42-.09,6.59.04,1.1.21,2.44.1,3.53,0,.07,0,.12-.07.16-.23-.12-.44-.31-.48-.59-.02-.12.02-.25-.01-.36-.02-.08-.13-.11-.15-.17-.16-.36.1-2.19.12-2.7.09-2.19-.18-4.46-.1-6.69.02-.55.12-1.1.14-1.64.06-1.55-.11-3.11-.09-4.66,0-.53-.4-.91-.77-1.2-.12-.09-.08-.18-.34-.22-.9-.14-2.1-.02-3.01.08-.13.01-.3-.03-.41,0-.04,0-.01.09-.1.1-.11.02-.26-.02-.38,0-.2-.21-.67-.23-.57-.63.04-.12.61-.16.76-.17.65-.04,1.3.08,1.95.1.58.02,1.65-.1,2.15.06v-.03Z"/>
        <path d="M83.12,235.48l-.31-.17c-.57-.31-.74-.72-.78-1.02-.01-.08-.01-.15-.01-.21-.04-.04-.08-.1-.11-.17-.16-.35-.13-.97,0-2.33.03-.27.05-.51.06-.64.05-1.08,0-2.22-.05-3.32-.05-1.1-.09-2.24-.05-3.36.01-.3.04-.59.08-.87.03-.27.06-.52.07-.77.03-.82,0-1.67-.04-2.49-.03-.71-.06-1.44-.05-2.16,0-.22-.16-.44-.54-.73-.05-.04-.09-.08-.12-.12-.81-.11-1.86-.01-2.8.09h-.23c-.1.06-.21.09-.27.09-.11.02-.21,0-.29,0h-.08l-.29.04-.2-.21s-.07-.03-.1-.05c-.2-.1-.79-.41-.62-1.12v-.05c.16-.41.61-.52,1.29-.56.45-.03.88.01,1.3.05.24.02.48.04.71.05.16,0,.39,0,.63-.01.61-.02,1.24-.04,1.68.1h0c.13.04.59.29.63.31.75.44,1.08,1.45,1.13,2.19.07.95.03,1.95,0,2.92-.03.68-.05,1.39-.04,2.05,0,.24.01.49.02.74,0,.26.02.51.02.77.02,1.06-.02,2.13-.05,3.16-.04,1.13-.08,2.3-.04,3.42.01.33.04.69.06,1.07.06.86.12,1.74.03,2.54-.01.11-.04.39-.33.58l-.29.19h-.02ZM82.59,234.58v.04h.4l-.38-.04h-.02Z"/>
      </g>
      <g>
        <path d="M59.39,227.94s.06.27.06.34c-.02,1.61-.11,3.34-.05,4.94.01.37.2.92,0,1.22l.1.09-.1,2.07c.13,1.4-.11,3.1.05,4.47.06.49.6,1.18,1.09,1.25.45.06.99-.11,1.4.16.08.4-.11.42-.44.45-.84.09-1.7.05-2.26-.66-.62-.78-.4-1.63-.4-2.56,0-1.53.02-3.07,0-4.61-.02-2.03-.2-4.24-.1-6.26,0-.18.03-.48.05-.65.02-.16.11-.35.3-.35.05,0,.27.07.29.1h.01Z"/>
        <path d="M60.93,243.55c-.75,0-1.55-.18-2.14-.91-.63-.79-.58-1.63-.54-2.38,0-.18.02-.36.02-.55v-.68c0-1.29.01-2.62,0-3.93,0-.71-.03-1.46-.06-2.18-.05-1.37-.1-2.78-.04-4.11,0-.07.02-.46.06-.7.07-.5.42-.85.87-.86h0c.1,0,.54.08.73.3h0c.19.23.2.61.2.73,0,.51-.02,1.04-.03,1.57-.03,1.11-.06,2.27-.02,3.35,0,.08.02.18.04.3.04.23.08.5.05.77l.03.03-.11,2.3c.06.69.04,1.44.02,2.17-.02.77-.05,1.57.03,2.24.03.28.41.72.59.74.11.01.25,0,.39,0,.37-.02.82-.03,1.25.24l.2.13.05.24c.02.12.1.48-.12.79-.22.3-.57.34-.82.36-.2.02-.42.04-.64.04h-.01Z"/>
      </g>
      <g>
        <path d="M74.52,238.36c-.09.07-.21.1-.33.21-.41.37-1.01,1.08.18.93.17-.02.16-.11.3-.16.98-.37.66.21.91.33.13.07.76.08.94.07.54-.03.94-.23,1.38-.37,1.09-.36,1.02.18.6.73-.3.39-1.21.79-1.77.92-.06.01-.03.08-.14.09-.24.02-1,.02-1.24,0-.06,0-.91-.25-1.02-.29-.37-.14-.52-.35-.79-.51-.6-.35-1.34-.72-2.16-.7-.12.21-.35.51-.73.44-.25-.13.24-.91.31-1.1.19-.57.05-1.21.42-1.74.13-.08.43.13.5.21.36.4.11,1.28.6,1.54.37.2.97-.26,1.15-.47.28-.35.35-1.28.69-1.52.28-.19,1.07-.15,1.18.12.21.5-.56.94-.98,1.27h0Z"/>
        <path d="M75.97,241.42c-.26,0-.52,0-.65-.02-.11-.01-1.02-.28-1.1-.31-.27-.1-.43-.24-.58-.35-.08-.06-.16-.12-.25-.18-.57-.33-1.18-.64-1.85-.66-.32.45-.68.49-.94.44l-.08-.03c-.45-.23-.13-.85.08-1.26.04-.08.08-.15.09-.19.07-.2.09-.41.11-.64.04-.37.08-.79.34-1.18l.04-.05.06-.03c.34-.2.79.18.87.27.22.25.27.59.31.89.04.32.08.52.21.59.16.09.61-.19.79-.4.09-.11.17-.37.24-.61.12-.38.24-.78.51-.97.29-.2.81-.21,1.15-.1.29.09.41.24.46.36.26.64-.42,1.13-.87,1.45-.07.05-.14.1-.21.15h0s-.11.07-.17.1c-.05.03-.1.05-.14.09-.21.19-.33.35-.39.44.06,0,.17,0,.33-.02.06-.05.13-.1.23-.14.42-.16.68-.18.88-.08s.26.29.29.4v.03c.15.03.59.04.76.03.38-.02.69-.14,1.02-.26.1-.03.19-.07.29-.1.38-.13.92-.26,1.17.09.13.18.19.51-.25,1.09-.35.46-1.28.86-1.85,1.01-.07.07-.15.11-.26.12-.13.01-.38.02-.64.02h0ZM71.45,239.32c.84,0,1.6.37,2.23.74.12.07.22.15.31.22.14.11.25.2.44.27.09.03.86.26.96.28.19.02.83.02,1.1,0,.05-.05.1-.08.17-.09.55-.12,1.37-.51,1.6-.81.14-.18.2-.31.22-.38-.07,0-.22.01-.49.1-.09.03-.18.06-.27.1-.35.13-.72.26-1.18.29,0,0-.83.03-1.09-.1-.19-.1-.25-.28-.28-.38,0-.01,0-.03-.01-.04-.05,0-.16.01-.39.1l-.03.02c-.07.06-.16.13-.33.15-.22.03-.8.11-.98-.28-.07-.14-.06-.3.02-.48-.32.22-.75.39-1.11.19-.4-.22-.46-.67-.51-1.03-.03-.23-.06-.46-.17-.58-.02-.03-.08-.06-.13-.09-.11.23-.13.49-.16.76-.02.25-.05.51-.14.76-.02.07-.06.15-.12.27-.04.08-.13.26-.19.4.06-.05.13-.12.2-.25l.08-.14h.25ZM76.56,240.83h0ZM74.82,237.15c-.14,0-.28.02-.34.07-.11.07-.21.41-.29.66-.05.15-.09.3-.15.44.07-.06.14-.1.2-.13.03-.02.06-.03.09-.05.07-.05.14-.11.22-.16.29-.21.73-.53.67-.75-.06-.05-.24-.08-.41-.08h.01ZM75.24,237.23h0Z"/>
      </g>
      <g>
        <path d="M76.2,231.81c.27.16.33.4.14.62-.22.24-1,.19-1.01.61,0,.37.75.17,1.05.17,1.08,0,.78,1.06.81,1.58.03.6.18,1.29.07,1.88-.04.19-.27.33-.54.29-.32-.05-.57-.31-.94-.4-.31-.08-1.43-.15-1.5-.33-.04-.11,0-.24.12-.32.5-.07,1.37.09,1.66-.3.15-.2.24-.78.22-1.01-.11-1.23-2.28-.88-3.4-.82-.35.02-.77-.03-1.11,0-.54.05-1.15.47-1.62.47-.77,0-.29-.94.27-1.03.29-.04,1,.07.72-.31-.21-.29-.72-.28-.52-.72.22-.47,1.06-.34,1.16.07.09.36-.06.97.69.96,1.06-.03.46-.72.48-1.06.03-.46.85-.72,1.18-.29.39.51-.56.68-.54,1.14.02.37.5.31.84.18.83-.29.36-1.1.85-1.41.2-.12.7-.07.89.04h.03Z"/>
        <path d="M76.82,237.26h-.13c-.22-.03-.4-.13-.57-.23-.13-.08-.26-.15-.4-.18-.08-.02-.28-.05-.46-.07-.81-.11-1.13-.17-1.23-.43-.09-.23,0-.5.22-.66l.06-.04h.07c.17-.03.36-.04.56-.04.33,0,.79,0,.9-.16.09-.12.19-.63.17-.82-.06-.72-1.32-.69-2.6-.59-.18.01-.35.03-.5.03h-.53c-.2,0-.39-.01-.56,0-.22.02-.48.12-.72.22-.3.12-.62.25-.92.25h0c-.48,0-.67-.28-.69-.55-.03-.46.42-.99.92-1.06.08-.01.18-.01.3-.02h0c-.19-.11-.55-.35-.32-.85.15-.33.5-.5.91-.47.4.04.72.27.8.59.02.1.03.2.04.3.03.36.05.45.36.43.29,0,.35-.07.35-.07.01-.04-.04-.2-.07-.29-.05-.14-.09-.28-.08-.43.02-.33.28-.62.66-.73.41-.12.82-.01,1.04.28.39.51-.04.88-.25,1.06-.08.07-.23.19-.22.24.02.01.18.02.45-.07.29-.1.33-.26.38-.59.04-.26.09-.59.41-.79.32-.2.93-.12,1.18.03h0c.22.13.36.31.39.52.03.19-.04.38-.18.54s-.37.22-.58.28c-.06.02-.14.04-.22.07.11,0,.24-.02.32-.03.12-.01.23-.02.3-.03.36,0,.64.1.83.31.32.34.3.84.27,1.24,0,.11-.01.21,0,.3,0,.18.03.36.05.55.05.47.1.95.02,1.4-.06.32-.37.54-.73.54v.02ZM75.21,236.17s.09.01.12.02c.22.03.41.06.53.09.21.06.39.15.54.24.14.08.25.14.37.16.13.02.2-.04.21-.06.07-.38.02-.81-.02-1.24-.02-.2-.04-.39-.05-.58v-.36c.02-.29.03-.66-.12-.82-.08-.08-.21-.12-.41-.12h0c-.06,0-.14.01-.23.02-.14.02-.3.04-.44.03.48.16.82.46.87,1.02.02.25-.07.92-.28,1.21-.23.32-.66.38-1.09.4h0ZM70.07,233.94s.05.02.1,0c.18,0,.45-.11.7-.21.29-.12.59-.24.89-.26.14-.01.29-.01.43,0-.57-.13-.62-.66-.64-.94,0-.08-.01-.16-.03-.22-.01-.05-.12-.13-.29-.15-.04,0-.26-.02-.33.13,0,.02-.01.03-.02.04.03.02.09.06.13.08.12.07.27.16.38.31.16.22.13.39.08.49-.13.26-.47.27-.77.27h-.22c-.12.02-.26.12-.35.25-.07.1-.08.17-.07.19h0v.02ZM72.7,233.48h.18c.14,0,.31-.02.48-.03.06,0,.13,0,.2-.01-.1-.08-.17-.19-.2-.31-.01.02-.02.04-.04.06-.15.2-.39.28-.62.3h0ZM74.69,233.4c.2,0,.4.02.58.05-.03-.02-.05-.03-.07-.05-.08-.07-.13-.16-.15-.27-.09.1-.2.2-.36.27ZM73.68,231.92c-.06,0-.11,0-.16.03-.14.04-.24.13-.25.21,0,.04.03.14.06.21.03.09.06.2.08.31.09-.17.24-.29.36-.4.07-.06.19-.16.2-.2,0,0,0-.02-.03-.05-.06-.08-.16-.11-.25-.11h-.01ZM75.67,231.99c-.09,0-.16,0-.2.03-.09.05-.11.15-.15.39,0,.05-.02.1-.03.15.16-.11.36-.17.52-.22.1-.03.27-.08.31-.12.03-.03.04-.05.03-.06,0-.02-.03-.06-.11-.11h0c-.07-.04-.25-.07-.39-.07h.02Z"/>
      </g>
      <g>
        <path d="M62.12,216.09c.2.1.25.48.15.68-.11,0-.24.05-.34.05-.56,0-.96-.17-1.53,0-.64.19-.97.66-.95,1.34.06,2.74-.04,5.49,0,8.24,0,.19.13.43-.05.61-.33.35-.57-.17-.6-.47-.09-.85-.04-2.21-.05-3.1,0-1.17.1-2.32.14-3.48.04-1.03-.24-2.81.65-3.53.71-.57,1.6-.56,2.47-.39.06.01.07.04.11.06h0Z"/>
        <path d="M59.19,227.71c-.11,0-.2-.02-.25-.04-.49-.17-.68-.74-.72-1.06-.07-.66-.06-1.57-.06-2.38v-.78c0-.76.04-1.52.08-2.25.02-.42.05-.83.06-1.25v-.68c-.03-1.13-.06-2.53.87-3.28.97-.78,2.15-.67,2.95-.51.14.03.23.08.29.13.48.28.6.98.37,1.43l-.17.35-.36-.02s-.03,0-.04.01c-.07.02-.17.04-.29.04h0c-.22,0-.42-.02-.59-.04-.29-.03-.51-.06-.77.02-.39.11-.55.35-.54.78.03,1.46.02,2.93,0,4.36-.01,1.27-.02,2.59,0,3.88,0,.02,0,.05.01.08.03.19.11.6-.22.94-.22.23-.45.29-.63.29v-.02ZM62.28,217.35h0ZM62.39,215.58h0ZM62.39,215.58h0Z"/>
      </g>
      <g>
        <path d="M74.33,216.09s.35.21.41.27c.16.15.25.39-.04.43-.89.1-1.97-.09-2.88,0-1.96-.25-4.15.2-6.08-.05-.09-.01-.04-.09-.13-.1-.24-.03-.73.06-.92,0-.16-.06-.26-.48-.13-.63.1-.11.69-.07.86-.07,2.35.07,4.71.02,7.05.1.46.01,1.49-.08,1.87.06h0Z"/>
        <path d="M74.06,217.39c-.29,0-.59-.01-.88-.03-.47-.02-.92-.04-1.32,0h-.12c-.93-.12-1.96-.07-2.96-.02-1.03.05-2.1.1-3.12-.03-.07,0-.18-.03-.28-.1h-.15c-.27.02-.52.03-.74-.04-.26-.09-.45-.32-.54-.65-.09-.35-.03-.69.16-.92.25-.29.66-.29,1.26-.27h.06c1.17.04,2.37.04,3.53.05,1.16,0,2.35.01,3.53.05h.49c.7-.02,1.22-.02,1.56.11h0c.13.05.5.29.61.4.28.27.39.62.28.92-.04.13-.2.44-.67.5-.23.03-.46.04-.7.04h0Z"/>
      </g>
      <g>
        <path d="M77.3,218.82s.12.1.22.1c.01.37-.58.9-1.08.96-.54.06-1.23-.21-1.77-.31-.49-.09-.97-.16-1.41-.25-.55-.11-1.09-.08-1.51.21-.4.28-.34,1.02-.55,1.39-.2-.02-.59.04-.74-.07-.19-.14-.18-.95-.4-1.22-.15-.18-.93-.44-.95-.53.04-.11.11-.37.25-.42.1-.04,1.08-.16,1.26-.17,1.35-.08,2.97.13,4.34.19.7.03,1.68-.07,2.34.11h0Z"/>
        <path d="M71.36,221.22h-.18s-.12-.02-.19-.01c-.24,0-.52.01-.71-.13-.18-.14-.23-.4-.29-.73-.03-.18-.09-.46-.15-.54-.06-.06-.33-.18-.47-.24-.34-.15-.49-.22-.53-.4l-.02-.09.05-.14c.06-.16.15-.44.4-.53.16-.06,1.2-.18,1.34-.18.93-.05,1.97.03,2.97.1.49.04.95.07,1.39.09h.71c.59,0,1.2-.02,1.69.12h.05l.06.06s.04.03.05.03h.28l-.02.28c.02.57-.73,1.19-1.33,1.26-.42.05-.88-.07-1.33-.18-.19-.05-.37-.09-.53-.12-.16-.03-.32-.06-.47-.08-.33-.06-.64-.11-.95-.17-.37-.08-.9-.11-1.28.16-.15.11-.21.39-.27.66-.05.22-.09.45-.2.64l-.09.16.02-.02ZM70.66,220.64h0ZM70.65,220.62c.06.01.23.01.33,0h.03c.03-.09.05-.21.08-.32.08-.37.16-.78.5-1.02.44-.31,1.04-.39,1.73-.25.3.06.61.11.93.17.16.03.32.05.48.08.18.03.37.08.57.13.4.1.81.21,1.12.17.31-.04.63-.31.76-.51-.41-.1-.95-.09-1.48-.09h-.75c-.45-.02-.92-.05-1.41-.09-.99-.07-2.01-.15-2.9-.1-.17,0-.95.11-1.15.14,0,0-.01.02-.02.03.05.02.1.04.14.06.33.15.56.26.68.4.16.19.22.5.28.8.02.12.06.3.09.38v.02Z"/>
      </g>
      <g>
        <path d="M76.83,231.29s0,.07-.12.08c-.41.04-.94-.02-1.37,0-.36.02-.8.09-1.16.1-.52,0-1.03-.08-1.56-.05-.86.06-1.67.37-2.65.28-.92-.08-.29-.82.21-.88.52-.07,1.67.33,2.24.31.27-.01.89-.23,1.2-.29.56-.12,1.19-.12,1.74-.24.66-.14.37-.27.54-.67.66-.12,1.71.68,1.45,1.12-.08.13-.36.2-.52.26v-.02Z"/>
        <path d="M70.34,232c-.12,0-.25,0-.38-.02-.65-.06-.73-.42-.73-.57,0-.42.5-.83.93-.89.32-.04.78.05,1.26.15.38.08.78.16,1.01.15.13,0,.44-.09.69-.16.18-.05.35-.1.47-.12.29-.06.59-.09.89-.12.3-.03.58-.06.85-.12.14-.03.21-.06.24-.07v-.03c0-.09.02-.23.09-.4l.06-.14.15-.03c.6-.11,1.34.31,1.66.77.26.37.17.65.09.78-.12.21-.39.29-.6.36-.08.08-.18.11-.26.12-.24.02-.52.01-.78,0-.2,0-.41-.02-.6,0-.16,0-.34.03-.51.05-.22.02-.45.05-.65.05-.24,0-.49-.01-.72-.03-.28-.02-.55-.04-.82-.02-.31.02-.61.08-.94.13-.44.08-.88.16-1.37.16h-.03ZM69.82,231.37s.09.03.19.04c.53.05,1.02-.03,1.49-.12-.07-.01-.14-.03-.21-.04-.39-.08-.84-.18-1.06-.15-.17.02-.35.18-.41.27ZM73.53,231.15c.22.02.44.03.65.03.18,0,.39-.03.6-.05.19-.02.38-.04.55-.05h.64c.21,0,.43.02.62,0h0l.21-.1c.08-.02.25-.08.29-.12,0,.01,0-.05-.08-.14-.17-.24-.58-.5-.9-.54v.05c-.03.36-.2.51-.7.62-.3.06-.61.1-.91.13-.28.03-.57.06-.83.11-.05.01-.1.02-.16.04l.02.02Z"/>
      </g>
      <g>
        <path d="M69.28,237.22s.42.25.47.29c.28.22.36.4.32.7-.04.27-.38,1.3-.52,1.55-.41.75-1.06.58-1.86.26-.03-.04-.02-.15,0-.2.13-.52,1.6-.8,1.49-1.65-.02-.16-.48-1.15.11-.95h0Z"/>
        <path d="M68.72,240.58c-.41,0-.83-.17-1.14-.29l-.07-.03-.05-.05c-.12-.14-.1-.35-.07-.46.08-.33.41-.54.76-.76.46-.29.76-.5.72-.79,0-.02-.02-.06-.04-.12-.11-.34-.27-.81-.01-1.06.09-.09.26-.18.55-.08.09.03.54.32.56.34.36.28.48.56.42.97-.04.31-.4,1.37-.55,1.65-.28.52-.68.68-1.08.68h0ZM68,239.83c.77.28,1.06.23,1.29-.2.12-.22.45-1.21.49-1.45.02-.18.01-.26-.21-.43-.03-.02-.17-.11-.28-.18.03.13.08.28.1.35.03.1.06.17.06.22.09.69-.53,1.08-.99,1.36-.16.1-.38.24-.47.34h.01Z"/>
      </g>
      <g>
        <path d="M75.37,234.53c.12.1.12.34-.05.44-.33.18-2.1-.05-2.68-.02-.6.03-1.07.29-1.62.29-.14,0-.5-.02-.55-.13-.09-.21.34-.6.61-.62.27-.03.57.02.84,0,1.14-.09,1.86-.18,3.04-.04.08,0,.37.07.41.1v-.02Z"/>
        <path d="M71.01,235.52c-.45,0-.72-.1-.81-.3-.04-.08-.08-.26.05-.48.14-.24.49-.52.8-.55.16-.02.32-.01.47,0h.37l.32-.03c.98-.08,1.68-.14,2.78-.02,0,0,.43.05.56.17h0c.13.11.2.29.18.48s-.12.34-.28.43c-.26.14-.79.13-1.85.05-.39-.03-.76-.05-.96-.04-.26.01-.49.07-.74.14-.28.07-.57.15-.89.15h0ZM70.84,234.93c.3.03.61-.04.92-.12.07-.02.13-.03.2-.05h-.02c-.15.01-.29,0-.44,0h-.39c-.07,0-.19.09-.27.16h0ZM73.18,234.67c.14,0,.29.02.46.03.42.03,1.08.07,1.39.04-.05,0-.09-.02-.11-.02-.67-.08-1.2-.08-1.74-.05h0Z"/>
      </g>
      <g>
        <path d="M74.95,222.07c-.36.16-.52.36-.94.5-.05.02-.05.08-.1.09-.1.02-.4.02-.49,0-.05,0-.05-.07-.1-.09-.2-.06-.55-.02-.25-.29.25-.22.87-.47,1.07-.68.23-.24.46-.91.74-1.06.45-.25,1.12.67,1.08.97-.06.36-.67.41-1.02.56h0Z"/>
        <path d="M73.67,222.96c-.11,0-.23,0-.29-.02-.1-.02-.16-.07-.2-.11h-.05c-.14-.02-.38-.06-.44-.29-.07-.23.13-.41.21-.48.14-.13.36-.24.58-.37.18-.1.4-.22.47-.3.07-.07.16-.24.24-.39.16-.29.33-.6.57-.72.14-.08.43-.16.82.11.37.26.74.81.68,1.16-.07.45-.54.58-.89.68-.11.03-.22.06-.3.1h0c-.14.06-.24.13-.36.2-.14.09-.31.2-.54.29-.04.05-.11.11-.21.13-.06.01-.18.02-.29.02h0ZM73.24,222.85h0ZM73.55,222.38h.23s.07-.06.13-.08c.21-.07.34-.15.49-.25.13-.08.26-.17.44-.24h0c.11-.05.24-.09.37-.12.15-.04.46-.13.48-.21,0-.09-.23-.48-.5-.63-.02-.01-.11-.06-.15-.04-.09.05-.24.33-.33.49-.11.2-.21.39-.34.52-.13.14-.37.27-.61.4-.08.04-.16.09-.24.14.02.01.03.03.05.04l-.02-.02ZM73.86,222.37h0ZM73.47,222.37h0Z"/>
      </g>
      <g>
        <path d="M67.99,222.65c-.23.09-.29-.05-.36-.08-.53-.19-1.17-.59-1.58-.72-.23-.07-.63-.04-.69-.25-.1-.37.46-.46.67-.73.31-.19.65-.4,1.04-.19.33.18.23.76.39,1.03.09.16.7.56.73.65.04.04-.18.28-.2.29h0Z"/>
        <path d="M67.85,222.97c-.18,0-.3-.09-.35-.14-.27-.1-.55-.24-.82-.38-.28-.14-.54-.27-.73-.33-.05-.02-.12-.03-.19-.04-.24-.03-.6-.09-.69-.42-.12-.44.25-.67.48-.8.1-.06.2-.12.25-.18l.03-.04.05-.03c.35-.21.8-.48,1.33-.19.33.18.38.55.43.83.02.12.04.26.07.31.04.05.25.21.36.3.21.16.31.24.36.32l.08.09-.03.17c-.04.17-.27.42-.38.47h0c-.09.04-.18.05-.25.05h0ZM65.66,221.49c.06.01.13.02.18.03.09.01.19.03.28.05.24.07.52.22.82.37.23.12.47.24.68.32-.22-.17-.35-.29-.42-.4-.09-.15-.12-.34-.15-.52-.03-.16-.06-.37-.13-.4-.22-.12-.42-.02-.71.16-.11.12-.25.2-.37.27-.05.03-.13.08-.18.12h0Z"/>
      </g>
      <g>
        <path d="M65.85,218.82c.23.08.36.11.7.08.12-.01.08-.09.14-.1.08-.01.62-.01.66,0,.45.77-.96.85-1.66,1.06-.08.03-.09.09-.13.11-.14.04-.85.25-.93.21-.44-.54.32-.99.73-1.38.07-.03.4-.02.49,0v.02Z"/>
        <path d="M64.65,220.48c-.06,0-.1,0-.14-.02l-.07-.03-.05-.06c-.54-.67.13-1.24.53-1.58.08-.07.16-.13.22-.2l.04-.04.05-.02c.16-.07.57-.04.69,0h0c.19.06.28.09.51.08.06-.07.13-.09.19-.1.02,0,.68-.04.83.03l.08.04.05.08c.17.3.13.53.07.67-.19.43-.81.57-1.41.7-.16.04-.32.07-.44.11-.03.04-.08.09-.17.12-.34.11-.75.23-.99.23h0ZM65.49,219.08c-.06.05-.12.1-.18.16-.41.35-.53.51-.52.64.17-.04.45-.11.61-.16.04-.05.1-.1.2-.13.16-.05.34-.09.53-.13.33-.07.93-.2,1-.36h0c-.1-.01-.23-.01-.32-.01-.06.06-.15.09-.25.1-.39.04-.56-.01-.81-.09-.05,0-.19-.01-.27,0v-.02ZM65.47,219.7h0Z"/>
      </g>
      <g>
        <path d="M64.81,236.65l.05.27c-.35.48-1.13,1.66-2.02,1.64-.69-.02-.43-.95-.07-1.17.15-.09.22-.06.34-.11.36-.14.72-.31,1.07-.5.19-.1.25-.3.62-.13h.01Z"/>
        <path d="M62.87,238.85h-.03c-.35,0-.61-.2-.69-.51-.11-.41.12-.99.48-1.21.14-.08.24-.1.32-.12.02,0,.04,0,.07-.02.33-.13.67-.29,1.04-.48.03-.02.06-.04.08-.06.17-.13.39-.26.79-.08l.13.06.11.54-.16.22c-.42.58-1.18,1.65-2.15,1.65h.01ZM64.52,236.91s-.02.01-.02.02c-.05.04-.1.08-.17.11-.39.21-.76.38-1.11.51-.07.03-.12.04-.17.05-.05,0-.07.01-.12.04-.13.08-.26.39-.22.56,0,.03.02.07.14.08h.02c.65,0,1.31-.9,1.65-1.37h0Z"/>
      </g>
      <g>
        <path d="M71,236.71s-.03.06-.11.08c-.27.07-1.02.26-1.21.05-.2-.22.39-.75.65-.84.42-.14,1.63-.06,2.17-.07.31,0,.67-.15.93.07-.19.59-1.03.46-1.69.56-.26.04-.49.09-.74.15Z"/>
        <path d="M70.01,237.23c-.24,0-.42-.05-.54-.19-.11-.12-.14-.27-.1-.44.09-.37.59-.78.87-.88.33-.11.95-.11,1.73-.09h.53c.07,0,.15-.01.23-.02.26-.04.61-.08.89.16l.14.13-.06.18c-.21.64-.91.68-1.47.72-.15,0-.31.02-.45.04-.19.03-.39.06-.63.12-.04.04-.11.08-.2.1h-.04c-.36.1-.67.16-.91.16h0ZM71.31,236.21c-.37,0-.72.01-.89.07-.12.04-.35.24-.45.37.11,0,.35-.02.8-.14.03-.03.08-.07.15-.09h0c.21-.05.47-.11.77-.15.16-.02.33-.03.5-.04h.06-.95v-.02Z"/>
      </g>
      <g>
        <path d="M77.89,238.09c-.08.07-.39.15-.52.2-.05.02-.05.08-.13.11-.46.17-1.73.57-1.15-.18.21-.27.65-.79.91-1.03.12-.12.34-.24.55-.21.31.04.6.9.34,1.12h0Z"/>
        <path d="M76.18,238.94c-.32,0-.41-.12-.45-.19-.14-.19-.09-.43.13-.72.21-.27.66-.8.94-1.07.17-.17.47-.33.78-.29.4.05.58.55.63.7.12.4.07.75-.13.92h0c-.09.08-.22.13-.43.19-.04.01-.08.03-.12.04-.04.04-.09.09-.19.13-.56.21-.92.28-1.16.28h0ZM77.49,238.55h0ZM77.49,237.25c-.1,0-.22.07-.29.14-.23.22-.63.69-.84.96.18-.03.45-.1.76-.21.03-.04.07-.08.14-.11.05-.02.13-.05.21-.08.06-.02.17-.06.22-.08.04-.13-.08-.53-.19-.61h-.01ZM77.14,238.12h0ZM77.68,237.88h0ZM77.49,237.25h0Z"/>
      </g>
      <g>
        <path d="M63.1,216.15c.08-.07.05-.1.19-.16.22-.08.61-.13.75.11.34.61-.98.73-1.1.27-.04-.14.09-.15.16-.22h0Z"/>
        <path d="M63.5,217.23c-.1,0-.2,0-.29-.03-.43-.08-.74-.34-.83-.69-.04-.15-.09-.53.33-.8.1-.13.21-.2.38-.27.5-.19,1.17-.16,1.46.37.18.32.17.68-.03.96-.23.32-.64.45-1.02.45h0Z"/>
      </g>
    </g>
  </g>
</svg>