<svg version="1.2" xmlns="http://www.w3.org/2000/svg" viewBox="0 0 400 400" width="400" height="400">
	<style>
		.s0 { fill: #fefefe } 
		.s1 { fill: #000000 } 
	</style>
	<g id="&lt;Group&gt;">
		<path id="&lt;Compound Path&gt;" fill-rule="evenodd" class="s0" d="m196.35 11.85c9.76-1.05 19.46 0.33 29.2 1.31l-0.01 1.76c-1.49-0.35-4.34-1.64-5.68-1.62-0.88 0.01-1.51 1.03-2.78 1.07-1.58 0.05-4.47-0.85-6.48-0.9-1.77-0.04-3.36 1.74-4.68-0.31l-0.58 1.18-0.58-1.18c-1.62 2.43-6.21-0.8-6.17 1.75l-1.73-1.16c0.11 2.09-2.85 1.6-3.53 2.92 1.65-0.37 6.6 0.35 7.82-0.07 0.85-0.29 0.72-1.09 0.91-1.29 1.74-1.78 0.56 1.27 1.51 1.35 1.33-0.85 2.82-0.85 4.31-0.83 2.59 0.04 6.32 0.24 8.89 0.54 3.93 0.45 7.36 2.22 11.11 1.48l-1.17 1.75 1.17 0.58c-4.97-0.12-9.79-1.33-14.78-1.37-0.77-0.01-1.29-0.52-1.61 0.78 4.11 0.83 8.35 0.73 12.52 1.25 2.53 0.32 5.92 1.52 8.27 1.7 0.66 0.04 1.02 0.18 0.87-0.59l-5.26-2.95c1.91-3.48 5.26 1.2 5.6 1.2 11.16-0.01 21.54 5.04 31.72 9.22 1.13 0.46 5.91 1.66 6.18 1.84 0.95 0.63 0.42 2.3 2.69 1.25l0.66 1.73-18.11-6.66-20.83-5.64 0.45 1.32 21.11 6.42c1.3 2.4 2.27 1.2 4.07 1.75 1.38 0.42 4.35 3.2 6.28 3.41-0.49 3.83-4.97-0.89-7.58-0.07l-0.04-1.7c-1.11 1.51-4.7 0.63-5.55-0.62-0.49-0.74 0.04-2.58-1.4-1.44l-0.36 1.46c-7.85-2.55-15.91-4.52-24.09-5.77-13.76-2.12-28.4-2-42.16 0.44-1.04 0.19-2.11 0.06-3.15 0.08-0.17 1.81 0.13 0.93 1.11 0.97 2.22 0.09 4.33-1.08 6.49-0.38l-0.57 1.46-20.05 4.44c-1.4 2.27-4.59-0.17-3.97 4.04l-0.59-2.34c-0.3-0.38-7.08 1.58-7.87 1.95-0.98 0.47-2.85 2.23-4.01 2.86-9.23 4.95-17.62 9.63-25.32 17.42-0.94 0.95-2.04 3.38-2.78 3.96-3.55 2.77-2.12 0.64-5.2 5.05-5.39 7.71-9.61 14.5-11.79 23.94-0.74 3.24-0.84 6.38-1.58 9.58-12.75-1.07-24.41-0.71-35.74 5.8-3.2 1.84-7.99 5.29-9.36 8.81-0.36 0.94 0.18 0.87 0.89 0.86 3.33-0.08 11.89-1.88 14.34 0.31 0.86 0.77-0.04 2.63 2.34 2.05l-1.78 2.62 1.49 2.05c1.51-1.16 3.01-0.99 4.97-1.75l-1.6 2.04c1.77 1.76-0.88 4.08 2.49 4.98 1.7 0.45 0.48-2.38 0.87-2.92 2.17 0.37 2.08-0.11 3.5 1.75 2.37-4.71 8.81-8.78 14.06-9.08-3.76 3.61-9.12 5.04-13.42 7.98l0.55 2.28c1.85-1.07 3.95-0.32 5.85 0.29-2.13 3.34-4.29 6.67-6.26 10.11-0.37 0.64-1.14 0.71-1.52 1.45-1.53 2.96-2.67 8.96-4.49 11.74-1.2 1.83-9.44 5.96-11.56 7.63-2.19 1.71-6.8 8.67-8.52 9.65-0.6 0.34-1.67-0.08-2.1 0.2-0.64 0.42-0.4 2.87-0.82 3.32-0.43 0.47-2.73-0.04-2.22 2.46h-0.87l0.3-1.17c-2.38-0.25-1.92 2.36-2.56 3.32-2.15 3.2-5.59 4.6-6.25 9.84-0.1 0.8-0.29 1.79 0.88 1.47 3.79-4.06 9.04-5.43 13.49-8.77l-0.58 2.34 9.65-2.34c-2.3 6.33-2.74 13.01-4.16 19.55-0.88 4.1-2.71 9.21-3.44 12.46-0.28 1.26 0.15 2.94 0 4.29l1.74-3.51-1.17 7.03-1.16-0.59 1.46 6.44 12.86-26.96 7.92-14.22 1.76-0.39c0.56 2.06-1.37 1.77-1.87 3.18-0.52 1.43 0.23 2.64-0.3 4.25-1.6 4.8-7.18 12.59-9.64 17.94-1.37 2.98-8.95 21.4-8.54 23.13 0.13 0.5 2.03 1.55 2.78 0.68l-1.07-2.53 2.26-3.9 0.87 1.76 0.29-2.36 1.17 0.6c-1.1-2.33 0.53-1.77 1.19-2.78 2.58-4 3.51-7.94 5.43-12 0.42-0.89 0.83-2.58 2.16-2.2-1.55 4-2.51 8.19-3.81 12.28-0.67 2.09-2.71 3.99-1.54 6.4l-1.08 0.63c3.11-0.52 0.85 2.05 2.96 2.71-1.18 2.48 0.19 1.7 0.5 2.43 1.99 4.72 3.89 9.47 6.46 13.94l-1.14 2.01c2.56-1.11 4.21 3.8 5.63 5.77 0.91 1.27 2.97 1.64 2.57 4.19l1.08-0.5c0.92 1.54 2.42 3.62 3.62 4.9 5.37 5.71 14.23 14.61 20.53 18.68 3.39 2.2 16.43 7.7 17.77 10.32 0.53 1.04 0.4 2.43 0.97 3.73 0.66 1.52 1.83 1.82 2.1 2.29 1.4 2.48 3.41 7.4 5.75 9.25 0.61 0.49 1.4-0.11 1.44-0.05 0.3 0.47-0.15 2.1 0.94 3.47 5.02 6.37 26.3 20.27 34.07 23.32 14.91 5.84 33.88 7.3 50.77 5.94 1.65-1.36 8.42-1.96 9.12-3.18 0.13-0.22 0.15-0.96-0.28-0.86-0.9 0.95-3.51 1.39-4.77 1.57-1.04 0.15-2.21-1.32-1.98 0.76l-1.16-1.75-1.17 2.34 0.58-2.34-4.09 1.18-0.3-1.76-2.04 1.75-0.35-1.18c-1.79 0.95-3.16-0.27-4.93-0.58l3.7-0.56 0.98-1.77c-0.84-0.86-2.13 3.17-3.17 0.05l-5.03 0.52 0.9-1.16-0.6-1.16c-0.32 0.32-0.7 0.83-1.15 0.89-4.23 0.59-6.06-2.17-8.5-3.46-0.53-0.29-1.42-0.04-2.06-0.33-2.47-1.13-5.88-2.11-7.33-4.14l3.51 0.58 0.01-2.33c1.32-0.73 3.11 2.62 3.53-0.3l-1.19-0.59 1.75-1.46c-1.76 0.51-1.7-1.18-2.85-1.51-1.81-0.51-4.39-0.12-6.11-0.97-0.8-0.4-0.86-1.31-1.44-1.61-1.71-0.89-5.34 0.11-5.4-2.94l6.43 1.76 0.3-1.76 0.96 1.7 3.07-0.58 0.37 1.22 1.49-1.67 4.94 0.5 0.01-1.75c-0.38-0.4-6.57-0.56-7.79-0.82-0.37-0.08-5.05-1.47-5.28-1.61-0.81-0.5-0.89-1.61-1.4-1.7-0.45-0.08-1.24 0.46-1.64 0.35-1.16-0.34-2.18-1.81-3.81-1.5-0.08-2.05 2.77-2.45 4.1-1.76 0.22-4.01-3.43-2.74-4.68-5.56 2.27 0.21 3.2 0.35 5.26-0.88l-4.09-0.59 2.92-0.58-0.87-1.81c-4.59-1.65-9.18-3.42-13.89-4.8-3.55-1.04-21.47-4.74-22.71-7.16-0.14-0.26-0.12-0.99 0.28-0.87l33.63 7.56 0.6-1.42-2.3-2.03c2.26 0.11 4.12 1.26 5.85-0.89l-2.05-0.29c0.53-3.02 4.95-0.14 6.15-2.34l-7.02-0.01 1.75-1.74c-9.9-2.23-20.15-1.19-30.16-2.36-0.74-0.08-3.11-0.2-3.22-1.16 13.06-1.8 26.3 1.33 39.24-1.18l-1.17-1.75c2.35 0.17 5.81 0.2 7.61-1.47l-3.51-0.88c-0.22-1.28 3.12 0.16 2.33-1.45-0.57-1.17-2.44-0.9-3.51-0.89 1.43-1.66 4.5-0.42 6.73-2.37l0.66 1.23c2.71-1.12 6.5 0.11 7.84-2.95l-2.63 0.96c-1.35 0.09-1.49-1.57-1.8-1.58-0.78-0.02-2.6 1.06-4.06 1.2-5.85 0.58-12.34 0.12-18.18 0.61-8.75 0.73-17.58 2.79-26.34 3.48-0.64 0.05-2.72 0.47-2.62-0.57 6.33-1.98 13.64-3.76 20.27-4.62 5.94-0.78 12.4 0.47 16.94-0.02 0.97-0.1 0.66-0.95 1.7-1.27 7.09-2.24 18.37-3.24 25.84-4.07 1.27-0.14 4.04 1.32 3.46-1.75l-10.23 1.77 2.34-1.77-0.59-1.16c0.89-0.61 3.62 1.38 4.1-0.58h-10.83l-0.29-1.17c2.46-0.52 0.49-2.32 3.84-2.9 6.03-1.05 12.36-0.94 18.4-0.63-0.07-0.66-2.31-1.43-2.82-1.56-3.88-1-7.88-0.26-11.81-0.2-0.14-0.83 1.04-0.83 1.64-0.99 3.62-0.99 8.09-1.45 11.82-1.35 0.32-2.97-4.29 0.19-4.09-2.92 1.75 0.78 8.92-0.14 9.66 0.12 0.32 0.12 0.22 0.94 0.69 1.03 1.99 0.37 4.6 0.37 6.63 0.03l-0.58 1.75c3.54-2.58 7.24 2.65 11.12 1.46-15.13-9.7-33.03-11.39-50.52-8.35-18.03 3.12-28.92 11.12-44.95 17.13-3.84 1.43-12.89 3.98-16.69 3.52-0.99-0.12-8.63-4.39-9.06-3.81-0.16 0.21 0.38 1.35-0.38 1.79-0.72 0.41-4.78 0.87-5.4 0.47-1.88-3.99-1.53-4.96 1.09-8.11-1.49-0.02-3.07 0.38-4.14-0.84-0.44-0.5-4.5-9.12-4.93-10.3-1.07-2.91-2.82-10.84-2.71-13.78 0.02-0.55 2.34-2.16 1.24-4.36l6.72 9.37c1.8 0.1 3.86 2.58 4.7 2.92 1.58 0.63 0.24-1.98 1.45-1.75l0.31 2.35 2.04-0.6c-0.56 2.03 3.68 3.44 5.45 4.22 0.47 0.2 1.23 1.02 1.59 0.17-2.71-8.17-8.35-14.87-11.82-22.73-1.34-3.04-3.57-7.54-2.82-10.64l-1.18 0.29 1.16-2.05-1.74-0.29c-0.68-1.47 1.17-1.06 1.19-1.5 0.08-1.41-1.41-3.83-0.73-5.88 0.29-0.85 1.05-0.73 1.26-1.26 0.84-2.1 0.6-4.18 2.12-6.55 3.01-4.7 6.52-7.52 10.52-11.15 1.27-1.16 1.53-3.13 3.36-2.88 0.69 0.1 7.27 5.68 7.73 6.39 1.16 1.81 0.83 3.9 1.49 5.84 2.03 0.43 1.1-2.13 2.33-2.34l0.59 5.85 1.75-1.16-0.34 2.37c3.13 0.39 2.03 3.05 3.58 5.24 0.32 0.44 4.19 4.29 4.69 4.67 0.77 0.59 1.56 1.31 2.62 1.18 0.47-0.51-2.36-6.54-0.29-7.6 0.9 0.42 0.61 1.85 1.02 2.22 0.4 0.36 1.48 0 1.61 0.11 0.16 0.14-0.58 1.7-0.48 2.51 0.19 1.44 2.22 3.36 2.25 5.1 1.24 1.2 1.89-3.15 1.48-4.07-0.25-0.57-1.27-1.02-1.49-1.5-0.43-0.96 0.8-1.18 1.16-0.86 0.07 0.06 0.26 1.15 0.85 1.76 3.03 3.17 5.84 5.72 9.6 7.55 0.7 0.34 4.5 2.13 4.78 1.81 0.2-5.15-1.67-9.98-3.51-14.64 3 0.72 6.05 0.38 9.07 0.59 7.07 0.51 14.53 0.27 21.61 1.24 16.72 2.28 37.17 10.99 49.58 22.45 12.17 11.24 19.34 24.53 26.29 39.87 1.67 3.69 1.55 0.88 1.88 5.78 0.16 2.36 1.18 4.5 0.5 6.79h2.35c-0.53 0.97-1.17 1.34-1.23 2.62-0.22 4.18 1.21 9.9 1.25 14.09 0.01 1.59-0.48 6.47-0.91 7.91-0.32 1.03-0.1 1.37-1.45 1.14q0.72-4.74 0.52-9.55c-0.43-10.36-3.41-25.39-7.1-35.11-0.69-1.81-1.84-4.47-3.38-5.7 2.28 9.28 5.95 18.37 6.82 27.91 0.27 2.97 0.47 2.28 0.78 3.53 1.61 6.48-2.14 29.82-6.09 35.4-0.49 0.69-0.01 1.43-1.51 1.09l1.17-9.36 1.75 1.16 0.91-3.79-1.79-3.82c-2.25 5.71-2.34 16.66-6.13 21.42-0.66 0.83-2.72 0.71-1.47 2.01l2.09-0.28 1.7-3.23c-0.56 2.39 0.48 2.43 1.14 3.75-0.93 0.88-1.3 2.87-2.88 2.69l0.29-2.93c-2.72 1.08-2.48 4.77-5.56 5.28l1.74 0.58c0.24 1.49-1 1.23-1.86 2.52-0.45 0.68-0.88 1.31 0.39 0.98 0.96-0.25 3.56-3.34 4.53-4.26 0.39-0.37 0.84-1.78 1.63-0.71-1.71 3.13-4.53 4.78-7.32 6.74l-1.16-1.75c-0.56 0.57-1.3 1.11-1.73 1.78-2.39 3.64 0.56 2.78 0.81 3.82 0.46 1.89-3.61 3.38-5.23 3.17l1.75-4.09c-1.64-1.67-5.77 7.34-6.5 8.15-1.62-1.15-2.22 0.88-4.04 1.51l1.46 2.05c2.43-1.22 4.62-2.78 6.92-4.21 2.37-1.49 3.71-2.74 6.13-3.94 1.33-0.66 4.74-1.24 1.88-2.09l0.63-1.43c1.7 1.08 1.93-0.41 2.93-0.9 0.73-0.35 1.79-0.13 2.2-0.45 0.15-0.13 1.38-2.95 1.87-3.52 1.48-1.72 3.88-3.27 5.24-4.83 3.49-4 6.32-8.47 9.4-12.59l-1.76-0.59 3.5-1.18-1.75-0.87 2.94-0.89c-1.19-1.91 0.4-2.06 1.19-3.22 0.4-0.59 0.38-1.53 0.74-1.9 9.67-9.93 17.04-18.95 24.43-31.34 1.36-2.29 0.27-0.74 0.67-2.93 0.22-1.14 2.14-2.47 2.51-3.38 0.65-1.6 0.25-3.16 1.32-5.09 0.77-1.39 2.84-1.57 1.4-4.51l2.81-1.27c-1.18-3.22 1.81-5.94 2.72-8.41 0.36-0.98 0.1-2.17 0.44-3.07 0.97-2.59 2.33-5.22 3.37-7.8l-1.83-1.78c3.12-4.13 2.09-8.64 2.51-13.3 0.15-1.61 1.78-2.25-0.13-4.81 0.41-1.08 1.72-0.22 1.76-0.3 0.16-0.3-0.38-1.02-0.29-1.47 1.01-5.45 0.34-11.77 0.58-17.32 0.1-2.23-1.51-1.96-1.46-3.75l0.88 0.87 0.89-1.44-5.84-13.53 1.13-1.43 0.89 1.75 1.46-1.16 0.01 1.77 1.05-0.42 0.4 1 1.47-0.6-1.16-0.58v-4.68l0.58 2.93 1.76-0.01c-0.97-0.99-0.53-4.13 0.59-3.23 0.62 0.5 0.13 1.94 1.74 1.47 1.15-3.12 1.75-6.51 2.17-9.83 1.34-10.57 0.89-19.47 0.14-30.27-0.38-5.36-0.25-8.5-1.44-13.76-4-17.68-7.12-25.78-19.66-38.9-0.96-0.99-2.75-1.68-3.69-2.75-0.93-1.06-1.31-2.91-1.69-3.29-0.67-0.65-5.58-1.82-1.01-2.8l-2.05-4.39 15.82 15.22c-0.08-2.87-2.03-7.78-3.61-10.46-1.39-2.35-6.37-4.92-1.37-5.06-3.34-1.81-2.78-3.68-3.88-6.08-2.41-5.25-4.89-10.37-7.12-15.72-0.44-1.06-0.56-3.12-1-3.7-0.65-0.86-3.02-0.11-1.77-1.66l1.47-0.65-1.2-0.33c1.53-4.27-1.51-9.1-2.27-13.49-0.48-2.78-0.2-6-0.35-8.47-0.18-3.11-0.41-6.25-0.86-9.34 2.49 2.1 1.44 6.1 1.91 8.91 0.62 3.64 2.2 7.53 2.76 10.75 0.12 0.68-0.63 1.73-0.49 1.93 0.11 0.16 1.12 0.21 1.57 1.04 1.6 2.88 2.29 8.38 3.75 11.49 1.76 3.74 3.64 7.47 5.65 11.33 1.14 2.19 0.67 3.7 3.58 5.21l-1.75 0.57 19.03 35.43c2.05-1.55 1.84-3.82 2.52-5.66 0.36-0.98 1.49-1.74 1.76-2.94 0.48-2.13 0.11-11.9 0.4-12.48 0.13-0.27 0.76-0.74 0.88-0.58l0.89 4.68 2.61-3.48c-2.1 0.18-2.25-5.5-2.17-7.19 0.31-6.36 6.41-12.66 12.15-14.79 4.86-1.8 10.15-3.08 12.13 3.08 0.83 2.59 0.9 9.83-0.3 12.27-0.54 1.09-2.63 3.17-3.62 3.99-1.49 1.22-9.55 6.61-10.9 6.68-0.91 0.05-1.69-0.53-2.58-0.55-0.13 1.13 0.58 2.11 0.59 3.21 0.02 3.93-4.32 4.5-6.05 7.5-0.66 1.14-4.2 10.85-4.79 12.71-0.83 2.6 1.59 10.43 2.63 13.2 0.4 1.06 0.26 2.43 1.75 2.03l5.01-11.12 3.79-3.81c-0.73 6.69-3.3 12.53-5.04 19.03-0.27 0.98 0.3 1.89 0.17 2.55-0.23 1.12-1.63 2.19-1.83 4.39-0.33 3.68 1.92 7.49 1.42 11.21l-1.16-0.31c1.27 1.76 0.57 3.01 0.73 4.55 0.24 2.34 2.19 6.03-0.77 7.21l1.21 3.2h-1.76c-0.24 0.97 0.83 0.31 1.05 0.85 0.04 0.1 0.16 2.17 0.14 2.28-0.14 0.74-1.44-0.03-1.19 0.96l1.74 0.89-1.15 1.45 1.01 0.12c-0.86 1.51 1.09 1.2 1.9 2.53-0.99 1.57-1.76 0.02-2.91-0.3-0.5 3.39 0.34 7.77-0.82 10.94-0.06 0.18-0.95 0.22-0.98 0.56-0.13 1.44 1.68 2.16-0.56 2.91l0.54 1.37-1.11 0.61 1.15 0.28-2.91 5.3c-0.22 0.49 1.01 0.05 1.18 0.67 0.12 0.48 0.44 7.34 0.4 8.23-0.07 1.42-1.34 3.07-1.44 4.71-0.09 1.52 0.78 3.19 0.45 4.83l3.51-1.18-1.17-2.33 1.15 0.59 0.65-2.3 1.12 0.54c-0.44-1.76 3.31-3.63 0.59-4.39l1.47-1.47c0.64 0.86 0.29 2.65 2.04 2.34-0.63-3.78 3.35-5.89 5.18-8.58 1.21-1.78 2.5-4.52 3.03-6.64l1.44 1.71 2.6-1.1 0.94 1.74 2.63-1.18c-1.75 2.89-2.73 5.56-5.85 6.45-0.12 0.99 2.67 0.69 3.09 0.59 0.68-0.17 0.82-1.72 1.29-1.76 0.9-0.08 1.38 2.52-0.26 3.19-0.75 0.31-4.4-0.59-5.65 0.87l0.35 2.37c-2.34-0.52-1.63 1.1-2.31 1.91-2.73 3.28-6.12 9.06-7.68 12.99-1.8 4.55-1.89 10.71-6.41 13.51l2.34-0.3v1.76l-1.75-0.59c-0.14 2.09-1.48 5.21 1.16 6.15l-1.46 1.46-0.3-1.75c-2.15 0.78 0.48 3.14-1.74 4.39l2.34 2.05h-2.35c-0.2 0.19 0.69 4.56 0.55 5.49-0.03 0.18-2.17 1.7-2.53 2.7-0.46 1.3-1.25 4.18-1.74 5.83-0.38 1.3 0.48 4.34-1.54 4.15-0.26 0.98 0.89 0.38 1.06 0.64 1.1 1.55-2.79 2.86-2.85 4.89 1.25 0.75 2.45 1.52 2.37 3.24-1.89 0.44-0.69-1.1-1.54-1.79-0.3-0.24-1.75-0.77-1.97-0.55l1.17 2.65-1.17 0.28 1.16 2.04c-0.64 1.29-1.81 0.3-2.22 0.46-1.89 0.73-5.24 10.96-7.14 13.03-0.1 2.41 2.23-0.96 2.92-0.3-0.39 2.4-1.81 1.35-2.74 1.94-1.5 0.93-1.8 3.77-1.98 3.91-0.22 0.17-1.75-0.95-2.3 0.3l1.75 0.58-2.64 3.22-0.29-1.16-1.17-0.01 0.26 1.19-1.46 0.91 0.62 1.99-2.94 0.6 0.5 1.07-1.66 0.98 1.75 1.45c-1.72 0.75-1.22 1.62-3.51 0.59v2.35h-2.92l2.35 2.08-0.06 1.09c-1.67 0.98-1.54 2.84-3.47 1.51 0.43 2.2-1.13 2.15-2.92 2.35-0.27 0.98 1.12 0.27 1.21 0.92 0.12 0.8-0.55 2.36-1.21 2.82-0.82 0.57-3.61 2.91-4.71 4.31-0.89 1.14-2.31 4.68-3.08 5.24-1.3 0.93-4.11 0.36-5.67 1.94l-0.01 1.16 1.75-0.29c-3.61 3.94-9.47 6.21-12.86 10.11-3.17 3.62-7.29 5.34-11.32 8.31-1.63 1.2-3.31 3.49-5.69 4.42 2.37 0.09 6.1-2.06 8.29-3.3 14.16-8.01 25.4-19.65 35.23-31.42 0.96-1.15 6.1-2.31 5.7-5.37l1.73-0.02c-0.99 1.7-0.14 3.06 0.59 4.67l-2.05-2.32-2.08 3.83 1.2 2.01-2.64-1.15-2.72 5.14c-4.02 1.17-7.37 5.03-10.73 7.71-9.67 7.72-19.6 15.55-29.75 22.41-2.71 1.83-9.23 3.49-7.45 6.88-1.33 0.43-3.41-0.48-4.42-0.33-0.72 0.1-5.2 3.59-2.33 3.84l7.33-2.91c-1.33 2.01-5.28 2.67-7.61 3.51-0.5 2.75 2.5-0.58 2.35 1.45l-2.35 1.47c1.78-0.03 3.35-0.24 2.93-2.34 2.64 2.78 4.78-0.48 6.84-2.35 2.05-0.6 1.93 1.06 2.32 1.17 2.63 0.76 1.65-1 2.12-1.55 0.66-0.77 2.66-1.65 3.38-2.81 2.39 0.61 14.43-7.44 15.21-6.75-0.68 3.15-3.87 2.73-5.45 3.57-2.47 1.31-6.65 4.49-8.03 6.96l-0.87-1.16c-0.6 0.55-1.14 1.32-1.87 1.7-4.99 2.62-10.18 6.08-15.6 8.36-3.1 1.3-15.15 4.2-16.51 6.36-0.39 0.63 0.55 1.74-0.59 2.31l-1.16-2.91c-0.56 1.7-5.36 1.45-5.56 1.75-0.9 1.36 2.21 2.32 1.17 3.5-0.92 1.05-2.31-2.13-2.46-2.22-1.38-0.81-6.77 1.55-8.61 1.88-2.01 0.35-4.84-1.3-4.17 1.52-1.44-0.24-2.83-1.09-3.21 0.6l-2.6-1.17c-0.72 3.4-4.49 1.57-7.06 2.32l0.31-1.78c2.3-1.33 5.64 0.67 6.43-1.75l2.63 1.19-0.58-1.39c-0.07-1.45 7.51-2.47 8.9-2.88 1.78-0.52 4.59-1.21 5.94-1.66 0.85-0.29 0.77-1.39 1.06-1.6 0.35-0.26 5.04 1.36 4.59-3.01l-21.08 5.27c-0.56-1.57 1.04-0.95 1.18-1.53 0.53-2.18-1.69-3.62-3.52-2.56l-0.01-2.36-2.33 0.01c0.65 5.05-0.62 3.47-3.51 5.52-1.92-0.94-2.55 2.74-2.98-0.19l-1.12-0.05c-0.22 1.51-0.82 2-2.35 1.74l1.17-1.74-2.07-0.54c-1.42 0.82-0.41 1.64-0.28 2.87h-1.76c0.47-0.7 0.58-2.76-0.86-2.34-0.88 0.26-0.81 3.55-3.19 2.98l-0.04 1.7c2.79 0.45 5-2.86 6.44-0.28l-5.6 2.01c-0.96 3.28 1.7 1.72 3.56 1.72 4 0.02 1.79-0.25 3-0.53 1.26-0.3 2.14 0.5 2.89 0.54 0.26 0.01 0.23-0.84 0.39-0.91 2.03-0.8 3.15 0.04 1.62 1.85-3.55 1.46-5.99-0.87-9.43 1.17l-0.24 1.47-2.63-0.6 1.75-1.16c-1.1-0.35-1.56 0.15-2.29 0.44-6.27 2.49-26.77-0.34-34.96-0.97-2.35-0.18-2.86 0.97-5.7-0.66-0.88-0.51 0.23-1.04 0.2-1.74l-1.47 1.77c-2.19-0.27-4.49-1.13-6.53-1.55-1.73-0.36-3.8-1.04-5.35-1.26-1.5-0.22-3.28 0.41-4.8 0.45l1.17-1.75c-4.42-0.87-8.45-1.2-12.74-2.76-0.64-0.24-0.62-1.07-1.19-1.3-9.18-3.74-21.65-7.26-30.09-12.54-1.13-0.7-1.44-1.62-2.42-2.34l-1-0.08c-1.97 4.18-11.38-2.91-9.95-4.41 2.65 0.27 4.32 3.59 7.02 2.64-2.25-1.82-4.63-3.66-7.08-5.22-3.63-2.31-3.39-2.22-6.57-4.85-2.36-1.95-7.31-3.1-8.64-6.01l-2.01 1.13c-1.43-0.73-0.14-1.61-0.4-2.19-0.07-0.16-2.26-2.3-2.51-2.5-1.08-0.88-2.62-1.16-3.54-2.32-0.48 2.77 4.36 3.45 4.69 5.86-1.56-0.98-4.17-1.52-5.32-2.9-1.41-1.7 0.24-2.36-1.13-3.55l-2.04 0.58 1.17-1.16-1.19-1.47 1.3-2.51 1.06 0.47 0.1-1.63c3.11-0.49 3.52-1.21 2.83-4.24l-1.75 0.58c-0.59-1.73 1.17-2.51 1.18-2.67 0.17-3.11-3.76-4.21-1.16-6.98l-1.25-0.65 0.64-2.57-2.93-0.59 0.08 2.29 1.68 0.05-0.88 2.34c-1.11-1.95-1.68-3.8-4.39-3.51-0.87 0.78 3.37 4.31 3.89 4.91 0.3 0.36 0.11 1.22 0.28 1.42 0.1 0.12 1.32-0.61 1.64 0.45 0.36 1.59-0.1 3.14-1.7 3.75-0.56-2.24-1.68-2.01-3.25-2.33 0.87-2.74-2.34-3.45-2.63-6.44-1.39-0.81-1.06 1.31-1.45 1.17l-4.07-2.87-2.07 0.55-0.32 2.31c-1.29 0.39-0.82-1.07-1.41-1.44-0.4-0.25-1.24 0.31-1.77-0.01-0.98-0.58-12.79-17.04-13.19-18.4-0.16-0.55 0.45-1.59 0.27-1.77-0.14-0.13-1.17-0.04-1.68-0.38-1.83-1.19-7.94-11.29-7.09-12.54l1.75-0.59-3.5-1.47c3.58-3.13 5.22 2.21 7.59 3.81l-2.32-5.57c0.88-1.41 1.65-0.45 2.91-0.29l0.03-1.97c-0.21-0.87-3.19-0.33-2.37-2.72l-1.75 0.59c1.2-2.07-3.78-4.75-0.4-6.87 0.64-0.4 3.72-0.35 0.55-1.43-0.76-2.38 2.18-2.91 3.95-2.83l-0.02-0.85c-1.66-0.97-0.55-3.59-0.66-3.75-0.33-0.47-2.43-0.5-1.67-3.01l-1.46 1.76c-2.41-2-1.83-4.7-2.67-7.29-1.05-3.2-2.43-6.29-3.31-9.57-0.82-3.07-1.5-10.73-2.8-13.01-0.16-0.28-0.75-0.76-0.88-0.58-0.82 3 1.47 5.05 0.59 7.62l1.16-0.6-0.36 3.53 7.97 24.31-1.16 0.86-0.58-1.17-0.6 2.05 1.17-0.3c-0.53 3.26-2.79 1.54-2.34-1.17-0.14-0.17-1.24 0.52-1.78 0.29-2.36-1-9.15-25.23-11.11-28.98-1.2 0-0.46 2.32-0.31 2.96 1.87 7.78 7.2 17.78 8.48 24.9 0.07 0.43 0.29 1.38-0.25 1.42-2.65-1.14-0.23-3.22-3.81-1.76-0.47-5.21-2.97-10.17-4.39-15.22-4.03-14.31-7.13-32.5-6.74-47.12 0.01-0.62-0.28-1.23-0.44-1.81l2.78-0.86-1.75-2.1c1.24-3.12 0.52-6.68 0.82-9.81 0.27-2.92 0.97-3.41 0.93-6.53-0.05-4.64 0.9-8.68 1.76-13.17 2.14 0.88 3.85 0.23 2.65 2.97l-1.47-0.05c1.2 3.76-0.48 7.81-0.86 11.63-0.96 9.64-1.15 19.51-0.32 29.02l1.75 4.44c0.25-4.08 0.55-9.76 0.05-13.8-0.14-1.17-3.22-1.51 0.53-3.46-1.79-1.59-0.29-2.66-0.21-4.2 0.1-1.94-0.39-5.3-0.19-6.85 0.12-1.03 2.29-1.6-0.19-2.52l6.33-25.82-0.18-2.5 3.82-12.88-1.21 1.71c-0.46-0.11-1.02-0.44-1.42 0-0.73 0.79-3.63 10.45-4.13 12.32-0.37 1.38-0.92 7.4-1.56 8.11-0.24 0.26-1.64 0.27-2.21 0.7-0.34-1.04 0.86-1.36 0.99-2.13 0.1-0.62-0.36-1.38-0.25-2.1 0.09-0.61 1.77-5.35 0.14-4.55-1.93 0.95-1.06 4.17-1.61 5.14-0.16 0.27-1.2 0.42-1.77 1.45-0.76 1.36-0.75 5.86-2.5 7.5l-2.66-0.4c-0.26-8.14 1.92-15.56 4.26-23.23 0.31-0.99 1.17-1.75 1.46-2.64 2.29-7.05 3.14-13.08 7.29-19.66 0.37-0.59 1.21-1.8 1.07-0.1-2.9 6.65-7.35 14.03-6.42 21.39 2.3-1.83 1.16-6.27 4.08-7.61l0.59 2.64 1.18-0.6c-1.29-2.5 0.1-4.73 0-7.31l0.59 3.51c1.55-0.58 1.37-2.79 1.92-4.22 0.97-2.51 1.81-3.55 2.1-6.69 0.06-0.65 0.54-2.1-0.51-1.97l-2.35 5.85-1.16-0.28c1.93-5.51 6.25-10.16 8.63-15.38 1.05-2.31 0.83-5.31 2.79-7.17l0.81 0.07c-0.28 1.63 2.71 1.46 3.33 0.53 0.38-0.57-0.34-1.59-0.08-2.38 0.64-1.97 3.16-6.12 4.42-7.89-0.57-0.93-1.31 0.14-1.74 0.6-1.14 1.2-3.56 6.89-4.41 7.31-0.18 0.09-1.47 0.21-1.46-0.29 1.54-2.85 3.82-4.12 4.69-7.32l-2.92-0.33-4.99 7.35c-0.52-1.17 0.66-3.02 1.15-4.11 1.26-2.8 4.45-7.58 6.45-9.96 0.4-0.48 2.65-2.91 3.23-2.32l-4.66 7.34c-0.5 1.17 0.13 0.54 0.55 0.65 2.61 0.7 1.36-0.47 1.92-1.36 0.44-0.68 2.44-1.07 2.7-1.48 0.19-0.3-0.41-1.12-0.16-1.64 1-2.08 4.09-3.3 3.78-6.42l2.91 0.28c0.18-3.15 1.15-1.89 2.37-3.06 1.36-1.28 2.34-6.52 4.06-8.08 1.02-0.93 0.3 1.14 0.88 0.88l3.22-2.35-0.06-1.11c-2.13-0.22-1.59-4.05 0.64-4.16l1.1 2.05-0.5 1.47 2.59-0.62 0.62 1.21 0.89-3.51c0.96-0.18 0.68 1.5 0.6 2.06-0.26 1.78-1.4 3.09-1.19 4.96l-1.75-1.17-0.01 4.1-1.75-2.93-0.37 1.81-1.98-0.05c-0.28 2.35 2.1 1.32 0.58 4.09l-1.74-1.16-1.18 2.33 1.17 0.59-2.92 0.89 1.75 0.29-1.17 2.33c2.77 0.34 2.56-1.54 3.35-2.31 2.97-2.9 7.16-6.21 7.2-10.56l1.74 1.75c-0.31-1.32 1.95-7.45 3.52-6.44l0.58 1.75 2.93-5.85-1.13 0.56-0.62-1.44 1.76-0.3-1.76-0.58 0.59-2.34 2.33 1.17c-0.86-2.38 1.61-2.76 1.77-3.23 0.59-1.8-2.77 0.58-1.76-1.15 0.35-0.61 1.92-1.32 2.65-2.05 11.75-11.75 27.18-19.54 41.7-27.38 0.69-0.37 0.73-1.23 1.15-1.32 2.29-0.48 7.36 0 7.21-3.52l0.85 1.16c1.59-0.47 3.44-1.72 4.86-2.18 0.56-0.19 2.04-0.62 1.89 0.43-4.93 1.46-9.18 4.92-13.52 7.27-7.11 3.84-14.89 6.69-22.05 10.73-5.6 3.16-10.52 8.71-15.6 13.43-0.44 0.41-1.71-0.07-2.1 1.67-0.38 1.69 1.61 0.72 2.38 0.04 0.64-0.58 1-1.83 1.22-1.99 12.03-8.38 26.08-18.63 40.9-24.4 1.84-0.72 3.76-1.24 5.56-2.07 2.07 0.22-0.56 2.63 2.63 1.17l-1.16-1.74 5.55-2.36 0.3 1.76c1.18 0.19 2.28-0.08 2.35-1.45l-1.19-0.01c-0.16-0.41 0.04-0.61 0.28-0.89 0.21-0.23 5.07-2.51 5.56-2.65 2.13-0.62 5.56-0.68 8.13-1.24 2.3-0.5 4.42-1.82 6.83-1.96 0.92-0.05 1-0.11 0.87 0.88l-1.75 1.46 2.68-0.57 0.21-2.05c2.24-0.39 5.09-2.49 7.38-1.94 0.89 0.22-0.74 0.33 2.31 0.46 4.74 0.2 3.61-0.8 7.15-1.53 6.56-1.37 16.54 0.33 23.36-1.93zm-10.63 3.66c-1.81 0.55-6.05 0.35-7.46 1-3.01 1.37-7.06 1.84-11.05 3.04-0.77 0.23-1.66-0.44-1.39 0.93l1.46 1.46c0.62-0.41 0.58-1.52 1.3-1.74 0.53-0.17 8.77-1.27 9.24-1.21 1.56 0.2 1.33 1.94 1.75 1.79 1.2-0.63 0.19-2.03 0.85-2.65 0.55-0.52 2.91-0.78 4.01-1.27 0.86-0.39 1.61 0.31 1.29-1.35zm-39.24 3.52l-4.98 1.76-0.57-1.18c-1.25 2.38-5.38 0.73-5.57 3.51 0.43 0.37 8.77-2.01 9.97-2.58 0.77-0.37 1.4-0.2 1.15-1.51zm7.79 3.12c2.18-0.62 4.73-0.61 6.86-1.66l-0.29-1.45c-7.11 2.28-15.07 3.75-22.1 6-1.58 0.51-8.83 3.09-9.81 3.67-1 0.58-1.17 1.5-1.19 2.61-1.06 0.09-0.62-2.05-2.04-1.75-0.71 0.15-1.22 2-0.88 2.34 0.12 0.12 2.19-0.14 2.69 1.7l1.99-0.54-1.17-2.32c6.2-3.7 13.25-4.74 20.04-6.61 2.07-0.57 4.52-1.59 5.9-1.99zm27.94 5.66c-3.63 0.28-8.38 0.6-11.71 2.05-0.94 0.41-1.97 0.77-1.76 2.05 4.4-1.5 8.03-2.26 12.59-2.94 1.02-0.15 0.99 0.31 0.88-1.16zm-66.77 2.93c-6.64 1.95-12.58 6.55-18.15 10.53l3.1-1.28zm8.79 2.92l-0.29-2.92-6.14 3.21 2.03 1.49c1.26-1.58 2.49-2.81 4.4-1.78zm41.58-0.6l-0.28-1.73c-1.57 0.93-3.4 1.16-5.02 2.04-0.81 0.44-1.44-0.06-1.14 1.46 2.29 0.42 2.4-1.19 3.02-1.61 0.15-0.1 2.71 0.31 3.42-0.16zm-60.91 8.79l-0.28-1.16-8.44 5.04-7.67 7.26c3.81-1.53 6.7-4.87 9.99-7.28 0.97-0.72 6.16-3.57 6.4-3.86zm-31.6 13.44l-0.31-1.71c-1.2 2.54-1.26 1.11-2.28 1.29-1.09 0.2-1.21 3.49-0.06 3.97l2.62-2.34-2.33 4.69 4.67-4.7-0.33-1.17zm-33.4 34l4.48-5.17 0.78-2.44c-0.52 1.47-3.85 2.82-3.99 3.03-0.43 0.66 0.02 3.5-1.27 4.58zm-7.58 19.35c0.05-0.08 1.4 0.77 1.68-0.35l8.82-18.41c-2.27 1.44-3.74 3.54-4.98 5.85l-1.45-1.16c0.65 2.11-1.61 3.4-2 4.67-0.19 0.6 0.38 1.63 0.23 1.76-0.16 0.14-1.19-0.3-1.8 0.37-0.26 0.29-3.34 6.67-3.39 7.06-0.12 1.02 0.64 1.3 1.4 0.89l0.29 2.23c1.57-0.28 0.88-2.43 1.2-2.91zm-2.97 1.74c-1.52-0.31-0.91 0.3-1.23 0.84-1.31 2.2-1.59 4.91-4.03 6.48 1.17 0.81 2.09 0.96 1.75 2.64 2.47-0.7 2.36-4.25 5.27-5.57-2.15-0.62-0.77-1.14-0.66-2.36 0.01-0.12-1.74-0.69-1.1-2.03zm-3.89 12.14c-0.54-1.08 0.03-3-1.95-2.77-0.61 2.49-2.13 4.92-3.08 7.21-0.28 0.66-0.67 1.86-0.97 2.63-0.65 1.73-2.2 4.88-2.28 6.43-0.08 1.46 1.51 5.48 2.25 2.76 0.58-2.11 1.06-5.12 1.15-7.32l1.74 0.59c-0.66-2.42 1.51-3.3 1.72-4.46 0.2-1.09-0.97-0.63-1.12-1.2-0.28-1.12-0.23-5.65 1.74-3.42l-0.87 3.22 2.64-3.22c0.17-0.45-0.82-0.16-0.97-0.45zm2.13 10.12c-1.56-0.3-1.01 0.34-1.42 1.17-7.01 14.23-10.74 37.16-12.08 52.9-0.21 2.52-1.75 5.33-0.54 8l4.69-26.63-1.18-0.88c2.01 0.28 1.06-3.44 1.51-4.96zm-13.47 65.59c-1.56-1.65-1.2 3.74-1.16 4.39 0.21 3.45 0.69 8.75 1.34 12.12 0.25 1.28 0.18 3.42 1.58 3.99-1.31-6.86-0.63-13.59-1.76-20.5zm18.17 62.66c0.84 0.16 1.33-0.17 1.61-0.97 0.31-0.9-5.66-15.35-6.47-17.89-2.63-8.26-4.9-17.16-5.85-25.78l-1.59-5.13c-0.27 5.81 2.13 11.32 1.98 16.99 2.53 11.23 6.29 22.03 10.32 32.78zm211.41-44.51c-2.98-2.44-7.32-3.8-11.13-4.09-0.13 0.84 0.99 0.77 1.61 1.01 3.06 1.2 6.33 2.29 9.52 3.08zm37.48 41c-0.79-4.48-3.32-9.56-7.02-12.3zm-244.54-2.55c-0.94-2.26-1.93-5.1-3.48-6.81-0.15 1.69 0.86 3.95 1.46 5.57 1.06 2.9 2.44 6.32 3.8 9.08 0.61 1.26 1.49 3.3 2.64 4.08-0.93-3.39-2.45-6.75-3.76-10.03-0.3-0.74-0.29-1.02-0.66-1.89zm-0.26 6.66c-0.93-0.68-5.38 5.54-0.57 4.1l-0.01 2.33c2.51-1.37-0.96-3.3-0.58-5.27l1.74 1.76zm217.88 4.67c1.01 0.19 2.17-0.23 2.64-1.15 1.59-3.18-5.06-3.65-2.64 1.15zm-217.87 13.48c0.8-3.13-3.96-5.29-4.87-7.19-0.69-1.45 0.23-5.38-3.33-5.69 1.67 1.88 1.46 5.73 2.67 7.58 0.65 0.98 6.01 4.36 4.94 5.89l-2.34-1.17c-0.59 2.01 1.04 1.64 1.68 2.69 3.27 5.39 6.51 11.29 9.44 16.34 2.28 1.71 10.69 14.56 12.08 14.81 0.68 0.12 1.74-0.62 2.57-0.47 0.23-1.01-0.34-1.18-0.91-1.74-2.02-1.97-4.66-3.64-6.37-5.3-1.66-1.63-3.93-5.99-5.23-8.26-0.9-1.57-3.98-3.41-0.38-3.72l-4.09-0.89c1.23-2.46-0.38-1.36-1.06-2.73-1.41-2.83-0.91-6.52-4.79-8.69l1.74-2.04zm13.46-2.35l-1.76 0.31c-0.52 3.72 5.59 9.47 7.62 12.57l0.51-2.23c-3.76-2-4.87-6.17-7.54-9.19zm186.66 15.4c-4.44-3.58-10.33 3.62-6.25 7.12 4.53 3.9 10.36-3.8 6.25-7.12zm-150.35 30.87l-5.84-4.69 1.75 4.1 1.07-0.47 1.28 2.81zm-11.13 2.33c-2.59 1.29-2.91-1.83-4.67-2.93l-0.6 2.34-1.75-1.17c-0.74 2.52-0.13 2.9 2.05 4.09l0.29-2.33c1.19-0.18 2.28 0.09 2.35 1.46l-1.77 1.77c1.4 0.3 1.08 1.68 1.75 2.31 16.06 15.02 37.7 26.66 58.46 35.28 2.15 0.9 5.41 1.62 7.73 2.51-0.82-0.99 0.01-2.92-0.05-3.22-0.33-1.74-2.19 0.93-3.36-0.36l0.2-1.09-1.47-0.59-0.88 1.75c-2.36-3.04-6.5-2.61-10.06-3.99-1-0.39-2.18-1.03-3.11-1.58-4.5-2.7-10.12-6.18-15.1-8.45l-9.19-5.27 0.09-1.07-1.02-0.47 0.61-1.42-2.92 0.59-0.01-1.76c-1.57-0.32-0.86 0.35-1.46 1.17l-4.39-2.35c0.22-2.81 3.25-1.89 4.68-0.58v-2.93c-2.68 1.05-2.97 0.48-4.39-1.75l-0.3 1.76-2.34-0.6 0.59-2.33h-1.76l0.59 1.75c-3.79 0.27-4.32-4-5.44-5.1-0.45-0.43-4.99-2.54-5.1-2.81zm38.07 11.7l-17.56-11.7c-0.6 3.87 2.07 2.62 3.65 3.5 0.32 0.17 0.42 0.8 0.67 0.95 4.27 2.5 8.6 5.64 13.24 7.25zm-12.49-2.73c-0.29-0.34-6.59-5.41-7-5.6-1.13-0.53-1.35-0.64-2.17 0.44l2.34 1.75-1.76 0.87c3.19 0.31 5.07 4.39 7.32 6.45l0.39-1.68 1.66-0.08c0.1-0.82-0.28-1.55-0.78-2.15zm-27.93 0.41c-2.52-0.3-2.15 0.52-0.58 2.04 5.38 5.2 11.95 8.47 17.36 12.77 0.39 0.3 4.33 5.15 4.9 4.51l0.53-2.28-15.75-10.34c-0.66-3.14-6.38-3.16-6.46-6.7zm205.58 7.02l-1.76 0.43v1.33c-0.56-0.22-1.08-0.57-1.72-0.32-1.42 0.58-6.08 4.59-7.78 5.74-2.08 1.41-1.52 3.09 1.08 1.37 2.26-1.5 6.25-4 8.11-5.65 0.44-0.39 2.74-2.33 2.07-2.9zm-174.53 16.39c-1.2-2.02-3.61-3.52-5.69-4.56-1-0.5-0.95-1.11-1.91 0.17 2.36 1.48 4.77 4.06 7.6 4.39zm41-2.33c-2.14 0.4-3.84-0.95-5.68-1.6-0.89-0.31-0.87-1.33-1.93 0.13l6.74 3.2zm122.99-0.59c-1.61-0.56-1.12 1.15-1.72 1.48-1.05 0.6-5.15 1.59-7.58 2.98-1 0.58-3.27 1.18-3 2.56l9.08-4.09c1.24 1.57-2.18 1.92-2.82 2.34l-0.4 1.75c1.87-0.57 4.76-0.15 5.28-2.62 0.29-1.42-0.62-0.6-1.18-0.3-0.76-2.42 2.43-1.75 2.34-4.1zm-98.39 6.45l-14.06-2.35c2.38 4.13 9.14 1.52 13.13 4.12zm75.55-1.17c-1.1-0.14-2.17 0.24-3.26 0.26-5.25 0.07-11.09 3-16.53 3.71-3.54 0.46-7.4 0.82-11.02 1.23-4.02 0.47-8.26 0.19-12.26 0.87-0.68 0.12-1.32-0.02-1.44 0.94 1.84-0.05 3.71 0.11 5.56 0 8.34-0.5 16.2-1.01 24.57-2.36zm9.95 1.16c-2.41 0.99-5.03 1.4-7.5 2.18-1 0.31-1.54-0.24-1.27 1.33 2.77-0.17 5.13-0.77 7.59-2.09 0.78-0.41 1.5 0.19 1.18-1.42zm5.87 7.03c2.23-0.7 2.64-1.8 2.33-4.1l-2.05 1.75-0.57-1.17c-1.79 1.04-3.04 1.75-2.64 4.1l2.35-2.33zm-111.87-2.93l-8.78-0.59c1.02 1.99-0.22 2.34-0.59 4.09l12.3 2.93c-0.4-2.85-4.21-2.85-6.45-2.93v-1.75c1.39 0.06 3.67 0.36 3.52-1.75zm94.29-0.59c-1.01-0.24-1.23 0.64-2.06 0.89-0.36 0.1-1.19-0.44-1.4-0.29-0.28 0.2-0.28 1.95-0.74 2.24-0.75 0.47-2.34-0.56-3.09 1.75l-2.66-1.09-0.58 1.77-0.88-1.17-0.89 2.92-2.05-2.33-0.87 4.09 9.53-3.07 1.3-1.63c3.1-0.54-0.33 1.75 1.76 1.78l5.55-3.23c-2.19-3.12-2.97 1.69-6.43 0.29 0.8-1.44 3.72-0.24 3.51-2.92zm14.05 1.76c-3.64 0.54-10.81 1.36-9.36 6.43l0.58-2.92 1.47 1.76c2.75-1.68 8-0.97 7.31-5.27zm-99.55 2.93c-2.2 0.72-2.74 0.16-4.68-0.59l-0.59 3.51 2.92-1.16-1.16 2.33c0.48 0.42 7.18 0.35 7.91 1.76l0.3-1.14 1.14-0.02 1.49 1.75c1.07-2.97 1.31-0.34 1.87-0.02 1.73 0.98 15.53 2.15 18.59 2.38 3.52 0.27 7.25-1.27 9.99 1.15 0.57-2 1.3-0.71 2.66-0.78 1.92-0.09 3.9-0.24 5.82-0.4v-1.75l-3.54 0.31-0.85-2.65-0.29 2.34c-2.07 0.99-4.6-1.16-5.56-1.19-0.35-0.01-0.21 1.07-0.68 1.19-2.43 0.63-12.54-0.67-15.62-1.15-0.21-0.03-2.19-3.26-2.75-0.03l-3.2-2.36c-0.36 1.11-2.45 2.42-3.49 2.4-0.31-0.01-0.2-0.97-0.76-1.16-1.84-0.64-4.63-0.91-6.6-1.22l0.59-1.75-4.09 0.58zm-1.18 10.54c-0.36-2.75 3.56-0.7 3.51-2.05-0.08-1.84-4.95 0.3-5.55-1.45l-0.88 1.74c2.86-0.71 0.77 2.13 2.92 1.76zm47.44 0.59c-7.89 0.61-15.85 0.1-23.72-0.57-3.8-0.33-8.14-1.07-11.97-1.53-1.06-0.12-1.58-0.57-2.37 0.64l5.13 1.88c4.75 0.96 27.16 2.16 31.03 1.17 0.92-0.23 1.63-0.63 1.9-1.59z"/>
		<path id="&lt;Compound Path&gt;" fill-rule="evenodd" class="s0" d="m220.86 113.3c3.03-1.43 5.74 0.45 6.9 3.35 5.79 14.42-9.64 31.22-22.13 36.47 9.19-7.13 17.68-16.22 18.66-28.47 0.45-5.59-1.01-6.21-3.44-10.75l-10.29 16.34c-3 3.75-14.25 13.9-18.71 14.71-1.35 0.25-0.29-1.76-2.03-1.19l-0.08 2.26c-0.21 0.34-2.57 0.77-3.17 0.74-1.15-0.06-0.75-1.29-1.15-1.27-0.94 0.05-1.02 1.08-2.47 0.82-5.06-0.91-11.14-8.74-12.29-13.56-2.23-9.33 1.69-16.41 5.1-24.71-1.68-1.68-6.98 8.42-7.45 9.82-2.95 8.7-1.67 12.27-1.03 20.63 0.06 0.75 0.64 0.89-0.58 0.57-9.11-2.37-13.25-8.67-10.85-18.14l9.36 4.1c0.81-0.86-6.93-7.17-7.46-9.22-0.62-2.38 0.09-4.85 0.45-7.18l4.1 1.46c-0.37-4.35-4.54-7.21-4.11-12-0.77-0.94-1.07 0.06-1.17 0.87-0.3 2.36 0.34 5.23-0.03 7.59-0.48 2.97-2.25 11.78-3.06 14.51-0.49 1.64-2.04 3.42-2.17 4.9-0.21 2.26 1.9 5.78-0.3 7.84-7.66-4.26-14.05-7.7-9.07-17.56l9.36 2.93c-3.78-4.53-12.36-8.84-6.3-15.38 0.96-1.23 6.95 0.59 6.87-0.72-0.04-0.77-2.19-1.02-2.92-0.89l0.58-1.13c-0.82-0.15-1.65-0.41-2.33-0.92-1.04-0.77-1.06-2.86-2.36-1.77-0.54 0.46-3.78 6.33-3.95 7.18-0.73 3.59 1.88 10.36-3.38 8.38-3.78-1.42-5.79-2.75-8.05-5.71-0.47-0.62-2-0.5-1.59-1.92 2.29 0.51 1.51-1.16 2.61-2.37 2.72-3 9.29-4.67 12.83-6.5 1.1-0.57 1.96-2.26 3.23-2.54 3.04-0.67 6.61 2.05 9.44 2.62l-4.12-4.94c-2.32-3.56 2.18-1.95 3.21-2.19 0.65-0.15 0.67-1.29 1.37-1.64 4.84-2.48 20.01-5.49 25.63-5.88 16.32-1.12 47.23 8.5 38.34 30.46zm-17.14 4.25c-5.7 1.53-6.77 12.66 0.75 10.71 6.12-1.58 6.88-12.76-0.75-10.71z"/>
		<path id="&lt;Compound Path&gt;" fill-rule="evenodd" class="s0" d="m305.77 136.73c-0.96 0.22-1.43-6.38-2.92-4.69l-1.46 6.45c-2.05-1.46-5.14-12.15-8.44-9.9-2.82 5.3 6.15 5.79 5.8 11.07h-2.35l1.49 2.94c-8.35 7.01-17.26 17.14-29.12 9.76-3.18-1.98-10.37-10.77-7.22-14.46 1.31-1.54 4.07 0.7 4.4-0.89 0.49-2.33-5.51-3.94 0.05-8.72 5.42-4.66 14.93-5.84 19.9-0.09l4.65 2.67c-1.29-4.46-5.18-7.59-6.43-12.07-1.19-4.27-0.38-10.04 1.85-13.88 0.34-0.6 3.65-4.59 3.99-4.77 2.7-1.42 4.44 1.9 7.03 2.03 0.06-7.52 6.74-4.43 10.56-1.48 5.63 4.35 8.66 11.38 6.61 18.35-1.34 4.54-3.17 6.25-5.73 9.5-1.52 1.94-2.78 5.71-2.66 8.18zm-4.29-13.41c-2.93 2.08-0.76 5.41 1.07 7.54 1.68-1.47 3.3-6.1 0.89-7.32zm-5.66 15.76c-2.05-1.22-10.42-3.54-9.98 0.84 0.36 3.67 8.99 2.21 9.98-0.84z"/>
		<path id="&lt;Path&gt;" class="s0" d="m313.2 149.23c0.55 0.38 3.8 3.56 4.28 4.2 5.2 6.81-3.19 19.32-9.07 23.71-4.44 3.32-6.85 1.77-10.62-1.72l-4.04 2.91c-5.46-0.86-8.87-6.64-7.89-11.73l-1.16 0.59c-0.23-0.31 0.71-6.58 0.97-7.52 1.32-4.63 6.17-7.15 9.28-10.63 1.47-1.66 2.26-3.89 4.09-5.28 1.49 3.29-3.59 9.48 1.46 10.54l2.35-11.71c1.09 0.11 0.32 1.33 1.51 2.29 2.17 1.74 6.56 2.82 8.84 4.35z"/>
		<path id="&lt;Path&gt;" class="s0" d="m336.82 126.18c9-2.56 3.97 9.04 1.65 13.08-5.53 9.65-17.91 13.72-26.67 5.5-0.39-0.37-0.6-1.46-1.09-2.15-0.5-0.71-2.06-0.36-1.36-2.3l9.31-3.59-3.8-2.76c-3.78 1.33-5.94 3.34-8.49 6.28-1.54-3.18 0.66-3.32 2-5.3 3.59-5.29 7.37-15.23 13.22-17.83 5.51-2.45 14.1-0.89 17.61 4.12z"/>
		<path id="&lt;Path&gt;" class="s0" d="m393.47 163.83c0.38 0.43 0.24 1.75 1.04 2.18l-0.3-2.33c1.91 0.18 3.2 1.79 2.35 3.51l1.72 0.34c-1.14 2.47 1.26 3.48 1.68 5.35 0.23 1.03-0.56 7.68-0.95 8.68-0.13 0.34-4.3 5.25-4.59 5.45-1.15 0.83-7.34 2.74-8.57 2.32-1.69-0.59-1.16-2.04-1.77-2.67-0.25-0.26-1.11-0.02-1.61-0.54-1.71-1.78-0.64-2.38-3.3-4.44-3.37-2.6-1.3-12.29 1.83-15.12 2.36-2.13 9.88-5.67 12.47-2.73z"/>
		<path id="&lt;Path&gt;" class="s0" d="m97.28 173.04l0.06 2.32 1.71 0.03-0.55 2 0.89 0.9 12.87-1.09c4.57 3.52 12.13 1.18 16.79 1.8 0.69 0.09 4.34 1.51 3.94 2.5-4.35 4.55-5.58 11.19-12.83 5.85l-3.54-4.35c-0.19 3.96 3.55 5.82 4.09 9.36-0.85 0.5-9.6-1.23-10.72-1.86-1.47-0.82-4.87-5.63-6.56-6.91l4.39 8.78c-6.12-1.34-12.51 1.51-13.73-6.75-0.3-1.99 0.5-3.28 1.44-4.96l-1.75-0.88 1.69-0.94-0.53-1.34c2.32-0.36-0.6-4.51 2.34-4.46z"/>
		<path id="&lt;Path&gt;" class="s0" d="m296.79 8.09c1.78 1.77 4.01 8.73 2.85 10.94-0.59 1.12-2.07 0.86-2.51 1.34-1.12 1.23-0.35 0.68-2.19 2.14-0.82 0.65-1.49 1.95-2.46 2.24-4.02 1.2-9.81-1.17-12.14-4.6-2.44-3.6-4.28-14.27 2.59-10.5l0.01-2.93 2.92 1.17c-0.3-1.75-1.85-2.16 0.02-3.82 2.07-1.39 9.34 2.45 10.91 4.02z"/>
		<path id="&lt;Path&gt;" class="s0" d="m171.66 164.55c0.04-0.73 1.7-3.72 0.01-4.39-1.96 11.13-2.82 21.82 0.57 32.79-3.53-2.4-5.3-7.93-5.78-12.07-0.56-4.74 0.8-19.2 3.98-22.7 0.84-0.92 1.84 0.56 1.75-1.83l3.25-0.84 0.79 1.28c-3.67 13 2.8 24.35 4.8 36.75-1.55-1.02-2.03 0.42-3.5 0.58-0.75-3.19-2.39-6.12-3.36-9.24-0.65-2.13-2.51-7.97-2.51-9.79 0-3.47-0.18-7.1 0-10.54z"/>
		<path id="&lt;Path&gt;" class="s0" d="m93.76 193.54c-0.26 5.23 4.08 8.93 5.86 13.47-2.94-0.79-6.49-0.98-7.61 2.34l1.76 0.02c-0.57 1.69 0.57 4.3 1.6 5.7 2.34 3.17 9.76 4.42 3.38 8.92-5.3 3.73-11.59-5.94-10.25-11.12l-1.76-0.01v-2.62l-1.16 0.29 2.92-2.06-2.34 0.3c1.05-2.31-0.07-3.16-0.58-5.27l1.75 0.58c-2.39-2.74 0.5-3.22 0.99-4.22 0.13-0.26 0.19-3.68 0.34-4.11 0.64-1.75 3.48-4.53 2.65-6.54-0.43-1.04-1.73-0.54-1.64-1.52l2.34-0.59 0.09 6.07z"/>
		<path id="&lt;Path&gt;" class="s0" d="m124.81 145.52c0.42-0.45 6.84 1.86 8.17 2.06 1 0.16 5.18-0.74 5.28 0.57-3.05 4.94 0.39 9.65 1.23 14.59-3.6 1.8-9.97-0.35-12.24-3.56-0.41-0.58-2.44-4.84-2.44-5.17z"/>
		<path id="&lt;Path&gt;" class="s0" d="m173.66 148.23c0.14 0.19 1.88 0.37 0.93 1.38-0.46 0.49-3.36 0.44-4.26 0.73-1.4 0.46-1.84 2.24-4.22 1.03l0.28 1.76-1.2-1.69c-7.76 0.56-13-7.71-11.09-14.71 2.93 1.11 5.69 2.45 8.75 3.25 1.59 0.42 3.36-0.04 4.71 0.56 0.8 0.36 5.09 6.4 6.1 7.69z"/>
		<path id="&lt;Path&gt;" class="s0" d="m314.57 208.77l2.33-0.58c1.03 0.8-4.34 1.79-4.55 1.94-0.34 0.25-0.47 1.21-0.98 1.57-3.27 2.31-8.69 2.59-12.03 0.28-1.68-1.17 0.92-0.54 0.58-1.45-4.43-0.39-6.35-4.14-2.46-7 6.27-4.62 15.64-3.07 17.11 5.24z"/>
		<path id="&lt;Path&gt;" class="s0" d="m152.27 150.86l2.9 8.37c-2.82 1.1-5.74 8.09-8.71 7.14-1.39-0.45-5.34-4.37-4.07-5.62l1.74-0.3c-3.45-2.42-5.81-6.5-4.66-10.82z"/>
		<path id="&lt;Path&gt;" class="s0" d="m151.75 134.39c0.55 2.71-0.74 4.9-0.61 7.92 0.11 2.64 1.38 5.2 1.19 7.89-4.56-2.38-9.21-2.04-12.03-6.99-2.48-4.35-1.84-7-1.43-11.75 0.61-0.67 10.63 5.28 12.88 2.93z"/>
		<path id="&lt;Path&gt;" class="s0" d="m124.81 163.08c-0.39 4.95 0.32 9.37 1.76 14.06-11.7 0.3-13.85-5.7-15.81-15.81z"/>
		<path id="&lt;Path&gt;" class="s0" d="m223.79 61.77c-3.58 2.73-8.57 6.52-9.71 11.13-0.46 1.82 1.66 9.74 1.54 12.58-0.04 1.17-0.5 2.46-1.49 3.15l-3.14-2.06-0.68-11.92c-1.12 0.87-3.17-1.54-4.49-2.24-6.3-3.31-12.77-5.27-19.84-3.06-3.11 0.97-5.83 3.52-9.05 4.13 6.54-7.6 19.17-9.09 27.93-4.79 1.88 0.92 5.17 4.65 6.83 4.16 0.81-0.24 7.63-12.54 12.1-11.08z"/>
		<path id="&lt;Path&gt;" class="s0" d="m123.06 145.51c-0.9 5.64-0.7 10.41 1.16 15.81-6.09 0.6-13.99-3.57-14.03-10.32-0.02-4.01 9.63-6.11 12.87-5.49z"/>
		<path id="&lt;Path&gt;" class="s0" d="m138.28 130.3c-2.42 5.35-2.23 9.58-1.17 15.21-9.22-0.31-15.03-7.22-11.15-16.14 4.27-0.4 7.88 2.65 12.32 0.93z"/>
		<path id="&lt;Path&gt;" class="s0" d="m144.61 169.62v1.57c-3.05 0.99-5.94 6.46-8.93 6.57-7.38 0.26-9.38-7.47-9.11-13.5 6.04 3.92 12.89 0.18 18.04 5.36z"/>
		<path id="&lt;Path&gt;" class="s0" d="m108 214.44c1.86 1.66 6.94 1.45 7.18 4.82 0.07 1.03-1.82 3.18-0.33 5.31-0.67 0.62-7.62-2.43-8.74-3.25-3.83-2.81-1.6-3.04-0.63-6.7-4.85 5.4-9.95-0.06-9.96-5.85 2.17-0.35 7.48-0.86 9.37 0.3 0.94 0.57 1.94 4.32 3.11 5.37z"/>
		<path id="&lt;Path&gt;" class="s0" d="m112.12 199.79c0.58 0.7 2.88 2.26 3.9 2.55-0.83 4-8.17 4.08-11.29 3.37-2.99-0.67-7.39-7.42-8.03-10.41 1.87 1.08 2.53-0.34 3.84-0.55 2.64-0.43 5.71 0.07 8.18-1.17 0.35 0.02 2.82 5.5 3.4 6.21z"/>
		<path id="&lt;Path&gt;" class="s0" d="m389.29 78.98l1.99 1.81c-5.21 5.72-14.95 13.8-22.24 7.04 5.18-4.11 13.26-11.95 20.25-8.85z"/>
		<path id="&lt;Path&gt;" class="s0" d="m124.22 128.53c-0.4 2.17-2.06 4.01-2.2 6.3-0.14 2.32 1.71 5.13 1.03 7.76-6.23-2.08-12.21 0.23-12.34-8.5-0.03-2.05 0.63-3.15 1.24-4.96 3.98 1.4 8.29-0.08 12.27-0.6z"/>
		<path id="&lt;Path&gt;" class="s0" d="m125.97 109.8c2.41 3.47-1.33 7.21-1.71 10.89-0.26 2.46 0.94 4.77 0.54 7.25-0.86 0.2-0.35-0.71-1.04-1.12-2.62-1.55-6.46-1.03-9.41-1.3-0.99-2.25-1.11-6.47 0.49-8.43 1.12-1.38 3.31-1.51 4.64-2.38 1.04-0.69 5.93-5.34 6.49-4.91z"/>
		<path id="&lt;Path&gt;" class="s0" d="m140.03 115.65c-0.1 2-1.96 2.99-2.3 5.01-0.49 2.86 0.7 5.7-0.04 8.46-7.79-2.02-13.6-6.04-8.98-14.7z"/>
		<path id="&lt;Path&gt;" class="s0" d="m111.93 174.8h-8.5c-2.05 0-3.85-3.15-3.42-5.13 0.21-1.03 3.32-7.97 3.83-8.27 0.34-0.2 1.15 0.51 1.66 0.21 0.42-0.24 1.2-2.45 3.16-1.96 2.49 1.86 0.87 4.63 0.98 6.59 0.18 3.03 2.03 5.58 2.29 8.56z"/>
		<path id="&lt;Path&gt;" class="s0" d="m115.44 236.29c-1.16 0.16-6.31-0.95-6.39-2.04 1.35-2.21 2.54-4.66 2.28-7.33-2.32 1.44-2.9 3.93-3.54 6.42-4-0.41-11.46-3.21-8.1-8.41 3.35-5.2 10.33 2.98 14.6 1.67z"/>
		<path id="&lt;Compound Path&gt;" fill-rule="evenodd" class="s0" d="m100.6 162.3c-4.33 4.74-4.44 6.21-7.76 11.27-2.48 3.79-6.01 7.01-8.68 10.65-3.78 5.13-7.07 10.66-10.88 15.76 2.32-7.06 6.72-13.29 10.55-19.6 3.05-5.04 5.93-11.82 10.5-15.86 2.43-2.15 6.76-1.98 7.06-6.7l1.74 1.46c-1.78 0.55-1.93 2.36-2.53 3.02zm-13.27 14.25c0.61 0.64 3.67-2.69 4.1-3.21 0.96-1.17 2.29-3.53 2.92-4.98-1.91 1.84-4.15 4.12-5.85 6.14-0.55 0.66-1.42 0.95-1.17 2.05z"/>
		<path id="&lt;Path&gt;" class="s0" d="m155.26 42.45c-0.8 2.1-3.3 2.02-4.88 3.01-13.5 8.4-28.44 23.67-34.86 38.35-1.65 3.78-2.52 7.67-3.6 11.63-0.22 0.8 0.04 1.82-1.16 2.05 0.35-2.04 0.36-4.51 0.85-6.47 4.79-19.31 21.26-36.67 38.08-46.25 2.19-1.25 2.15-3.21 5.57-2.32z"/>
		<path id="&lt;Path&gt;" class="s0" d="m300.5 22.53c-1.01 3.14 0.01 1.81 1.09 3.28 3.38 4.57 5.97 12 11.26 13.95l4.63 6.78c-0.57 0.58-8.99-4.23-7.63-7l-2.28-0.06c0.22-2.97-1.62-2.63-3.57-4.34-3.37-2.93-3.02-2.35-6.63-4.5-3.04-1.81-2.9-3.14 0.79-3.45-0.62-2.22-0.9-4.87 2.34-4.66z"/>
		<path id="&lt;Path&gt;" class="s0" d="m109.47 127.78c-0.2 0.14-2.94-0.34-2.82 1.63l2.34-0.29c-0.37 3.87-1.27 7.42 0.59 11.12-1.93-0.62-3.77-1.59-5.72-2.18-2.78-0.83-7.94 0.18-6.03-4.58 1.74-4.34 8.9-4.51 8.81-5.24l-1.66-0.95c-1.23-2.08 5.68-6.76 6.66-8.71l-0.92 6.69c-0.11 0.53-0.93 2.27-1.25 2.51z"/>
		<path id="&lt;Path&gt;" class="s0" d="m161.71 188.27c-3.5-9.63-0.33-24.27 7.6-31.04 0.29 2.68-1.77 4.69-2.61 7.04-2.81 7.79-2.86 13.99-3.8 21.97-0.1 0.88-0.11 1.8-1.19 2.03z"/>
		<path id="&lt;Path&gt;" class="s0" d="m353.06 61.92c1.77 1.5 4.42 16.62 3.66 17.41-2.04 0.36-3.88-2.72-4.79-4.27-2.37-4.02-3.47-8.61-2.12-13.18 0.41-0.6 2.69-0.44 3.25 0.04z"/>
		<path id="&lt;Path&gt;" class="s0" d="m115.44 107.46c0.2 1.49-1.49 2.1-2.67 2.29-3.07 0.49-7.12-0.59-10.77-0.27-5.44 0.46-10.95 2.27-16.43 2.65 0.14-0.84 1.08-1.13 1.73-1.49 4.77-2.6 20.21-5.24 25.41-4.14 0.95 0.2 1.73 0.89 2.73 0.96z"/>
		<path id="&lt;Path&gt;" class="s0" d="m123.64 194.13c0.34 0.29-3 7.9-3.86 8.1-3 0.71-9-5.11-9.61-8.1z"/>
		<path id="&lt;Path&gt;" class="s0" d="m91.52 226.21c0.27 0.18 5.53-0.11 4.59 3.05-1.23 1.06-3.4-1.14-4.09-0.58-1.17 0.95 1.75 1.31 1.77 2.61 0.02 1.7-3.07 3.21-1.18 5.58-2.9 1.14-3.23-0.19-5.22-2.15l1.11-2.83c-2.27-0.84-1.15-3.73-1.17-5.56 1.97-0.25 1.65 3.48 4.1 2.06-2.11-2.37-4.82-2.87-4.1-6.74 1.19 0.52 3.66 4.22 4.19 4.56z"/>
		<path id="&lt;Path&gt;" class="s0" d="m105.48 235.13l-2.12 6.47c-1.72-0.53-5.24-0.69-6.5-1.96-0.69-0.7-2.05-4.95-1.82-5.87 0.94-3.95 8.08 1.1 10.44 1.36z"/>
		<path id="&lt;Path&gt;" class="s0" d="m112.31 237.7c0.17 0.07 0.1 0.88 0.56 0.91 0.72 0.05 2.11-0.91 3.02 0.17l0.68 4.5c-5.3 2.82-14.33-1.11-9.64-7.49 1.77 0.76 3.59 1.18 5.38 1.91z"/>
		<path id="&lt;Path&gt;" class="s0" d="m357.89 70.55c-0.88 0.03-1-2.05-1.09-2.7-0.39-2.68-1.37-10.63 0.22-12.52 2.38-2.85 5.55 3.52 5.5 5.57-0.06 2.96-4.22 6.57-4.63 9.65z"/>
		<path id="&lt;Path&gt;" class="s0" d="m110.05 246.36l0.1 6.31c-6.58 1.42-10.29-0.9-8.21-7.92 3.28-1.38 5.17 1.32 8.11 1.61z"/>
		<path id="&lt;Path&gt;" class="s0" d="m353.65 273.64c-0.14 0.26-1.26 0.57-1.77 1.42-1.51 2.53-1.99 5.27-4.03 7.7-0.41 0.49-0.97 1.67-1.66 0.68 1.75-3.96 5.99-8.05 5.26-12.59l1.77-0.01-0.61-2.01c2.83-1.47 2.31-5.37 3.25-7.93 2.39-6.47 4.61-11.85 6.61-18.61 0.18-0.62-0.46-1.42-0.32-1.79 0.06-0.15 1.86-1.97 2.19-2.45-0.16 3.5-1.59 6.62-2.58 9.9-2.22 7.36-5 14.43-7.56 21.83-0.45 1.28-0.15 3.15-0.55 3.86z"/>
		<path id="&lt;Path&gt;" class="s0" d="m392.3 239.31c1.25-0.22 2.55 0.23 3.62 0.84 7.06 4.02-4.62 12.75-7.47 3.95 0.81-1.69 1.84-4.42 3.85-4.79z"/>
		<path id="&lt;Path&gt;" class="s0" d="m117.79 255.63l0.58 7.01-7.64-0.26c-0.76-0.51-2.17-6.91-1.73-7.35z"/>
		<path id="&lt;Path&gt;" class="s0" d="m122.46 253.28c-2.38-0.8-6.07 0.12-8.3-0.64-0.47-0.16-0.84-1.58-2.19-1.17 0.62-1.47-1.24-3.32 0.54-4.35 1.3-0.76 4.21 0.11 5.57-1.95 2.55 1.9 4.14 4.92 4.38 8.11z"/>
		<path id="&lt;Path&gt;" class="s0" d="m117.78 204.67c-1.5 3.24 0.04 7.69-3.33 9.88-1.86 0.47-6.93-3.54-8.37-4.91 2.57-1.3 5.28-1.05 8.01-2.51 1.44-0.78 2.06-2.39 3.69-2.46z"/>
		<path id="&lt;Path&gt;" class="s0" d="m181.61 307.75c0.13 1.07-1.24 0.5-1.88 0.42-2.63-0.33-7.21-1.64-9.83-2.47-9.93-3.13-18.47-8.72-25.18-16.69 1.75 0.64 3.71 2.14 5.22 3.26 1.87 1.39 3.55 3.17 5.48 4.48 8.07 5.48 16.49 9.41 26.19 11z"/>
		<path id="&lt;Path&gt;" class="s0" d="m131.25 272.6l-6.44-0.29-2.93-6.14c1.64-0.13 5.14-1.74 6.45-0.92 0.8 0.51 3.44 6.85 2.92 7.35z"/>
		<path id="&lt;Path&gt;" class="s0" d="m134.12 274.43c0.33 1.49 1.63 6.23-0.31 6.87-4 1.3-6.79-2.04-7.82-5.49-0.35-1.19 0.3-0.73 0.88-0.84 1.2-0.23 6.7-1.01 7.25-0.54z"/>
		<path id="&lt;Path&gt;" class="s0" d="m119.54 264.99l1.17 7.02-5.24 0.32c-2.18-1.66-3.22-4.25-4.13-6.75z"/>
		<path id="&lt;Path&gt;" class="s0" d="m139.96 270.77l-5.77 0.99-2.93-6.18c5-0.35 9.5-2.04 8.7 5.19z"/>
		<path id="&lt;Path&gt;" class="s0" d="m111.34 110.97c-5.01 3.95-12.54 4.21-18.61 6.27-2.12 0.72-3.85 2.05-5.99 2.5 6.39-5.83 16.13-8.37 24.6-8.77z"/>
		<path id="&lt;Path&gt;" class="s0" d="m100.21 251.52c-6.65-2.21-6.53-3.92-7.02-10.54l6.76 3.5c-0.3 2.89-1 3.92 0.26 7.04z"/>
		<path id="&lt;Path&gt;" class="s0" d="m106.59 255.67c0.19 1-0.07 2.04 0.19 3.03 0.22 0.84 2.22 3.57 0.2 3.34-4.4-0.51-7.27-2.77-8.52-7z"/>
		<path id="&lt;Path&gt;" class="s0" d="m126.57 262.65l-5.21 0.54-1.82-6.98 5.84 0.26c1.63 1.65 1.16 4.08 1.19 6.18z"/>
		<path id="&lt;Path&gt;" class="s0" d="m190.64 7.06c0.36 0.36 1.24 0.04 0.93 1.11-0.78 1.6-9.68 0.74-11.99 0.9-4.6 0.32-9.82 1.42-14.36 2.33-0.49-1.47 2.43-2.01 3.36-2.2 6.38-1.33 13.8-1.41 20.36-2.19 0.49-0.06 0.85-0.52 1.18-0.86 0.42-0.17 0.18 0.57 0.52 0.91z"/>
		<path id="&lt;Path&gt;" class="s0" d="m7.11 121.5l-1.19-2.34c0.65 0.03 1.3 0.2 1.81-0.36 3.54-3.93 6.63-14.78 9.41-19.75 1.3-2.31 4.09-5.21 5.76-7.41z"/>
		<path id="&lt;Path&gt;" class="s0" d="m142.62 277.08c0.07 0.18 0.91 0.21 0.95 0.59 0.11 0.91-0.75 2.1-0.61 3.13l-2.33-1.76 0.88 2.93c-3.66-1.33-4.34-4.58-6.16-7.61l5.89-0.92c0.77 1.1 0.85 2.42 1.38 3.64z"/>
		<path id="&lt;Path&gt;" class="s0" d="m63.14 33.18c7.23-2.23 3.84 9.94-0.74 6.95-2.37-1.54-1.4-6.29 0.74-6.95z"/>
		<path id="&lt;Path&gt;" class="s0" d="m104.31 141.42l-13.46 5.85c0.29-1.94 0.01-4.17 1.72-5.58 3.86 1.38 7.44-1.14 11.74-0.27z"/>
		<path id="&lt;Path&gt;" class="s0" d="m163.46 159.58l-7.9 16.97c-1.2-0.76-0.56-1.31-0.51-2.2 0.28-4.79 1.47-7.27 4.33-10.96z"/>
		<path id="&lt;Path&gt;" class="s0" d="m89.32 165.08c-1.47 1.05-2.89 3.32-4.92 2.4l16.39-14.94c-1.76 5.88-6.79 9.23-11.47 12.54z"/>
		<path id="&lt;Path&gt;" class="s0" d="m164.63 152.54c0.19 1.06-1.02 0.34-1.56 0.76-0.73 0.57-3.7 4.49-4 4.51l-4.97-5.56c0.47-0.97 1.71 0.29 2.04 0.29z"/>
		<path id="&lt;Path&gt;" class="s0" d="m320.41 326.48l-2.53 4.53c-4.38 1.5-5.96 7.32-10.93 7.77z"/>
		<path id="&lt;Path&gt;" class="s0" d="m123.64 279.63c-2.77-0.79-5.64-1.06-7.02-3.81 0.81-1.4 1.55-0.19 2.46-0.41 0.96-0.23 1.35-1.56 2.8-0.79 1.47 0.77 1.98 3.46 1.76 5.01z"/>
		<path id="&lt;Path&gt;" class="s0" d="m268.29 41.28c0.13 1.09-1.19 0.46-1.78 0.32-2.88-0.69-8.34-2.45-11.09-3.56-1.02-0.42-2.51-0.9-2.94-2.03 5.4-0.14 10.48 3.91 15.81 5.27z"/>
		<path id="&lt;Path&gt;" class="s0" d="m330.37 329.41l-2.33-0.59c1.07 4.07-3.45 4.18-6.45 4.69-0.2-2.32 3.12-0.69 2.35-3.52l2.33 0.59-0.59-1.75 3.29-1.72z"/>
		<path id="&lt;Path&gt;" class="s0" d="m338.37 320.42c-0.85 0.83-2.26 1.47-3.07 2.52l-1.42-1.14c2.28 0.56 1.56-1.14 2.11-1.69 0.67-0.67 1.54-0.97 2.01-1.52 1.58-1.82 2.35-4.42 5.25-5.58 0.48 0.51-4.17 6.71-4.88 7.41z"/>
		<path id="&lt;Path&gt;" class="s0" d="m109 264.99l-0.29 5.26-4.98-3.81c-0.67-1.63 4.59-1.56 5.27-1.45z"/>
		<path id="&lt;Path&gt;" class="s0" d="m386.01 147.86c-1.56 0.32-1.01-0.4-1.46-1.16-1.09-1.86-1.7-4-3.17-5.66l1.13-1.96c1.35-0.81 3.99 7.5 3.5 8.78z"/>
		<path id="&lt;Path&gt;" class="s0" d="m259.29 166.63c1.48-0.43 4.25 1.97 2.29 4.09-2.95 3.17-5.3-3.2-2.29-4.09z"/>
		<path id="&lt;Path&gt;" class="s0" d="m81.47 354.59c-1.93-1.35-3.6-0.84-4.68-3.23l1.75-0.28-0.58-2.34c3.5-0.82 3.67 3.41 3.51 5.85z"/>
		<path id="&lt;Path&gt;" class="s0" d="m276.68 40.49c2.21 1.44 6.76 3 8.46 4.7 0.69 0.69 1 0.44 0.72 1.94l-11.05-6.52-0.07-1.68c1.43-0.38 1.31 1.15 1.94 1.56z"/>
		<path id="&lt;Path&gt;" class="s0" d="m185.72 389.14l-0.29-1.17c0.91 0.1 1.98-0.2 2.84 0 0.38 0.08 0.74 3.02 1.84 0.01 0.33 0.31 0.73 0.95 1.17 1.01 0.28 0.03 3.12-1.98 2.63 0.44-0.23 1.17-6.76 0.49-7.93 1.19-1.68 0.03-1.04-1.92-2.88-1.48-0.17 0.04-1.33 2.6-2.66 1.48l0.59-0.89-1.75-0.59c1.38-2.07 4.49-0.86 6.44 0z"/>
		<path id="&lt;Path&gt;" class="s0" d="m361.71 284.32l1.46 1.42c0.02 1.31-3.05 5.87-4.38 5.6-0.64-0.13-1.02-0.96-0.61-1.76 0.72-1.38 2.76-3.61 3.53-5.26z"/>
		<path id="&lt;Path&gt;" class="s0" d="m251.31 35.42c0.14 1.01-1.39 0.62-2.04 0.57-2.2-0.17-6.49-0.77-8.52-1.44-1-0.33-2.54-0.5-2.32-2.06z"/>
		<path id="&lt;Path&gt;" class="s0" d="m108.99 101.6l0.1 1c2.13-1.14 3.39 1.17 3.85 1.3 1.2 0.34 4.6-0.47 4.25 1.79-0.47 0.37-10.89-2.23-11.71-2.62-0.27-0.13-0.74-0.76-0.58-0.89l3.52 0.58-0.3-1.17z"/>
		<path id="&lt;Path&gt;" class="s0" d="m107.69 155.34c-0.09 0.16-0.98 0.18-1.24 0.87-0.4 1.03 0.46 2.65-1.55 3.36l-1.68-4.01 3.44-4.18c1.04 0.18 1.31 3.4 1.03 3.96z"/>
		<path id="&lt;Path&gt;" class="s0" d="m73.77 28.48c1.03 1.64-1.55 5.06-3.13 4.59-1.9-0.57-0.4-4.68 1.25-5.16 0.35-0.07 1.78 0.39 1.88 0.57z"/>
		<path id="&lt;Path&gt;" class="s0" d="m201.53 26.63c-0.69 3.23-6.38 1.72-8.79 2.34l0.37-1.81z"/>
		<path id="&lt;Path&gt;" class="s0" d="m231.98 30.15l-0.98 1.69c-2.76-0.38-5.49 0.62-7.21-2.28 2.71-0.91 5.43 0.57 8.19 0.59z"/>
		<path id="&lt;Path&gt;" class="s0" d="m204.33 389.28c0.4 0.38 0.09 2.35 1.86 2.24 0.09 3.49-4.74 0.69-3.97-0.52 0.15-0.23 1.62 0.29 1.06-1.26l-2.63-0.01 0.3 1.17c-1.89 0.11-1.99-1.33-0.78-2.38 0.38-0.08 4 0.61 4.16 0.76z"/>
		<path id="&lt;Path&gt;" class="s0" d="m24.07 295.44l-3.5-2.64 1.16-0.29c0.26-0.95-0.83-0.42-0.98-0.68-0.17-0.29-1.2-4.62 0.11-4.57z"/>
		<path id="&lt;Path&gt;" class="s0" d="m157.43 385.85c0.22 0.18 0.21 0.65 0.19 0.95 1.35-1.12 1.83-1.29 3.25-0.01l-0.34 1.77-5.23-0.64 0.24-2.29c0.54-0.86 1.33-0.22 1.89 0.22z"/>
		<path id="&lt;Path&gt;" class="s0" d="m342.67 174.79l1.76-1.17c-1.91-1.45-1.54-1.47-1.58-3.94-0.01-0.78-0.76-1.55 0.69-1.32 1.72 0.68 3.42 9.05-0.87 6.43z"/>
		<path id="&lt;Path&gt;" class="s0" d="m295.23 301.3c0.33 0.29-2.01 8.18-2.63 8.19-2.03-1.59 0.3-0.93 0.34-1.51 0.07-0.98-0.8-1.84-0.51-3.28 0.14-0.75 1.4-1.76 1.07-2.97-0.18-0.75 1.67-0.49 1.73-0.43z"/>
		<path id="&lt;Path&gt;" class="s0" d="m346.18 323.55l0.3 1.76 1.17-1.17 1.45 1.18-0.29 1.17-2 0.27 0.54 2.65-2.65-3.8c0.28-1.08-0.14-2.45 1.48-2.06z"/>
		<path id="&lt;Path&gt;" class="s0" d="m229.05 383.88l0.59 2.34-1.69-0.56-0.94 1.72-1.46-1.16c-0.23 2.91-1.41 0.26-2.35-0.88l3.51-0.89 0.58 1.76z"/>
		<path id="&lt;Path&gt;" class="s0" d="m324.08 186.95c-1.93-1.8 1.91-3.95 3.11-2.23 1.43 2.06-1.11 4.08-3.11 2.23z"/>
		<path id="&lt;Path&gt;" class="s0" d="m49.84 64.7c0.6 2.46-1.63 2.12-2.49 2.9-1.05 0.95-1.48 2.62-3.35 2.95l3.08-5.1z"/>
		<path id="&lt;Path&gt;" class="s0" d="m202.12 323.56c2.14 1.96-5.45 0.81-6.18 0.6-0.8-0.22-1.82-0.06-2.02-1.19z"/>
		<path id="&lt;Path&gt;" class="s0" d="m100.8 149.04l-10.54 5.84c2.55-2.82 6.82-4.91 10.54-5.84z"/>
		<path id="&lt;Path&gt;" class="s0" d="m353.22 299.54c-0.26-2.52 2.2-5.01 4.09-6.44-0.08 2.69-1.91 5.07-4.09 6.44z"/>
		<path id="&lt;Path&gt;" class="s0" d="m235.5 14.92c0.05 1.1 0.27 1.2-0.89 1.19-1.51-0.01-5.98-0.53-7.34-0.9-1.04-0.28-1.36-0.18-1.14-1.46 3.26 0.45 5.9 1.74 9.37 1.17z"/>
		<path id="&lt;Path&gt;" class="s0" d="m144.72 14.92c0.03 0.75-1.77 1.3-2.33 1.47-2.02 0.6-4.9 1.02-7.04 1.45 2.26-2.94 6.19-1.91 9.37-2.92z"/>
		<path id="&lt;Path&gt;" class="s0" d="m178.69 387.98c-0.05 3.74-1.31 1.42-2.05 1.4-0.36-0.02-0.83 0.71-1.16 0.7-4.17-0.19-0.34-4.2 3.21-2.1z"/>
		<path id="&lt;Path&gt;" class="s0" d="m306.78 59.58c0.41 0.36 1.19 2.33 0.46 2.77l-5.56-5.26z"/>
		<path id="&lt;Path&gt;" class="s0" d="m317.49 338.19c-0.42-1.16 1.94-2.1 2.62-2.37 1.21-0.47 2.59-0.04 3.82-1.14 0.24 3.76-2.67 2.04-4.23 2.45-0.78 0.2-1.16 1.35-2.21 1.06z"/>
		<path id="&lt;Path&gt;" class="s0" d="m343.18 291.85c-0.47 0.33-2.12 0.36-1.66-0.77l4.07-5.59c0.12 0.97-2.13 6.16-2.41 6.36z"/>
		<path id="&lt;Path&gt;" class="s0" d="m308.7 346.38c-2.24 0.43-2.41 3.28-5.27 2.94 1.48-1.85 2.73-6.19 5.27-2.94z"/>
		<path id="&lt;Path&gt;" class="s0" d="m302.84 368.07c0.98 0.95-4.52 4.69-5.85 4.09 0.14-1.23 5.47-4.47 5.85-4.09z"/>
		<path id="&lt;Path&gt;" class="s0" d="m75.03 325.9l-1.75 2.62c0.1 0.28 4.65 2.38 5.09 2.82 1.13 1.09 1.65 5.36 5.44 5.09l-0.58-1.74 1.75-0.01-0.58 2.34 2.34 0.6 0.29-1.77c1.43 2.24 1.71 2.81 4.4 1.76l-0.01 2.93c-1.42-1.31-4.46-2.24-4.67 0.57l4.39 2.35c0.6-0.81-0.11-1.48 1.46-1.17v1.76l2.93-0.58-0.61 1.41 1.01 0.47-0.08 1.07 9.19 5.27c4.97 2.28 10.59 5.76 15.09 8.45 0.93 0.56 2.12 1.19 3.12 1.58 3.56 1.39 7.7 0.96 10.06 4l0.87-1.76 1.48 0.59-0.21 1.1c1.17 1.28 3.03-1.38 3.37 0.35 0.05 0.3-0.78 2.23 0.04 3.23-2.31-0.89-5.58-1.62-7.73-2.51-20.75-8.62-42.4-20.27-58.46-35.29-0.66-0.62-0.35-2.01-1.74-2.3l1.77-1.77c-0.07-1.38-1.17-1.65-2.35-1.46l-0.29 2.32c-2.18-1.18-2.8-1.56-2.05-4.08l1.74 1.17 0.6-2.34c1.77 1.09 2.08 4.21 4.68 2.93z"/>
		<path id="&lt;Path&gt;" class="s1" d="m157.61 370.41l-0.58 2.34 4.09-0.58-0.59 1.75c1.97 0.31 4.76 0.57 6.6 1.21 0.56 0.2 0.45 1.16 0.76 1.16 1.04 0.03 3.13-1.29 3.49-2.39l3.2 2.36c0.56-3.24 2.54-0.01 2.75 0.02 3.08 0.49 13.19 1.78 15.62 1.15 0.47-0.12 0.33-1.2 0.68-1.19 0.96 0.03 3.49 2.19 5.56 1.2l0.29-2.35 0.85 2.66 3.54-0.32v1.75c-1.92 0.16-3.9 0.32-5.82 0.41-1.36 0.06-2.09-1.23-2.66 0.78-2.74-2.42-6.47-0.89-9.99-1.16-3.06-0.23-16.86-1.4-18.59-2.38-0.56-0.32-0.8-2.95-1.87 0.02l-1.49-1.75-1.14 0.02-0.3 1.14c-0.73-1.4-7.43-1.34-7.91-1.76l1.16-2.33-2.92 1.16 0.59-3.51c1.94 0.76 2.48 1.31 4.68 0.59z"/>
		<path id="&lt;Path&gt;" class="s1" d="m36.38 279.63l1.75-0.58-1.74 2.04c3.88 2.17 3.38 5.86 4.79 8.69 0.68 1.37 2.29 0.27 1.06 2.73l4.09 0.89c-3.6 0.31-0.52 2.15 0.38 3.72 1.3 2.27 3.57 6.63 5.23 8.26 1.71 1.66 4.35 3.33 6.37 5.3 0.57 0.56 1.14 0.73 0.91 1.74-0.83-0.15-1.89 0.59-2.57 0.47-1.39-0.25-9.8-13.1-12.08-14.81-2.93-5.05-6.17-10.95-9.45-16.34-0.63-1.05-2.26-0.68-1.67-2.69l2.34 1.17c1.07-1.53-4.29-4.91-4.94-5.89-1.21-1.85-1-5.7-2.67-7.58 3.56 0.31 2.64 4.24 3.33 5.69 0.91 1.9 5.67 4.06 4.87 7.19z"/>
		<path id="&lt;Path&gt;" class="s1" d="m27.59 132.63l-9.02 29.6c-0.45 1.53 0.5 5.24-1.51 4.96l1.18 0.88-4.7 26.64c-1.2-2.67 0.33-5.49 0.55-8 1.33-15.75 5.06-38.67 12.07-52.9 0.41-0.84-0.13-1.47 1.43-1.18z"/>
		<path id="&lt;Path&gt;" class="s1" d="m32.29 260.89c-4.03-10.75-7.79-21.55-10.32-32.79 0.14-5.66-2.25-11.17-1.98-16.99l1.59 5.13c0.95 8.63 3.22 17.53 5.85 25.78 0.8 2.55 6.78 17 6.47 17.9-0.28 0.8-0.77 1.12-1.61 0.97z"/>
		<path id="&lt;Path&gt;" class="s1" d="m244.87 361.04l-14.38 4.65c-8.37 1.36-16.23 1.86-24.57 2.37-1.85 0.11-3.72-0.06-5.56 0 0.12-0.97 0.76-0.83 1.44-0.94 4-0.68 8.24-0.41 12.26-0.87 3.62-0.42 7.48-0.77 11.02-1.24 5.44-0.71 11.28-3.63 16.54-3.71 1.08-0.01 2.15-0.4 3.25-0.26z"/>
		<path id="&lt;Path&gt;" class="s1" d="m32.31 108.64c-0.32 0.48 0.37 2.63-1.2 2.91l-0.29-2.23c-0.75 0.41-1.51 0.13-1.39-0.89 0.05-0.39 3.12-6.77 3.39-7.06 0.61-0.68 1.64-0.23 1.8-0.38 0.14-0.12-0.42-1.15-0.24-1.75 0.39-1.27 2.65-2.57 2-4.67l1.45 1.16c1.24-2.31 2.71-4.42 4.98-5.85l-8.81 18.4c-0.29 1.13-1.63 0.28-1.69 0.36z"/>
		<path id="&lt;Path&gt;" class="s1" d="m203.87 381.54c-0.27 0.95-0.99 1.35-1.9 1.59-3.87 0.99-26.28-0.22-31.03-1.17l-5.13-1.88c0.79-1.21 1.31-0.77 2.37-0.64 3.83 0.45 8.17 1.2 11.97 1.52 7.87 0.67 15.83 1.18 23.72 0.58z"/>
		<path id="&lt;Path&gt;" class="s1" d="m236.5 292.69c4.11 3.32-1.72 11.02-6.25 7.12-4.08-3.5 1.81-10.7 6.25-7.12z"/>
		<path id="&lt;Path&gt;" class="s1" d="m154.26 22.15c-1.37 0.39-3.83 1.41-5.89 1.98-6.8 1.87-13.84 2.91-20.04 6.61l1.16 2.32-1.99 0.54c-0.5-1.84-2.57-1.58-2.69-1.7-0.33-0.34 0.17-2.19 0.89-2.34 1.41-0.3 0.98 1.84 2.03 1.75 0.02-1.11 0.19-2.03 1.2-2.61 0.97-0.57 8.22-3.16 9.8-3.67 7.03-2.25 15-3.72 22.11-5.99l0.29 1.45c-2.14 1.04-4.69 1.03-6.87 1.66z"/>
		<path id="&lt;Path&gt;" class="s1" d="m25.45 122.51c0.15 0.3 1.14 0.01 0.97 0.45l-2.64 3.23 0.87-3.22c-1.96-2.23-2.01 2.3-1.73 3.41 0.14 0.57 1.31 0.11 1.12 1.2-0.22 1.17-2.39 2.05-1.72 4.47l-1.75-0.59c-0.08 2.2-0.57 5.21-1.14 7.32-0.74 2.71-2.34-1.31-2.26-2.76 0.09-1.55 1.64-4.71 2.29-6.43 0.29-0.77 0.69-1.98 0.96-2.63 0.96-2.29 2.47-4.73 3.08-7.21 1.99-0.23 1.41 1.69 1.95 2.76z"/>
		<path id="&lt;Path&gt;" class="s1" d="m243.11 365.72c0.21 2.69-2.71 1.48-3.51 2.92 3.46 1.4 4.24-3.41 6.43-0.28l-5.55 3.23c-2.09-0.04 1.34-2.32-1.76-1.79l-1.3 1.63-9.53 3.07 0.87-4.08 2.05 2.33 0.89-2.92 0.88 1.16 0.58-1.76 2.66 1.09c0.75-2.32 2.34-1.28 3.09-1.75 0.46-0.3 0.46-2.05 0.74-2.25 0.21-0.15 1.04 0.39 1.4 0.29 0.83-0.24 1.05-1.12 2.06-0.89z"/>
		<path id="&lt;Path&gt;" class="s1" d="m148.82 366.31c0.15 2.11-2.13 1.81-3.52 1.75v1.76c2.24 0.07 6.05 0.07 6.45 2.92l-12.3-2.92c0.37-1.75 1.61-2.11 0.59-4.1z"/>
		<path id="&lt;Path&gt;" class="s1" d="m72.67 335.28c0.08 3.54 5.81 3.56 6.46 6.7l15.75 10.34-0.53 2.28c-0.57 0.64-4.51-4.21-4.89-4.51-5.42-4.3-11.99-7.57-17.37-12.76-1.57-1.53-1.93-2.35 0.58-2.05z"/>
		<path id="&lt;Path&gt;" class="s1" d="m185.72 15.51c0.31 1.65-0.44 0.95-1.3 1.34-1.09 0.49-3.46 0.75-4.01 1.27-0.66 0.62 0.35 2.02-0.84 2.65-0.42 0.15-0.2-1.59-1.76-1.79-0.46-0.06-8.71 1.04-9.23 1.21-0.73 0.22-0.69 1.33-1.31 1.74l-1.46-1.46c-0.27-1.37 0.63-0.7 1.39-0.93 3.99-1.2 8.05-1.67 11.05-3.04 1.41-0.65 5.66-0.45 7.47-0.99z"/>
		<path id="&lt;Path&gt;" class="s0" d="m100.6 334.87c0.51 0.6 0.89 1.33 0.79 2.15l-1.67 0.08-0.38 1.68c-2.25-2.06-4.14-6.14-7.33-6.45l1.76-0.87-2.34-1.75c0.82-1.08 1.05-0.97 2.18-0.44 0.4 0.19 6.71 5.26 6.99 5.6z"/>
		<path id="&lt;Path&gt;" class="s1" d="m257.16 367.48c0.69 4.3-4.56 3.59-7.31 5.28l-1.47-1.76-0.58 2.92c-1.45-5.08 5.72-5.89 9.36-6.44z"/>
		<path id="&lt;Path&gt;" class="s1" d="m29.35 110.38c-0.64 1.34 1.11 1.9 1.1 2.03-0.11 1.21-1.5 1.74 0.65 2.36-2.91 1.31-2.8 4.87-5.26 5.56 0.34-1.68-0.59-1.82-1.75-2.63 2.43-1.58 2.71-4.29 4.03-6.49 0.32-0.53-0.29-1.15 1.23-0.83z"/>
		<path id="&lt;Path&gt;" class="s1" d="m267.71 355.77c0.09 2.34-3.1 1.68-2.34 4.1 0.57-0.31 1.47-1.12 1.18 0.29-0.52 2.47-3.41 2.06-5.28 2.63l0.4-1.76c0.64-0.42 4.06-0.77 2.82-2.33l-9.08 4.09c-0.27-1.38 2-1.99 3-2.56 2.43-1.4 6.53-2.39 7.58-2.98 0.6-0.34 0.11-2.05 1.72-1.48z"/>
		<path id="&lt;Path&gt;" class="s1" d="m14.12 198.22c1.13 6.92 0.45 13.64 1.75 20.5-1.39-0.56-1.32-2.71-1.57-3.98-0.65-3.37-1.13-8.67-1.34-12.13-0.04-0.64-0.4-6.03 1.16-4.39z"/>
		<path id="&lt;Path&gt;" class="s1" d="m278.25 342.3c0.67 0.57-1.62 2.51-2.07 2.9-1.85 1.65-5.84 4.15-8.11 5.65-2.6 1.72-3.16 0.04-1.08-1.37 1.7-1.15 6.36-5.16 7.78-5.73 0.65-0.26 1.16 0.09 1.72 0.31v-1.32z"/>
		<path id="&lt;Path&gt;" class="s0" d="m113.1 337.6c-4.65-1.61-8.97-4.75-13.24-7.25-0.26-0.15-0.36-0.78-0.67-0.95-1.59-0.88-4.26 0.37-3.66-3.5z"/>
		<path id="&lt;Path&gt;" class="s1" d="m36.64 254.82c0.36 0.87 0.36 1.15 0.65 1.89 1.31 3.28 2.83 6.64 3.77 10.03-1.15-0.78-2.03-2.82-2.65-4.08-1.35-2.75-2.74-6.18-3.8-9.08-0.59-1.62-1.61-3.87-1.46-5.57 1.55 1.71 2.54 4.56 3.49 6.81z"/>
		<path id="&lt;Path&gt;" class="s1" d="m104.89 41.85c-0.24 0.28-5.42 3.14-6.39 3.85-3.29 2.42-6.18 5.75-9.99 7.28l7.66-7.25 8.44-5.04z"/>
		<path id="&lt;Path&gt;" class="s1" d="m169.32 362.21l-0.93 1.77c-3.99-2.59-10.75 0.01-13.13-4.11z"/>
		<path id="&lt;Path&gt;" class="s1" d="m115.44 30.73l-15.05 9.25-3.1 1.28c5.56-3.98 11.51-8.58 18.15-10.53z"/>
		<path id="&lt;Path&gt;" class="s1" d="m73.3 55.29l1.98 0.03 0.32 1.17-4.66 4.69 2.33-4.68-2.63 2.34c-1.14-0.48-1.03-3.77 0.07-3.97 1.02-0.19 1.08 1.25 2.27-1.3z"/>
		<path id="&lt;Path&gt;" class="s1" d="m182.2 27.8c0.11 1.47 0.14 1.01-0.88 1.16-4.56 0.68-8.19 1.44-12.58 2.94-0.22-1.28 0.81-1.64 1.75-2.05 3.33-1.45 8.08-1.77 11.71-2.05z"/>
		<path id="&lt;Path&gt;" class="s1" d="m49.84 277.29l-1.16 1.46c2.67 3.02 3.77 7.19 7.53 9.19l-0.51 2.23c-2.03-3.11-8.14-8.85-7.62-12.57z"/>
		<path id="&lt;Path&gt;" class="s1" d="m146.48 19.02c0.24 1.31-0.39 1.14-1.16 1.51-1.2 0.57-9.54 2.95-9.96 2.58 0.18-2.78 4.31-1.13 5.56-3.51l0.57 1.18z"/>
		<path id="&lt;Path&gt;" class="s1" d="m260.69 369.24l-0.59-1.76-2.34 2.34c-0.4-2.35 0.85-3.07 2.64-4.1l0.57 1.17 2.05-1.76c0.31 2.3-0.1 3.41-2.33 4.11z"/>
		<path id="&lt;Path&gt;" class="s1" d="m281.17 257.37l-7.01-12.29c3.69 2.74 6.22 7.82 7.01 12.29z"/>
		<path id="&lt;Path&gt;" class="s1" d="m124.22 33.65c-1.91-1.02-3.13 0.21-4.39 1.78l-2.04-1.48 6.15-3.22z"/>
		<path id="&lt;Path&gt;" class="s1" d="m103.73 358.69c-2.83-0.33-5.24-2.91-7.6-4.39 0.95-1.28 0.9-0.67 1.9-0.17 2.08 1.04 4.49 2.54 5.7 4.56z"/>
		<path id="&lt;Path&gt;" class="s1" d="m243.7 216.37c-3.19-0.78-6.47-1.87-9.52-3.07-0.62-0.25-1.74-0.17-1.61-1.01 3.8 0.29 8.15 1.65 11.13 4.08z"/>
		<path id="&lt;Path&gt;" class="s1" d="m254.82 362.21c0.32 1.6-0.4 1-1.18 1.42-2.46 1.31-4.82 1.92-7.6 2.09-0.27-1.57 0.28-1.02 1.27-1.33 2.48-0.79 5.1-1.2 7.51-2.18z"/>
		<path id="&lt;Path&gt;" class="s1" d="m39.89 89.29c1.29-1.08 0.85-3.92 1.27-4.58 0.14-0.22 3.47-1.57 4-3.03l-0.79 2.43z"/>
		<path id="&lt;Path&gt;" class="s1" d="m156.42 380.94c-2.14 0.37-0.05-2.46-2.91-1.75l0.88-1.74c0.6 1.75 5.47-0.4 5.55 1.45 0.05 1.35-3.87-0.7-3.52 2.04z"/>
		<path id="&lt;Path&gt;" class="s1" d="m254.25 266.15c-2.42-4.8 4.23-4.33 2.63-1.15-0.46 0.92-1.62 1.34-2.63 1.15z"/>
		<path id="&lt;Path&gt;" class="s1" d="m36.37 261.48l0.59 2.92-1.75-1.75c-0.38 1.96 3.09 3.89 0.59 5.26v-2.33c-4.8 1.44-0.35-4.78 0.57-4.1z"/>
		<path id="&lt;Path&gt;" class="s0" d="m86.15 323.56l-1.74 1.75-1.28-2.81-1.07 0.47-1.75-4.1z"/>
		<path id="&lt;Path&gt;" class="s1" d="m144.72 356.36l-0.87 1.73-6.74-3.2c1.06-1.46 1.05-0.44 1.93-0.13 1.84 0.65 3.54 2 5.68 1.6z"/>
		<path id="&lt;Path&gt;" class="s1" d="m165.8 33.06c-0.7 0.47-3.27 0.06-3.41 0.15-0.62 0.43-0.74 2.04-3.02 1.62-0.31-1.52 0.32-1.03 1.14-1.47 1.61-0.88 3.44-1.1 5.01-2.04z"/>
		<path id="&lt;Path&gt;" class="s1" d="m203.72 117.55c7.63-2.05 6.87 9.13 0.75 10.71-7.52 1.95-6.45-9.18-0.75-10.71z"/>
		<path id="&lt;Path&gt;" class="s1" d="m295.82 139.08c-0.99 3.05-9.62 4.51-9.98 0.84-0.44-4.38 7.93-2.06 9.98-0.84z"/>
		<path id="&lt;Path&gt;" class="s1" d="m301.48 123.32l1.96 0.22c2.41 1.22 0.79 5.85-0.89 7.32-1.83-2.13-4-5.46-1.07-7.54z"/>
		<path id="&lt;Path&gt;" class="s1" d="m87.33 176.55c-0.25-1.1 0.62-1.39 1.17-2.05 1.7-2.02 3.94-4.3 5.85-6.14-0.63 1.45-1.96 3.81-2.92 4.98-0.43 0.52-3.49 3.85-4.1 3.21z"/>
		<g id="&lt;Group&gt;">
			<path id="&lt;Path&gt;" class="s1" d="m78.53 325.41c0.16 0.23 0.07 1.09 0.97 1.51-2.09 0.15-1.18 2.32-1.27 2.46-0.08 0.1-1.95 1.49-2.07 1.53-1.28 0.4-3.11 0.07-4.46 0.38-0.39-2.81 1.74-6.64 4.85-6.57 0.82 0.02 0.88 0.46 1.4 0.75 0.16 0.1 0.54-0.11 0.58-0.06z"/>
			<path id="&lt;Path&gt;" class="s1" d="m100.89 335.37c1.85-0.63 1.7 2.16 0.27 2.17-1.03 0-1.08-1.9-0.27-2.17z"/>
			<g id="&lt;Group&gt;">
				<g id="&lt;Group&gt;">
					<path id="&lt;Compound Path&gt;" fill-rule="evenodd" class="s1" d="m114.4 327.45c0.02 0.02 0.06 0.28 0.06 0.35 0.1 1.38-0.02 2.84-0.06 4.21-0.04 1.06 0.04 2.94-0.33 3.87-0.31 0.77-1.12 1.59-1.97 1.66l-0.03-0.59-0.16 0.04-0.03 0.61-1.14 0.07-0.2-0.26-0.07 0.26c-0.12-0.02-0.24-0.07-0.37-0.07-1.74-0.06-3.61 0.01-5.36 0-2.43-0.01-4.92 0.25-7.34 0.13-0.93-0.04-1.77-0.21-2.74-0.2-2.11 0.03-4.24 0.35-6.38 0.2-0.48-0.16-1.89 0.04-2.23-0.26-0.31-0.27-0.08-0.59 0.22-0.75 0.46 0.01 0.94-0.08 1.38-0.09 3.04-0.12 6.07 0.21 9.12 0.13 0.44-0.01 0.96-0.12 1.4-0.13 0.86-0.03 1.74 0.03 2.61 0l0.16 0.36 0.38 0.03-0.05-0.22c0.04-0.11 0.12-0.1 0.21-0.11 0.36-0.04 0.84 0 1.22 0 2.44-0.02 4.94 0.4 7.4 0.27 1.3-0.07 3.73-0.51 3.47-2.36-0.14-0.94-0.12-0.87 0.04-1.77 0.22-1.2 0.07-2.45 0.28-3.6 0.05-0.24 0.22-0.48 0.25-0.65 0.06-0.35-0.11-0.75 0.11-1.05 0.04-0.05 0.05-0.17 0.15-0.08zm-14.67 9.38l-0.32 0.09 0.12 0.06-0.05 0.62c0.23 0.03 0.43-0.1 0.55-0.29l-0.11-0.23-0.19 0.13z"/>
					<path id="&lt;Compound Path&gt;" class="s1" d="m98.93 338.71v-0.15q-0.78 0-1.57-0.03-0.59-0.04-1.14-0.1c-0.52-0.05-1.02-0.11-1.55-0.1-0.78 0.01-1.59 0.07-2.37 0.12-1.33 0.08-2.7 0.17-4.07 0.08l-0.1-0.01-0.1-0.03c-0.1-0.03-0.47-0.03-0.71-0.03-0.71-0.01-1.38-0.02-1.8-0.39-0.3-0.27-0.45-0.65-0.4-1.03 0.05-0.42 0.35-0.81 0.8-1.03l0.17-0.09 0.19 0.01q0.33-0.01 0.71-0.05 0.32-0.03 0.62-0.05c1.64-0.06 3.28 0 4.87 0.06 1.4 0.05 2.85 0.11 4.27 0.08q0.28-0.02 0.63-0.07 0.38-0.05 0.76-0.07 0.67-0.01 1.32 0 0.4 0.01 0.78 0.01l0.29-0.09v0.09q0.11-0.01 0.22-0.01l0.53-0.02 0.05 0.1q0.02-0.01 0.05-0.01 0.46-0.04 0.92-0.01 0.21 0 0.39 0c1.11 0 2.24 0.07 3.32 0.15 1.33 0.09 2.71 0.19 4.02 0.12l0.14-0.54 0.38 0.5c0.98-0.12 1.77-0.41 2.08-0.79q0.2-0.24 0.15-0.62c-0.13-0.91-0.13-1.03 0.01-1.79l0.04-0.23c0.1-0.54 0.11-1.11 0.13-1.71 0.02-0.62 0.03-1.26 0.15-1.89 0.04-0.24 0.13-0.43 0.2-0.58q0.03-0.05 0.05-0.09c0-0.05-0.01-0.13-0.01-0.19-0.02-0.28-0.05-0.71 0.21-1.11 0.17-0.33 0.43-0.45 0.61-0.49 0.28-0.05 0.55 0.03 0.77 0.23 0.09 0.09 0.28 0.26 0.32 0.89 0.08 1.08 0.02 2.19-0.02 3.27q-0.03 0.51-0.05 1.01 0 0.33-0.01 0.74c-0.01 1.13-0.02 2.53-0.37 3.41-0.35 0.86-1.17 1.77-2.16 2.06v0.12l-1.55 0.09-0.02 0.09-0.53-0.06-0.18 0.01-0.03-0.04q-0.11-0.01-0.22-0.04-0.03-0.01-0.07-0.02c-1.06-0.03-2.21-0.02-3.32-0.01q-1.01 0.02-1.99 0.02-1.51 0.01-3.02 0.08-1.27 0.06-2.56 0.08z"/>
				</g>
				<g id="&lt;Group&gt;">
					<path id="&lt;Path&gt;" class="s1" d="m93.23 321.52c-0.02 0-0.03 0.08-0.09 0.11-0.1 0.05-0.22 0.05-0.32 0.13-0.48 0.36-0.64 1.32-0.29 1.76 0.63 0.79 2.2 0 2.97 0.66-0.47 1.02-1.56 0.55-2.51 0.56-1.04 0.02-0.37 1.15-0.03 1.5 0.6 0.63 2.6 1.65 2.14 2.48-0.01 0.03-0.28 0.32-0.31 0.33-0.24 0.1-0.79-0.21-0.94-0.35-0.35-0.32-0.29-1.04-1.11-0.92-0.65 0.1-0.53 0.89-0.51 1.26 0.02 0.43 0.2 0.99 0.19 1.42-0.02 0.41-0.36 0.83-0.37 1.29-0.02 0.87 0.57 1.38 0.1 2.39-0.51 1.11-1.51 0.59-1.52-0.26-0.01-0.58 0.22-1.25 0.27-1.81 0.03-0.33-0.09-0.6-0.1-0.9-0.01-0.77 0.25-1.87 0.08-2.58-0.02-0.05-0.16-0.3-0.22-0.31-2.37 0.52-0.69-0.73-0.28-1.37 0.27-0.42 0.7-1.64 0.21-1.98-0.43-0.3-1.1-0.23-1.59-0.06-0.54 0.2-1.48 1.12-2.06 0.77-0.44-0.26 0.17-1.03 0.41-1.32 0.5-0.56 0.82-0.31 1.63-0.37 0.25-0.02 1.33-0.32 1.55-0.42 0.7-0.3 0.73-1.52 0.1-1.81-0.26-0.11-1.68 0.28-2.25 0.15-0.75-0.16 0.35-1.45 1.14-1.47 0.37-0.02 0.98 0.17 1.42 0.2 0.56 0.03 1.39 0.02 1.96-0.01 0.49-0.02 2.83-0.5 2.17 0.42-0.41 0.57-1.32 0.35-1.84 0.51z"/>
					<path id="&lt;Compound Path&gt;" fill-rule="evenodd" class="s1" d="m91.39 335.17q-0.1 0-0.21-0.02c-0.54-0.11-0.94-0.64-0.95-1.26-0.01-0.39 0.07-0.79 0.16-1.18q0.08-0.37 0.11-0.67 0.01-0.2-0.04-0.42-0.04-0.2-0.05-0.44c-0.01-0.32 0.03-0.68 0.06-1.02 0.05-0.52 0.11-1.06 0.03-1.44-0.71 0.14-1.2 0.13-1.41-0.23-0.25-0.43 0.16-0.87 0.58-1.35 0.15-0.16 0.3-0.33 0.38-0.45 0.3-0.47 0.46-1.33 0.31-1.44-0.29-0.2-0.82-0.14-1.23 0-0.12 0.05-0.33 0.17-0.52 0.3-0.56 0.35-1.26 0.8-1.88 0.43q-0.28-0.17-0.34-0.49-0.09-0.57 0.66-1.43c0.48-0.55 0.9-0.53 1.35-0.51q0.24 0.02 0.55 0c0.19-0.01 1.23-0.3 1.43-0.39 0.21-0.08 0.3-0.35 0.3-0.58 0.01-0.22-0.07-0.41-0.19-0.48-0.13-0.01-0.46 0.04-0.71 0.08-0.54 0.08-1.11 0.17-1.48 0.08-0.38-0.08-0.6-0.36-0.57-0.72 0.06-0.68 1.02-1.52 1.78-1.54 0.23-0.02 0.53 0.04 0.83 0.1 0.22 0.04 0.45 0.09 0.62 0.1 0.55 0.03 1.38 0.02 1.92-0.01q0.13 0 0.38-0.04c1.13-0.14 1.95-0.21 2.24 0.27 0.1 0.17 0.16 0.44-0.11 0.82-0.39 0.54-1.05 0.57-1.53 0.6q-0.22 0.01-0.39 0.03-0.06 0.07-0.16 0.12-0.09 0.04-0.18 0.06-0.05 0.02-0.08 0.03c-0.14 0.11-0.26 0.36-0.3 0.64-0.03 0.23 0.01 0.44 0.09 0.55 0.2 0.26 0.68 0.24 1.18 0.23 0.59-0.02 1.25-0.04 1.74 0.38l0.23 0.2-0.13 0.27c-0.47 1.03-1.43 0.92-2.19 0.84q-0.36-0.04-0.68-0.05c-0.13 0-0.17 0.03-0.17 0.03-0.02 0.1 0.19 0.54 0.43 0.8 0.14 0.15 0.42 0.35 0.71 0.57 0.88 0.66 1.99 1.48 1.49 2.38-0.02 0.04-0.34 0.43-0.5 0.5-0.52 0.21-1.26-0.32-1.37-0.43-0.17-0.15-0.26-0.33-0.34-0.5-0.14-0.29-0.17-0.35-0.44-0.31-0.15 0.02-0.22 0.14-0.18 0.71l0.01 0.13q0.01 0.25 0.08 0.58c0.06 0.29 0.12 0.59 0.1 0.87-0.01 0.27-0.11 0.51-0.2 0.74-0.08 0.2-0.16 0.38-0.16 0.54-0.01 0.27 0.06 0.5 0.13 0.75 0.13 0.49 0.29 1.04-0.07 1.81-0.26 0.55-0.66 0.86-1.12 0.86zm-0.74-7.29l0.07 0.01c0.36 0.05 0.54 0.6 0.54 0.61 0.13 0.51 0.07 1.13 0.01 1.74q-0.06 0.51-0.07 0.92 0.01 0.14 0.05 0.31c0.03 0.18 0.07 0.39 0.05 0.64q-0.05 0.38-0.13 0.76c-0.08 0.35-0.15 0.7-0.14 1 0 0.27 0.16 0.47 0.31 0.5 0.15 0.03 0.32-0.12 0.44-0.39 0.24-0.51 0.15-0.83 0.03-1.27-0.08-0.27-0.17-0.59-0.16-0.97 0-0.31 0.12-0.59 0.22-0.83 0.07-0.18 0.14-0.34 0.15-0.47 0.01-0.19-0.04-0.45-0.09-0.69q-0.08-0.36-0.1-0.7l-0.01-0.11c-0.02-0.39-0.08-1.41 0.86-1.55 0.86-0.13 1.13 0.45 1.28 0.75 0.05 0.11 0.1 0.22 0.16 0.27 0.09 0.08 0.35 0.22 0.5 0.25q0.08-0.08 0.14-0.15c0.1-0.31-0.83-0.99-1.28-1.33-0.32-0.24-0.62-0.46-0.81-0.66-0.23-0.24-0.83-1.07-0.57-1.68 0.07-0.18 0.29-0.49 0.88-0.49q0.4 0 0.77 0.05c0.56 0.06 0.91 0.07 1.14-0.07-0.24-0.05-0.54-0.04-0.85-0.04-0.64 0.02-1.37 0.04-1.83-0.53-0.22-0.28-0.31-0.69-0.25-1.15 0.06-0.49 0.29-0.93 0.62-1.17q0.18-0.12 0.32-0.15 0.06-0.1 0.22-0.15c0.21-0.07 0.46-0.08 0.7-0.1 0.4-0.02 0.69-0.04 0.85-0.19-0.36-0.03-1.05 0.06-1.3 0.09q-0.3 0.04-0.45 0.05c-0.55 0.03-1.41 0.04-2 0q-0.36-0.02-0.73-0.1c-0.25-0.05-0.5-0.1-0.66-0.1-0.35 0.02-0.82 0.45-0.96 0.71 0.27 0.01 0.74-0.06 1.09-0.11 0.61-0.09 0.92-0.13 1.13-0.03 0.43 0.19 0.7 0.66 0.69 1.23-0.01 0.59-0.31 1.1-0.79 1.31-0.26 0.11-1.37 0.42-1.68 0.45q-0.39 0.02-0.65 0c-0.38-0.02-0.48-0.02-0.71 0.23-0.31 0.36-0.43 0.62-0.46 0.73 0.22 0.05 0.7-0.25 0.99-0.44q0.37-0.24 0.69-0.37c0.57-0.21 1.39-0.29 1.94 0.1 0.81 0.55 0.2 2.07-0.09 2.53q-0.18 0.26-0.46 0.55-0.13 0.14-0.27 0.32 0.19-0.02 0.59-0.11z"/>
				</g>
				<g id="&lt;Group&gt;">
					<path id="&lt;Path&gt;" class="s1" d="m97.72 308.85c0.77 0.36 0.83 1.12 1.03 1.71 0.57 0.25 1.16 0.31 1.81 0.39 1.41 0.18 2.96 0.36 4.44 0.46 0.96 0.07 2.97-0.04 3.76 0.3 0.4 0.18-0.37 0.87-0.6 1.03-0.98 0.65-1.36 0.38-2.39 0.18-1.3-0.26-2-0.52-3.2-0.97-0.11-0.04-0.11-0.12-0.22-0.17-0.32-0.12-0.74-0.09-1.07 0.02-0.11 0.04-0.17 0.2-0.49 0.24-0.57 0.08-1.43-0.03-1.93 0.28-0.45 0.27-0.32 1.53-0.5 2.03-0.11 0.31-0.71 1.01-0.71 1.23 0.01 0.26 0.75 0.74 0.9 1.03 0.21 0.4 0.02 1.26-0.28 1.61-0.56 0.66-1.13 0.64-1.57-0.06l0.25-1.93c0.08-0.63-0.13-1.25-0.19-1.87-0.06-0.66 0.29-2.09-1.02-2.23-0.77-0.09-2.91-0.2-3.63-0.13-0.83 0.08-2.93 0.8-3.7 1.12-0.45 0.19-1.42 0.88-1.88 0.59-0.67-0.42 0.75-1.51 0.98-1.95l0.16-0.08c0.35-0.08 0.81 0.05 1.12 0.03 1.21-0.05 2.79-0.34 4.03-0.48 0.98-0.12 1.89-0.13 2.85-0.33 0.62-0.13 0.8-0.19 0.98-0.64 0.18-0.44 0.09-1.86 1.07-1.41z"/>
					<path id="&lt;Compound Path&gt;" fill-rule="evenodd" class="s1" d="m97.46 319.1q-0.03 0-0.07 0c-0.27-0.02-0.67-0.16-1.02-0.73l-0.08-0.12 0.26-2.07c0.05-0.35-0.02-0.72-0.08-1.11q-0.07-0.33-0.1-0.68-0.02-0.22-0.01-0.49c0.02-0.92-0.06-1.31-0.66-1.38-0.75-0.08-2.86-0.19-3.56-0.12-0.73 0.07-2.76 0.76-3.58 1.09q-0.15 0.07-0.37 0.19c-0.59 0.32-1.32 0.71-1.87 0.37-0.26-0.16-0.34-0.38-0.36-0.54-0.07-0.52 0.42-1.05 0.85-1.51 0.13-0.16 0.31-0.34 0.35-0.43l0.06-0.1 0.36-0.18c0.28-0.06 0.58-0.03 0.84 0q0.21 0.03 0.36 0.02c0.76-0.03 1.68-0.16 2.58-0.29q0.75-0.11 1.42-0.19 0.5-0.06 0.99-0.09c0.62-0.05 1.21-0.1 1.82-0.23 0.58-0.12 0.59-0.14 0.69-0.4 0.03-0.06 0.06-0.22 0.08-0.36 0.08-0.47 0.18-1.05 0.63-1.29q0.39-0.21 0.89 0.03c0.8 0.37 0.99 1.06 1.15 1.62q0.02 0.07 0.04 0.15c0.42 0.16 0.86 0.21 1.36 0.27l0.18 0.02c1.34 0.17 2.9 0.36 4.41 0.46 0.27 0.02 0.63 0.03 1.01 0.03 1.05 0.02 2.25 0.03 2.88 0.31q0.32 0.14 0.36 0.47c0.05 0.6-0.88 1.25-0.89 1.25-0.95 0.63-1.48 0.51-2.21 0.34q-0.22-0.05-0.47-0.1c-1.35-0.26-2.07-0.54-3.27-0.99q-0.19-0.09-0.25-0.18c-0.2-0.06-0.48-0.05-0.74 0.03-0.12 0.1-0.29 0.23-0.59 0.27q-0.3 0.03-0.64 0.04c-0.42 0.01-0.89 0.02-1.14 0.18-0.12 0.09-0.17 0.68-0.19 0.96-0.03 0.33-0.06 0.64-0.14 0.87-0.07 0.18-0.23 0.41-0.39 0.66-0.08 0.11-0.21 0.29-0.27 0.41 0.08 0.08 0.22 0.21 0.31 0.29 0.21 0.2 0.42 0.39 0.52 0.58 0.28 0.55 0.05 1.59-0.34 2.05-0.42 0.5-0.82 0.62-1.11 0.62zm-0.34-1.04q0.17 0.23 0.33 0.24 0.22 0.01 0.51-0.33c0.22-0.26 0.36-0.95 0.24-1.17-0.04-0.07-0.23-0.25-0.35-0.35q-0.3-0.27-0.48-0.52 0 0.17-0.02 0.35zm-3.89-6.48c0.92 0.02 2.03 0.09 2.55 0.15 1.42 0.16 1.39 1.48 1.38 2.18q-0.01 0.23 0 0.41 0.03 0.3 0.09 0.61 0.03 0.19 0.06 0.38 0.11-0.24 0.38-0.62c0.11-0.16 0.26-0.38 0.3-0.48 0.04-0.13 0.07-0.4 0.09-0.66 0.05-0.64 0.11-1.3 0.56-1.58 0.44-0.26 1.03-0.28 1.54-0.29q0.32-0.01 0.56-0.03c0.09-0.02 0.12-0.04 0.18-0.09q0.08-0.07 0.23-0.14-0.33-0.04-0.64-0.08l-0.18-0.02c-0.6-0.07-1.17-0.14-1.75-0.4l-0.16-0.07-0.06-0.17q-0.05-0.17-0.1-0.36c-0.14-0.48-0.25-0.9-0.72-1.11-0.13-0.06-0.18-0.05-0.18-0.05-0.1 0.06-0.19 0.54-0.22 0.72q-0.04 0.31-0.12 0.53c-0.26 0.64-0.63 0.75-1.27 0.88-0.66 0.14-1.3 0.19-1.92 0.24q-0.3 0.03-0.6 0.05zm-6.48 1.79c0.2 0.07 0.84-0.28 1.06-0.39q0.26-0.15 0.44-0.23c0.43-0.17 1.47-0.55 2.41-0.83-0.65 0.09-1.28 0.17-1.85 0.19q-0.24 0-0.48-0.03c-0.19-0.02-0.38-0.04-0.53-0.02l-0.01 0.01q-0.15 0.21-0.4 0.46c-0.18 0.2-0.59 0.65-0.64 0.84zm16.08-1.75c1.12 0.42 1.78 0.66 3.01 0.9q0.28 0.06 0.5 0.11c0.66 0.16 0.93 0.22 1.59-0.22 0.13-0.09 0.32-0.26 0.43-0.41-0.57-0.14-1.58-0.15-2.35-0.16-0.39-0.01-0.76-0.01-1.04-0.03q-1.08-0.08-2.14-0.19z"/>
				</g>
				<g id="&lt;Group&gt;">
					<path id="&lt;Path&gt;" class="s1" d="m112.53 300.63c0.05 0.02 0.59 0.29 0.7 0.36 0.74 0.43 1.11 1.54 1.17 2.37 0.15 2.18-0.11 4.57-0.07 6.79q0.03 1.03 0.06 2.07c0.06 3.03-0.22 6.08-0.12 9.06 0.05 1.51 0.29 3.35 0.13 4.85-0.01 0.09-0.01 0.16-0.1 0.22-0.31-0.17-0.61-0.43-0.66-0.81-0.03-0.17 0.02-0.35-0.02-0.5-0.03-0.11-0.17-0.16-0.21-0.24-0.22-0.49 0.13-3.01 0.16-3.72 0.13-3.01-0.25-6.13-0.13-9.19 0.03-0.74 0.17-1.51 0.2-2.25 0.08-2.13-0.16-4.28-0.13-6.41 0.01-0.72-0.54-1.25-1.06-1.65-0.16-0.12-0.1-0.25-0.46-0.31-1.24-0.18-2.88-0.03-4.13 0.12-0.18 0.02-0.41-0.04-0.56 0-0.05 0.01-0.02 0.12-0.14 0.13-0.15 0.02-0.35-0.02-0.51 0-0.29-0.29-0.92-0.32-0.79-0.87 0.06-0.16 0.84-0.22 1.04-0.23 0.9-0.06 1.79 0.1 2.68 0.13 0.79 0.03 2.26-0.14 2.95 0.08z"/>
					<path id="&lt;Compound Path&gt;" fill-rule="evenodd" class="s1" d="m114.34 327.28l-0.42-0.23c-0.78-0.43-1.01-1-1.07-1.4q-0.02-0.16-0.02-0.29-0.08-0.09-0.15-0.23c-0.21-0.48-0.17-1.33 0.02-3.2 0.03-0.37 0.07-0.69 0.07-0.88 0.07-1.49 0-3.05-0.06-4.56-0.06-1.52-0.13-3.08-0.07-4.63q0.03-0.61 0.1-1.19 0.07-0.56 0.1-1.06c0.04-1.13-0.01-2.3-0.06-3.42-0.04-0.97-0.08-1.98-0.07-2.97 0.01-0.29-0.22-0.61-0.75-1.01q-0.1-0.08-0.17-0.16c-1.11-0.15-2.56-0.02-3.84 0.13q-0.17 0.02-0.32 0.01c-0.14 0.08-0.28 0.11-0.36 0.12q-0.24 0.03-0.4 0.01-0.06-0.01-0.12-0.01l-0.4 0.06-0.27-0.29c-0.01-0.01-0.09-0.05-0.15-0.07-0.27-0.14-1.09-0.56-0.84-1.55l0.02-0.06c0.19-0.57 0.81-0.72 1.74-0.78 0.62-0.04 1.21 0.01 1.79 0.07q0.5 0.04 0.97 0.06c0.22 0.01 0.53 0 0.86-0.01 0.84-0.03 1.7-0.06 2.3 0.13q0 0 0 0 0 0 0 0c0.18 0.06 0.82 0.4 0.87 0.43 1.03 0.61 1.48 2 1.55 3.01 0.09 1.3 0.04 2.68-0.01 4.01-0.03 0.94-0.07 1.91-0.05 2.82q0.01 0.5 0.03 1.01 0.02 0.53 0.03 1.06c0.03 1.45-0.02 2.92-0.07 4.34-0.05 1.55-0.11 3.16-0.06 4.7q0.03 0.69 0.09 1.47c0.08 1.17 0.16 2.39 0.04 3.49-0.01 0.15-0.05 0.54-0.45 0.8zm-0.73-1.24q0 0.03-0.01 0.06l0.55 0.02-0.01-0.02z"/>
				</g>
				<g id="&lt;Group&gt;">
					<path id="&lt;Path&gt;" class="s1" d="m81.73 316.92c0.06 0.07 0.09 0.37 0.09 0.47-0.03 2.22-0.15 4.59-0.07 6.8 0.02 0.51 0.28 1.25 0 1.67l0.13 0.13-0.13 2.85c0.17 1.92-0.15 4.26 0.07 6.13 0.08 0.68 0.83 1.63 1.5 1.72 0.62 0.09 1.35-0.15 1.92 0.21 0.12 0.56-0.14 0.58-0.6 0.63-1.15 0.12-2.34 0.06-3.11-0.9-0.85-1.07-0.55-2.25-0.54-3.53q0.02-3.15 0-6.33c-0.03-2.8-0.27-5.83-0.14-8.6 0.02-0.26 0.04-0.66 0.08-0.9 0.03-0.22 0.15-0.48 0.4-0.49 0.07 0 0.37 0.11 0.4 0.14z"/>
					<path id="&lt;Path&gt;" class="s1" d="m83.85 338.37c-1.03 0-2.14-0.24-2.94-1.25-0.87-1.08-0.8-2.24-0.75-3.27q0.03-0.37 0.03-0.75v-0.93c0.01-1.77 0.02-3.59 0-5.39-0.01-0.98-0.05-2.01-0.08-3-0.07-1.88-0.14-3.82-0.05-5.65 0-0.1 0.03-0.63 0.08-0.97 0.09-0.69 0.58-1.17 1.19-1.17q0 0 0 0c0.14 0 0.74 0.1 1.01 0.41v0.01c0.26 0.31 0.28 0.84 0.28 0.99q-0.02 1.06-0.05 2.16c-0.04 1.53-0.08 3.11-0.03 4.6q0.01 0.16 0.06 0.41c0.05 0.32 0.1 0.69 0.06 1.05l0.04 0.04-0.15 3.16c0.08 0.95 0.05 1.98 0.02 2.98-0.03 1.06-0.07 2.16 0.04 3.08 0.05 0.38 0.57 0.99 0.82 1.02q0.22 0.02 0.53 0c0.51-0.02 1.13-0.04 1.71 0.33l0.29 0.18 0.06 0.33c0.04 0.16 0.14 0.66-0.16 1.08-0.31 0.42-0.78 0.46-1.13 0.5q-0.42 0.05-0.88 0.05z"/>
				</g>
				<g id="&lt;Group&gt;">
					<path id="&lt;Path&gt;" class="s1" d="m102.52 331.24c-0.13 0.1-0.29 0.14-0.45 0.29-0.56 0.51-1.39 1.48 0.24 1.27 0.23-0.03 0.22-0.15 0.41-0.22 1.34-0.5 0.91 0.29 1.25 0.46 0.18 0.09 1.04 0.11 1.29 0.1 0.74-0.05 1.3-0.31 1.9-0.51 1.49-0.5 1.4 0.24 0.82 1-0.41 0.53-1.66 1.08-2.43 1.26-0.08 0.02-0.03 0.11-0.19 0.13-0.33 0.03-1.38 0.03-1.7 0-0.08-0.01-1.25-0.35-1.41-0.41-0.5-0.19-0.7-0.47-1.08-0.69-0.83-0.49-1.84-1-2.96-0.96-0.17 0.29-0.49 0.7-1 0.6-0.35-0.18 0.33-1.25 0.42-1.51 0.27-0.79 0.07-1.66 0.57-2.39 0.18-0.11 0.59 0.17 0.69 0.29 0.5 0.55 0.15 1.75 0.82 2.12 0.51 0.28 1.34-0.36 1.58-0.65 0.39-0.48 0.48-1.77 0.95-2.09 0.39-0.27 1.47-0.2 1.63 0.17 0.28 0.69-0.78 1.29-1.35 1.74z"/>
					<path id="&lt;Compound Path&gt;" fill-rule="evenodd" class="s1" d="m104.51 335.44c-0.36 0-0.71-0.01-0.89-0.02-0.16-0.02-1.41-0.39-1.51-0.43-0.37-0.15-0.6-0.33-0.8-0.49q-0.17-0.13-0.34-0.24c-0.78-0.45-1.63-0.87-2.55-0.91-0.44 0.62-0.93 0.68-1.29 0.61l-0.1-0.04c-0.62-0.32-0.19-1.17 0.1-1.74q0.09-0.17 0.12-0.25 0.12-0.41 0.15-0.88c0.06-0.51 0.11-1.09 0.47-1.62l0.05-0.07 0.08-0.05c0.46-0.27 1.08 0.25 1.19 0.37 0.31 0.34 0.37 0.81 0.42 1.22 0.06 0.45 0.11 0.72 0.29 0.82 0.22 0.11 0.85-0.27 1.08-0.56 0.13-0.15 0.24-0.51 0.34-0.83 0.16-0.53 0.32-1.07 0.7-1.33 0.39-0.27 1.11-0.28 1.58-0.14 0.41 0.12 0.57 0.33 0.63 0.49 0.36 0.87-0.57 1.55-1.18 2q-0.16 0.11-0.29 0.21-0.1 0.07-0.23 0.14-0.11 0.05-0.19 0.12-0.43 0.4-0.54 0.61 0.13 0.01 0.46-0.03c0.08-0.06 0.17-0.14 0.32-0.19 0.57-0.21 0.93-0.24 1.21-0.11 0.27 0.14 0.35 0.4 0.39 0.55q0.01 0.02 0.01 0.05c0.21 0.03 0.82 0.05 1.05 0.04 0.52-0.03 0.94-0.19 1.39-0.35q0.2-0.07 0.4-0.14c0.53-0.18 1.27-0.36 1.61 0.12 0.18 0.25 0.26 0.71-0.34 1.5-0.49 0.63-1.76 1.18-2.54 1.38q-0.14 0.15-0.37 0.17c-0.17 0.01-0.52 0.02-0.88 0.02zm-6.2-2.89c1.16 0 2.19 0.52 3.06 1.02q0.24 0.15 0.43 0.3c0.18 0.15 0.34 0.27 0.6 0.37 0.12 0.05 1.18 0.36 1.32 0.39 0.26 0.02 1.14 0.02 1.51 0q0.1-0.1 0.23-0.13c0.76-0.17 1.88-0.7 2.2-1.12q0.27-0.37 0.3-0.52c-0.11 0-0.3 0.02-0.68 0.14q-0.19 0.07-0.37 0.14c-0.49 0.17-0.99 0.35-1.62 0.4-0.01 0-1.14 0.03-1.49-0.14-0.27-0.13-0.34-0.38-0.38-0.52q-0.01-0.03-0.02-0.06c-0.07 0-0.22 0.02-0.54 0.14q-0.01 0-0.05 0.03c-0.09 0.08-0.22 0.18-0.45 0.21-0.3 0.04-1.1 0.14-1.34-0.39q-0.14-0.29 0.03-0.66c-0.44 0.3-1.03 0.54-1.53 0.27-0.55-0.3-0.63-0.92-0.7-1.41-0.04-0.31-0.08-0.64-0.23-0.8q-0.06-0.06-0.17-0.12c-0.15 0.31-0.18 0.67-0.22 1.04-0.04 0.34-0.07 0.69-0.19 1.05q-0.05 0.13-0.17 0.36c-0.06 0.12-0.18 0.36-0.26 0.56q0.13-0.09 0.28-0.35l0.11-0.19h0.22q0.06-0.01 0.12-0.01zm4.63-2.98c-0.19 0-0.38 0.02-0.47 0.09-0.15 0.1-0.29 0.56-0.39 0.9q-0.1 0.32-0.2 0.61 0.15-0.11 0.28-0.18 0.06-0.03 0.11-0.06 0.14-0.11 0.31-0.23c0.4-0.29 1-0.73 0.92-1.03-0.08-0.06-0.33-0.1-0.56-0.1zm2.38 5.05z"/>
				</g>
				<g id="&lt;Group&gt;">
					<path id="&lt;Path&gt;" class="s1" d="m104.84 322.23c0.36 0.21 0.46 0.55 0.19 0.85-0.31 0.33-1.38 0.26-1.38 0.83-0.01 0.52 1.03 0.24 1.43 0.24 1.49 0.01 1.08 1.45 1.11 2.17 0.05 0.82 0.25 1.77 0.1 2.59-0.05 0.26-0.36 0.46-0.74 0.4-0.44-0.06-0.78-0.42-1.29-0.55-0.42-0.11-1.95-0.21-2.05-0.45-0.06-0.15 0.01-0.33 0.16-0.44 0.69-0.1 1.89 0.12 2.28-0.42 0.2-0.27 0.33-1.07 0.3-1.39-0.15-1.69-3.13-1.21-4.66-1.13-0.49 0.02-1.06-0.05-1.52-0.01-0.74 0.07-1.58 0.66-2.23 0.66-1.05-0.01-0.4-1.3 0.38-1.42 0.4-0.05 1.37 0.1 0.99-0.42-0.29-0.39-0.99-0.39-0.72-1 0.3-0.65 1.47-0.46 1.6 0.1 0.12 0.5-0.08 1.34 0.96 1.31 1.45-0.03 0.63-0.98 0.66-1.45 0.04-0.64 1.17-1 1.62-0.41 0.54 0.71-0.77 0.94-0.73 1.57 0.03 0.51 0.68 0.42 1.15 0.25 1.14-0.4 0.5-1.52 1.17-1.93 0.28-0.17 0.96-0.1 1.22 0.05z"/>
					<path id="&lt;Compound Path&gt;" fill-rule="evenodd" class="s1" d="m105.68 329.72q-0.09 0-0.19-0.01c-0.3-0.05-0.54-0.18-0.77-0.32q-0.27-0.16-0.56-0.25c-0.11-0.03-0.37-0.06-0.63-0.1-1.12-0.15-1.55-0.24-1.69-0.58-0.13-0.32-0.01-0.69 0.29-0.91l0.09-0.06 0.09-0.02q0.36-0.04 0.77-0.03c0.46-0.01 1.09-0.01 1.24-0.22 0.13-0.17 0.26-0.87 0.23-1.13-0.08-0.99-1.81-0.94-3.56-0.81q-0.37 0.03-0.68 0.05-0.37 0.01-0.74-0.01-0.42-0.02-0.77 0c-0.29 0.03-0.65 0.17-0.99 0.31-0.42 0.17-0.85 0.34-1.26 0.34q0 0-0.01 0c-0.65 0-0.92-0.39-0.94-0.75-0.05-0.63 0.58-1.35 1.26-1.45q0.17-0.02 0.41-0.02 0 0 0 0c-0.26-0.15-0.75-0.49-0.44-1.17 0.21-0.45 0.68-0.69 1.25-0.64 0.55 0.05 1 0.38 1.1 0.81q0.05 0.2 0.06 0.41c0.04 0.5 0.07 0.62 0.49 0.59 0.4-0.01 0.49-0.09 0.49-0.09 0.02-0.06-0.06-0.28-0.09-0.4-0.07-0.19-0.13-0.39-0.12-0.59 0.03-0.45 0.38-0.85 0.91-1.01 0.56-0.17 1.12-0.02 1.43 0.39 0.54 0.7-0.06 1.21-0.35 1.45-0.12 0.1-0.31 0.26-0.31 0.34 0.03 0.01 0.26 0.03 0.63-0.1 0.4-0.15 0.45-0.37 0.52-0.81 0.06-0.36 0.13-0.81 0.57-1.09 0.44-0.27 1.28-0.16 1.63 0.05q0.46 0.27 0.53 0.71 0.06 0.41-0.25 0.75c-0.2 0.21-0.5 0.3-0.79 0.38q-0.14 0.04-0.3 0.1c0.15-0.01 0.33-0.03 0.44-0.04q0.25-0.03 0.42-0.04 0.74 0.01 1.14 0.42c0.44 0.47 0.4 1.16 0.37 1.71q-0.01 0.24-0.01 0.42 0.02 0.36 0.07 0.75c0.07 0.64 0.14 1.3 0.02 1.93-0.08 0.44-0.5 0.74-1 0.74zm-2.21-1.49q0.09 0.01 0.17 0.02 0.47 0.06 0.72 0.12c0.3 0.08 0.54 0.21 0.75 0.33q0.27 0.17 0.5 0.22c0.18 0.02 0.28-0.06 0.29-0.09 0.09-0.51 0.03-1.11-0.03-1.7q-0.05-0.41-0.08-0.79 0-0.22 0.02-0.5c0.02-0.4 0.04-0.9-0.16-1.12q-0.16-0.17-0.57-0.17 0 0 0 0-0.13 0-0.32 0.03-0.3 0.04-0.61 0.04c0.66 0.22 1.13 0.64 1.2 1.4 0.03 0.35-0.1 1.27-0.38 1.67-0.32 0.44-0.91 0.52-1.5 0.54zm-7.07-3.06q0.04 0.01 0.15 0.01c0.25 0 0.61-0.15 0.96-0.29 0.4-0.16 0.81-0.33 1.22-0.36q0.29-0.03 0.6-0.02c-0.79-0.17-0.85-0.9-0.89-1.28q-0.01-0.17-0.03-0.3c-0.02-0.06-0.17-0.17-0.4-0.2-0.06 0-0.36-0.02-0.45 0.18q-0.02 0.04-0.03 0.06c0.04 0.03 0.13 0.08 0.18 0.11 0.17 0.1 0.37 0.22 0.52 0.42 0.22 0.3 0.18 0.53 0.11 0.67-0.18 0.36-0.64 0.37-1.06 0.38q-0.18 0-0.3 0.01c-0.17 0.02-0.36 0.16-0.48 0.35-0.09 0.13-0.11 0.23-0.11 0.26q0 0 0.01 0zm3.62-0.63q0.13 0 0.25-0.01 0.3-0.02 0.66-0.04 0.13-0.01 0.27-0.02-0.22-0.17-0.28-0.43-0.02 0.04-0.05 0.08c-0.2 0.28-0.54 0.38-0.85 0.42zm2.74-0.12q0.42 0.01 0.8 0.07-0.05-0.04-0.1-0.08-0.16-0.15-0.2-0.37-0.17 0.22-0.5 0.38zm-1.39-2.03q-0.12 0-0.22 0.04c-0.19 0.05-0.34 0.18-0.34 0.29-0.01 0.05 0.04 0.2 0.07 0.29q0.07 0.2 0.12 0.43c0.12-0.23 0.32-0.41 0.49-0.55 0.09-0.08 0.26-0.22 0.27-0.28q0.01 0-0.04-0.07-0.14-0.16-0.35-0.15zm2.73 0.09q-0.19 0-0.27 0.04c-0.12 0.07-0.15 0.21-0.2 0.53q-0.01 0.1-0.03 0.21c0.21-0.15 0.49-0.23 0.71-0.29 0.14-0.05 0.37-0.11 0.43-0.17q0.05-0.06 0.04-0.08 0.01-0.04-0.14-0.15c-0.11-0.06-0.35-0.09-0.54-0.09z"/>
				</g>
				<g id="&lt;Group&gt;">
					<path id="&lt;Path&gt;" class="s1" d="m85.49 300.64c0.27 0.14 0.34 0.66 0.2 0.93-0.15-0.01-0.32 0.08-0.47 0.08-0.76-0.01-1.31-0.24-2.1 0-0.88 0.26-1.33 0.91-1.31 1.84 0.08 3.77-0.05 7.55 0 11.32 0 0.26 0.17 0.59-0.06 0.83-0.45 0.48-0.78-0.23-0.83-0.64-0.13-1.16-0.06-3.03-0.07-4.26 0-1.61 0.14-3.19 0.2-4.79 0.05-1.42-0.33-3.86 0.9-4.85 0.97-0.78 2.19-0.77 3.39-0.54 0.08 0.02 0.1 0.05 0.15 0.08z"/>
					<path id="&lt;Compound Path&gt;" fill-rule="evenodd" class="s1" d="m81.46 316.6q-0.23-0.01-0.35-0.06c-0.67-0.22-0.93-1.02-0.98-1.45-0.1-0.9-0.09-2.16-0.08-3.27q0.01-0.59 0.01-1.08c-0.01-1.05 0.05-2.09 0.11-3.1q0.05-0.85 0.08-1.72 0.01-0.41 0-0.94c-0.04-1.54-0.08-3.47 1.2-4.5 1.33-1.07 2.94-0.91 4.04-0.7q0.28 0.07 0.41 0.17c0.66 0.38 0.82 1.34 0.51 1.97l-0.23 0.48-0.5-0.03q-0.03 0.01-0.05 0.02-0.16 0.04-0.4 0.05-0.01 0-0.01 0-0.46-0.01-0.81-0.06c-0.41-0.04-0.7-0.08-1.06 0.03-0.53 0.16-0.75 0.48-0.74 1.07 0.04 2 0.02 4.03 0 5.99-0.01 1.75-0.03 3.56 0 5.33q0 0.05 0.02 0.1c0.04 0.27 0.14 0.82-0.3 1.29-0.31 0.33-0.63 0.41-0.87 0.41zm4.4-16.67zm0 0q0 0 0 0z"/>
				</g>
				<g id="&lt;Group&gt;">
					<path id="&lt;Path&gt;" class="s1" d="m102.26 300.63c0.07 0.03 0.48 0.29 0.56 0.37 0.22 0.21 0.35 0.54-0.06 0.59-1.21 0.14-2.71-0.12-3.96 0-2.69-0.35-5.69 0.27-8.35-0.07-0.12-0.01-0.06-0.12-0.18-0.14-0.33-0.04-1.01 0.09-1.27 0-0.23-0.08-0.36-0.66-0.18-0.87 0.14-0.15 0.95-0.1 1.19-0.09 3.22 0.09 6.47 0.03 9.69 0.13 0.63 0.02 2.05-0.11 2.56 0.08z"/>
					<path id="&lt;Path&gt;" class="s1" d="m101.89 302.43q-0.6-0.01-1.2-0.04c-0.65-0.03-1.26-0.06-1.81-0.01l-0.09 0.01-0.09-0.01c-1.28-0.17-2.7-0.1-4.07-0.03-1.42 0.07-2.89 0.14-4.28-0.04q-0.16-0.01-0.39-0.13-0.11 0-0.2 0.01c-0.37 0.02-0.72 0.05-1.02-0.06-0.35-0.12-0.62-0.44-0.74-0.88-0.13-0.48-0.05-0.96 0.22-1.26 0.35-0.4 0.91-0.4 1.74-0.37h0.07c1.61 0.05 3.26 0.06 4.85 0.06 1.59 0.01 3.23 0.02 4.84 0.07q0.28 0 0.68-0.01c0.96-0.03 1.67-0.03 2.14 0.15 0.18 0.06 0.69 0.4 0.84 0.54 0.39 0.38 0.53 0.85 0.39 1.27-0.06 0.17-0.27 0.6-0.91 0.68q-0.47 0.05-0.97 0.05z"/>
				</g>
				<g id="&lt;Group&gt;">
					<path id="&lt;Path&gt;" class="s1" d="m106.34 304.39c0.02 0 0.16 0.14 0.31 0.14 0.02 0.51-0.79 1.24-1.48 1.32-0.74 0.08-1.69-0.29-2.44-0.42q-1.01-0.17-1.94-0.35c-0.75-0.15-1.5-0.12-2.07 0.28-0.55 0.39-0.46 1.4-0.76 1.92-0.28-0.02-0.81 0.05-1.01-0.1-0.26-0.2-0.25-1.31-0.55-1.68-0.21-0.25-1.27-0.6-1.31-0.72 0.06-0.16 0.16-0.51 0.34-0.58 0.15-0.05 1.49-0.21 1.74-0.23 1.84-0.1 4.07 0.18 5.95 0.27 0.97 0.04 2.31-0.1 3.22 0.15z"/>
					<path id="&lt;Compound Path&gt;" fill-rule="evenodd" class="s1" d="m98.18 307.69l-0.25-0.02q-0.11 0-0.25 0c-0.34 0.01-0.72 0.02-0.98-0.18-0.24-0.18-0.31-0.54-0.4-0.99-0.05-0.25-0.12-0.63-0.21-0.74-0.07-0.08-0.45-0.25-0.65-0.34-0.46-0.21-0.67-0.3-0.73-0.54l-0.03-0.13 0.07-0.2c0.08-0.22 0.21-0.6 0.55-0.72 0.22-0.08 1.65-0.24 1.84-0.26 1.28-0.07 2.7 0.04 4.09 0.14q1 0.08 1.91 0.13 0.45 0.01 0.98 0c0.81-0.01 1.65-0.02 2.33 0.16l0.07 0.03 0.09 0.06q0.03 0.02 0.07 0.04h0.39l-0.02 0.38c0.03 0.78-1.01 1.64-1.84 1.73-0.57 0.07-1.21-0.09-1.82-0.25q-0.39-0.11-0.73-0.17-0.33-0.06-0.65-0.11-0.67-0.11-1.3-0.24c-0.51-0.1-1.23-0.15-1.76 0.22-0.21 0.14-0.29 0.53-0.37 0.91-0.06 0.3-0.13 0.62-0.27 0.88zm-0.98-0.83c0.09 0.02 0.32 0.01 0.45 0.01q0.02 0 0.04 0 0.06-0.21 0.11-0.44c0.1-0.51 0.22-1.08 0.69-1.4 0.6-0.42 1.42-0.54 2.38-0.35q0.61 0.12 1.27 0.23 0.33 0.06 0.66 0.12 0.37 0.07 0.78 0.18c0.54 0.14 1.11 0.28 1.54 0.23 0.42-0.05 0.86-0.42 1.04-0.69-0.56-0.14-1.31-0.13-2.03-0.12q-0.55 0.01-1.03 0-0.92-0.05-1.94-0.13c-1.35-0.1-2.76-0.2-3.98-0.14-0.23 0.02-1.3 0.15-1.58 0.2q-0.01 0.02-0.02 0.04 0.1 0.05 0.19 0.09c0.46 0.21 0.77 0.36 0.93 0.55 0.22 0.27 0.3 0.69 0.38 1.1 0.03 0.17 0.08 0.41 0.12 0.52z"/>
				</g>
				<g id="&lt;Group&gt;">
					<path id="&lt;Path&gt;" class="s1" d="m105.7 321.53c-0.03 0.01-0.01 0.09-0.17 0.1-0.56 0.05-1.28-0.03-1.87 0-0.5 0.02-1.11 0.12-1.6 0.13-0.71 0.01-1.41-0.11-2.13-0.07-1.18 0.08-2.29 0.51-3.64 0.39-1.27-0.12-0.4-1.12 0.28-1.22 0.71-0.09 2.29 0.46 3.08 0.42 0.37-0.01 1.22-0.31 1.65-0.4 0.77-0.16 1.63-0.17 2.39-0.33 0.91-0.2 0.51-0.37 0.74-0.92 0.91-0.16 2.35 0.93 1.99 1.54-0.11 0.19-0.5 0.28-0.72 0.36z"/>
					<path id="&lt;Compound Path&gt;" fill-rule="evenodd" class="s1" d="m96.78 322.5q-0.26 0-0.53-0.03c-0.9-0.08-1-0.57-1.01-0.78-0.01-0.58 0.69-1.14 1.28-1.22 0.44-0.06 1.06 0.07 1.72 0.21 0.52 0.11 1.07 0.22 1.39 0.21 0.18-0.01 0.6-0.13 0.94-0.23q0.38-0.11 0.65-0.17 0.61-0.11 1.22-0.17 0.62-0.05 1.16-0.16 0.28-0.06 0.34-0.1 0-0.01 0-0.04c0.01-0.12 0.02-0.31 0.12-0.54l0.09-0.2 0.21-0.04c0.82-0.15 1.83 0.43 2.28 1.06 0.35 0.51 0.23 0.89 0.12 1.08-0.17 0.28-0.53 0.4-0.83 0.49-0.11 0.11-0.25 0.15-0.36 0.16-0.33 0.03-0.71 0.02-1.07 0q-0.44-0.02-0.82-0.01-0.34 0.02-0.71 0.07-0.46 0.05-0.9 0.07-0.5 0-0.99-0.04-0.58-0.05-1.13-0.03-0.63 0.05-1.28 0.19c-0.6 0.1-1.21 0.22-1.89 0.22zm-0.72-0.87q0.06 0.03 0.26 0.05c0.73 0.06 1.4-0.04 2.05-0.16q-0.15-0.03-0.29-0.06c-0.54-0.11-1.15-0.24-1.46-0.2-0.23 0.03-0.48 0.24-0.56 0.37zm5.1-0.3q0.46 0.04 0.9 0.03c0.24 0 0.54-0.03 0.82-0.07q0.4-0.04 0.76-0.06 0.43-0.02 0.88 0.01 0.46 0.02 0.86 0l0.01-0.01 0.29-0.12c0.11-0.03 0.34-0.1 0.41-0.16q0-0.01-0.11-0.19c-0.23-0.34-0.79-0.69-1.24-0.74q0 0.03 0 0.06c-0.04 0.5-0.27 0.71-0.97 0.86q-0.61 0.12-1.25 0.18-0.58 0.05-1.14 0.15-0.1 0.02-0.22 0.06zm4.93-0.38q0 0 0 0 0 0 0 0z"/>
				</g>
				<g id="&lt;Group&gt;">
					<path id="&lt;Path&gt;" class="s1" d="m95.32 329.67c0.04 0.01 0.58 0.34 0.65 0.4 0.38 0.3 0.49 0.55 0.43 0.96-0.05 0.38-0.52 1.79-0.71 2.13-0.56 1.03-1.46 0.8-2.55 0.36-0.05-0.06-0.03-0.21-0.01-0.28 0.17-0.72 2.2-1.1 2.04-2.27-0.03-0.22-0.66-1.58 0.15-1.3z"/>
					<path id="&lt;Compound Path&gt;" fill-rule="evenodd" class="s1" d="m94.55 334.29c-0.56 0-1.13-0.23-1.56-0.4l-0.09-0.04-0.07-0.07c-0.16-0.2-0.13-0.48-0.09-0.63 0.11-0.46 0.56-0.74 1.05-1.04 0.63-0.39 1.04-0.68 0.98-1.08q-0.01-0.05-0.05-0.17c-0.16-0.47-0.37-1.11-0.02-1.46 0.12-0.12 0.36-0.25 0.75-0.11 0.13 0.04 0.74 0.44 0.76 0.46 0.5 0.39 0.67 0.77 0.59 1.33-0.06 0.43-0.55 1.89-0.76 2.28-0.39 0.71-0.93 0.93-1.49 0.93zm-0.99-1.04c1.05 0.39 1.46 0.31 1.78-0.28 0.17-0.3 0.62-1.66 0.67-1.99 0.03-0.24 0.01-0.37-0.29-0.6-0.04-0.03-0.23-0.15-0.38-0.25 0.04 0.18 0.1 0.39 0.14 0.48q0.07 0.2 0.08 0.31c0.13 0.94-0.73 1.48-1.35 1.87-0.22 0.13-0.53 0.32-0.65 0.46z"/>
				</g>
				<g id="&lt;Group&gt;">
					<path id="&lt;Path&gt;" class="s1" d="m103.68 325.98c0.17 0.13 0.16 0.47-0.06 0.59-0.46 0.26-2.89-0.07-3.69-0.03-0.83 0.05-1.47 0.4-2.23 0.4-0.19 0-0.68-0.04-0.75-0.18-0.13-0.29 0.47-0.82 0.85-0.86 0.37-0.03 0.78 0.03 1.15 0 1.56-0.13 2.55-0.25 4.17-0.06 0.11 0.01 0.51 0.09 0.56 0.14z"/>
					<path id="&lt;Compound Path&gt;" fill-rule="evenodd" class="s1" d="m97.7 327.34q-0.92-0.01-1.11-0.42c-0.05-0.11-0.11-0.35 0.07-0.66 0.19-0.33 0.67-0.71 1.1-0.76q0.32-0.02 0.64 0 0.28 0.01 0.51 0l0.44-0.04c1.34-0.11 2.31-0.19 3.82-0.02 0 0 0.59 0.07 0.77 0.23 0.18 0.16 0.28 0.4 0.25 0.66-0.02 0.25-0.16 0.47-0.38 0.59-0.35 0.2-1.08 0.17-2.55 0.08-0.54-0.04-1.04-0.07-1.31-0.06-0.36 0.02-0.68 0.1-1.02 0.19-0.39 0.1-0.78 0.2-1.23 0.21zm-0.24-0.82c0.41 0.05 0.83-0.05 1.27-0.16q0.13-0.03 0.27-0.07h-0.02q-0.31 0.02-0.6 0.01-0.3-0.02-0.55 0c-0.09 0.01-0.26 0.12-0.37 0.22zm3.23-0.36q0.29 0.02 0.62 0.04c0.59 0.04 1.49 0.1 1.92 0.06q-0.1-0.02-0.15-0.03c-0.93-0.1-1.65-0.11-2.39-0.07z"/>
				</g>
				<g id="&lt;Group&gt;">
					<path id="&lt;Path&gt;" class="s1" d="m103.12 308.85c-0.5 0.22-0.71 0.49-1.3 0.69-0.07 0.03-0.07 0.11-0.13 0.12-0.13 0.02-0.55 0.02-0.68 0-0.06-0.01-0.07-0.1-0.13-0.12-0.28-0.08-0.76-0.03-0.34-0.4 0.34-0.3 1.2-0.65 1.48-0.93 0.31-0.32 0.63-1.25 1.01-1.46 0.63-0.34 1.55 0.92 1.48 1.33-0.07 0.5-0.91 0.56-1.39 0.77z"/>
					<path id="&lt;Compound Path&gt;" fill-rule="evenodd" class="s1" d="m101.35 310.08c-0.16 0-0.32-0.01-0.4-0.02q-0.2-0.05-0.28-0.16-0.03 0-0.07-0.01c-0.19-0.03-0.51-0.08-0.61-0.39-0.09-0.33 0.19-0.57 0.29-0.66 0.2-0.17 0.49-0.33 0.8-0.5 0.24-0.14 0.55-0.3 0.65-0.41 0.1-0.09 0.22-0.33 0.34-0.53 0.22-0.41 0.44-0.82 0.77-1 0.2-0.1 0.6-0.22 1.13 0.15 0.5 0.36 1.01 1.11 0.94 1.59-0.1 0.62-0.75 0.81-1.23 0.94q-0.23 0.07-0.4 0.14-0.28 0.12-0.49 0.27c-0.2 0.13-0.42 0.27-0.75 0.39-0.05 0.07-0.14 0.15-0.29 0.18-0.09 0.01-0.24 0.02-0.4 0.02zm-0.16-0.8q0.16 0 0.32 0 0.06-0.07 0.18-0.12c0.28-0.09 0.46-0.21 0.66-0.34 0.18-0.11 0.36-0.23 0.61-0.34q0.24-0.09 0.5-0.16c0.21-0.06 0.64-0.19 0.66-0.3-0.01-0.12-0.32-0.66-0.69-0.87-0.04-0.02-0.15-0.08-0.21-0.05-0.12 0.07-0.33 0.45-0.45 0.68-0.15 0.27-0.3 0.53-0.47 0.71-0.18 0.19-0.5 0.36-0.84 0.55q-0.17 0.09-0.33 0.18 0.04 0.03 0.06 0.06zm-0.43 0.64q0 0 0.01 0 0 0-0.01 0zm0.86-0.65q0 0 0 0 0 0 0 0zm-0.55 0q0.01 0 0.01 0 0 0-0.01 0z"/>
				</g>
				<g id="&lt;Group&gt;">
					<path id="&lt;Path&gt;" class="s1" d="m93.55 309.65c-0.32 0.13-0.4-0.07-0.5-0.11-0.73-0.26-1.6-0.81-2.18-0.99-0.31-0.09-0.87-0.05-0.95-0.34-0.14-0.51 0.63-0.63 0.93-1 0.42-0.26 0.89-0.56 1.43-0.26 0.45 0.24 0.31 1.04 0.54 1.42 0.13 0.21 0.96 0.77 1 0.89 0.06 0.06-0.24 0.38-0.27 0.39z"/>
					<path id="&lt;Compound Path&gt;" fill-rule="evenodd" class="s1" d="m93.36 310.09c-0.25 0-0.41-0.13-0.49-0.19-0.36-0.13-0.75-0.33-1.12-0.51-0.38-0.19-0.73-0.38-1-0.45q-0.11-0.04-0.26-0.05c-0.33-0.05-0.83-0.12-0.95-0.58-0.17-0.61 0.35-0.92 0.65-1.1 0.14-0.09 0.28-0.17 0.34-0.25l0.05-0.06 0.06-0.04c0.48-0.29 1.1-0.66 1.83-0.26 0.45 0.24 0.53 0.76 0.59 1.13 0.02 0.17 0.05 0.35 0.1 0.43 0.05 0.07 0.33 0.29 0.49 0.41 0.28 0.23 0.42 0.34 0.5 0.45l0.11 0.12-0.04 0.24c-0.05 0.23-0.37 0.58-0.52 0.64q-0.19 0.08-0.34 0.07zm-3.01-2.03q0.13 0.02 0.25 0.04 0.2 0.02 0.39 0.07c0.32 0.1 0.71 0.3 1.12 0.5q0.48 0.26 0.94 0.45-0.44-0.34-0.57-0.55c-0.13-0.21-0.17-0.47-0.21-0.71-0.04-0.23-0.08-0.51-0.18-0.56-0.31-0.17-0.58-0.03-0.98 0.21-0.15 0.17-0.34 0.28-0.51 0.38-0.07 0.05-0.18 0.11-0.25 0.17z"/>
				</g>
				<g id="&lt;Group&gt;">
					<path id="&lt;Path&gt;" class="s1" d="m90.61 304.38c0.31 0.11 0.5 0.16 0.96 0.12 0.17-0.02 0.12-0.12 0.19-0.14 0.1-0.01 0.86-0.01 0.9 0.01 0.62 1.06-1.32 1.17-2.27 1.46-0.12 0.04-0.12 0.13-0.18 0.15-0.19 0.06-1.16 0.34-1.27 0.29-0.61-0.74 0.44-1.36 1-1.89 0.09-0.04 0.55-0.03 0.67 0z"/>
					<path id="&lt;Compound Path&gt;" fill-rule="evenodd" class="s1" d="m88.97 306.67q-0.11 0-0.19-0.03l-0.09-0.04-0.06-0.07c-0.75-0.92 0.17-1.7 0.73-2.17q0.16-0.14 0.3-0.27l0.06-0.05 0.06-0.03c0.22-0.09 0.79-0.06 0.95-0.01 0.26 0.09 0.38 0.13 0.71 0.11q0.13-0.13 0.25-0.14c0.03 0 0.94-0.05 1.14 0.04l0.12 0.05 0.06 0.11c0.24 0.41 0.18 0.73 0.1 0.92-0.26 0.59-1.11 0.78-1.94 0.96q-0.34 0.07-0.61 0.15-0.06 0.09-0.23 0.16c-0.46 0.15-1.03 0.31-1.36 0.31zm1.15-1.92q-0.12 0.11-0.25 0.22c-0.55 0.47-0.73 0.7-0.71 0.88 0.24-0.05 0.62-0.16 0.83-0.22q0.08-0.11 0.28-0.18 0.33-0.1 0.73-0.18c0.45-0.1 1.28-0.28 1.38-0.5q0-0.01 0-0.02c-0.14 0-0.31 0-0.43 0q-0.14 0.13-0.34 0.14c-0.53 0.05-0.77-0.01-1.12-0.12-0.07-0.02-0.26-0.02-0.37-0.02zm-0.03 0.85q0 0 0 0 0 0 0 0z"/>
				</g>
				<g id="&lt;Group&gt;">
					<path id="&lt;Path&gt;" class="s1" d="m89.19 328.89l0.07 0.37c-0.48 0.66-1.55 2.28-2.77 2.25-0.95-0.02-0.59-1.31-0.09-1.61 0.21-0.12 0.3-0.09 0.46-0.15q0.75-0.29 1.48-0.69c0.26-0.14 0.34-0.4 0.85-0.17z"/>
					<path id="&lt;Compound Path&gt;" fill-rule="evenodd" class="s1" d="m86.52 331.91q-0.02 0-0.04 0c-0.48-0.01-0.83-0.27-0.94-0.69-0.16-0.57 0.16-1.36 0.65-1.66 0.19-0.12 0.33-0.14 0.44-0.16q0.04 0 0.09-0.02 0.67-0.26 1.43-0.67 0.06-0.03 0.11-0.08c0.24-0.18 0.54-0.36 1.09-0.11l0.19 0.09 0.15 0.74-0.22 0.3c-0.57 0.79-1.63 2.26-2.95 2.26zm2.27-2.67q-0.02 0.01-0.04 0.02-0.1 0.08-0.22 0.16-0.81 0.43-1.52 0.7-0.13 0.05-0.24 0.07c-0.07 0.01-0.1 0.01-0.16 0.05-0.18 0.11-0.37 0.53-0.3 0.77 0.01 0.05 0.02 0.1 0.19 0.1q0.01 0.01 0.02 0.01c0.89 0 1.8-1.24 2.27-1.88z"/>
				</g>
				<g id="&lt;Group&gt;">
					<path id="&lt;Path&gt;" class="s1" d="m97.69 328.96c-0.02 0.01-0.04 0.09-0.15 0.11-0.38 0.1-1.41 0.36-1.67 0.08-0.27-0.3 0.54-1.03 0.9-1.15 0.58-0.2 2.24-0.09 2.98-0.1 0.42 0 0.93-0.21 1.27 0.1-0.26 0.8-1.41 0.63-2.31 0.76q-0.52 0.08-1.02 0.2z"/>
					<path id="&lt;Compound Path&gt;" fill-rule="evenodd" class="s1" d="m96.32 329.68q-0.49 0.01-0.74-0.26-0.22-0.25-0.14-0.6c0.12-0.5 0.8-1.06 1.2-1.2 0.45-0.16 1.31-0.15 2.37-0.13q0.44 0.02 0.74 0.01 0.15 0 0.31-0.03c0.36-0.05 0.84-0.11 1.23 0.23l0.19 0.17-0.08 0.25c-0.28 0.88-1.24 0.93-2.01 0.98q-0.32 0.02-0.63 0.06c-0.27 0.03-0.53 0.08-0.86 0.16q-0.09 0.09-0.27 0.14l-0.05 0.01q-0.75 0.2-1.26 0.21zm1.79-1.4c-0.5 0-0.99 0.02-1.21 0.09-0.17 0.06-0.48 0.33-0.62 0.52 0.15 0 0.48-0.03 1.11-0.19q0.05-0.08 0.2-0.13h0.01q0.44-0.11 1.05-0.2 0.34-0.05 0.69-0.06 0.04-0.01 0.08-0.01-0.2 0-0.43-0.01-0.4-0.01-0.88-0.01z"/>
				</g>
				<g id="&lt;Group&gt;">
					<path id="&lt;Path&gt;" class="s1" d="m107.15 330.86c-0.12 0.1-0.54 0.2-0.71 0.28-0.06 0.02-0.06 0.1-0.18 0.14-0.63 0.24-2.37 0.78-1.58-0.25 0.29-0.37 0.9-1.08 1.25-1.42 0.17-0.16 0.46-0.32 0.75-0.29 0.43 0.05 0.82 1.23 0.47 1.54z"/>
					<path id="&lt;Compound Path&gt;" fill-rule="evenodd" class="s1" d="m104.81 332.04c-0.44 0-0.56-0.17-0.62-0.26q-0.29-0.39 0.18-0.99c0.28-0.37 0.91-1.1 1.29-1.46 0.23-0.23 0.64-0.45 1.07-0.41 0.54 0.07 0.8 0.76 0.86 0.97 0.17 0.55 0.1 1.02-0.18 1.27-0.13 0.11-0.31 0.17-0.59 0.26q-0.09 0.03-0.16 0.06-0.07 0.09-0.26 0.18c-0.77 0.28-1.27 0.38-1.59 0.38zm1.8-2.33c-0.14 0-0.3 0.1-0.4 0.19-0.32 0.31-0.87 0.95-1.16 1.32 0.25-0.05 0.62-0.15 1.03-0.3q0.06-0.08 0.2-0.15 0.11-0.05 0.3-0.1c0.08-0.03 0.23-0.08 0.3-0.11 0.06-0.18-0.11-0.73-0.27-0.85q0 0 0 0zm-0.01 1.79q0 0 0 0 0 0 0 0zm-0.48-0.59q0 0 0 0 0 0 0 0z"/>
				</g>
				<g id="&lt;Group&gt;">
					<path id="&lt;Path&gt;" class="s1" d="m86.83 300.72c0.11-0.1 0.06-0.14 0.26-0.22 0.3-0.11 0.84-0.18 1.03 0.15 0.47 0.84-1.35 1-1.52 0.37-0.05-0.19 0.13-0.21 0.23-0.3z"/>
					<path id="&lt;Path&gt;" class="s1" d="m87.38 302.2q-0.21 0-0.41-0.03c-0.58-0.11-1.01-0.47-1.14-0.95-0.05-0.21-0.12-0.73 0.46-1.1 0.13-0.17 0.28-0.28 0.51-0.36 0.69-0.27 1.61-0.22 2.01 0.5 0.25 0.45 0.24 0.94-0.03 1.33-0.32 0.44-0.88 0.61-1.4 0.61z"/>
				</g>
			</g>
		</g>
	</g>
</svg>